G75*
%MOIN*%
%OFA0B0*%
%FSLAX25Y25*%
%IPPOS*%
%LPD*%
%AMOC8*
5,1,8,0,0,1.08239X$1,22.5*
%
%ADD10C,0.00000*%
%ADD11C,0.05906*%
%ADD12R,0.04134X0.04252*%
%ADD13R,0.04252X0.04134*%
%ADD14R,0.05118X0.06299*%
%ADD15R,0.03937X0.04331*%
%ADD16R,0.04803X0.03583*%
%ADD17R,0.04331X0.03937*%
%ADD18R,0.05512X0.03937*%
%ADD19C,0.10000*%
%ADD20OC8,0.05150*%
%ADD21R,0.03150X0.04882*%
%ADD22R,0.04528X0.09843*%
%ADD23R,0.04528X0.08661*%
%ADD24R,0.05906X0.04528*%
%ADD25R,0.04567X0.04724*%
%ADD26R,0.04567X0.04921*%
%ADD27R,0.04409X0.08661*%
%ADD28R,0.08000X0.04500*%
%ADD29R,0.08661X0.14567*%
%ADD30R,0.06299X0.05118*%
%ADD31R,0.05512X0.07480*%
%ADD32R,0.04600X0.01600*%
%ADD33C,0.06378*%
%ADD34C,0.01600*%
%ADD35C,0.02978*%
%ADD36C,0.00800*%
%ADD37C,0.01000*%
%ADD38C,0.02600*%
%ADD39C,0.05000*%
%ADD40C,0.01400*%
%ADD41C,0.16205*%
D10*
X0043720Y0026800D02*
X0043720Y0250501D01*
X0293641Y0250501D01*
X0293641Y0026800D01*
X0043720Y0026800D01*
X0074468Y0031564D02*
X0074470Y0031655D01*
X0074476Y0031746D01*
X0074486Y0031837D01*
X0074500Y0031927D01*
X0074517Y0032017D01*
X0074539Y0032105D01*
X0074564Y0032193D01*
X0074593Y0032280D01*
X0074626Y0032365D01*
X0074663Y0032448D01*
X0074703Y0032530D01*
X0074746Y0032610D01*
X0074793Y0032689D01*
X0074844Y0032765D01*
X0074897Y0032838D01*
X0074954Y0032910D01*
X0075014Y0032979D01*
X0075077Y0033045D01*
X0075142Y0033109D01*
X0075211Y0033169D01*
X0075281Y0033227D01*
X0075355Y0033281D01*
X0075430Y0033332D01*
X0075508Y0033380D01*
X0075588Y0033425D01*
X0075669Y0033466D01*
X0075752Y0033503D01*
X0075837Y0033537D01*
X0075923Y0033567D01*
X0076011Y0033593D01*
X0076099Y0033616D01*
X0076188Y0033634D01*
X0076278Y0033649D01*
X0076369Y0033660D01*
X0076460Y0033667D01*
X0076551Y0033670D01*
X0076642Y0033669D01*
X0076734Y0033664D01*
X0076824Y0033655D01*
X0076915Y0033642D01*
X0077004Y0033626D01*
X0077093Y0033605D01*
X0077181Y0033581D01*
X0077268Y0033552D01*
X0077354Y0033520D01*
X0077438Y0033485D01*
X0077520Y0033446D01*
X0077601Y0033403D01*
X0077679Y0033357D01*
X0077756Y0033307D01*
X0077830Y0033254D01*
X0077902Y0033198D01*
X0077972Y0033139D01*
X0078039Y0033077D01*
X0078103Y0033012D01*
X0078164Y0032945D01*
X0078223Y0032875D01*
X0078278Y0032802D01*
X0078330Y0032727D01*
X0078379Y0032650D01*
X0078424Y0032571D01*
X0078466Y0032489D01*
X0078504Y0032407D01*
X0078539Y0032322D01*
X0078570Y0032236D01*
X0078597Y0032149D01*
X0078620Y0032061D01*
X0078640Y0031972D01*
X0078656Y0031882D01*
X0078668Y0031792D01*
X0078676Y0031701D01*
X0078680Y0031610D01*
X0078680Y0031518D01*
X0078676Y0031427D01*
X0078668Y0031336D01*
X0078656Y0031246D01*
X0078640Y0031156D01*
X0078620Y0031067D01*
X0078597Y0030979D01*
X0078570Y0030892D01*
X0078539Y0030806D01*
X0078504Y0030721D01*
X0078466Y0030639D01*
X0078424Y0030557D01*
X0078379Y0030478D01*
X0078330Y0030401D01*
X0078278Y0030326D01*
X0078223Y0030253D01*
X0078164Y0030183D01*
X0078103Y0030116D01*
X0078039Y0030051D01*
X0077972Y0029989D01*
X0077902Y0029930D01*
X0077830Y0029874D01*
X0077756Y0029821D01*
X0077679Y0029771D01*
X0077601Y0029725D01*
X0077520Y0029682D01*
X0077438Y0029643D01*
X0077354Y0029608D01*
X0077268Y0029576D01*
X0077181Y0029547D01*
X0077093Y0029523D01*
X0077004Y0029502D01*
X0076915Y0029486D01*
X0076824Y0029473D01*
X0076734Y0029464D01*
X0076642Y0029459D01*
X0076551Y0029458D01*
X0076460Y0029461D01*
X0076369Y0029468D01*
X0076278Y0029479D01*
X0076188Y0029494D01*
X0076099Y0029512D01*
X0076011Y0029535D01*
X0075923Y0029561D01*
X0075837Y0029591D01*
X0075752Y0029625D01*
X0075669Y0029662D01*
X0075588Y0029703D01*
X0075508Y0029748D01*
X0075430Y0029796D01*
X0075355Y0029847D01*
X0075281Y0029901D01*
X0075211Y0029959D01*
X0075142Y0030019D01*
X0075077Y0030083D01*
X0075014Y0030149D01*
X0074954Y0030218D01*
X0074897Y0030290D01*
X0074844Y0030363D01*
X0074793Y0030439D01*
X0074746Y0030518D01*
X0074703Y0030598D01*
X0074663Y0030680D01*
X0074626Y0030763D01*
X0074593Y0030848D01*
X0074564Y0030935D01*
X0074539Y0031023D01*
X0074517Y0031111D01*
X0074500Y0031201D01*
X0074486Y0031291D01*
X0074476Y0031382D01*
X0074470Y0031473D01*
X0074468Y0031564D01*
X0145334Y0031564D02*
X0145336Y0031655D01*
X0145342Y0031746D01*
X0145352Y0031837D01*
X0145366Y0031927D01*
X0145383Y0032017D01*
X0145405Y0032105D01*
X0145430Y0032193D01*
X0145459Y0032280D01*
X0145492Y0032365D01*
X0145529Y0032448D01*
X0145569Y0032530D01*
X0145612Y0032610D01*
X0145659Y0032689D01*
X0145710Y0032765D01*
X0145763Y0032838D01*
X0145820Y0032910D01*
X0145880Y0032979D01*
X0145943Y0033045D01*
X0146008Y0033109D01*
X0146077Y0033169D01*
X0146147Y0033227D01*
X0146221Y0033281D01*
X0146296Y0033332D01*
X0146374Y0033380D01*
X0146454Y0033425D01*
X0146535Y0033466D01*
X0146618Y0033503D01*
X0146703Y0033537D01*
X0146789Y0033567D01*
X0146877Y0033593D01*
X0146965Y0033616D01*
X0147054Y0033634D01*
X0147144Y0033649D01*
X0147235Y0033660D01*
X0147326Y0033667D01*
X0147417Y0033670D01*
X0147508Y0033669D01*
X0147600Y0033664D01*
X0147690Y0033655D01*
X0147781Y0033642D01*
X0147870Y0033626D01*
X0147959Y0033605D01*
X0148047Y0033581D01*
X0148134Y0033552D01*
X0148220Y0033520D01*
X0148304Y0033485D01*
X0148386Y0033446D01*
X0148467Y0033403D01*
X0148545Y0033357D01*
X0148622Y0033307D01*
X0148696Y0033254D01*
X0148768Y0033198D01*
X0148838Y0033139D01*
X0148905Y0033077D01*
X0148969Y0033012D01*
X0149030Y0032945D01*
X0149089Y0032875D01*
X0149144Y0032802D01*
X0149196Y0032727D01*
X0149245Y0032650D01*
X0149290Y0032571D01*
X0149332Y0032489D01*
X0149370Y0032407D01*
X0149405Y0032322D01*
X0149436Y0032236D01*
X0149463Y0032149D01*
X0149486Y0032061D01*
X0149506Y0031972D01*
X0149522Y0031882D01*
X0149534Y0031792D01*
X0149542Y0031701D01*
X0149546Y0031610D01*
X0149546Y0031518D01*
X0149542Y0031427D01*
X0149534Y0031336D01*
X0149522Y0031246D01*
X0149506Y0031156D01*
X0149486Y0031067D01*
X0149463Y0030979D01*
X0149436Y0030892D01*
X0149405Y0030806D01*
X0149370Y0030721D01*
X0149332Y0030639D01*
X0149290Y0030557D01*
X0149245Y0030478D01*
X0149196Y0030401D01*
X0149144Y0030326D01*
X0149089Y0030253D01*
X0149030Y0030183D01*
X0148969Y0030116D01*
X0148905Y0030051D01*
X0148838Y0029989D01*
X0148768Y0029930D01*
X0148696Y0029874D01*
X0148622Y0029821D01*
X0148545Y0029771D01*
X0148467Y0029725D01*
X0148386Y0029682D01*
X0148304Y0029643D01*
X0148220Y0029608D01*
X0148134Y0029576D01*
X0148047Y0029547D01*
X0147959Y0029523D01*
X0147870Y0029502D01*
X0147781Y0029486D01*
X0147690Y0029473D01*
X0147600Y0029464D01*
X0147508Y0029459D01*
X0147417Y0029458D01*
X0147326Y0029461D01*
X0147235Y0029468D01*
X0147144Y0029479D01*
X0147054Y0029494D01*
X0146965Y0029512D01*
X0146877Y0029535D01*
X0146789Y0029561D01*
X0146703Y0029591D01*
X0146618Y0029625D01*
X0146535Y0029662D01*
X0146454Y0029703D01*
X0146374Y0029748D01*
X0146296Y0029796D01*
X0146221Y0029847D01*
X0146147Y0029901D01*
X0146077Y0029959D01*
X0146008Y0030019D01*
X0145943Y0030083D01*
X0145880Y0030149D01*
X0145820Y0030218D01*
X0145763Y0030290D01*
X0145710Y0030363D01*
X0145659Y0030439D01*
X0145612Y0030518D01*
X0145569Y0030598D01*
X0145529Y0030680D01*
X0145492Y0030763D01*
X0145459Y0030848D01*
X0145430Y0030935D01*
X0145405Y0031023D01*
X0145383Y0031111D01*
X0145366Y0031201D01*
X0145352Y0031291D01*
X0145342Y0031382D01*
X0145336Y0031473D01*
X0145334Y0031564D01*
X0262102Y0033489D02*
X0262104Y0033580D01*
X0262110Y0033671D01*
X0262120Y0033762D01*
X0262134Y0033852D01*
X0262151Y0033942D01*
X0262173Y0034030D01*
X0262198Y0034118D01*
X0262227Y0034205D01*
X0262260Y0034290D01*
X0262297Y0034373D01*
X0262337Y0034455D01*
X0262380Y0034535D01*
X0262427Y0034614D01*
X0262478Y0034690D01*
X0262531Y0034763D01*
X0262588Y0034835D01*
X0262648Y0034904D01*
X0262711Y0034970D01*
X0262776Y0035034D01*
X0262845Y0035094D01*
X0262915Y0035152D01*
X0262989Y0035206D01*
X0263064Y0035257D01*
X0263142Y0035305D01*
X0263222Y0035350D01*
X0263303Y0035391D01*
X0263386Y0035428D01*
X0263471Y0035462D01*
X0263557Y0035492D01*
X0263645Y0035518D01*
X0263733Y0035541D01*
X0263822Y0035559D01*
X0263912Y0035574D01*
X0264003Y0035585D01*
X0264094Y0035592D01*
X0264185Y0035595D01*
X0264276Y0035594D01*
X0264368Y0035589D01*
X0264458Y0035580D01*
X0264549Y0035567D01*
X0264638Y0035551D01*
X0264727Y0035530D01*
X0264815Y0035506D01*
X0264902Y0035477D01*
X0264988Y0035445D01*
X0265072Y0035410D01*
X0265154Y0035371D01*
X0265235Y0035328D01*
X0265313Y0035282D01*
X0265390Y0035232D01*
X0265464Y0035179D01*
X0265536Y0035123D01*
X0265606Y0035064D01*
X0265673Y0035002D01*
X0265737Y0034937D01*
X0265798Y0034870D01*
X0265857Y0034800D01*
X0265912Y0034727D01*
X0265964Y0034652D01*
X0266013Y0034575D01*
X0266058Y0034496D01*
X0266100Y0034414D01*
X0266138Y0034332D01*
X0266173Y0034247D01*
X0266204Y0034161D01*
X0266231Y0034074D01*
X0266254Y0033986D01*
X0266274Y0033897D01*
X0266290Y0033807D01*
X0266302Y0033717D01*
X0266310Y0033626D01*
X0266314Y0033535D01*
X0266314Y0033443D01*
X0266310Y0033352D01*
X0266302Y0033261D01*
X0266290Y0033171D01*
X0266274Y0033081D01*
X0266254Y0032992D01*
X0266231Y0032904D01*
X0266204Y0032817D01*
X0266173Y0032731D01*
X0266138Y0032646D01*
X0266100Y0032564D01*
X0266058Y0032482D01*
X0266013Y0032403D01*
X0265964Y0032326D01*
X0265912Y0032251D01*
X0265857Y0032178D01*
X0265798Y0032108D01*
X0265737Y0032041D01*
X0265673Y0031976D01*
X0265606Y0031914D01*
X0265536Y0031855D01*
X0265464Y0031799D01*
X0265390Y0031746D01*
X0265313Y0031696D01*
X0265235Y0031650D01*
X0265154Y0031607D01*
X0265072Y0031568D01*
X0264988Y0031533D01*
X0264902Y0031501D01*
X0264815Y0031472D01*
X0264727Y0031448D01*
X0264638Y0031427D01*
X0264549Y0031411D01*
X0264458Y0031398D01*
X0264368Y0031389D01*
X0264276Y0031384D01*
X0264185Y0031383D01*
X0264094Y0031386D01*
X0264003Y0031393D01*
X0263912Y0031404D01*
X0263822Y0031419D01*
X0263733Y0031437D01*
X0263645Y0031460D01*
X0263557Y0031486D01*
X0263471Y0031516D01*
X0263386Y0031550D01*
X0263303Y0031587D01*
X0263222Y0031628D01*
X0263142Y0031673D01*
X0263064Y0031721D01*
X0262989Y0031772D01*
X0262915Y0031826D01*
X0262845Y0031884D01*
X0262776Y0031944D01*
X0262711Y0032008D01*
X0262648Y0032074D01*
X0262588Y0032143D01*
X0262531Y0032215D01*
X0262478Y0032288D01*
X0262427Y0032364D01*
X0262380Y0032443D01*
X0262337Y0032523D01*
X0262297Y0032605D01*
X0262260Y0032688D01*
X0262227Y0032773D01*
X0262198Y0032860D01*
X0262173Y0032948D01*
X0262151Y0033036D01*
X0262134Y0033126D01*
X0262120Y0033216D01*
X0262110Y0033307D01*
X0262104Y0033398D01*
X0262102Y0033489D01*
X0262102Y0092544D02*
X0262104Y0092635D01*
X0262110Y0092726D01*
X0262120Y0092817D01*
X0262134Y0092907D01*
X0262151Y0092997D01*
X0262173Y0093085D01*
X0262198Y0093173D01*
X0262227Y0093260D01*
X0262260Y0093345D01*
X0262297Y0093428D01*
X0262337Y0093510D01*
X0262380Y0093590D01*
X0262427Y0093669D01*
X0262478Y0093745D01*
X0262531Y0093818D01*
X0262588Y0093890D01*
X0262648Y0093959D01*
X0262711Y0094025D01*
X0262776Y0094089D01*
X0262845Y0094149D01*
X0262915Y0094207D01*
X0262989Y0094261D01*
X0263064Y0094312D01*
X0263142Y0094360D01*
X0263222Y0094405D01*
X0263303Y0094446D01*
X0263386Y0094483D01*
X0263471Y0094517D01*
X0263557Y0094547D01*
X0263645Y0094573D01*
X0263733Y0094596D01*
X0263822Y0094614D01*
X0263912Y0094629D01*
X0264003Y0094640D01*
X0264094Y0094647D01*
X0264185Y0094650D01*
X0264276Y0094649D01*
X0264368Y0094644D01*
X0264458Y0094635D01*
X0264549Y0094622D01*
X0264638Y0094606D01*
X0264727Y0094585D01*
X0264815Y0094561D01*
X0264902Y0094532D01*
X0264988Y0094500D01*
X0265072Y0094465D01*
X0265154Y0094426D01*
X0265235Y0094383D01*
X0265313Y0094337D01*
X0265390Y0094287D01*
X0265464Y0094234D01*
X0265536Y0094178D01*
X0265606Y0094119D01*
X0265673Y0094057D01*
X0265737Y0093992D01*
X0265798Y0093925D01*
X0265857Y0093855D01*
X0265912Y0093782D01*
X0265964Y0093707D01*
X0266013Y0093630D01*
X0266058Y0093551D01*
X0266100Y0093469D01*
X0266138Y0093387D01*
X0266173Y0093302D01*
X0266204Y0093216D01*
X0266231Y0093129D01*
X0266254Y0093041D01*
X0266274Y0092952D01*
X0266290Y0092862D01*
X0266302Y0092772D01*
X0266310Y0092681D01*
X0266314Y0092590D01*
X0266314Y0092498D01*
X0266310Y0092407D01*
X0266302Y0092316D01*
X0266290Y0092226D01*
X0266274Y0092136D01*
X0266254Y0092047D01*
X0266231Y0091959D01*
X0266204Y0091872D01*
X0266173Y0091786D01*
X0266138Y0091701D01*
X0266100Y0091619D01*
X0266058Y0091537D01*
X0266013Y0091458D01*
X0265964Y0091381D01*
X0265912Y0091306D01*
X0265857Y0091233D01*
X0265798Y0091163D01*
X0265737Y0091096D01*
X0265673Y0091031D01*
X0265606Y0090969D01*
X0265536Y0090910D01*
X0265464Y0090854D01*
X0265390Y0090801D01*
X0265313Y0090751D01*
X0265235Y0090705D01*
X0265154Y0090662D01*
X0265072Y0090623D01*
X0264988Y0090588D01*
X0264902Y0090556D01*
X0264815Y0090527D01*
X0264727Y0090503D01*
X0264638Y0090482D01*
X0264549Y0090466D01*
X0264458Y0090453D01*
X0264368Y0090444D01*
X0264276Y0090439D01*
X0264185Y0090438D01*
X0264094Y0090441D01*
X0264003Y0090448D01*
X0263912Y0090459D01*
X0263822Y0090474D01*
X0263733Y0090492D01*
X0263645Y0090515D01*
X0263557Y0090541D01*
X0263471Y0090571D01*
X0263386Y0090605D01*
X0263303Y0090642D01*
X0263222Y0090683D01*
X0263142Y0090728D01*
X0263064Y0090776D01*
X0262989Y0090827D01*
X0262915Y0090881D01*
X0262845Y0090939D01*
X0262776Y0090999D01*
X0262711Y0091063D01*
X0262648Y0091129D01*
X0262588Y0091198D01*
X0262531Y0091270D01*
X0262478Y0091343D01*
X0262427Y0091419D01*
X0262380Y0091498D01*
X0262337Y0091578D01*
X0262297Y0091660D01*
X0262260Y0091743D01*
X0262227Y0091828D01*
X0262198Y0091915D01*
X0262173Y0092003D01*
X0262151Y0092091D01*
X0262134Y0092181D01*
X0262120Y0092271D01*
X0262110Y0092362D01*
X0262104Y0092453D01*
X0262102Y0092544D01*
X0196425Y0220788D02*
X0196427Y0220879D01*
X0196433Y0220970D01*
X0196443Y0221061D01*
X0196457Y0221151D01*
X0196474Y0221241D01*
X0196496Y0221329D01*
X0196521Y0221417D01*
X0196550Y0221504D01*
X0196583Y0221589D01*
X0196620Y0221672D01*
X0196660Y0221754D01*
X0196703Y0221834D01*
X0196750Y0221913D01*
X0196801Y0221989D01*
X0196854Y0222062D01*
X0196911Y0222134D01*
X0196971Y0222203D01*
X0197034Y0222269D01*
X0197099Y0222333D01*
X0197168Y0222393D01*
X0197238Y0222451D01*
X0197312Y0222505D01*
X0197387Y0222556D01*
X0197465Y0222604D01*
X0197545Y0222649D01*
X0197626Y0222690D01*
X0197709Y0222727D01*
X0197794Y0222761D01*
X0197880Y0222791D01*
X0197968Y0222817D01*
X0198056Y0222840D01*
X0198145Y0222858D01*
X0198235Y0222873D01*
X0198326Y0222884D01*
X0198417Y0222891D01*
X0198508Y0222894D01*
X0198599Y0222893D01*
X0198691Y0222888D01*
X0198781Y0222879D01*
X0198872Y0222866D01*
X0198961Y0222850D01*
X0199050Y0222829D01*
X0199138Y0222805D01*
X0199225Y0222776D01*
X0199311Y0222744D01*
X0199395Y0222709D01*
X0199477Y0222670D01*
X0199558Y0222627D01*
X0199636Y0222581D01*
X0199713Y0222531D01*
X0199787Y0222478D01*
X0199859Y0222422D01*
X0199929Y0222363D01*
X0199996Y0222301D01*
X0200060Y0222236D01*
X0200121Y0222169D01*
X0200180Y0222099D01*
X0200235Y0222026D01*
X0200287Y0221951D01*
X0200336Y0221874D01*
X0200381Y0221795D01*
X0200423Y0221713D01*
X0200461Y0221631D01*
X0200496Y0221546D01*
X0200527Y0221460D01*
X0200554Y0221373D01*
X0200577Y0221285D01*
X0200597Y0221196D01*
X0200613Y0221106D01*
X0200625Y0221016D01*
X0200633Y0220925D01*
X0200637Y0220834D01*
X0200637Y0220742D01*
X0200633Y0220651D01*
X0200625Y0220560D01*
X0200613Y0220470D01*
X0200597Y0220380D01*
X0200577Y0220291D01*
X0200554Y0220203D01*
X0200527Y0220116D01*
X0200496Y0220030D01*
X0200461Y0219945D01*
X0200423Y0219863D01*
X0200381Y0219781D01*
X0200336Y0219702D01*
X0200287Y0219625D01*
X0200235Y0219550D01*
X0200180Y0219477D01*
X0200121Y0219407D01*
X0200060Y0219340D01*
X0199996Y0219275D01*
X0199929Y0219213D01*
X0199859Y0219154D01*
X0199787Y0219098D01*
X0199713Y0219045D01*
X0199636Y0218995D01*
X0199558Y0218949D01*
X0199477Y0218906D01*
X0199395Y0218867D01*
X0199311Y0218832D01*
X0199225Y0218800D01*
X0199138Y0218771D01*
X0199050Y0218747D01*
X0198961Y0218726D01*
X0198872Y0218710D01*
X0198781Y0218697D01*
X0198691Y0218688D01*
X0198599Y0218683D01*
X0198508Y0218682D01*
X0198417Y0218685D01*
X0198326Y0218692D01*
X0198235Y0218703D01*
X0198145Y0218718D01*
X0198056Y0218736D01*
X0197968Y0218759D01*
X0197880Y0218785D01*
X0197794Y0218815D01*
X0197709Y0218849D01*
X0197626Y0218886D01*
X0197545Y0218927D01*
X0197465Y0218972D01*
X0197387Y0219020D01*
X0197312Y0219071D01*
X0197238Y0219125D01*
X0197168Y0219183D01*
X0197099Y0219243D01*
X0197034Y0219307D01*
X0196971Y0219373D01*
X0196911Y0219442D01*
X0196854Y0219514D01*
X0196801Y0219587D01*
X0196750Y0219663D01*
X0196703Y0219742D01*
X0196660Y0219822D01*
X0196620Y0219904D01*
X0196583Y0219987D01*
X0196550Y0220072D01*
X0196521Y0220159D01*
X0196496Y0220247D01*
X0196474Y0220335D01*
X0196457Y0220425D01*
X0196443Y0220515D01*
X0196433Y0220606D01*
X0196427Y0220697D01*
X0196425Y0220788D01*
X0224369Y0221288D02*
X0224371Y0221379D01*
X0224377Y0221470D01*
X0224387Y0221561D01*
X0224401Y0221651D01*
X0224418Y0221741D01*
X0224440Y0221829D01*
X0224465Y0221917D01*
X0224494Y0222004D01*
X0224527Y0222089D01*
X0224564Y0222172D01*
X0224604Y0222254D01*
X0224647Y0222334D01*
X0224694Y0222413D01*
X0224745Y0222489D01*
X0224798Y0222562D01*
X0224855Y0222634D01*
X0224915Y0222703D01*
X0224978Y0222769D01*
X0225043Y0222833D01*
X0225112Y0222893D01*
X0225182Y0222951D01*
X0225256Y0223005D01*
X0225331Y0223056D01*
X0225409Y0223104D01*
X0225489Y0223149D01*
X0225570Y0223190D01*
X0225653Y0223227D01*
X0225738Y0223261D01*
X0225824Y0223291D01*
X0225912Y0223317D01*
X0226000Y0223340D01*
X0226089Y0223358D01*
X0226179Y0223373D01*
X0226270Y0223384D01*
X0226361Y0223391D01*
X0226452Y0223394D01*
X0226543Y0223393D01*
X0226635Y0223388D01*
X0226725Y0223379D01*
X0226816Y0223366D01*
X0226905Y0223350D01*
X0226994Y0223329D01*
X0227082Y0223305D01*
X0227169Y0223276D01*
X0227255Y0223244D01*
X0227339Y0223209D01*
X0227421Y0223170D01*
X0227502Y0223127D01*
X0227580Y0223081D01*
X0227657Y0223031D01*
X0227731Y0222978D01*
X0227803Y0222922D01*
X0227873Y0222863D01*
X0227940Y0222801D01*
X0228004Y0222736D01*
X0228065Y0222669D01*
X0228124Y0222599D01*
X0228179Y0222526D01*
X0228231Y0222451D01*
X0228280Y0222374D01*
X0228325Y0222295D01*
X0228367Y0222213D01*
X0228405Y0222131D01*
X0228440Y0222046D01*
X0228471Y0221960D01*
X0228498Y0221873D01*
X0228521Y0221785D01*
X0228541Y0221696D01*
X0228557Y0221606D01*
X0228569Y0221516D01*
X0228577Y0221425D01*
X0228581Y0221334D01*
X0228581Y0221242D01*
X0228577Y0221151D01*
X0228569Y0221060D01*
X0228557Y0220970D01*
X0228541Y0220880D01*
X0228521Y0220791D01*
X0228498Y0220703D01*
X0228471Y0220616D01*
X0228440Y0220530D01*
X0228405Y0220445D01*
X0228367Y0220363D01*
X0228325Y0220281D01*
X0228280Y0220202D01*
X0228231Y0220125D01*
X0228179Y0220050D01*
X0228124Y0219977D01*
X0228065Y0219907D01*
X0228004Y0219840D01*
X0227940Y0219775D01*
X0227873Y0219713D01*
X0227803Y0219654D01*
X0227731Y0219598D01*
X0227657Y0219545D01*
X0227580Y0219495D01*
X0227502Y0219449D01*
X0227421Y0219406D01*
X0227339Y0219367D01*
X0227255Y0219332D01*
X0227169Y0219300D01*
X0227082Y0219271D01*
X0226994Y0219247D01*
X0226905Y0219226D01*
X0226816Y0219210D01*
X0226725Y0219197D01*
X0226635Y0219188D01*
X0226543Y0219183D01*
X0226452Y0219182D01*
X0226361Y0219185D01*
X0226270Y0219192D01*
X0226179Y0219203D01*
X0226089Y0219218D01*
X0226000Y0219236D01*
X0225912Y0219259D01*
X0225824Y0219285D01*
X0225738Y0219315D01*
X0225653Y0219349D01*
X0225570Y0219386D01*
X0225489Y0219427D01*
X0225409Y0219472D01*
X0225331Y0219520D01*
X0225256Y0219571D01*
X0225182Y0219625D01*
X0225112Y0219683D01*
X0225043Y0219743D01*
X0224978Y0219807D01*
X0224915Y0219873D01*
X0224855Y0219942D01*
X0224798Y0220014D01*
X0224745Y0220087D01*
X0224694Y0220163D01*
X0224647Y0220242D01*
X0224604Y0220322D01*
X0224564Y0220404D01*
X0224527Y0220487D01*
X0224494Y0220572D01*
X0224465Y0220659D01*
X0224440Y0220747D01*
X0224418Y0220835D01*
X0224401Y0220925D01*
X0224387Y0221015D01*
X0224377Y0221106D01*
X0224371Y0221197D01*
X0224369Y0221288D01*
X0283425Y0221288D02*
X0283427Y0221379D01*
X0283433Y0221470D01*
X0283443Y0221561D01*
X0283457Y0221651D01*
X0283474Y0221741D01*
X0283496Y0221829D01*
X0283521Y0221917D01*
X0283550Y0222004D01*
X0283583Y0222089D01*
X0283620Y0222172D01*
X0283660Y0222254D01*
X0283703Y0222334D01*
X0283750Y0222413D01*
X0283801Y0222489D01*
X0283854Y0222562D01*
X0283911Y0222634D01*
X0283971Y0222703D01*
X0284034Y0222769D01*
X0284099Y0222833D01*
X0284168Y0222893D01*
X0284238Y0222951D01*
X0284312Y0223005D01*
X0284387Y0223056D01*
X0284465Y0223104D01*
X0284545Y0223149D01*
X0284626Y0223190D01*
X0284709Y0223227D01*
X0284794Y0223261D01*
X0284880Y0223291D01*
X0284968Y0223317D01*
X0285056Y0223340D01*
X0285145Y0223358D01*
X0285235Y0223373D01*
X0285326Y0223384D01*
X0285417Y0223391D01*
X0285508Y0223394D01*
X0285599Y0223393D01*
X0285691Y0223388D01*
X0285781Y0223379D01*
X0285872Y0223366D01*
X0285961Y0223350D01*
X0286050Y0223329D01*
X0286138Y0223305D01*
X0286225Y0223276D01*
X0286311Y0223244D01*
X0286395Y0223209D01*
X0286477Y0223170D01*
X0286558Y0223127D01*
X0286636Y0223081D01*
X0286713Y0223031D01*
X0286787Y0222978D01*
X0286859Y0222922D01*
X0286929Y0222863D01*
X0286996Y0222801D01*
X0287060Y0222736D01*
X0287121Y0222669D01*
X0287180Y0222599D01*
X0287235Y0222526D01*
X0287287Y0222451D01*
X0287336Y0222374D01*
X0287381Y0222295D01*
X0287423Y0222213D01*
X0287461Y0222131D01*
X0287496Y0222046D01*
X0287527Y0221960D01*
X0287554Y0221873D01*
X0287577Y0221785D01*
X0287597Y0221696D01*
X0287613Y0221606D01*
X0287625Y0221516D01*
X0287633Y0221425D01*
X0287637Y0221334D01*
X0287637Y0221242D01*
X0287633Y0221151D01*
X0287625Y0221060D01*
X0287613Y0220970D01*
X0287597Y0220880D01*
X0287577Y0220791D01*
X0287554Y0220703D01*
X0287527Y0220616D01*
X0287496Y0220530D01*
X0287461Y0220445D01*
X0287423Y0220363D01*
X0287381Y0220281D01*
X0287336Y0220202D01*
X0287287Y0220125D01*
X0287235Y0220050D01*
X0287180Y0219977D01*
X0287121Y0219907D01*
X0287060Y0219840D01*
X0286996Y0219775D01*
X0286929Y0219713D01*
X0286859Y0219654D01*
X0286787Y0219598D01*
X0286713Y0219545D01*
X0286636Y0219495D01*
X0286558Y0219449D01*
X0286477Y0219406D01*
X0286395Y0219367D01*
X0286311Y0219332D01*
X0286225Y0219300D01*
X0286138Y0219271D01*
X0286050Y0219247D01*
X0285961Y0219226D01*
X0285872Y0219210D01*
X0285781Y0219197D01*
X0285691Y0219188D01*
X0285599Y0219183D01*
X0285508Y0219182D01*
X0285417Y0219185D01*
X0285326Y0219192D01*
X0285235Y0219203D01*
X0285145Y0219218D01*
X0285056Y0219236D01*
X0284968Y0219259D01*
X0284880Y0219285D01*
X0284794Y0219315D01*
X0284709Y0219349D01*
X0284626Y0219386D01*
X0284545Y0219427D01*
X0284465Y0219472D01*
X0284387Y0219520D01*
X0284312Y0219571D01*
X0284238Y0219625D01*
X0284168Y0219683D01*
X0284099Y0219743D01*
X0284034Y0219807D01*
X0283971Y0219873D01*
X0283911Y0219942D01*
X0283854Y0220014D01*
X0283801Y0220087D01*
X0283750Y0220163D01*
X0283703Y0220242D01*
X0283660Y0220322D01*
X0283620Y0220404D01*
X0283583Y0220487D01*
X0283550Y0220572D01*
X0283521Y0220659D01*
X0283496Y0220747D01*
X0283474Y0220835D01*
X0283457Y0220925D01*
X0283443Y0221015D01*
X0283433Y0221106D01*
X0283427Y0221197D01*
X0283425Y0221288D01*
X0137369Y0220788D02*
X0137371Y0220879D01*
X0137377Y0220970D01*
X0137387Y0221061D01*
X0137401Y0221151D01*
X0137418Y0221241D01*
X0137440Y0221329D01*
X0137465Y0221417D01*
X0137494Y0221504D01*
X0137527Y0221589D01*
X0137564Y0221672D01*
X0137604Y0221754D01*
X0137647Y0221834D01*
X0137694Y0221913D01*
X0137745Y0221989D01*
X0137798Y0222062D01*
X0137855Y0222134D01*
X0137915Y0222203D01*
X0137978Y0222269D01*
X0138043Y0222333D01*
X0138112Y0222393D01*
X0138182Y0222451D01*
X0138256Y0222505D01*
X0138331Y0222556D01*
X0138409Y0222604D01*
X0138489Y0222649D01*
X0138570Y0222690D01*
X0138653Y0222727D01*
X0138738Y0222761D01*
X0138824Y0222791D01*
X0138912Y0222817D01*
X0139000Y0222840D01*
X0139089Y0222858D01*
X0139179Y0222873D01*
X0139270Y0222884D01*
X0139361Y0222891D01*
X0139452Y0222894D01*
X0139543Y0222893D01*
X0139635Y0222888D01*
X0139725Y0222879D01*
X0139816Y0222866D01*
X0139905Y0222850D01*
X0139994Y0222829D01*
X0140082Y0222805D01*
X0140169Y0222776D01*
X0140255Y0222744D01*
X0140339Y0222709D01*
X0140421Y0222670D01*
X0140502Y0222627D01*
X0140580Y0222581D01*
X0140657Y0222531D01*
X0140731Y0222478D01*
X0140803Y0222422D01*
X0140873Y0222363D01*
X0140940Y0222301D01*
X0141004Y0222236D01*
X0141065Y0222169D01*
X0141124Y0222099D01*
X0141179Y0222026D01*
X0141231Y0221951D01*
X0141280Y0221874D01*
X0141325Y0221795D01*
X0141367Y0221713D01*
X0141405Y0221631D01*
X0141440Y0221546D01*
X0141471Y0221460D01*
X0141498Y0221373D01*
X0141521Y0221285D01*
X0141541Y0221196D01*
X0141557Y0221106D01*
X0141569Y0221016D01*
X0141577Y0220925D01*
X0141581Y0220834D01*
X0141581Y0220742D01*
X0141577Y0220651D01*
X0141569Y0220560D01*
X0141557Y0220470D01*
X0141541Y0220380D01*
X0141521Y0220291D01*
X0141498Y0220203D01*
X0141471Y0220116D01*
X0141440Y0220030D01*
X0141405Y0219945D01*
X0141367Y0219863D01*
X0141325Y0219781D01*
X0141280Y0219702D01*
X0141231Y0219625D01*
X0141179Y0219550D01*
X0141124Y0219477D01*
X0141065Y0219407D01*
X0141004Y0219340D01*
X0140940Y0219275D01*
X0140873Y0219213D01*
X0140803Y0219154D01*
X0140731Y0219098D01*
X0140657Y0219045D01*
X0140580Y0218995D01*
X0140502Y0218949D01*
X0140421Y0218906D01*
X0140339Y0218867D01*
X0140255Y0218832D01*
X0140169Y0218800D01*
X0140082Y0218771D01*
X0139994Y0218747D01*
X0139905Y0218726D01*
X0139816Y0218710D01*
X0139725Y0218697D01*
X0139635Y0218688D01*
X0139543Y0218683D01*
X0139452Y0218682D01*
X0139361Y0218685D01*
X0139270Y0218692D01*
X0139179Y0218703D01*
X0139089Y0218718D01*
X0139000Y0218736D01*
X0138912Y0218759D01*
X0138824Y0218785D01*
X0138738Y0218815D01*
X0138653Y0218849D01*
X0138570Y0218886D01*
X0138489Y0218927D01*
X0138409Y0218972D01*
X0138331Y0219020D01*
X0138256Y0219071D01*
X0138182Y0219125D01*
X0138112Y0219183D01*
X0138043Y0219243D01*
X0137978Y0219307D01*
X0137915Y0219373D01*
X0137855Y0219442D01*
X0137798Y0219514D01*
X0137745Y0219587D01*
X0137694Y0219663D01*
X0137647Y0219742D01*
X0137604Y0219822D01*
X0137564Y0219904D01*
X0137527Y0219987D01*
X0137494Y0220072D01*
X0137465Y0220159D01*
X0137440Y0220247D01*
X0137418Y0220335D01*
X0137401Y0220425D01*
X0137387Y0220515D01*
X0137377Y0220606D01*
X0137371Y0220697D01*
X0137369Y0220788D01*
X0107325Y0220888D02*
X0107327Y0220979D01*
X0107333Y0221070D01*
X0107343Y0221161D01*
X0107357Y0221251D01*
X0107374Y0221341D01*
X0107396Y0221429D01*
X0107421Y0221517D01*
X0107450Y0221604D01*
X0107483Y0221689D01*
X0107520Y0221772D01*
X0107560Y0221854D01*
X0107603Y0221934D01*
X0107650Y0222013D01*
X0107701Y0222089D01*
X0107754Y0222162D01*
X0107811Y0222234D01*
X0107871Y0222303D01*
X0107934Y0222369D01*
X0107999Y0222433D01*
X0108068Y0222493D01*
X0108138Y0222551D01*
X0108212Y0222605D01*
X0108287Y0222656D01*
X0108365Y0222704D01*
X0108445Y0222749D01*
X0108526Y0222790D01*
X0108609Y0222827D01*
X0108694Y0222861D01*
X0108780Y0222891D01*
X0108868Y0222917D01*
X0108956Y0222940D01*
X0109045Y0222958D01*
X0109135Y0222973D01*
X0109226Y0222984D01*
X0109317Y0222991D01*
X0109408Y0222994D01*
X0109499Y0222993D01*
X0109591Y0222988D01*
X0109681Y0222979D01*
X0109772Y0222966D01*
X0109861Y0222950D01*
X0109950Y0222929D01*
X0110038Y0222905D01*
X0110125Y0222876D01*
X0110211Y0222844D01*
X0110295Y0222809D01*
X0110377Y0222770D01*
X0110458Y0222727D01*
X0110536Y0222681D01*
X0110613Y0222631D01*
X0110687Y0222578D01*
X0110759Y0222522D01*
X0110829Y0222463D01*
X0110896Y0222401D01*
X0110960Y0222336D01*
X0111021Y0222269D01*
X0111080Y0222199D01*
X0111135Y0222126D01*
X0111187Y0222051D01*
X0111236Y0221974D01*
X0111281Y0221895D01*
X0111323Y0221813D01*
X0111361Y0221731D01*
X0111396Y0221646D01*
X0111427Y0221560D01*
X0111454Y0221473D01*
X0111477Y0221385D01*
X0111497Y0221296D01*
X0111513Y0221206D01*
X0111525Y0221116D01*
X0111533Y0221025D01*
X0111537Y0220934D01*
X0111537Y0220842D01*
X0111533Y0220751D01*
X0111525Y0220660D01*
X0111513Y0220570D01*
X0111497Y0220480D01*
X0111477Y0220391D01*
X0111454Y0220303D01*
X0111427Y0220216D01*
X0111396Y0220130D01*
X0111361Y0220045D01*
X0111323Y0219963D01*
X0111281Y0219881D01*
X0111236Y0219802D01*
X0111187Y0219725D01*
X0111135Y0219650D01*
X0111080Y0219577D01*
X0111021Y0219507D01*
X0110960Y0219440D01*
X0110896Y0219375D01*
X0110829Y0219313D01*
X0110759Y0219254D01*
X0110687Y0219198D01*
X0110613Y0219145D01*
X0110536Y0219095D01*
X0110458Y0219049D01*
X0110377Y0219006D01*
X0110295Y0218967D01*
X0110211Y0218932D01*
X0110125Y0218900D01*
X0110038Y0218871D01*
X0109950Y0218847D01*
X0109861Y0218826D01*
X0109772Y0218810D01*
X0109681Y0218797D01*
X0109591Y0218788D01*
X0109499Y0218783D01*
X0109408Y0218782D01*
X0109317Y0218785D01*
X0109226Y0218792D01*
X0109135Y0218803D01*
X0109045Y0218818D01*
X0108956Y0218836D01*
X0108868Y0218859D01*
X0108780Y0218885D01*
X0108694Y0218915D01*
X0108609Y0218949D01*
X0108526Y0218986D01*
X0108445Y0219027D01*
X0108365Y0219072D01*
X0108287Y0219120D01*
X0108212Y0219171D01*
X0108138Y0219225D01*
X0108068Y0219283D01*
X0107999Y0219343D01*
X0107934Y0219407D01*
X0107871Y0219473D01*
X0107811Y0219542D01*
X0107754Y0219614D01*
X0107701Y0219687D01*
X0107650Y0219763D01*
X0107603Y0219842D01*
X0107560Y0219922D01*
X0107520Y0220004D01*
X0107483Y0220087D01*
X0107450Y0220172D01*
X0107421Y0220259D01*
X0107396Y0220347D01*
X0107374Y0220435D01*
X0107357Y0220525D01*
X0107343Y0220615D01*
X0107333Y0220706D01*
X0107327Y0220797D01*
X0107325Y0220888D01*
X0048269Y0220888D02*
X0048271Y0220979D01*
X0048277Y0221070D01*
X0048287Y0221161D01*
X0048301Y0221251D01*
X0048318Y0221341D01*
X0048340Y0221429D01*
X0048365Y0221517D01*
X0048394Y0221604D01*
X0048427Y0221689D01*
X0048464Y0221772D01*
X0048504Y0221854D01*
X0048547Y0221934D01*
X0048594Y0222013D01*
X0048645Y0222089D01*
X0048698Y0222162D01*
X0048755Y0222234D01*
X0048815Y0222303D01*
X0048878Y0222369D01*
X0048943Y0222433D01*
X0049012Y0222493D01*
X0049082Y0222551D01*
X0049156Y0222605D01*
X0049231Y0222656D01*
X0049309Y0222704D01*
X0049389Y0222749D01*
X0049470Y0222790D01*
X0049553Y0222827D01*
X0049638Y0222861D01*
X0049724Y0222891D01*
X0049812Y0222917D01*
X0049900Y0222940D01*
X0049989Y0222958D01*
X0050079Y0222973D01*
X0050170Y0222984D01*
X0050261Y0222991D01*
X0050352Y0222994D01*
X0050443Y0222993D01*
X0050535Y0222988D01*
X0050625Y0222979D01*
X0050716Y0222966D01*
X0050805Y0222950D01*
X0050894Y0222929D01*
X0050982Y0222905D01*
X0051069Y0222876D01*
X0051155Y0222844D01*
X0051239Y0222809D01*
X0051321Y0222770D01*
X0051402Y0222727D01*
X0051480Y0222681D01*
X0051557Y0222631D01*
X0051631Y0222578D01*
X0051703Y0222522D01*
X0051773Y0222463D01*
X0051840Y0222401D01*
X0051904Y0222336D01*
X0051965Y0222269D01*
X0052024Y0222199D01*
X0052079Y0222126D01*
X0052131Y0222051D01*
X0052180Y0221974D01*
X0052225Y0221895D01*
X0052267Y0221813D01*
X0052305Y0221731D01*
X0052340Y0221646D01*
X0052371Y0221560D01*
X0052398Y0221473D01*
X0052421Y0221385D01*
X0052441Y0221296D01*
X0052457Y0221206D01*
X0052469Y0221116D01*
X0052477Y0221025D01*
X0052481Y0220934D01*
X0052481Y0220842D01*
X0052477Y0220751D01*
X0052469Y0220660D01*
X0052457Y0220570D01*
X0052441Y0220480D01*
X0052421Y0220391D01*
X0052398Y0220303D01*
X0052371Y0220216D01*
X0052340Y0220130D01*
X0052305Y0220045D01*
X0052267Y0219963D01*
X0052225Y0219881D01*
X0052180Y0219802D01*
X0052131Y0219725D01*
X0052079Y0219650D01*
X0052024Y0219577D01*
X0051965Y0219507D01*
X0051904Y0219440D01*
X0051840Y0219375D01*
X0051773Y0219313D01*
X0051703Y0219254D01*
X0051631Y0219198D01*
X0051557Y0219145D01*
X0051480Y0219095D01*
X0051402Y0219049D01*
X0051321Y0219006D01*
X0051239Y0218967D01*
X0051155Y0218932D01*
X0051069Y0218900D01*
X0050982Y0218871D01*
X0050894Y0218847D01*
X0050805Y0218826D01*
X0050716Y0218810D01*
X0050625Y0218797D01*
X0050535Y0218788D01*
X0050443Y0218783D01*
X0050352Y0218782D01*
X0050261Y0218785D01*
X0050170Y0218792D01*
X0050079Y0218803D01*
X0049989Y0218818D01*
X0049900Y0218836D01*
X0049812Y0218859D01*
X0049724Y0218885D01*
X0049638Y0218915D01*
X0049553Y0218949D01*
X0049470Y0218986D01*
X0049389Y0219027D01*
X0049309Y0219072D01*
X0049231Y0219120D01*
X0049156Y0219171D01*
X0049082Y0219225D01*
X0049012Y0219283D01*
X0048943Y0219343D01*
X0048878Y0219407D01*
X0048815Y0219473D01*
X0048755Y0219542D01*
X0048698Y0219614D01*
X0048645Y0219687D01*
X0048594Y0219763D01*
X0048547Y0219842D01*
X0048504Y0219922D01*
X0048464Y0220004D01*
X0048427Y0220087D01*
X0048394Y0220172D01*
X0048365Y0220259D01*
X0048340Y0220347D01*
X0048318Y0220435D01*
X0048301Y0220525D01*
X0048287Y0220615D01*
X0048277Y0220706D01*
X0048271Y0220797D01*
X0048269Y0220888D01*
D11*
X0268720Y0141761D03*
X0268720Y0111839D03*
D12*
X0197664Y0197300D03*
X0190775Y0197300D03*
X0149164Y0067300D03*
X0142275Y0067300D03*
D13*
X0148720Y0086155D03*
X0148720Y0093045D03*
X0173220Y0151355D03*
X0173220Y0158245D03*
X0194220Y0164855D03*
X0194220Y0171745D03*
X0175220Y0185355D03*
X0169720Y0185355D03*
X0164220Y0185355D03*
X0164220Y0192245D03*
X0169720Y0192245D03*
X0175220Y0192245D03*
X0183720Y0190355D03*
X0183720Y0197245D03*
X0121120Y0201455D03*
X0121120Y0208345D03*
D14*
X0095157Y0174300D03*
X0087283Y0174300D03*
X0087283Y0164300D03*
X0095157Y0164300D03*
X0095157Y0129300D03*
X0101783Y0129300D03*
X0109657Y0129300D03*
X0109657Y0119300D03*
X0101783Y0119300D03*
X0095157Y0119300D03*
X0087283Y0119300D03*
X0087283Y0129300D03*
X0120283Y0096800D03*
X0128157Y0096800D03*
X0128157Y0086800D03*
X0120283Y0086800D03*
X0189283Y0191400D03*
X0197157Y0191400D03*
D15*
X0206720Y0193954D03*
X0206720Y0200646D03*
X0215220Y0200646D03*
X0215220Y0193954D03*
X0277373Y0159300D03*
X0284066Y0159300D03*
X0286566Y0151800D03*
X0279873Y0151800D03*
X0278673Y0125900D03*
X0285366Y0125900D03*
X0143120Y0149454D03*
X0136466Y0146300D03*
X0129773Y0146300D03*
X0129773Y0137800D03*
X0136466Y0137800D03*
X0143120Y0156146D03*
D16*
X0056720Y0161747D03*
X0056720Y0148853D03*
D17*
X0080873Y0076800D03*
X0087566Y0076800D03*
X0092873Y0076800D03*
X0099566Y0076800D03*
X0105373Y0076800D03*
X0112066Y0076800D03*
X0112220Y0070146D03*
X0112220Y0063454D03*
X0100220Y0063454D03*
X0100220Y0070146D03*
X0088720Y0070146D03*
X0088720Y0063454D03*
X0148720Y0073454D03*
X0148720Y0080146D03*
X0143120Y0136954D03*
X0143120Y0143646D03*
D18*
X0262689Y0151900D03*
X0271350Y0148160D03*
X0271350Y0155640D03*
X0285550Y0145040D03*
X0285550Y0137560D03*
X0276889Y0141300D03*
D19*
X0061909Y0138690D03*
X0061909Y0124910D03*
D20*
X0268720Y0161052D03*
X0268720Y0200422D03*
D21*
X0195743Y0083780D03*
X0191412Y0083780D03*
X0187082Y0083780D03*
X0182751Y0083780D03*
X0178420Y0083780D03*
X0174090Y0083780D03*
X0169759Y0083780D03*
X0165428Y0083780D03*
D22*
X0212220Y0081300D03*
D23*
X0212259Y0036694D03*
D24*
X0195507Y0033564D03*
X0164877Y0033564D03*
D25*
X0157003Y0037993D03*
D26*
X0157003Y0073426D03*
D27*
X0156196Y0081891D03*
D28*
X0111320Y0092700D03*
X0111320Y0101800D03*
X0111320Y0110900D03*
X0111320Y0137700D03*
X0111320Y0146800D03*
X0111320Y0155900D03*
D29*
X0086120Y0146800D03*
X0086120Y0101800D03*
D30*
X0163320Y0124963D03*
X0163320Y0132837D03*
X0203820Y0133937D03*
X0203820Y0126063D03*
D31*
X0188444Y0153139D03*
X0178995Y0153139D03*
X0178995Y0170461D03*
X0188444Y0170461D03*
D32*
X0136720Y0156900D03*
X0136720Y0151700D03*
X0128520Y0154300D03*
D33*
X0151286Y0224489D03*
X0151286Y0236300D03*
X0163098Y0236300D03*
X0174909Y0236300D03*
X0186720Y0236300D03*
X0186720Y0224489D03*
X0174909Y0224489D03*
X0163098Y0224489D03*
X0097620Y0224589D03*
X0097620Y0236400D03*
X0085809Y0236400D03*
X0073998Y0236400D03*
X0073998Y0224589D03*
X0085809Y0224589D03*
X0062186Y0224589D03*
X0062186Y0236400D03*
X0238286Y0236800D03*
X0250098Y0236800D03*
X0261909Y0236800D03*
X0273720Y0236800D03*
X0273720Y0224989D03*
X0261909Y0224989D03*
X0250098Y0224989D03*
X0238286Y0224989D03*
X0267909Y0080733D03*
X0279720Y0080733D03*
X0279720Y0068922D03*
X0267909Y0068922D03*
X0267909Y0057111D03*
X0279720Y0057111D03*
X0279720Y0045300D03*
X0267909Y0045300D03*
X0135629Y0047076D03*
X0123818Y0047076D03*
X0112007Y0047076D03*
X0100196Y0047076D03*
X0088385Y0047076D03*
X0088385Y0035265D03*
X0100196Y0035265D03*
X0112007Y0035265D03*
X0123818Y0035265D03*
X0135629Y0035265D03*
D34*
X0137341Y0039522D02*
X0136542Y0039854D01*
X0134716Y0039854D01*
X0133030Y0039155D01*
X0131739Y0037864D01*
X0131040Y0036177D01*
X0131040Y0034352D01*
X0131739Y0032665D01*
X0132804Y0031600D01*
X0127209Y0031600D01*
X0127623Y0032014D01*
X0128085Y0032650D01*
X0128441Y0033349D01*
X0128684Y0034096D01*
X0128807Y0034872D01*
X0128807Y0035011D01*
X0124071Y0035011D01*
X0124071Y0035518D01*
X0123565Y0035518D01*
X0123565Y0040254D01*
X0123425Y0040254D01*
X0122650Y0040131D01*
X0121903Y0039888D01*
X0121203Y0039532D01*
X0120568Y0039070D01*
X0120013Y0038515D01*
X0119551Y0037879D01*
X0119195Y0037180D01*
X0118952Y0036433D01*
X0118829Y0035657D01*
X0118829Y0035518D01*
X0123565Y0035518D01*
X0123565Y0035011D01*
X0118829Y0035011D01*
X0118829Y0034872D01*
X0118952Y0034096D01*
X0119195Y0033349D01*
X0119551Y0032650D01*
X0120013Y0032014D01*
X0120427Y0031600D01*
X0114832Y0031600D01*
X0115897Y0032665D01*
X0116596Y0034352D01*
X0116596Y0036177D01*
X0116306Y0036877D01*
X0118620Y0039190D01*
X0118620Y0040764D01*
X0118620Y0052587D01*
X0117507Y0053700D01*
X0114120Y0057087D01*
X0114120Y0060085D01*
X0114965Y0060085D01*
X0115785Y0060905D01*
X0115785Y0064700D01*
X0132065Y0064700D01*
X0133120Y0065754D01*
X0139720Y0072354D01*
X0139720Y0093454D01*
X0152125Y0105860D01*
X0163758Y0105860D01*
X0174348Y0116450D01*
X0177428Y0116450D01*
X0178483Y0117505D01*
X0182230Y0121252D01*
X0182230Y0123054D01*
X0182879Y0123703D01*
X0183319Y0124765D01*
X0183319Y0125914D01*
X0182879Y0126976D01*
X0182066Y0127789D01*
X0181826Y0127888D01*
X0192220Y0138282D01*
X0192220Y0113886D01*
X0191770Y0113436D01*
X0191331Y0112375D01*
X0191331Y0111225D01*
X0191770Y0110164D01*
X0192583Y0109351D01*
X0193645Y0108911D01*
X0194794Y0108911D01*
X0195856Y0109351D01*
X0196669Y0110164D01*
X0197109Y0111225D01*
X0197109Y0112375D01*
X0196669Y0113436D01*
X0196020Y0114086D01*
X0196020Y0119294D01*
X0196945Y0118911D01*
X0198094Y0118911D01*
X0199156Y0119351D01*
X0199705Y0119900D01*
X0200344Y0119900D01*
X0201457Y0121013D01*
X0202547Y0122104D01*
X0206588Y0122104D01*
X0206770Y0121664D01*
X0206791Y0121643D01*
X0206791Y0113814D01*
X0206356Y0114249D01*
X0205294Y0114689D01*
X0204145Y0114689D01*
X0203083Y0114249D01*
X0202270Y0113436D01*
X0201831Y0112375D01*
X0201831Y0111225D01*
X0202270Y0110164D01*
X0203083Y0109351D01*
X0204145Y0108911D01*
X0205063Y0108911D01*
X0205391Y0108583D01*
X0205391Y0092017D01*
X0203816Y0090442D01*
X0203377Y0090260D01*
X0202564Y0089447D01*
X0202124Y0088386D01*
X0202124Y0088082D01*
X0199920Y0090287D01*
X0198807Y0091400D01*
X0162333Y0091400D01*
X0159733Y0088800D01*
X0158620Y0087687D01*
X0158620Y0087621D01*
X0153411Y0087621D01*
X0152591Y0086801D01*
X0152591Y0076980D01*
X0153320Y0076252D01*
X0153320Y0075226D01*
X0152285Y0075226D01*
X0152285Y0076002D01*
X0151487Y0076800D01*
X0152285Y0077598D01*
X0152285Y0082695D01*
X0151858Y0083121D01*
X0152246Y0083508D01*
X0152246Y0088802D01*
X0151671Y0089376D01*
X0151951Y0089538D01*
X0152286Y0089873D01*
X0152523Y0090283D01*
X0152646Y0090741D01*
X0152646Y0092811D01*
X0148953Y0092811D01*
X0148953Y0093278D01*
X0152646Y0093278D01*
X0152646Y0095349D01*
X0152523Y0095807D01*
X0152286Y0096217D01*
X0151951Y0096552D01*
X0151540Y0096789D01*
X0151083Y0096912D01*
X0148953Y0096912D01*
X0148953Y0093278D01*
X0148486Y0093278D01*
X0148486Y0092811D01*
X0144794Y0092811D01*
X0144794Y0090741D01*
X0144916Y0090283D01*
X0145153Y0089873D01*
X0145488Y0089538D01*
X0145768Y0089376D01*
X0145194Y0088802D01*
X0145194Y0083508D01*
X0145581Y0083121D01*
X0145154Y0082695D01*
X0145154Y0079127D01*
X0144574Y0078546D01*
X0143520Y0077492D01*
X0143520Y0071226D01*
X0142508Y0071226D01*
X0142508Y0067534D01*
X0142041Y0067534D01*
X0142041Y0071226D01*
X0139971Y0071226D01*
X0139513Y0071103D01*
X0139103Y0070866D01*
X0138767Y0070531D01*
X0138530Y0070121D01*
X0138408Y0069663D01*
X0138408Y0067533D01*
X0142041Y0067533D01*
X0142041Y0067067D01*
X0138408Y0067067D01*
X0138408Y0064937D01*
X0138530Y0064479D01*
X0138767Y0064069D01*
X0139103Y0063734D01*
X0139513Y0063497D01*
X0139971Y0063374D01*
X0142041Y0063374D01*
X0142041Y0067066D01*
X0142508Y0067066D01*
X0142508Y0063374D01*
X0143520Y0063374D01*
X0143520Y0059054D01*
X0147620Y0054954D01*
X0148674Y0053900D01*
X0209154Y0053900D01*
X0209454Y0053600D01*
X0151419Y0053600D01*
X0150364Y0052546D01*
X0137341Y0039522D01*
X0137407Y0039588D02*
X0137183Y0039588D01*
X0139005Y0041187D02*
X0118620Y0041187D01*
X0118620Y0042785D02*
X0122185Y0042785D01*
X0122905Y0042487D02*
X0121219Y0043185D01*
X0119928Y0044476D01*
X0119229Y0046163D01*
X0119229Y0047988D01*
X0119928Y0049675D01*
X0121219Y0050966D01*
X0122905Y0051665D01*
X0124731Y0051665D01*
X0126417Y0050966D01*
X0127708Y0049675D01*
X0128407Y0047988D01*
X0128407Y0046163D01*
X0127708Y0044476D01*
X0126417Y0043185D01*
X0124731Y0042487D01*
X0122905Y0042487D01*
X0124071Y0040254D02*
X0124071Y0035518D01*
X0128807Y0035518D01*
X0128807Y0035657D01*
X0128684Y0036433D01*
X0128441Y0037180D01*
X0128085Y0037879D01*
X0127623Y0038515D01*
X0127068Y0039070D01*
X0126433Y0039532D01*
X0125733Y0039888D01*
X0124986Y0040131D01*
X0124211Y0040254D01*
X0124071Y0040254D01*
X0124071Y0039588D02*
X0123565Y0039588D01*
X0123565Y0037990D02*
X0124071Y0037990D01*
X0124071Y0036391D02*
X0123565Y0036391D01*
X0121314Y0039588D02*
X0118620Y0039588D01*
X0119631Y0037990D02*
X0117419Y0037990D01*
X0116507Y0036391D02*
X0118945Y0036391D01*
X0118842Y0034793D02*
X0116596Y0034793D01*
X0116116Y0033194D02*
X0119274Y0033194D01*
X0113619Y0039564D02*
X0112920Y0039854D01*
X0111094Y0039854D01*
X0109408Y0039155D01*
X0108117Y0037864D01*
X0107418Y0036177D01*
X0107418Y0034352D01*
X0108117Y0032665D01*
X0109182Y0031600D01*
X0103021Y0031600D01*
X0104086Y0032665D01*
X0104785Y0034352D01*
X0104785Y0036177D01*
X0104495Y0036877D01*
X0106007Y0038388D01*
X0107120Y0039501D01*
X0107120Y0052587D01*
X0106007Y0053700D01*
X0102120Y0057587D01*
X0102120Y0060085D01*
X0102965Y0060085D01*
X0103785Y0060905D01*
X0103785Y0064700D01*
X0108654Y0064700D01*
X0108654Y0060905D01*
X0109474Y0060085D01*
X0110320Y0060085D01*
X0110320Y0055513D01*
X0114820Y0051013D01*
X0114820Y0050753D01*
X0114606Y0050966D01*
X0112920Y0051665D01*
X0111094Y0051665D01*
X0109408Y0050966D01*
X0108117Y0049675D01*
X0107418Y0047988D01*
X0107418Y0046163D01*
X0108117Y0044476D01*
X0109408Y0043185D01*
X0111094Y0042487D01*
X0112920Y0042487D01*
X0114606Y0043185D01*
X0114820Y0043398D01*
X0114820Y0040764D01*
X0113619Y0039564D01*
X0113643Y0039588D02*
X0113561Y0039588D01*
X0114820Y0041187D02*
X0107120Y0041187D01*
X0107120Y0042785D02*
X0110373Y0042785D01*
X0108209Y0044384D02*
X0107120Y0044384D01*
X0107120Y0045982D02*
X0107493Y0045982D01*
X0107418Y0047581D02*
X0107120Y0047581D01*
X0107120Y0049179D02*
X0107911Y0049179D01*
X0107120Y0050778D02*
X0109219Y0050778D01*
X0107120Y0052376D02*
X0113456Y0052376D01*
X0114795Y0050778D02*
X0114820Y0050778D01*
X0118620Y0050778D02*
X0121030Y0050778D01*
X0119722Y0049179D02*
X0118620Y0049179D01*
X0118620Y0047581D02*
X0119229Y0047581D01*
X0119304Y0045982D02*
X0118620Y0045982D01*
X0118620Y0044384D02*
X0120020Y0044384D01*
X0125451Y0042785D02*
X0133060Y0042785D01*
X0133014Y0042809D02*
X0133714Y0042452D01*
X0134461Y0042209D01*
X0135236Y0042087D01*
X0135376Y0042087D01*
X0135376Y0046822D01*
X0135882Y0046822D01*
X0135882Y0042087D01*
X0136022Y0042087D01*
X0136797Y0042209D01*
X0137544Y0042452D01*
X0138244Y0042809D01*
X0138879Y0043270D01*
X0139434Y0043825D01*
X0139896Y0044461D01*
X0140252Y0045160D01*
X0140495Y0045907D01*
X0140618Y0046683D01*
X0140618Y0046822D01*
X0135882Y0046822D01*
X0135882Y0047329D01*
X0135376Y0047329D01*
X0135376Y0052065D01*
X0135236Y0052065D01*
X0134461Y0051942D01*
X0133714Y0051699D01*
X0133014Y0051343D01*
X0132379Y0050881D01*
X0131824Y0050326D01*
X0131362Y0049690D01*
X0131006Y0048991D01*
X0130763Y0048244D01*
X0130640Y0047468D01*
X0130640Y0047329D01*
X0135376Y0047329D01*
X0135376Y0046822D01*
X0130640Y0046822D01*
X0130640Y0046683D01*
X0130763Y0045907D01*
X0131006Y0045160D01*
X0131362Y0044461D01*
X0131824Y0043825D01*
X0132379Y0043270D01*
X0133014Y0042809D01*
X0131418Y0044384D02*
X0127616Y0044384D01*
X0128332Y0045982D02*
X0130751Y0045982D01*
X0130658Y0047581D02*
X0128407Y0047581D01*
X0127914Y0049179D02*
X0131102Y0049179D01*
X0132276Y0050778D02*
X0126606Y0050778D01*
X0135376Y0050778D02*
X0135882Y0050778D01*
X0135882Y0052065D02*
X0135882Y0047329D01*
X0140618Y0047329D01*
X0140618Y0047468D01*
X0140495Y0048244D01*
X0140252Y0048991D01*
X0139896Y0049690D01*
X0139434Y0050326D01*
X0138879Y0050881D01*
X0138244Y0051343D01*
X0137544Y0051699D01*
X0136797Y0051942D01*
X0136022Y0052065D01*
X0135882Y0052065D01*
X0135882Y0049179D02*
X0135376Y0049179D01*
X0135376Y0047581D02*
X0135882Y0047581D01*
X0135882Y0045982D02*
X0135376Y0045982D01*
X0135376Y0044384D02*
X0135882Y0044384D01*
X0135882Y0042785D02*
X0135376Y0042785D01*
X0138198Y0042785D02*
X0140604Y0042785D01*
X0139840Y0044384D02*
X0142202Y0044384D01*
X0143801Y0045982D02*
X0140507Y0045982D01*
X0140600Y0047581D02*
X0145400Y0047581D01*
X0146998Y0049179D02*
X0140156Y0049179D01*
X0138982Y0050778D02*
X0148597Y0050778D01*
X0150195Y0052376D02*
X0118620Y0052376D01*
X0117232Y0053975D02*
X0148599Y0053975D01*
X0147001Y0055573D02*
X0115633Y0055573D01*
X0114120Y0057172D02*
X0145402Y0057172D01*
X0143804Y0058770D02*
X0114120Y0058770D01*
X0115248Y0060369D02*
X0143520Y0060369D01*
X0143520Y0061967D02*
X0115785Y0061967D01*
X0115785Y0063566D02*
X0139393Y0063566D01*
X0138408Y0065164D02*
X0132529Y0065164D01*
X0134128Y0066763D02*
X0138408Y0066763D01*
X0138408Y0068361D02*
X0135726Y0068361D01*
X0137325Y0069960D02*
X0138487Y0069960D01*
X0138923Y0071558D02*
X0143520Y0071558D01*
X0143520Y0073157D02*
X0139720Y0073157D01*
X0139720Y0074755D02*
X0143520Y0074755D01*
X0143520Y0076354D02*
X0139720Y0076354D01*
X0139720Y0077952D02*
X0143980Y0077952D01*
X0145154Y0079551D02*
X0139720Y0079551D01*
X0139720Y0081149D02*
X0145154Y0081149D01*
X0145207Y0082748D02*
X0139720Y0082748D01*
X0139720Y0084346D02*
X0145194Y0084346D01*
X0145194Y0085945D02*
X0139720Y0085945D01*
X0139720Y0087543D02*
X0145194Y0087543D01*
X0145534Y0089142D02*
X0139720Y0089142D01*
X0139720Y0090740D02*
X0144794Y0090740D01*
X0144794Y0092339D02*
X0139720Y0092339D01*
X0140203Y0093937D02*
X0144794Y0093937D01*
X0144794Y0093278D02*
X0144794Y0095349D01*
X0144916Y0095807D01*
X0145153Y0096217D01*
X0145488Y0096552D01*
X0145899Y0096789D01*
X0146357Y0096912D01*
X0148486Y0096912D01*
X0148486Y0093278D01*
X0144794Y0093278D01*
X0144844Y0095536D02*
X0141801Y0095536D01*
X0143400Y0097134D02*
X0205391Y0097134D01*
X0205391Y0095536D02*
X0152595Y0095536D01*
X0152646Y0093937D02*
X0205391Y0093937D01*
X0205391Y0092339D02*
X0152646Y0092339D01*
X0152645Y0090740D02*
X0161673Y0090740D01*
X0160074Y0089142D02*
X0151906Y0089142D01*
X0152246Y0087543D02*
X0153333Y0087543D01*
X0152591Y0085945D02*
X0152246Y0085945D01*
X0152246Y0084346D02*
X0152591Y0084346D01*
X0152591Y0082748D02*
X0152232Y0082748D01*
X0152285Y0081149D02*
X0152591Y0081149D01*
X0152591Y0079551D02*
X0152285Y0079551D01*
X0152285Y0077952D02*
X0152591Y0077952D01*
X0153217Y0076354D02*
X0151933Y0076354D01*
X0142508Y0069960D02*
X0142041Y0069960D01*
X0142041Y0068361D02*
X0142508Y0068361D01*
X0142508Y0066763D02*
X0142041Y0066763D01*
X0142041Y0065164D02*
X0142508Y0065164D01*
X0142508Y0063566D02*
X0142041Y0063566D01*
X0147120Y0063566D02*
X0156410Y0063566D01*
X0156331Y0063375D02*
X0156331Y0062225D01*
X0156770Y0061164D01*
X0157583Y0060351D01*
X0158645Y0059911D01*
X0159794Y0059911D01*
X0160856Y0060351D01*
X0161669Y0061164D01*
X0161951Y0061844D01*
X0165120Y0065013D01*
X0165120Y0068087D01*
X0164007Y0069200D01*
X0164007Y0069200D01*
X0162420Y0070787D01*
X0162420Y0074729D01*
X0162945Y0074511D01*
X0164094Y0074511D01*
X0165156Y0074951D01*
X0165969Y0075764D01*
X0166409Y0076825D01*
X0166409Y0077975D01*
X0165969Y0079036D01*
X0165420Y0079586D01*
X0165420Y0079939D01*
X0167583Y0079939D01*
X0167594Y0079950D01*
X0167604Y0079939D01*
X0167959Y0079939D01*
X0167959Y0079115D01*
X0173320Y0073754D01*
X0174374Y0072700D01*
X0192334Y0072700D01*
X0207534Y0057500D01*
X0150165Y0057500D01*
X0147120Y0060546D01*
X0147120Y0063774D01*
X0151811Y0063774D01*
X0152631Y0064594D01*
X0152631Y0065400D01*
X0156672Y0065400D01*
X0156770Y0065164D01*
X0152631Y0065164D01*
X0156331Y0063375D02*
X0156770Y0064436D01*
X0157134Y0064800D01*
X0156770Y0065164D01*
X0156437Y0061967D02*
X0147120Y0061967D01*
X0147296Y0060369D02*
X0157565Y0060369D01*
X0160874Y0060369D02*
X0204665Y0060369D01*
X0203067Y0061967D02*
X0162074Y0061967D01*
X0163672Y0063566D02*
X0201468Y0063566D01*
X0199870Y0065164D02*
X0165120Y0065164D01*
X0165120Y0066763D02*
X0198271Y0066763D01*
X0196673Y0068361D02*
X0164845Y0068361D01*
X0163247Y0069960D02*
X0195074Y0069960D01*
X0193476Y0071558D02*
X0162420Y0071558D01*
X0162420Y0073157D02*
X0173917Y0073157D01*
X0172319Y0074755D02*
X0164684Y0074755D01*
X0166213Y0076354D02*
X0170720Y0076354D01*
X0169122Y0077952D02*
X0166409Y0077952D01*
X0165454Y0079551D02*
X0167959Y0079551D01*
X0172626Y0079539D02*
X0175865Y0076300D01*
X0190714Y0076300D01*
X0190214Y0076800D01*
X0179974Y0076800D01*
X0176835Y0079939D01*
X0176810Y0079939D01*
X0176770Y0079899D01*
X0176359Y0079662D01*
X0175901Y0079539D01*
X0174090Y0079539D01*
X0174090Y0083780D01*
X0174090Y0083780D01*
X0174090Y0079539D01*
X0172626Y0079539D01*
X0174090Y0079551D02*
X0174090Y0079551D01*
X0174090Y0081149D02*
X0174090Y0081149D01*
X0174090Y0082748D02*
X0174090Y0082748D01*
X0175944Y0079551D02*
X0177223Y0079551D01*
X0178822Y0077952D02*
X0174213Y0077952D01*
X0175811Y0076354D02*
X0190660Y0076354D01*
X0196126Y0079939D02*
X0197898Y0079939D01*
X0198718Y0080759D01*
X0198718Y0086115D01*
X0200820Y0084013D01*
X0200820Y0081986D01*
X0200270Y0081436D01*
X0199831Y0080375D01*
X0199831Y0079225D01*
X0200270Y0078164D01*
X0201083Y0077351D01*
X0202145Y0076911D01*
X0203294Y0076911D01*
X0204356Y0077351D01*
X0205169Y0078164D01*
X0205609Y0079225D01*
X0205609Y0080375D01*
X0205169Y0081436D01*
X0204620Y0081986D01*
X0204620Y0084922D01*
X0205588Y0084922D01*
X0206650Y0085362D01*
X0206802Y0085514D01*
X0206955Y0085362D01*
X0208017Y0084922D01*
X0208556Y0084922D01*
X0208556Y0075799D01*
X0209376Y0074979D01*
X0215063Y0074979D01*
X0215883Y0075799D01*
X0215883Y0086801D01*
X0215063Y0087621D01*
X0211480Y0087621D01*
X0211480Y0088386D01*
X0211040Y0089447D01*
X0210391Y0090097D01*
X0210391Y0120658D01*
X0210856Y0120851D01*
X0211669Y0121664D01*
X0212109Y0122725D01*
X0212109Y0123875D01*
X0211669Y0124936D01*
X0210856Y0125749D01*
X0209794Y0126189D01*
X0208645Y0126189D01*
X0208369Y0126075D01*
X0208369Y0129202D01*
X0207795Y0129776D01*
X0208074Y0129938D01*
X0208410Y0130273D01*
X0208646Y0130683D01*
X0208769Y0131141D01*
X0208769Y0133457D01*
X0204299Y0133457D01*
X0204299Y0134417D01*
X0203340Y0134417D01*
X0203340Y0138296D01*
X0201380Y0138296D01*
X0201745Y0138447D01*
X0202558Y0139260D01*
X0202997Y0140322D01*
X0202997Y0141471D01*
X0202558Y0142533D01*
X0201909Y0143182D01*
X0201909Y0144011D01*
X0226509Y0168611D01*
X0226576Y0168611D01*
X0229565Y0171600D01*
X0230620Y0172655D01*
X0230620Y0199426D01*
X0215045Y0215000D01*
X0202509Y0215000D01*
X0204385Y0216876D01*
X0205437Y0219414D01*
X0205437Y0222162D01*
X0204385Y0224700D01*
X0202443Y0226643D01*
X0199904Y0227694D01*
X0197157Y0227694D01*
X0194618Y0226643D01*
X0192676Y0224700D01*
X0191624Y0222162D01*
X0191624Y0221039D01*
X0190658Y0222005D01*
X0191309Y0223576D01*
X0191309Y0225402D01*
X0190610Y0227088D01*
X0189319Y0228379D01*
X0187632Y0229078D01*
X0185807Y0229078D01*
X0184120Y0228379D01*
X0182829Y0227088D01*
X0182131Y0225402D01*
X0182131Y0223576D01*
X0182829Y0221890D01*
X0184120Y0220599D01*
X0185807Y0219900D01*
X0187632Y0219900D01*
X0187660Y0219912D01*
X0193972Y0213600D01*
X0134465Y0213600D01*
X0118871Y0229194D01*
X0099679Y0229194D01*
X0099332Y0228847D01*
X0098611Y0229146D01*
X0099465Y0230000D01*
X0104465Y0230000D01*
X0109465Y0235000D01*
X0146858Y0235000D01*
X0147396Y0233701D01*
X0148687Y0232410D01*
X0150374Y0231711D01*
X0152199Y0231711D01*
X0153886Y0232410D01*
X0155177Y0233701D01*
X0155875Y0235387D01*
X0155875Y0237213D01*
X0155177Y0238899D01*
X0153886Y0240190D01*
X0152199Y0240889D01*
X0150374Y0240889D01*
X0148687Y0240190D01*
X0147396Y0238899D01*
X0147272Y0238600D01*
X0107974Y0238600D01*
X0106920Y0237546D01*
X0102974Y0233600D01*
X0101309Y0233600D01*
X0101510Y0233801D01*
X0102209Y0235487D01*
X0102209Y0237313D01*
X0101510Y0238999D01*
X0100219Y0240290D01*
X0098532Y0240989D01*
X0096707Y0240989D01*
X0095020Y0240290D01*
X0093729Y0238999D01*
X0093031Y0237313D01*
X0093031Y0235487D01*
X0093729Y0233801D01*
X0095020Y0232510D01*
X0096338Y0231964D01*
X0090245Y0225871D01*
X0089699Y0227188D01*
X0088408Y0228479D01*
X0086721Y0229178D01*
X0084896Y0229178D01*
X0083209Y0228479D01*
X0081918Y0227188D01*
X0081220Y0225502D01*
X0081220Y0223676D01*
X0081918Y0221990D01*
X0083209Y0220699D01*
X0084685Y0220087D01*
X0083198Y0218600D01*
X0064274Y0218600D01*
X0063220Y0217546D01*
X0050174Y0204500D01*
X0049120Y0203446D01*
X0049120Y0158854D01*
X0050174Y0157800D01*
X0052974Y0155000D01*
X0062974Y0155000D01*
X0072820Y0145154D01*
X0072820Y0137772D01*
X0072669Y0138136D01*
X0071856Y0138949D01*
X0070794Y0139389D01*
X0069645Y0139389D01*
X0068583Y0138949D01*
X0067943Y0138309D01*
X0062290Y0138309D01*
X0062290Y0139071D01*
X0068709Y0139071D01*
X0068709Y0139135D01*
X0068592Y0140019D01*
X0068361Y0140880D01*
X0068020Y0141704D01*
X0067575Y0142476D01*
X0067032Y0143183D01*
X0066402Y0143813D01*
X0065695Y0144356D01*
X0064923Y0144802D01*
X0064099Y0145143D01*
X0063238Y0145373D01*
X0062354Y0145490D01*
X0062290Y0145490D01*
X0062290Y0139071D01*
X0061527Y0139071D01*
X0061527Y0145490D01*
X0061463Y0145490D01*
X0060620Y0145379D01*
X0060620Y0149629D01*
X0060521Y0149867D01*
X0060521Y0151224D01*
X0059701Y0152044D01*
X0059044Y0152044D01*
X0058929Y0152159D01*
X0057495Y0152753D01*
X0055944Y0152753D01*
X0054510Y0152159D01*
X0054395Y0152044D01*
X0053738Y0152044D01*
X0052918Y0151224D01*
X0052918Y0149867D01*
X0052820Y0149629D01*
X0052820Y0146571D01*
X0051510Y0145262D01*
X0050413Y0144165D01*
X0049820Y0142732D01*
X0049820Y0132323D01*
X0050413Y0130890D01*
X0051510Y0129793D01*
X0055509Y0125795D01*
X0055509Y0123637D01*
X0056483Y0121285D01*
X0058283Y0119485D01*
X0060635Y0118510D01*
X0063182Y0118510D01*
X0065534Y0119485D01*
X0066920Y0120870D01*
X0066920Y0112546D01*
X0049974Y0095600D01*
X0048920Y0094546D01*
X0048920Y0062286D01*
X0048520Y0061886D01*
X0048520Y0214182D01*
X0049002Y0213982D01*
X0051749Y0213982D01*
X0054288Y0215033D01*
X0056230Y0216976D01*
X0057282Y0219514D01*
X0057282Y0222262D01*
X0056230Y0224800D01*
X0054288Y0226743D01*
X0051749Y0227794D01*
X0049002Y0227794D01*
X0048520Y0227595D01*
X0048520Y0245701D01*
X0288841Y0245701D01*
X0288841Y0227392D01*
X0286904Y0228194D01*
X0284157Y0228194D01*
X0281618Y0227143D01*
X0279676Y0225200D01*
X0278624Y0222662D01*
X0278624Y0219914D01*
X0279676Y0217376D01*
X0281618Y0215433D01*
X0284157Y0214382D01*
X0286904Y0214382D01*
X0288841Y0215184D01*
X0288841Y0155365D01*
X0285866Y0155365D01*
X0285866Y0155735D01*
X0286614Y0155735D01*
X0287434Y0156555D01*
X0287434Y0162045D01*
X0286614Y0162865D01*
X0283046Y0162865D01*
X0282701Y0163211D01*
X0281646Y0164265D01*
X0274245Y0164265D01*
X0272974Y0162995D01*
X0272969Y0162989D01*
X0270532Y0165427D01*
X0268720Y0165427D01*
X0268720Y0161052D01*
X0268719Y0161052D01*
X0268719Y0161052D01*
X0264345Y0161052D01*
X0264345Y0159240D01*
X0266907Y0156677D01*
X0267194Y0156677D01*
X0267194Y0153092D01*
X0268014Y0152272D01*
X0272916Y0152272D01*
X0272173Y0151528D01*
X0268014Y0151528D01*
X0267194Y0150708D01*
X0267194Y0149940D01*
X0266845Y0150290D01*
X0266845Y0154448D01*
X0266025Y0155268D01*
X0259353Y0155268D01*
X0259120Y0155035D01*
X0259120Y0164832D01*
X0267699Y0173411D01*
X0268517Y0173411D01*
X0269579Y0173851D01*
X0270392Y0174664D01*
X0270831Y0175725D01*
X0270831Y0176875D01*
X0270392Y0177936D01*
X0269579Y0178749D01*
X0268517Y0179189D01*
X0267368Y0179189D01*
X0266306Y0178749D01*
X0266153Y0178597D01*
X0266001Y0178749D01*
X0264939Y0179189D01*
X0263790Y0179189D01*
X0262728Y0178749D01*
X0262575Y0178597D01*
X0262423Y0178749D01*
X0261361Y0179189D01*
X0260385Y0179189D01*
X0258985Y0180589D01*
X0255432Y0180589D01*
X0253609Y0178766D01*
X0253609Y0178875D01*
X0253169Y0179936D01*
X0252356Y0180749D01*
X0251294Y0181189D01*
X0250145Y0181189D01*
X0249083Y0180749D01*
X0248270Y0179936D01*
X0247831Y0178875D01*
X0247831Y0177725D01*
X0248270Y0176664D01*
X0248420Y0176514D01*
X0248420Y0168742D01*
X0248305Y0168789D01*
X0247156Y0168789D01*
X0246094Y0168349D01*
X0245281Y0167536D01*
X0244842Y0166475D01*
X0244842Y0165325D01*
X0244877Y0165239D01*
X0244431Y0165054D01*
X0244431Y0188968D01*
X0245356Y0189351D01*
X0246169Y0190164D01*
X0246609Y0191225D01*
X0246609Y0192375D01*
X0246169Y0193436D01*
X0245356Y0194249D01*
X0244294Y0194689D01*
X0243145Y0194689D01*
X0243031Y0194642D01*
X0243031Y0213535D01*
X0242609Y0213957D01*
X0242609Y0214875D01*
X0242169Y0215936D01*
X0241356Y0216749D01*
X0240294Y0217189D01*
X0239145Y0217189D01*
X0238083Y0216749D01*
X0237270Y0215936D01*
X0236831Y0214875D01*
X0236831Y0213725D01*
X0237073Y0213139D01*
X0236292Y0212359D01*
X0235853Y0211297D01*
X0235853Y0210147D01*
X0236027Y0209727D01*
X0235705Y0209593D01*
X0234892Y0208781D01*
X0234453Y0207719D01*
X0234453Y0206569D01*
X0234892Y0205508D01*
X0235705Y0204695D01*
X0236631Y0204312D01*
X0236631Y0159635D01*
X0236381Y0159385D01*
X0235942Y0158324D01*
X0235942Y0157174D01*
X0235966Y0157115D01*
X0235083Y0156749D01*
X0234270Y0155936D01*
X0233831Y0154875D01*
X0233831Y0153725D01*
X0234270Y0152664D01*
X0235083Y0151851D01*
X0236145Y0151411D01*
X0237134Y0151411D01*
X0236942Y0150946D01*
X0236942Y0149796D01*
X0237381Y0148735D01*
X0237534Y0148582D01*
X0237381Y0148430D01*
X0236942Y0147368D01*
X0236942Y0146218D01*
X0237269Y0145427D01*
X0234586Y0146539D01*
X0230806Y0146539D01*
X0227313Y0145092D01*
X0224640Y0142419D01*
X0223194Y0138926D01*
X0223194Y0135146D01*
X0224640Y0131654D01*
X0227313Y0128980D01*
X0230806Y0127534D01*
X0234586Y0127534D01*
X0238079Y0128980D01*
X0240752Y0131654D01*
X0242198Y0135146D01*
X0242198Y0138926D01*
X0240752Y0142419D01*
X0239266Y0143904D01*
X0240405Y0143904D01*
X0241467Y0144344D01*
X0242280Y0145157D01*
X0242720Y0146218D01*
X0242720Y0147195D01*
X0243065Y0147540D01*
X0244120Y0148595D01*
X0244120Y0153013D01*
X0245620Y0154513D01*
X0245620Y0127526D01*
X0240594Y0122500D01*
X0236305Y0122500D01*
X0235656Y0123149D01*
X0234594Y0123589D01*
X0233445Y0123589D01*
X0232383Y0123149D01*
X0231570Y0122336D01*
X0231131Y0121275D01*
X0231131Y0120125D01*
X0231570Y0119064D01*
X0232383Y0118251D01*
X0233445Y0117811D01*
X0234594Y0117811D01*
X0235656Y0118251D01*
X0236305Y0118900D01*
X0237748Y0118900D01*
X0237531Y0118375D01*
X0237531Y0117225D01*
X0237970Y0116164D01*
X0238783Y0115351D01*
X0239845Y0114911D01*
X0240994Y0114911D01*
X0242056Y0115351D01*
X0242869Y0116164D01*
X0243309Y0117225D01*
X0243309Y0118143D01*
X0248420Y0123254D01*
X0248420Y0074276D01*
X0249183Y0073513D01*
X0249183Y0072595D01*
X0249623Y0071533D01*
X0250436Y0070720D01*
X0251498Y0070280D01*
X0252647Y0070280D01*
X0252761Y0070328D01*
X0252761Y0053787D01*
X0249374Y0050400D01*
X0248320Y0049346D01*
X0248320Y0039689D01*
X0246404Y0039689D01*
X0246609Y0040184D01*
X0246609Y0041333D01*
X0246169Y0042395D01*
X0245356Y0043207D01*
X0244294Y0043647D01*
X0243145Y0043647D01*
X0242083Y0043207D01*
X0241434Y0042558D01*
X0235487Y0042558D01*
X0225520Y0052526D01*
X0225520Y0125350D01*
X0226169Y0125999D01*
X0226609Y0127061D01*
X0226609Y0128210D01*
X0226169Y0129272D01*
X0225356Y0130085D01*
X0224294Y0130524D01*
X0223145Y0130524D01*
X0222083Y0130085D01*
X0221270Y0129272D01*
X0221220Y0129149D01*
X0221220Y0138234D01*
X0221954Y0138969D01*
X0223009Y0140023D01*
X0223009Y0142081D01*
X0223669Y0142741D01*
X0224109Y0143803D01*
X0224109Y0144953D01*
X0223669Y0146014D01*
X0222856Y0146827D01*
X0221794Y0147267D01*
X0220645Y0147267D01*
X0219583Y0146827D01*
X0218770Y0146014D01*
X0218331Y0144953D01*
X0218331Y0144689D01*
X0218145Y0144689D01*
X0217083Y0144249D01*
X0216270Y0143436D01*
X0215831Y0142375D01*
X0215831Y0141225D01*
X0216120Y0140528D01*
X0216120Y0073786D01*
X0215470Y0073136D01*
X0215031Y0072075D01*
X0215031Y0070925D01*
X0215470Y0069864D01*
X0216283Y0069051D01*
X0217345Y0068611D01*
X0218494Y0068611D01*
X0219556Y0069051D01*
X0220369Y0069864D01*
X0220809Y0070925D01*
X0220809Y0072075D01*
X0220369Y0073136D01*
X0219720Y0073786D01*
X0219720Y0074290D01*
X0220634Y0073911D01*
X0221783Y0073911D01*
X0221920Y0073968D01*
X0221920Y0054146D01*
X0196126Y0079939D01*
X0196514Y0079551D02*
X0199831Y0079551D01*
X0200151Y0081149D02*
X0198718Y0081149D01*
X0198718Y0082748D02*
X0200820Y0082748D01*
X0200486Y0084346D02*
X0198718Y0084346D01*
X0198718Y0085945D02*
X0198888Y0085945D01*
X0201065Y0089142D02*
X0202438Y0089142D01*
X0204114Y0090740D02*
X0199466Y0090740D01*
X0204620Y0084346D02*
X0208556Y0084346D01*
X0208556Y0082748D02*
X0204620Y0082748D01*
X0205288Y0081149D02*
X0208556Y0081149D01*
X0208556Y0079551D02*
X0205609Y0079551D01*
X0204958Y0077952D02*
X0208556Y0077952D01*
X0208556Y0076354D02*
X0199711Y0076354D01*
X0200482Y0077952D02*
X0198113Y0077952D01*
X0201310Y0074755D02*
X0216120Y0074755D01*
X0216120Y0076354D02*
X0215883Y0076354D01*
X0215883Y0077952D02*
X0216120Y0077952D01*
X0216120Y0079551D02*
X0215883Y0079551D01*
X0215883Y0081149D02*
X0216120Y0081149D01*
X0216120Y0082748D02*
X0215883Y0082748D01*
X0215883Y0084346D02*
X0216120Y0084346D01*
X0216120Y0085945D02*
X0215883Y0085945D01*
X0216120Y0087543D02*
X0215141Y0087543D01*
X0216120Y0089142D02*
X0211167Y0089142D01*
X0210391Y0090740D02*
X0216120Y0090740D01*
X0216120Y0092339D02*
X0210391Y0092339D01*
X0210391Y0093937D02*
X0216120Y0093937D01*
X0216120Y0095536D02*
X0210391Y0095536D01*
X0210391Y0097134D02*
X0216120Y0097134D01*
X0216120Y0098733D02*
X0210391Y0098733D01*
X0210391Y0100332D02*
X0216120Y0100332D01*
X0216120Y0101930D02*
X0210391Y0101930D01*
X0210391Y0103529D02*
X0216120Y0103529D01*
X0216120Y0105127D02*
X0210391Y0105127D01*
X0210391Y0106726D02*
X0216120Y0106726D01*
X0216120Y0108324D02*
X0210391Y0108324D01*
X0210391Y0109923D02*
X0216120Y0109923D01*
X0216120Y0111521D02*
X0210391Y0111521D01*
X0210391Y0113120D02*
X0216120Y0113120D01*
X0216120Y0114718D02*
X0210391Y0114718D01*
X0210391Y0116317D02*
X0216120Y0116317D01*
X0216120Y0117915D02*
X0210391Y0117915D01*
X0210391Y0119514D02*
X0216120Y0119514D01*
X0216120Y0121112D02*
X0211117Y0121112D01*
X0212102Y0122711D02*
X0216120Y0122711D01*
X0216120Y0124309D02*
X0211929Y0124309D01*
X0210473Y0125908D02*
X0216120Y0125908D01*
X0216120Y0127506D02*
X0208369Y0127506D01*
X0208369Y0129105D02*
X0216120Y0129105D01*
X0216120Y0130703D02*
X0208652Y0130703D01*
X0208769Y0132302D02*
X0216120Y0132302D01*
X0216120Y0133900D02*
X0204299Y0133900D01*
X0204299Y0134417D02*
X0208769Y0134417D01*
X0208769Y0136733D01*
X0208646Y0137191D01*
X0208410Y0137601D01*
X0208074Y0137936D01*
X0207664Y0138173D01*
X0207206Y0138296D01*
X0204299Y0138296D01*
X0204299Y0134417D01*
X0204299Y0135499D02*
X0203340Y0135499D01*
X0203340Y0137097D02*
X0204299Y0137097D01*
X0201994Y0138696D02*
X0216120Y0138696D01*
X0216120Y0140294D02*
X0202986Y0140294D01*
X0202823Y0141893D02*
X0215831Y0141893D01*
X0216325Y0143491D02*
X0201909Y0143491D01*
X0202988Y0145090D02*
X0218387Y0145090D01*
X0219444Y0146688D02*
X0204586Y0146688D01*
X0206185Y0148287D02*
X0237322Y0148287D01*
X0236942Y0149885D02*
X0207783Y0149885D01*
X0209382Y0151484D02*
X0235969Y0151484D01*
X0234097Y0153082D02*
X0210980Y0153082D01*
X0212579Y0154681D02*
X0233831Y0154681D01*
X0234613Y0156279D02*
X0214177Y0156279D01*
X0215776Y0157878D02*
X0235942Y0157878D01*
X0236472Y0159476D02*
X0217374Y0159476D01*
X0218973Y0161075D02*
X0236631Y0161075D01*
X0236631Y0162673D02*
X0220571Y0162673D01*
X0222170Y0164272D02*
X0236631Y0164272D01*
X0236631Y0165870D02*
X0223768Y0165870D01*
X0225367Y0167469D02*
X0236631Y0167469D01*
X0236631Y0169068D02*
X0227033Y0169068D01*
X0228631Y0170666D02*
X0236631Y0170666D01*
X0236631Y0172265D02*
X0230230Y0172265D01*
X0230620Y0173863D02*
X0236631Y0173863D01*
X0236631Y0175462D02*
X0230620Y0175462D01*
X0230620Y0177060D02*
X0236631Y0177060D01*
X0236631Y0178659D02*
X0230620Y0178659D01*
X0230620Y0180257D02*
X0236631Y0180257D01*
X0236631Y0181856D02*
X0230620Y0181856D01*
X0230620Y0183454D02*
X0236631Y0183454D01*
X0236631Y0185053D02*
X0230620Y0185053D01*
X0230620Y0186651D02*
X0236631Y0186651D01*
X0236631Y0188250D02*
X0230620Y0188250D01*
X0230620Y0189848D02*
X0236631Y0189848D01*
X0236631Y0191447D02*
X0230620Y0191447D01*
X0230620Y0193045D02*
X0236631Y0193045D01*
X0236631Y0194644D02*
X0230620Y0194644D01*
X0230620Y0196242D02*
X0236631Y0196242D01*
X0236631Y0197841D02*
X0230620Y0197841D01*
X0230606Y0199439D02*
X0236631Y0199439D01*
X0236631Y0201038D02*
X0229007Y0201038D01*
X0227409Y0202636D02*
X0236631Y0202636D01*
X0236631Y0204235D02*
X0225810Y0204235D01*
X0224212Y0205833D02*
X0234758Y0205833D01*
X0234453Y0207432D02*
X0222613Y0207432D01*
X0221015Y0209030D02*
X0235142Y0209030D01*
X0235853Y0210629D02*
X0219416Y0210629D01*
X0217818Y0212227D02*
X0236238Y0212227D01*
X0236831Y0213826D02*
X0216219Y0213826D01*
X0212974Y0210000D02*
X0225620Y0197354D01*
X0225620Y0176847D01*
X0224794Y0177189D01*
X0223645Y0177189D01*
X0222583Y0176749D01*
X0222034Y0176200D01*
X0220433Y0176200D01*
X0219320Y0175087D01*
X0219285Y0175053D01*
X0211849Y0182489D01*
X0210857Y0182900D01*
X0198607Y0182900D01*
X0206095Y0190388D01*
X0209268Y0190388D01*
X0210088Y0191208D01*
X0210088Y0192054D01*
X0211851Y0192054D01*
X0211851Y0191208D01*
X0212671Y0190388D01*
X0216098Y0190388D01*
X0217086Y0189400D01*
X0217534Y0189400D01*
X0218083Y0188851D01*
X0219145Y0188411D01*
X0220294Y0188411D01*
X0221356Y0188851D01*
X0222169Y0189664D01*
X0222609Y0190725D01*
X0222609Y0191875D01*
X0222169Y0192936D01*
X0221356Y0193749D01*
X0220294Y0194189D01*
X0219145Y0194189D01*
X0218588Y0193958D01*
X0218588Y0196699D01*
X0218263Y0197023D01*
X0218293Y0197041D01*
X0218628Y0197376D01*
X0218865Y0197786D01*
X0218988Y0198244D01*
X0218988Y0200462D01*
X0215404Y0200462D01*
X0215404Y0200831D01*
X0215035Y0200831D01*
X0215035Y0204612D01*
X0213014Y0204612D01*
X0212556Y0204489D01*
X0212146Y0204252D01*
X0211811Y0203917D01*
X0211574Y0203507D01*
X0211451Y0203049D01*
X0211451Y0200831D01*
X0215035Y0200831D01*
X0215035Y0200462D01*
X0211451Y0200462D01*
X0211451Y0198244D01*
X0211574Y0197786D01*
X0211811Y0197376D01*
X0212146Y0197041D01*
X0212176Y0197023D01*
X0211851Y0196699D01*
X0211851Y0195854D01*
X0210088Y0195854D01*
X0210088Y0196699D01*
X0209763Y0197023D01*
X0209793Y0197041D01*
X0210128Y0197376D01*
X0210365Y0197786D01*
X0210488Y0198244D01*
X0210488Y0200462D01*
X0206904Y0200462D01*
X0206904Y0200831D01*
X0206535Y0200831D01*
X0206535Y0204612D01*
X0204514Y0204612D01*
X0204056Y0204489D01*
X0203646Y0204252D01*
X0203311Y0203917D01*
X0203074Y0203507D01*
X0202951Y0203049D01*
X0202951Y0200831D01*
X0206535Y0200831D01*
X0206535Y0200462D01*
X0202951Y0200462D01*
X0202951Y0198244D01*
X0203074Y0197786D01*
X0203311Y0197376D01*
X0203646Y0197041D01*
X0203676Y0197023D01*
X0203351Y0196699D01*
X0203351Y0193018D01*
X0201116Y0190783D01*
X0201116Y0194578D01*
X0201131Y0194594D01*
X0201131Y0200006D01*
X0200311Y0200826D01*
X0195018Y0200826D01*
X0194443Y0200252D01*
X0194282Y0200531D01*
X0193947Y0200866D01*
X0193536Y0201103D01*
X0193079Y0201226D01*
X0191008Y0201226D01*
X0191008Y0197534D01*
X0190541Y0197534D01*
X0190541Y0201226D01*
X0188471Y0201226D01*
X0188013Y0201103D01*
X0187603Y0200866D01*
X0187267Y0200531D01*
X0187232Y0200471D01*
X0186951Y0200752D01*
X0186540Y0200989D01*
X0186083Y0201112D01*
X0183953Y0201112D01*
X0183953Y0197478D01*
X0187646Y0197478D01*
X0187646Y0197533D01*
X0190541Y0197533D01*
X0190541Y0197067D01*
X0186908Y0197067D01*
X0186908Y0197011D01*
X0183953Y0197011D01*
X0183953Y0197478D01*
X0183486Y0197478D01*
X0183486Y0197011D01*
X0179794Y0197011D01*
X0179794Y0194941D01*
X0179916Y0194483D01*
X0180153Y0194073D01*
X0180488Y0193738D01*
X0180768Y0193576D01*
X0180194Y0193002D01*
X0180194Y0187708D01*
X0181014Y0186888D01*
X0183743Y0186888D01*
X0182683Y0186449D01*
X0181870Y0185636D01*
X0181431Y0184575D01*
X0181431Y0183425D01*
X0181648Y0182900D01*
X0178746Y0182900D01*
X0178746Y0188002D01*
X0178171Y0188576D01*
X0178451Y0188738D01*
X0178786Y0189073D01*
X0179023Y0189483D01*
X0179146Y0189941D01*
X0179146Y0192011D01*
X0175453Y0192011D01*
X0175453Y0192478D01*
X0179146Y0192478D01*
X0179146Y0194549D01*
X0179023Y0195007D01*
X0178786Y0195417D01*
X0178451Y0195752D01*
X0178040Y0195989D01*
X0177583Y0196112D01*
X0175453Y0196112D01*
X0175453Y0192478D01*
X0174986Y0192478D01*
X0174986Y0192011D01*
X0171294Y0192011D01*
X0169953Y0192011D01*
X0169953Y0192478D01*
X0174986Y0192478D01*
X0174986Y0196112D01*
X0172857Y0196112D01*
X0172470Y0196008D01*
X0172083Y0196112D01*
X0169953Y0196112D01*
X0169953Y0192478D01*
X0169486Y0192478D01*
X0169486Y0192011D01*
X0168146Y0192011D01*
X0164453Y0192011D01*
X0164453Y0192478D01*
X0169486Y0192478D01*
X0169486Y0196112D01*
X0167357Y0196112D01*
X0166970Y0196008D01*
X0166583Y0196112D01*
X0164453Y0196112D01*
X0164453Y0192478D01*
X0163986Y0192478D01*
X0163986Y0192011D01*
X0160294Y0192011D01*
X0160294Y0189941D01*
X0160416Y0189483D01*
X0160653Y0189073D01*
X0160988Y0188738D01*
X0161268Y0188576D01*
X0160694Y0188002D01*
X0160694Y0182900D01*
X0155620Y0182900D01*
X0155620Y0197087D01*
X0155109Y0197598D01*
X0155109Y0198375D01*
X0154669Y0199436D01*
X0153856Y0200249D01*
X0152794Y0200689D01*
X0152018Y0200689D01*
X0149257Y0203450D01*
X0147683Y0203450D01*
X0147488Y0203255D01*
X0124646Y0203255D01*
X0124646Y0204102D01*
X0124071Y0204676D01*
X0124351Y0204838D01*
X0124686Y0205173D01*
X0124923Y0205583D01*
X0125046Y0206041D01*
X0125046Y0208111D01*
X0121353Y0208111D01*
X0121353Y0208578D01*
X0125046Y0208578D01*
X0125046Y0210649D01*
X0124923Y0211107D01*
X0124686Y0211517D01*
X0124351Y0211852D01*
X0123940Y0212089D01*
X0123483Y0212212D01*
X0121353Y0212212D01*
X0121353Y0208578D01*
X0120886Y0208578D01*
X0120886Y0208111D01*
X0117194Y0208111D01*
X0117194Y0207927D01*
X0116520Y0208600D01*
X0116005Y0208600D01*
X0115356Y0209249D01*
X0114294Y0209689D01*
X0113145Y0209689D01*
X0112083Y0209249D01*
X0111270Y0208436D01*
X0110831Y0207375D01*
X0110831Y0206225D01*
X0111270Y0205164D01*
X0112083Y0204351D01*
X0113145Y0203911D01*
X0114294Y0203911D01*
X0115356Y0204351D01*
X0115517Y0204512D01*
X0117594Y0202436D01*
X0117594Y0198808D01*
X0118414Y0197988D01*
X0123825Y0197988D01*
X0124646Y0198808D01*
X0124646Y0199655D01*
X0147677Y0199655D01*
X0149331Y0198002D01*
X0149331Y0197225D01*
X0149770Y0196164D01*
X0150583Y0195351D01*
X0151645Y0194911D01*
X0151820Y0194911D01*
X0151820Y0182900D01*
X0151582Y0182900D01*
X0150590Y0182489D01*
X0145101Y0177000D01*
X0144550Y0177000D01*
X0144094Y0177189D01*
X0142945Y0177189D01*
X0142489Y0177000D01*
X0121382Y0177000D01*
X0120390Y0176589D01*
X0119631Y0175829D01*
X0116277Y0172476D01*
X0116169Y0172737D01*
X0115356Y0173549D01*
X0114294Y0173989D01*
X0113145Y0173989D01*
X0112083Y0173549D01*
X0111270Y0172737D01*
X0110831Y0171675D01*
X0110831Y0170525D01*
X0111270Y0169464D01*
X0112083Y0168651D01*
X0113145Y0168211D01*
X0114063Y0168211D01*
X0114474Y0167800D01*
X0114520Y0167800D01*
X0114520Y0159550D01*
X0112699Y0159550D01*
X0112095Y0159800D01*
X0098911Y0159800D01*
X0099156Y0160045D01*
X0099393Y0160456D01*
X0099516Y0160913D01*
X0099516Y0163820D01*
X0095636Y0163820D01*
X0095636Y0164780D01*
X0094677Y0164780D01*
X0094677Y0169250D01*
X0092361Y0169250D01*
X0091903Y0169127D01*
X0091492Y0168890D01*
X0091183Y0168580D01*
X0091183Y0170020D01*
X0091492Y0169710D01*
X0091903Y0169473D01*
X0092361Y0169350D01*
X0094677Y0169350D01*
X0094677Y0173820D01*
X0095636Y0173820D01*
X0095636Y0169350D01*
X0097953Y0169350D01*
X0098410Y0169473D01*
X0098821Y0169710D01*
X0099156Y0170045D01*
X0099393Y0170456D01*
X0099516Y0170913D01*
X0099516Y0173820D01*
X0095636Y0173820D01*
X0095636Y0174780D01*
X0094677Y0174780D01*
X0094677Y0179250D01*
X0092361Y0179250D01*
X0091903Y0179127D01*
X0091492Y0178890D01*
X0091157Y0178555D01*
X0090996Y0178275D01*
X0090421Y0178850D01*
X0084144Y0178850D01*
X0083494Y0178200D01*
X0083261Y0178200D01*
X0083309Y0178314D01*
X0083309Y0179464D01*
X0082869Y0180525D01*
X0082220Y0181175D01*
X0082220Y0186841D01*
X0094062Y0198683D01*
X0094694Y0198051D01*
X0095756Y0197611D01*
X0096905Y0197611D01*
X0097967Y0198051D01*
X0098780Y0198864D01*
X0099220Y0199925D01*
X0099220Y0201075D01*
X0098780Y0202136D01*
X0097967Y0202949D01*
X0097645Y0203082D01*
X0097820Y0203503D01*
X0097820Y0204653D01*
X0097380Y0205714D01*
X0096567Y0206527D01*
X0095589Y0206932D01*
X0095589Y0207482D01*
X0095149Y0208543D01*
X0094336Y0209356D01*
X0094255Y0209390D01*
X0095976Y0211111D01*
X0096894Y0211111D01*
X0097956Y0211551D01*
X0098769Y0212364D01*
X0099209Y0213425D01*
X0099209Y0214575D01*
X0098769Y0215636D01*
X0097956Y0216449D01*
X0096894Y0216889D01*
X0095745Y0216889D01*
X0094683Y0216449D01*
X0093870Y0215636D01*
X0093431Y0214575D01*
X0093431Y0213657D01*
X0090970Y0211196D01*
X0090923Y0211196D01*
X0080059Y0200332D01*
X0080781Y0202075D01*
X0080781Y0205855D01*
X0079334Y0209348D01*
X0076661Y0212021D01*
X0073169Y0213468D01*
X0069388Y0213468D01*
X0065896Y0212021D01*
X0063223Y0209348D01*
X0061776Y0205855D01*
X0061776Y0202075D01*
X0063223Y0198583D01*
X0065896Y0195910D01*
X0069388Y0194463D01*
X0073169Y0194463D01*
X0074912Y0195185D01*
X0052720Y0172992D01*
X0052720Y0201954D01*
X0065765Y0215000D01*
X0084689Y0215000D01*
X0091797Y0222108D01*
X0091797Y0222332D01*
X0093063Y0223598D01*
X0093729Y0221990D01*
X0095020Y0220699D01*
X0096707Y0220000D01*
X0098532Y0220000D01*
X0100219Y0220699D01*
X0101510Y0221990D01*
X0102209Y0223676D01*
X0102209Y0225502D01*
X0102170Y0225594D01*
X0104370Y0225594D01*
X0103576Y0224800D01*
X0102524Y0222262D01*
X0102524Y0219514D01*
X0103576Y0216976D01*
X0105518Y0215033D01*
X0108057Y0213982D01*
X0110804Y0213982D01*
X0113343Y0215033D01*
X0115285Y0216976D01*
X0116337Y0219514D01*
X0116337Y0222262D01*
X0115285Y0224800D01*
X0114491Y0225594D01*
X0117379Y0225594D01*
X0132974Y0210000D01*
X0212974Y0210000D01*
X0213944Y0209030D02*
X0125046Y0209030D01*
X0125046Y0207432D02*
X0215542Y0207432D01*
X0217141Y0205833D02*
X0124990Y0205833D01*
X0124513Y0204235D02*
X0203628Y0204235D01*
X0202951Y0202636D02*
X0150070Y0202636D01*
X0151669Y0201038D02*
X0181080Y0201038D01*
X0180899Y0200989D02*
X0180488Y0200752D01*
X0180153Y0200417D01*
X0179916Y0200007D01*
X0179794Y0199549D01*
X0179794Y0197478D01*
X0183486Y0197478D01*
X0183486Y0201112D01*
X0181357Y0201112D01*
X0180899Y0200989D01*
X0179794Y0199439D02*
X0154666Y0199439D01*
X0155109Y0197841D02*
X0179794Y0197841D01*
X0179794Y0196242D02*
X0155620Y0196242D01*
X0155620Y0194644D02*
X0160319Y0194644D01*
X0160294Y0194549D02*
X0160294Y0192478D01*
X0163986Y0192478D01*
X0163986Y0196112D01*
X0161857Y0196112D01*
X0161399Y0195989D01*
X0160988Y0195752D01*
X0160653Y0195417D01*
X0160416Y0195007D01*
X0160294Y0194549D01*
X0160294Y0193045D02*
X0155620Y0193045D01*
X0155620Y0191447D02*
X0160294Y0191447D01*
X0160318Y0189848D02*
X0155620Y0189848D01*
X0155620Y0188250D02*
X0160941Y0188250D01*
X0160694Y0186651D02*
X0155620Y0186651D01*
X0155620Y0185053D02*
X0160694Y0185053D01*
X0160694Y0183454D02*
X0155620Y0183454D01*
X0151820Y0183454D02*
X0102234Y0183454D01*
X0102234Y0181856D02*
X0149957Y0181856D01*
X0148358Y0180257D02*
X0102789Y0180257D01*
X0102669Y0180547D02*
X0102234Y0180982D01*
X0102234Y0187229D01*
X0102884Y0187878D01*
X0103323Y0188940D01*
X0103323Y0190090D01*
X0102884Y0191151D01*
X0102071Y0191964D01*
X0101009Y0192404D01*
X0099860Y0192404D01*
X0098798Y0191964D01*
X0097985Y0191151D01*
X0097546Y0190090D01*
X0097546Y0188940D01*
X0097985Y0187878D01*
X0098635Y0187229D01*
X0098635Y0181381D01*
X0098583Y0181360D01*
X0097770Y0180547D01*
X0097331Y0179486D01*
X0097331Y0179250D01*
X0095636Y0179250D01*
X0095636Y0174780D01*
X0099516Y0174780D01*
X0099516Y0176076D01*
X0099645Y0176022D01*
X0100794Y0176022D01*
X0101856Y0176462D01*
X0102669Y0177275D01*
X0103109Y0178336D01*
X0103109Y0179486D01*
X0102669Y0180547D01*
X0103109Y0178659D02*
X0146760Y0178659D01*
X0145161Y0177060D02*
X0144405Y0177060D01*
X0142634Y0177060D02*
X0102454Y0177060D01*
X0099516Y0175462D02*
X0119263Y0175462D01*
X0119631Y0175829D02*
X0119631Y0175829D01*
X0117664Y0173863D02*
X0114598Y0173863D01*
X0112841Y0173863D02*
X0095636Y0173863D01*
X0095636Y0172265D02*
X0094677Y0172265D01*
X0094677Y0170666D02*
X0095636Y0170666D01*
X0095636Y0169250D02*
X0095636Y0164780D01*
X0099516Y0164780D01*
X0099516Y0167687D01*
X0099393Y0168144D01*
X0099156Y0168555D01*
X0098821Y0168890D01*
X0098410Y0169127D01*
X0097953Y0169250D01*
X0095636Y0169250D01*
X0095636Y0169068D02*
X0094677Y0169068D01*
X0094677Y0167469D02*
X0095636Y0167469D01*
X0095636Y0165870D02*
X0094677Y0165870D01*
X0095636Y0164272D02*
X0114520Y0164272D01*
X0114520Y0165870D02*
X0099516Y0165870D01*
X0099516Y0167469D02*
X0114520Y0167469D01*
X0111667Y0169068D02*
X0098513Y0169068D01*
X0099449Y0170666D02*
X0110831Y0170666D01*
X0111075Y0172265D02*
X0099516Y0172265D01*
X0095636Y0175462D02*
X0094677Y0175462D01*
X0094677Y0177060D02*
X0095636Y0177060D01*
X0095636Y0178659D02*
X0094677Y0178659D01*
X0097650Y0180257D02*
X0082980Y0180257D01*
X0083309Y0178659D02*
X0083953Y0178659D01*
X0082220Y0181856D02*
X0098635Y0181856D01*
X0098635Y0183454D02*
X0082220Y0183454D01*
X0082220Y0185053D02*
X0098635Y0185053D01*
X0098635Y0186651D02*
X0082220Y0186651D01*
X0083628Y0188250D02*
X0097832Y0188250D01*
X0097546Y0189848D02*
X0085226Y0189848D01*
X0086825Y0191447D02*
X0098281Y0191447D01*
X0102588Y0191447D02*
X0151820Y0191447D01*
X0151820Y0193045D02*
X0088423Y0193045D01*
X0090022Y0194644D02*
X0151820Y0194644D01*
X0149738Y0196242D02*
X0091620Y0196242D01*
X0093219Y0197841D02*
X0095201Y0197841D01*
X0097460Y0197841D02*
X0149331Y0197841D01*
X0147893Y0199439D02*
X0124646Y0199439D01*
X0117594Y0199439D02*
X0099018Y0199439D01*
X0099220Y0201038D02*
X0117594Y0201038D01*
X0117393Y0202636D02*
X0098280Y0202636D01*
X0097820Y0204235D02*
X0112363Y0204235D01*
X0110993Y0205833D02*
X0097261Y0205833D01*
X0095589Y0207432D02*
X0110854Y0207432D01*
X0111864Y0209030D02*
X0094662Y0209030D01*
X0095494Y0210629D02*
X0117194Y0210629D01*
X0117194Y0210649D02*
X0117194Y0208578D01*
X0120886Y0208578D01*
X0120886Y0212212D01*
X0118757Y0212212D01*
X0118299Y0212089D01*
X0117888Y0211852D01*
X0117553Y0211517D01*
X0117316Y0211107D01*
X0117194Y0210649D01*
X0117194Y0209030D02*
X0115575Y0209030D01*
X0115794Y0204235D02*
X0115076Y0204235D01*
X0120886Y0209030D02*
X0121353Y0209030D01*
X0121353Y0210629D02*
X0120886Y0210629D01*
X0125046Y0210629D02*
X0132345Y0210629D01*
X0130747Y0212227D02*
X0098632Y0212227D01*
X0099209Y0213826D02*
X0129148Y0213826D01*
X0127550Y0215424D02*
X0113734Y0215424D01*
X0115305Y0217023D02*
X0125951Y0217023D01*
X0124353Y0218621D02*
X0115967Y0218621D01*
X0116337Y0220220D02*
X0122754Y0220220D01*
X0121156Y0221818D02*
X0116337Y0221818D01*
X0115858Y0223417D02*
X0119557Y0223417D01*
X0117959Y0225015D02*
X0115070Y0225015D01*
X0119853Y0228212D02*
X0147954Y0228212D01*
X0148036Y0228294D02*
X0147481Y0227739D01*
X0147020Y0227104D01*
X0146663Y0226404D01*
X0146420Y0225657D01*
X0146298Y0224882D01*
X0146298Y0224742D01*
X0151033Y0224742D01*
X0151033Y0224236D01*
X0146298Y0224236D01*
X0146298Y0224096D01*
X0146420Y0223321D01*
X0146663Y0222574D01*
X0147020Y0221874D01*
X0147481Y0221239D01*
X0148036Y0220684D01*
X0148672Y0220222D01*
X0149371Y0219866D01*
X0150118Y0219623D01*
X0150894Y0219500D01*
X0151033Y0219500D01*
X0151033Y0224236D01*
X0151540Y0224236D01*
X0151540Y0224742D01*
X0156275Y0224742D01*
X0156275Y0224882D01*
X0156153Y0225657D01*
X0155910Y0226404D01*
X0155553Y0227104D01*
X0155092Y0227739D01*
X0154537Y0228294D01*
X0153901Y0228756D01*
X0153202Y0229112D01*
X0152455Y0229355D01*
X0151679Y0229478D01*
X0151540Y0229478D01*
X0151540Y0224742D01*
X0151033Y0224742D01*
X0151033Y0229478D01*
X0150894Y0229478D01*
X0150118Y0229355D01*
X0149371Y0229112D01*
X0148672Y0228756D01*
X0148036Y0228294D01*
X0146770Y0226614D02*
X0143417Y0226614D01*
X0143388Y0226643D02*
X0140849Y0227694D01*
X0138102Y0227694D01*
X0135563Y0226643D01*
X0133621Y0224700D01*
X0132569Y0222162D01*
X0132569Y0219414D01*
X0133621Y0216876D01*
X0135563Y0214933D01*
X0138102Y0213882D01*
X0140849Y0213882D01*
X0143388Y0214933D01*
X0145330Y0216876D01*
X0146382Y0219414D01*
X0146382Y0222162D01*
X0145330Y0224700D01*
X0143388Y0226643D01*
X0145015Y0225015D02*
X0146319Y0225015D01*
X0146405Y0223417D02*
X0145862Y0223417D01*
X0146382Y0221818D02*
X0147060Y0221818D01*
X0146382Y0220220D02*
X0148676Y0220220D01*
X0151033Y0220220D02*
X0151540Y0220220D01*
X0151540Y0219500D02*
X0151679Y0219500D01*
X0152455Y0219623D01*
X0153202Y0219866D01*
X0153901Y0220222D01*
X0154537Y0220684D01*
X0155092Y0221239D01*
X0155553Y0221874D01*
X0155910Y0222574D01*
X0156153Y0223321D01*
X0156275Y0224096D01*
X0156275Y0224236D01*
X0151540Y0224236D01*
X0151540Y0219500D01*
X0151540Y0221818D02*
X0151033Y0221818D01*
X0151033Y0223417D02*
X0151540Y0223417D01*
X0151540Y0225015D02*
X0151033Y0225015D01*
X0151033Y0226614D02*
X0151540Y0226614D01*
X0151540Y0228212D02*
X0151033Y0228212D01*
X0154618Y0228212D02*
X0159765Y0228212D01*
X0159847Y0228294D02*
X0159292Y0227739D01*
X0158831Y0227104D01*
X0158474Y0226404D01*
X0158231Y0225657D01*
X0158109Y0224882D01*
X0158109Y0224742D01*
X0162844Y0224742D01*
X0162844Y0224236D01*
X0158109Y0224236D01*
X0158109Y0224096D01*
X0158231Y0223321D01*
X0158474Y0222574D01*
X0158831Y0221874D01*
X0159292Y0221239D01*
X0159847Y0220684D01*
X0160483Y0220222D01*
X0161182Y0219866D01*
X0161929Y0219623D01*
X0162705Y0219500D01*
X0162844Y0219500D01*
X0162844Y0224236D01*
X0163351Y0224236D01*
X0163351Y0224742D01*
X0168086Y0224742D01*
X0168086Y0224882D01*
X0167964Y0225657D01*
X0167721Y0226404D01*
X0167364Y0227104D01*
X0166903Y0227739D01*
X0166348Y0228294D01*
X0165712Y0228756D01*
X0165013Y0229112D01*
X0164266Y0229355D01*
X0163490Y0229478D01*
X0163351Y0229478D01*
X0163351Y0224742D01*
X0162844Y0224742D01*
X0162844Y0229478D01*
X0162705Y0229478D01*
X0161929Y0229355D01*
X0161182Y0229112D01*
X0160483Y0228756D01*
X0159847Y0228294D01*
X0158581Y0226614D02*
X0155803Y0226614D01*
X0156254Y0225015D02*
X0158130Y0225015D01*
X0158216Y0223417D02*
X0156168Y0223417D01*
X0155513Y0221818D02*
X0158871Y0221818D01*
X0160487Y0220220D02*
X0153897Y0220220D01*
X0146053Y0218621D02*
X0188951Y0218621D01*
X0190549Y0217023D02*
X0145391Y0217023D01*
X0143879Y0215424D02*
X0192148Y0215424D01*
X0193746Y0213826D02*
X0134239Y0213826D01*
X0135072Y0215424D02*
X0132641Y0215424D01*
X0133560Y0217023D02*
X0131042Y0217023D01*
X0129444Y0218621D02*
X0132898Y0218621D01*
X0132569Y0220220D02*
X0127845Y0220220D01*
X0126247Y0221818D02*
X0132569Y0221818D01*
X0133089Y0223417D02*
X0124648Y0223417D01*
X0123050Y0225015D02*
X0133936Y0225015D01*
X0135534Y0226614D02*
X0121451Y0226614D01*
X0109072Y0234606D02*
X0147021Y0234606D01*
X0148089Y0233008D02*
X0107473Y0233008D01*
X0105875Y0231409D02*
X0173894Y0231409D01*
X0173740Y0231434D02*
X0174516Y0231311D01*
X0174655Y0231311D01*
X0174655Y0236047D01*
X0169920Y0236047D01*
X0169920Y0235907D01*
X0170042Y0235132D01*
X0170285Y0234385D01*
X0170642Y0233685D01*
X0171103Y0233050D01*
X0171658Y0232495D01*
X0172294Y0232033D01*
X0172993Y0231677D01*
X0173740Y0231434D01*
X0174655Y0231409D02*
X0175162Y0231409D01*
X0175162Y0231311D02*
X0175301Y0231311D01*
X0176077Y0231434D01*
X0176824Y0231677D01*
X0177523Y0232033D01*
X0178159Y0232495D01*
X0178714Y0233050D01*
X0179175Y0233685D01*
X0179532Y0234385D01*
X0179775Y0235132D01*
X0179897Y0235907D01*
X0179897Y0236047D01*
X0175162Y0236047D01*
X0175162Y0236553D01*
X0179897Y0236553D01*
X0179897Y0236693D01*
X0179775Y0237468D01*
X0179532Y0238215D01*
X0179175Y0238915D01*
X0178714Y0239550D01*
X0178159Y0240105D01*
X0177523Y0240567D01*
X0176824Y0240923D01*
X0176077Y0241166D01*
X0175301Y0241289D01*
X0175162Y0241289D01*
X0175162Y0236553D01*
X0174655Y0236553D01*
X0174655Y0236047D01*
X0175162Y0236047D01*
X0175162Y0231311D01*
X0175923Y0231409D02*
X0288841Y0231409D01*
X0288841Y0229811D02*
X0251402Y0229811D01*
X0251266Y0229855D02*
X0250490Y0229978D01*
X0250351Y0229978D01*
X0250351Y0225242D01*
X0255086Y0225242D01*
X0255086Y0225382D01*
X0254964Y0226157D01*
X0254721Y0226904D01*
X0254364Y0227604D01*
X0253903Y0228239D01*
X0253348Y0228794D01*
X0252712Y0229256D01*
X0252013Y0229612D01*
X0251266Y0229855D01*
X0250351Y0229811D02*
X0249844Y0229811D01*
X0249844Y0229978D02*
X0249705Y0229978D01*
X0248929Y0229855D01*
X0248182Y0229612D01*
X0247483Y0229256D01*
X0246847Y0228794D01*
X0246292Y0228239D01*
X0245831Y0227604D01*
X0245474Y0226904D01*
X0245231Y0226157D01*
X0245109Y0225382D01*
X0245109Y0225242D01*
X0249844Y0225242D01*
X0249844Y0224736D01*
X0245109Y0224736D01*
X0245109Y0224596D01*
X0245231Y0223821D01*
X0245474Y0223074D01*
X0245831Y0222374D01*
X0246292Y0221739D01*
X0246847Y0221184D01*
X0247483Y0220722D01*
X0248182Y0220366D01*
X0248929Y0220123D01*
X0249705Y0220000D01*
X0249844Y0220000D01*
X0249844Y0224736D01*
X0250351Y0224736D01*
X0250351Y0225242D01*
X0249844Y0225242D01*
X0249844Y0229978D01*
X0248793Y0229811D02*
X0239591Y0229811D01*
X0239455Y0229855D02*
X0238679Y0229978D01*
X0238540Y0229978D01*
X0238540Y0225242D01*
X0243275Y0225242D01*
X0243275Y0225382D01*
X0243153Y0226157D01*
X0242910Y0226904D01*
X0242553Y0227604D01*
X0242092Y0228239D01*
X0241537Y0228794D01*
X0240901Y0229256D01*
X0240202Y0229612D01*
X0239455Y0229855D01*
X0238540Y0229811D02*
X0238033Y0229811D01*
X0238033Y0229978D02*
X0237894Y0229978D01*
X0237118Y0229855D01*
X0236371Y0229612D01*
X0235672Y0229256D01*
X0235036Y0228794D01*
X0234481Y0228239D01*
X0234020Y0227604D01*
X0233663Y0226904D01*
X0233420Y0226157D01*
X0233298Y0225382D01*
X0233298Y0225242D01*
X0238033Y0225242D01*
X0238033Y0224736D01*
X0233298Y0224736D01*
X0233298Y0224596D01*
X0233420Y0223821D01*
X0233663Y0223074D01*
X0234020Y0222374D01*
X0234481Y0221739D01*
X0235036Y0221184D01*
X0235672Y0220722D01*
X0236371Y0220366D01*
X0237118Y0220123D01*
X0237894Y0220000D01*
X0238033Y0220000D01*
X0238033Y0224736D01*
X0238540Y0224736D01*
X0238540Y0225242D01*
X0238033Y0225242D01*
X0238033Y0229978D01*
X0236982Y0229811D02*
X0099276Y0229811D01*
X0101844Y0234606D02*
X0103980Y0234606D01*
X0105579Y0236205D02*
X0102209Y0236205D01*
X0102005Y0237803D02*
X0107177Y0237803D01*
X0101107Y0239402D02*
X0147899Y0239402D01*
X0154674Y0239402D02*
X0159710Y0239402D01*
X0159207Y0238899D02*
X0158509Y0237213D01*
X0158509Y0235387D01*
X0159207Y0233701D01*
X0160498Y0232410D01*
X0162185Y0231711D01*
X0164010Y0231711D01*
X0165697Y0232410D01*
X0166988Y0233701D01*
X0167686Y0235387D01*
X0167686Y0237213D01*
X0166988Y0238899D01*
X0165697Y0240190D01*
X0164010Y0240889D01*
X0162185Y0240889D01*
X0160498Y0240190D01*
X0159207Y0238899D01*
X0158753Y0237803D02*
X0155631Y0237803D01*
X0155875Y0236205D02*
X0158509Y0236205D01*
X0158832Y0234606D02*
X0155552Y0234606D01*
X0154484Y0233008D02*
X0159900Y0233008D01*
X0162844Y0228212D02*
X0163351Y0228212D01*
X0163351Y0226614D02*
X0162844Y0226614D01*
X0162844Y0225015D02*
X0163351Y0225015D01*
X0163351Y0224236D02*
X0168086Y0224236D01*
X0168086Y0224096D01*
X0167964Y0223321D01*
X0167721Y0222574D01*
X0167364Y0221874D01*
X0166903Y0221239D01*
X0166348Y0220684D01*
X0165712Y0220222D01*
X0165013Y0219866D01*
X0164266Y0219623D01*
X0163490Y0219500D01*
X0163351Y0219500D01*
X0163351Y0224236D01*
X0163351Y0223417D02*
X0162844Y0223417D01*
X0162844Y0221818D02*
X0163351Y0221818D01*
X0163351Y0220220D02*
X0162844Y0220220D01*
X0165708Y0220220D02*
X0173223Y0220220D01*
X0173996Y0219900D02*
X0175821Y0219900D01*
X0177508Y0220599D01*
X0178799Y0221890D01*
X0179497Y0223576D01*
X0179497Y0225402D01*
X0178799Y0227088D01*
X0177508Y0228379D01*
X0175821Y0229078D01*
X0173996Y0229078D01*
X0172309Y0228379D01*
X0171018Y0227088D01*
X0170320Y0225402D01*
X0170320Y0223576D01*
X0171018Y0221890D01*
X0172309Y0220599D01*
X0173996Y0219900D01*
X0176594Y0220220D02*
X0185034Y0220220D01*
X0182900Y0221818D02*
X0178728Y0221818D01*
X0179432Y0223417D02*
X0182197Y0223417D01*
X0182131Y0225015D02*
X0179497Y0225015D01*
X0178995Y0226614D02*
X0182633Y0226614D01*
X0183953Y0228212D02*
X0177675Y0228212D01*
X0172142Y0228212D02*
X0166430Y0228212D01*
X0167614Y0226614D02*
X0170822Y0226614D01*
X0170320Y0225015D02*
X0168065Y0225015D01*
X0167979Y0223417D02*
X0170386Y0223417D01*
X0171089Y0221818D02*
X0167324Y0221818D01*
X0166295Y0233008D02*
X0171145Y0233008D01*
X0170213Y0234606D02*
X0167363Y0234606D01*
X0167686Y0236205D02*
X0174655Y0236205D01*
X0174655Y0236553D02*
X0169920Y0236553D01*
X0169920Y0236693D01*
X0170042Y0237468D01*
X0170285Y0238215D01*
X0170642Y0238915D01*
X0171103Y0239550D01*
X0171658Y0240105D01*
X0172294Y0240567D01*
X0172993Y0240923D01*
X0173740Y0241166D01*
X0174516Y0241289D01*
X0174655Y0241289D01*
X0174655Y0236553D01*
X0175162Y0236205D02*
X0182131Y0236205D01*
X0182131Y0235387D02*
X0182131Y0237213D01*
X0182829Y0238899D01*
X0184120Y0240190D01*
X0185807Y0240889D01*
X0187632Y0240889D01*
X0189319Y0240190D01*
X0190610Y0238899D01*
X0191309Y0237213D01*
X0191309Y0235387D01*
X0190610Y0233701D01*
X0189319Y0232410D01*
X0187632Y0231711D01*
X0185807Y0231711D01*
X0184120Y0232410D01*
X0182829Y0233701D01*
X0182131Y0235387D01*
X0182454Y0234606D02*
X0179604Y0234606D01*
X0178672Y0233008D02*
X0183522Y0233008D01*
X0182375Y0237803D02*
X0179666Y0237803D01*
X0178821Y0239402D02*
X0183332Y0239402D01*
X0190107Y0239402D02*
X0234399Y0239402D01*
X0234396Y0239399D02*
X0233698Y0237713D01*
X0233698Y0235887D01*
X0234396Y0234201D01*
X0235687Y0232910D01*
X0237374Y0232211D01*
X0239199Y0232211D01*
X0240886Y0232910D01*
X0242177Y0234201D01*
X0242875Y0235887D01*
X0242875Y0237713D01*
X0242177Y0239399D01*
X0240886Y0240690D01*
X0239199Y0241389D01*
X0237374Y0241389D01*
X0235687Y0240690D01*
X0234396Y0239399D01*
X0233735Y0237803D02*
X0191064Y0237803D01*
X0191309Y0236205D02*
X0233698Y0236205D01*
X0234228Y0234606D02*
X0190985Y0234606D01*
X0189917Y0233008D02*
X0235589Y0233008D01*
X0240984Y0233008D02*
X0247400Y0233008D01*
X0247498Y0232910D02*
X0249185Y0232211D01*
X0251010Y0232211D01*
X0252697Y0232910D01*
X0253988Y0234201D01*
X0254686Y0235887D01*
X0254686Y0237713D01*
X0253988Y0239399D01*
X0252697Y0240690D01*
X0251010Y0241389D01*
X0249185Y0241389D01*
X0247498Y0240690D01*
X0246207Y0239399D01*
X0245509Y0237713D01*
X0245509Y0235887D01*
X0246207Y0234201D01*
X0247498Y0232910D01*
X0246039Y0234606D02*
X0242345Y0234606D01*
X0242875Y0236205D02*
X0245509Y0236205D01*
X0245546Y0237803D02*
X0242838Y0237803D01*
X0242174Y0239402D02*
X0246210Y0239402D01*
X0248247Y0241001D02*
X0240137Y0241001D01*
X0236436Y0241001D02*
X0176586Y0241001D01*
X0175162Y0241001D02*
X0174655Y0241001D01*
X0173231Y0241001D02*
X0087769Y0241001D01*
X0087724Y0241023D02*
X0086977Y0241266D01*
X0086201Y0241389D01*
X0086062Y0241389D01*
X0086062Y0236653D01*
X0090797Y0236653D01*
X0090797Y0236793D01*
X0090675Y0237568D01*
X0090432Y0238315D01*
X0090075Y0239015D01*
X0089614Y0239650D01*
X0089059Y0240205D01*
X0088423Y0240667D01*
X0087724Y0241023D01*
X0086062Y0241001D02*
X0085555Y0241001D01*
X0085555Y0241389D02*
X0085555Y0236653D01*
X0085555Y0236147D01*
X0080820Y0236147D01*
X0080820Y0236007D01*
X0080942Y0235232D01*
X0081185Y0234485D01*
X0081542Y0233785D01*
X0082003Y0233150D01*
X0082558Y0232595D01*
X0083194Y0232133D01*
X0083893Y0231777D01*
X0084640Y0231534D01*
X0085416Y0231411D01*
X0085555Y0231411D01*
X0085555Y0236147D01*
X0086062Y0236147D01*
X0086062Y0236653D01*
X0085555Y0236653D01*
X0080820Y0236653D01*
X0080820Y0236793D01*
X0080942Y0237568D01*
X0081185Y0238315D01*
X0081542Y0239015D01*
X0082003Y0239650D01*
X0082558Y0240205D01*
X0083194Y0240667D01*
X0083893Y0241023D01*
X0084640Y0241266D01*
X0085416Y0241389D01*
X0085555Y0241389D01*
X0083848Y0241001D02*
X0048520Y0241001D01*
X0048520Y0242599D02*
X0288841Y0242599D01*
X0288841Y0241001D02*
X0275570Y0241001D01*
X0276319Y0240690D02*
X0274632Y0241389D01*
X0272807Y0241389D01*
X0271120Y0240690D01*
X0269829Y0239399D01*
X0269131Y0237713D01*
X0269131Y0235887D01*
X0269829Y0234201D01*
X0271120Y0232910D01*
X0272807Y0232211D01*
X0274632Y0232211D01*
X0276319Y0232910D01*
X0277610Y0234201D01*
X0278309Y0235887D01*
X0278309Y0237713D01*
X0277610Y0239399D01*
X0276319Y0240690D01*
X0277607Y0239402D02*
X0288841Y0239402D01*
X0288841Y0237803D02*
X0278271Y0237803D01*
X0278309Y0236205D02*
X0288841Y0236205D01*
X0288841Y0234606D02*
X0277778Y0234606D01*
X0276417Y0233008D02*
X0288841Y0233008D01*
X0288841Y0228212D02*
X0276986Y0228212D01*
X0277610Y0227588D02*
X0276319Y0228879D01*
X0274632Y0229578D01*
X0272807Y0229578D01*
X0271120Y0228879D01*
X0269829Y0227588D01*
X0269131Y0225902D01*
X0269131Y0224076D01*
X0269462Y0223277D01*
X0266725Y0220540D01*
X0263159Y0220540D01*
X0264508Y0221099D01*
X0265799Y0222390D01*
X0266497Y0224076D01*
X0266497Y0225902D01*
X0265799Y0227588D01*
X0264508Y0228879D01*
X0262821Y0229578D01*
X0260996Y0229578D01*
X0259309Y0228879D01*
X0258018Y0227588D01*
X0257320Y0225902D01*
X0257320Y0224076D01*
X0258018Y0222390D01*
X0259309Y0221099D01*
X0260658Y0220540D01*
X0258045Y0220540D01*
X0257396Y0221189D01*
X0256334Y0221629D01*
X0255185Y0221629D01*
X0254123Y0221189D01*
X0253310Y0220376D01*
X0252871Y0219315D01*
X0252871Y0218165D01*
X0253310Y0217104D01*
X0254123Y0216291D01*
X0255185Y0215851D01*
X0256334Y0215851D01*
X0257396Y0216291D01*
X0258045Y0216940D01*
X0268216Y0216940D01*
X0272007Y0220731D01*
X0272807Y0220400D01*
X0274632Y0220400D01*
X0276319Y0221099D01*
X0277610Y0222390D01*
X0278309Y0224076D01*
X0278309Y0225902D01*
X0277610Y0227588D01*
X0278014Y0226614D02*
X0281089Y0226614D01*
X0279599Y0225015D02*
X0278309Y0225015D01*
X0278035Y0223417D02*
X0278937Y0223417D01*
X0278624Y0221818D02*
X0277039Y0221818D01*
X0278624Y0220220D02*
X0271496Y0220220D01*
X0269898Y0218621D02*
X0279160Y0218621D01*
X0280029Y0217023D02*
X0268299Y0217023D01*
X0268003Y0221818D02*
X0265228Y0221818D01*
X0266224Y0223417D02*
X0269404Y0223417D01*
X0269131Y0225015D02*
X0266497Y0225015D01*
X0266203Y0226614D02*
X0269426Y0226614D01*
X0270453Y0228212D02*
X0265175Y0228212D01*
X0263824Y0232177D02*
X0264523Y0232533D01*
X0265159Y0232995D01*
X0265714Y0233550D01*
X0266175Y0234185D01*
X0266532Y0234885D01*
X0266775Y0235632D01*
X0266897Y0236407D01*
X0266897Y0236547D01*
X0262162Y0236547D01*
X0262162Y0237053D01*
X0266897Y0237053D01*
X0266897Y0237193D01*
X0266775Y0237968D01*
X0266532Y0238715D01*
X0266175Y0239415D01*
X0265714Y0240050D01*
X0265159Y0240605D01*
X0264523Y0241067D01*
X0263824Y0241423D01*
X0263077Y0241666D01*
X0262301Y0241789D01*
X0262162Y0241789D01*
X0262162Y0237053D01*
X0261655Y0237053D01*
X0261655Y0236547D01*
X0256920Y0236547D01*
X0256920Y0236407D01*
X0257042Y0235632D01*
X0257285Y0234885D01*
X0257642Y0234185D01*
X0258103Y0233550D01*
X0258658Y0232995D01*
X0259294Y0232533D01*
X0259993Y0232177D01*
X0260740Y0231934D01*
X0261516Y0231811D01*
X0261655Y0231811D01*
X0261655Y0236547D01*
X0262162Y0236547D01*
X0262162Y0231811D01*
X0262301Y0231811D01*
X0263077Y0231934D01*
X0263824Y0232177D01*
X0265172Y0233008D02*
X0271022Y0233008D01*
X0269661Y0234606D02*
X0266390Y0234606D01*
X0266865Y0236205D02*
X0269131Y0236205D01*
X0269168Y0237803D02*
X0266801Y0237803D01*
X0266182Y0239402D02*
X0269832Y0239402D01*
X0271869Y0241001D02*
X0264615Y0241001D01*
X0262162Y0241001D02*
X0261655Y0241001D01*
X0261655Y0241789D02*
X0261655Y0237053D01*
X0256920Y0237053D01*
X0256920Y0237193D01*
X0257042Y0237968D01*
X0257285Y0238715D01*
X0257642Y0239415D01*
X0258103Y0240050D01*
X0258658Y0240605D01*
X0259294Y0241067D01*
X0259993Y0241423D01*
X0260740Y0241666D01*
X0261516Y0241789D01*
X0261655Y0241789D01*
X0261655Y0239402D02*
X0262162Y0239402D01*
X0262162Y0237803D02*
X0261655Y0237803D01*
X0261655Y0236205D02*
X0262162Y0236205D01*
X0262162Y0234606D02*
X0261655Y0234606D01*
X0261655Y0233008D02*
X0262162Y0233008D01*
X0258645Y0233008D02*
X0252795Y0233008D01*
X0254156Y0234606D02*
X0257427Y0234606D01*
X0256952Y0236205D02*
X0254686Y0236205D01*
X0254649Y0237803D02*
X0257016Y0237803D01*
X0257635Y0239402D02*
X0253985Y0239402D01*
X0251948Y0241001D02*
X0259202Y0241001D01*
X0258642Y0228212D02*
X0253922Y0228212D01*
X0254815Y0226614D02*
X0257615Y0226614D01*
X0257320Y0225015D02*
X0250351Y0225015D01*
X0250351Y0224736D02*
X0255086Y0224736D01*
X0255086Y0224596D01*
X0254964Y0223821D01*
X0254721Y0223074D01*
X0254364Y0222374D01*
X0253903Y0221739D01*
X0253348Y0221184D01*
X0252712Y0220722D01*
X0252013Y0220366D01*
X0251266Y0220123D01*
X0250490Y0220000D01*
X0250351Y0220000D01*
X0250351Y0224736D01*
X0249844Y0225015D02*
X0238540Y0225015D01*
X0238540Y0224736D02*
X0243275Y0224736D01*
X0243275Y0224596D01*
X0243153Y0223821D01*
X0242910Y0223074D01*
X0242553Y0222374D01*
X0242092Y0221739D01*
X0241537Y0221184D01*
X0240901Y0220722D01*
X0240202Y0220366D01*
X0239455Y0220123D01*
X0238679Y0220000D01*
X0238540Y0220000D01*
X0238540Y0224736D01*
X0238033Y0225015D02*
X0232407Y0225015D01*
X0232330Y0225200D02*
X0230388Y0227143D01*
X0227849Y0228194D01*
X0225102Y0228194D01*
X0222563Y0227143D01*
X0220621Y0225200D01*
X0219569Y0222662D01*
X0219569Y0219914D01*
X0220621Y0217376D01*
X0222563Y0215433D01*
X0225102Y0214382D01*
X0227849Y0214382D01*
X0230388Y0215433D01*
X0232330Y0217376D01*
X0233382Y0219914D01*
X0233382Y0222662D01*
X0232330Y0225200D01*
X0233569Y0226614D02*
X0230917Y0226614D01*
X0233069Y0223417D02*
X0233552Y0223417D01*
X0233382Y0221818D02*
X0234423Y0221818D01*
X0233382Y0220220D02*
X0236820Y0220220D01*
X0238033Y0220220D02*
X0238540Y0220220D01*
X0239753Y0220220D02*
X0248631Y0220220D01*
X0249844Y0220220D02*
X0250351Y0220220D01*
X0251564Y0220220D02*
X0253246Y0220220D01*
X0252871Y0218621D02*
X0232846Y0218621D01*
X0231977Y0217023D02*
X0238744Y0217023D01*
X0240695Y0217023D02*
X0253391Y0217023D01*
X0253961Y0221818D02*
X0258589Y0221818D01*
X0257593Y0223417D02*
X0254832Y0223417D01*
X0250351Y0223417D02*
X0249844Y0223417D01*
X0249844Y0221818D02*
X0250351Y0221818D01*
X0246234Y0221818D02*
X0242150Y0221818D01*
X0243021Y0223417D02*
X0245363Y0223417D01*
X0245380Y0226614D02*
X0243004Y0226614D01*
X0242111Y0228212D02*
X0246273Y0228212D01*
X0249844Y0228212D02*
X0250351Y0228212D01*
X0250351Y0226614D02*
X0249844Y0226614D01*
X0238540Y0226614D02*
X0238033Y0226614D01*
X0238033Y0228212D02*
X0238540Y0228212D01*
X0234462Y0228212D02*
X0189486Y0228212D01*
X0190806Y0226614D02*
X0194589Y0226614D01*
X0192991Y0225015D02*
X0191309Y0225015D01*
X0191243Y0223417D02*
X0192144Y0223417D01*
X0191624Y0221818D02*
X0190845Y0221818D01*
X0202472Y0226614D02*
X0222034Y0226614D01*
X0220544Y0225015D02*
X0204070Y0225015D01*
X0204917Y0223417D02*
X0219882Y0223417D01*
X0219569Y0221818D02*
X0205437Y0221818D01*
X0205437Y0220220D02*
X0219569Y0220220D01*
X0220105Y0218621D02*
X0205108Y0218621D01*
X0204446Y0217023D02*
X0220974Y0217023D01*
X0222585Y0215424D02*
X0202934Y0215424D01*
X0206904Y0204612D02*
X0206904Y0200831D01*
X0210488Y0200831D01*
X0210488Y0203049D01*
X0210365Y0203507D01*
X0210128Y0203917D01*
X0209793Y0204252D01*
X0209383Y0204489D01*
X0208925Y0204612D01*
X0206904Y0204612D01*
X0206904Y0204235D02*
X0206535Y0204235D01*
X0206535Y0202636D02*
X0206904Y0202636D01*
X0206904Y0201038D02*
X0206535Y0201038D01*
X0202951Y0201038D02*
X0193650Y0201038D01*
X0191008Y0201038D02*
X0190541Y0201038D01*
X0190541Y0199439D02*
X0191008Y0199439D01*
X0191008Y0197841D02*
X0190541Y0197841D01*
X0187899Y0201038D02*
X0186359Y0201038D01*
X0183953Y0201038D02*
X0183486Y0201038D01*
X0183486Y0199439D02*
X0183953Y0199439D01*
X0183953Y0197841D02*
X0183486Y0197841D01*
X0179873Y0194644D02*
X0179120Y0194644D01*
X0179146Y0193045D02*
X0180237Y0193045D01*
X0180194Y0191447D02*
X0179146Y0191447D01*
X0179121Y0189848D02*
X0180194Y0189848D01*
X0180194Y0188250D02*
X0178498Y0188250D01*
X0178746Y0186651D02*
X0183171Y0186651D01*
X0181629Y0185053D02*
X0178746Y0185053D01*
X0178746Y0183454D02*
X0181431Y0183454D01*
X0182331Y0175602D02*
X0175659Y0175602D01*
X0174839Y0174781D01*
X0174839Y0166141D01*
X0175659Y0165321D01*
X0180831Y0165321D01*
X0180831Y0165225D01*
X0181270Y0164164D01*
X0181920Y0163514D01*
X0181920Y0158609D01*
X0181590Y0158279D01*
X0175659Y0158279D01*
X0175392Y0158011D01*
X0173453Y0158011D01*
X0173453Y0158478D01*
X0177146Y0158478D01*
X0177146Y0160549D01*
X0177023Y0161007D01*
X0176786Y0161417D01*
X0176451Y0161752D01*
X0176040Y0161989D01*
X0175583Y0162112D01*
X0173453Y0162112D01*
X0173453Y0158478D01*
X0172986Y0158478D01*
X0172986Y0158011D01*
X0169294Y0158011D01*
X0169294Y0155941D01*
X0169416Y0155483D01*
X0169653Y0155073D01*
X0169988Y0154738D01*
X0170268Y0154576D01*
X0169694Y0154002D01*
X0169694Y0148708D01*
X0170514Y0147888D01*
X0175925Y0147888D01*
X0176036Y0147998D01*
X0182331Y0147998D01*
X0183151Y0148819D01*
X0183151Y0154749D01*
X0184288Y0155886D01*
X0184288Y0148819D01*
X0185108Y0147998D01*
X0191780Y0147998D01*
X0192600Y0148819D01*
X0192600Y0157459D01*
X0191780Y0158279D01*
X0185520Y0158279D01*
X0185520Y0162192D01*
X0185761Y0161951D01*
X0186823Y0161511D01*
X0187972Y0161511D01*
X0189034Y0161951D01*
X0189847Y0162764D01*
X0190286Y0163825D01*
X0190286Y0164975D01*
X0190244Y0165077D01*
X0190244Y0165321D01*
X0190294Y0165321D01*
X0190294Y0165089D01*
X0193986Y0165089D01*
X0193986Y0164622D01*
X0190294Y0164622D01*
X0190294Y0162551D01*
X0190416Y0162093D01*
X0190653Y0161683D01*
X0190988Y0161348D01*
X0191399Y0161111D01*
X0191857Y0160988D01*
X0193986Y0160988D01*
X0193986Y0164622D01*
X0194453Y0164622D01*
X0194453Y0165089D01*
X0198146Y0165089D01*
X0198146Y0167159D01*
X0198023Y0167617D01*
X0197786Y0168027D01*
X0197451Y0168362D01*
X0197171Y0168524D01*
X0197746Y0169098D01*
X0197746Y0174392D01*
X0196925Y0175212D01*
X0192170Y0175212D01*
X0191780Y0175602D01*
X0185108Y0175602D01*
X0184288Y0174781D01*
X0184288Y0168689D01*
X0183151Y0168689D01*
X0183151Y0174781D01*
X0182331Y0175602D01*
X0182471Y0175462D02*
X0184968Y0175462D01*
X0184288Y0173863D02*
X0183151Y0173863D01*
X0183151Y0172265D02*
X0184288Y0172265D01*
X0184288Y0170666D02*
X0183151Y0170666D01*
X0183151Y0169068D02*
X0184288Y0169068D01*
X0181225Y0164272D02*
X0171809Y0164272D01*
X0171999Y0164351D02*
X0170937Y0163911D01*
X0169788Y0163911D01*
X0168726Y0164351D01*
X0167914Y0165164D01*
X0167474Y0166225D01*
X0167474Y0167143D01*
X0162126Y0172491D01*
X0153394Y0172491D01*
X0152745Y0171842D01*
X0151683Y0171402D01*
X0151420Y0171402D01*
X0151420Y0121331D01*
X0151609Y0120875D01*
X0151609Y0119725D01*
X0151420Y0119269D01*
X0151420Y0117918D01*
X0154838Y0114500D01*
X0160801Y0114500D01*
X0171641Y0125339D01*
X0171526Y0125387D01*
X0170714Y0126199D01*
X0170274Y0127261D01*
X0170274Y0128411D01*
X0170714Y0129472D01*
X0171526Y0130285D01*
X0172588Y0130725D01*
X0173737Y0130725D01*
X0174663Y0130342D01*
X0213293Y0168972D01*
X0213293Y0169888D01*
X0212969Y0170213D01*
X0212051Y0170213D01*
X0210989Y0170652D01*
X0210176Y0171465D01*
X0209736Y0172527D01*
X0209736Y0173676D01*
X0210176Y0174738D01*
X0210989Y0175551D01*
X0211103Y0175598D01*
X0209201Y0177500D01*
X0159257Y0177500D01*
X0153238Y0177500D01*
X0152556Y0176818D01*
X0152745Y0176740D01*
X0153394Y0176091D01*
X0163617Y0176091D01*
X0170019Y0169689D01*
X0170937Y0169689D01*
X0171999Y0169249D01*
X0172812Y0168436D01*
X0173252Y0167375D01*
X0173252Y0166225D01*
X0172812Y0165164D01*
X0171999Y0164351D01*
X0173105Y0165870D02*
X0175110Y0165870D01*
X0174839Y0167469D02*
X0173213Y0167469D01*
X0172181Y0169068D02*
X0174839Y0169068D01*
X0174839Y0170666D02*
X0169042Y0170666D01*
X0167444Y0172265D02*
X0174839Y0172265D01*
X0174839Y0173863D02*
X0165845Y0173863D01*
X0164247Y0175462D02*
X0175519Y0175462D01*
X0167148Y0167469D02*
X0151420Y0167469D01*
X0151420Y0169068D02*
X0165550Y0169068D01*
X0163951Y0170666D02*
X0151420Y0170666D01*
X0153168Y0172265D02*
X0162353Y0172265D01*
X0167621Y0165870D02*
X0151420Y0165870D01*
X0151420Y0164272D02*
X0168917Y0164272D01*
X0170399Y0161989D02*
X0169988Y0161752D01*
X0169653Y0161417D01*
X0169416Y0161007D01*
X0169294Y0160549D01*
X0169294Y0158478D01*
X0172986Y0158478D01*
X0172986Y0162112D01*
X0170857Y0162112D01*
X0170399Y0161989D01*
X0169456Y0161075D02*
X0151420Y0161075D01*
X0151420Y0162673D02*
X0181920Y0162673D01*
X0181920Y0161075D02*
X0176983Y0161075D01*
X0177146Y0159476D02*
X0181920Y0159476D01*
X0185520Y0159476D02*
X0203798Y0159476D01*
X0202199Y0157878D02*
X0192181Y0157878D01*
X0192600Y0156279D02*
X0200601Y0156279D01*
X0199002Y0154681D02*
X0192600Y0154681D01*
X0192600Y0153082D02*
X0197404Y0153082D01*
X0195805Y0151484D02*
X0192600Y0151484D01*
X0192600Y0149885D02*
X0194207Y0149885D01*
X0192608Y0148287D02*
X0192068Y0148287D01*
X0191010Y0146688D02*
X0151420Y0146688D01*
X0151420Y0145090D02*
X0189411Y0145090D01*
X0187813Y0143491D02*
X0151420Y0143491D01*
X0151420Y0141893D02*
X0186214Y0141893D01*
X0184616Y0140294D02*
X0151420Y0140294D01*
X0151420Y0138696D02*
X0183017Y0138696D01*
X0181419Y0137097D02*
X0167075Y0137097D01*
X0167164Y0137073D02*
X0166706Y0137196D01*
X0163799Y0137196D01*
X0163799Y0133317D01*
X0162840Y0133317D01*
X0162840Y0137196D01*
X0159933Y0137196D01*
X0159475Y0137073D01*
X0159065Y0136836D01*
X0158730Y0136501D01*
X0158493Y0136091D01*
X0158370Y0135633D01*
X0158370Y0134989D01*
X0157506Y0134989D01*
X0156444Y0134549D01*
X0155632Y0133736D01*
X0155192Y0132675D01*
X0155192Y0131525D01*
X0155632Y0130464D01*
X0156281Y0129814D01*
X0156281Y0126193D01*
X0158770Y0123704D01*
X0158770Y0121824D01*
X0159590Y0121004D01*
X0167049Y0121004D01*
X0167869Y0121824D01*
X0167869Y0128102D01*
X0167295Y0128676D01*
X0167574Y0128838D01*
X0167910Y0129173D01*
X0168146Y0129583D01*
X0168269Y0130041D01*
X0168269Y0132357D01*
X0163799Y0132357D01*
X0163799Y0133317D01*
X0168269Y0133317D01*
X0168269Y0135633D01*
X0168146Y0136091D01*
X0167910Y0136501D01*
X0167574Y0136836D01*
X0167164Y0137073D01*
X0168269Y0135499D02*
X0179820Y0135499D01*
X0178222Y0133900D02*
X0168269Y0133900D01*
X0168269Y0132302D02*
X0176623Y0132302D01*
X0175025Y0130703D02*
X0173790Y0130703D01*
X0172536Y0130703D02*
X0168269Y0130703D01*
X0167842Y0129105D02*
X0170561Y0129105D01*
X0170274Y0127506D02*
X0167869Y0127506D01*
X0167869Y0125908D02*
X0171005Y0125908D01*
X0170610Y0124309D02*
X0167869Y0124309D01*
X0167869Y0122711D02*
X0169012Y0122711D01*
X0167413Y0121112D02*
X0167157Y0121112D01*
X0165815Y0119514D02*
X0151521Y0119514D01*
X0151510Y0121112D02*
X0159482Y0121112D01*
X0158770Y0122711D02*
X0151420Y0122711D01*
X0151420Y0124309D02*
X0158165Y0124309D01*
X0156566Y0125908D02*
X0151420Y0125908D01*
X0151420Y0127506D02*
X0156281Y0127506D01*
X0156281Y0129105D02*
X0151420Y0129105D01*
X0151420Y0130703D02*
X0155533Y0130703D01*
X0155192Y0132302D02*
X0151420Y0132302D01*
X0151420Y0133900D02*
X0155796Y0133900D01*
X0158370Y0135499D02*
X0151420Y0135499D01*
X0151420Y0137097D02*
X0159564Y0137097D01*
X0162840Y0137097D02*
X0163799Y0137097D01*
X0163799Y0135499D02*
X0162840Y0135499D01*
X0162840Y0133900D02*
X0163799Y0133900D01*
X0170115Y0148287D02*
X0151420Y0148287D01*
X0151420Y0149885D02*
X0169694Y0149885D01*
X0169694Y0151484D02*
X0151420Y0151484D01*
X0151420Y0153082D02*
X0169694Y0153082D01*
X0170087Y0154681D02*
X0151420Y0154681D01*
X0151420Y0156279D02*
X0169294Y0156279D01*
X0169294Y0157878D02*
X0151420Y0157878D01*
X0151420Y0159476D02*
X0169294Y0159476D01*
X0172986Y0159476D02*
X0173453Y0159476D01*
X0173453Y0161075D02*
X0172986Y0161075D01*
X0183151Y0154681D02*
X0184288Y0154681D01*
X0184288Y0153082D02*
X0183151Y0153082D01*
X0183151Y0151484D02*
X0184288Y0151484D01*
X0184288Y0149885D02*
X0183151Y0149885D01*
X0182619Y0148287D02*
X0184820Y0148287D01*
X0191035Y0137097D02*
X0192220Y0137097D01*
X0192220Y0135499D02*
X0189437Y0135499D01*
X0187838Y0133900D02*
X0192220Y0133900D01*
X0192220Y0132302D02*
X0186240Y0132302D01*
X0184641Y0130703D02*
X0192220Y0130703D01*
X0192220Y0129105D02*
X0183043Y0129105D01*
X0182348Y0127506D02*
X0192220Y0127506D01*
X0192220Y0125908D02*
X0183319Y0125908D01*
X0183130Y0124309D02*
X0192220Y0124309D01*
X0192220Y0122711D02*
X0182230Y0122711D01*
X0182090Y0121112D02*
X0192220Y0121112D01*
X0192220Y0119514D02*
X0180491Y0119514D01*
X0178893Y0117915D02*
X0192220Y0117915D01*
X0192220Y0116317D02*
X0174214Y0116317D01*
X0172616Y0114718D02*
X0192220Y0114718D01*
X0191639Y0113120D02*
X0171017Y0113120D01*
X0169419Y0111521D02*
X0191331Y0111521D01*
X0192011Y0109923D02*
X0167820Y0109923D01*
X0166222Y0108324D02*
X0205391Y0108324D01*
X0205391Y0106726D02*
X0164623Y0106726D01*
X0161019Y0114718D02*
X0154620Y0114718D01*
X0153021Y0116317D02*
X0162618Y0116317D01*
X0164216Y0117915D02*
X0151423Y0117915D01*
X0146020Y0117915D02*
X0128620Y0117915D01*
X0128620Y0116317D02*
X0146020Y0116317D01*
X0146020Y0116263D02*
X0146431Y0115271D01*
X0147190Y0114511D01*
X0149752Y0111949D01*
X0148685Y0111949D01*
X0147623Y0111509D01*
X0146810Y0110697D01*
X0146370Y0109635D01*
X0146370Y0108485D01*
X0146810Y0107424D01*
X0147623Y0106611D01*
X0147737Y0106564D01*
X0138320Y0097146D01*
X0138320Y0101546D01*
X0137265Y0102600D01*
X0128620Y0111246D01*
X0128620Y0128958D01*
X0128734Y0128911D01*
X0129883Y0128911D01*
X0130945Y0129351D01*
X0131758Y0130164D01*
X0132197Y0131225D01*
X0132197Y0132375D01*
X0131758Y0133436D01*
X0131209Y0133986D01*
X0131209Y0134235D01*
X0132321Y0134235D01*
X0133120Y0135033D01*
X0133918Y0134235D01*
X0139014Y0134235D01*
X0139554Y0134774D01*
X0139554Y0134405D01*
X0139947Y0134012D01*
X0139270Y0133336D01*
X0138831Y0132274D01*
X0138831Y0131125D01*
X0139270Y0130063D01*
X0140083Y0129250D01*
X0141145Y0128810D01*
X0142294Y0128810D01*
X0143356Y0129250D01*
X0144005Y0129899D01*
X0146020Y0129899D01*
X0146020Y0121331D01*
X0145831Y0120875D01*
X0145831Y0119725D01*
X0146020Y0119269D01*
X0146020Y0116263D01*
X0146983Y0114718D02*
X0128620Y0114718D01*
X0128620Y0113120D02*
X0148582Y0113120D01*
X0147652Y0111521D02*
X0128620Y0111521D01*
X0129943Y0109923D02*
X0146490Y0109923D01*
X0146437Y0108324D02*
X0131541Y0108324D01*
X0133140Y0106726D02*
X0147508Y0106726D01*
X0146301Y0105127D02*
X0134738Y0105127D01*
X0136337Y0103529D02*
X0144703Y0103529D01*
X0143104Y0101930D02*
X0137935Y0101930D01*
X0138320Y0100332D02*
X0141505Y0100332D01*
X0139907Y0098733D02*
X0138320Y0098733D01*
X0144998Y0098733D02*
X0205391Y0098733D01*
X0205391Y0100332D02*
X0146597Y0100332D01*
X0148195Y0101930D02*
X0205391Y0101930D01*
X0205391Y0103529D02*
X0149794Y0103529D01*
X0151392Y0105127D02*
X0205391Y0105127D01*
X0202511Y0109923D02*
X0196428Y0109923D01*
X0197109Y0111521D02*
X0201831Y0111521D01*
X0202139Y0113120D02*
X0196800Y0113120D01*
X0196020Y0114718D02*
X0206791Y0114718D01*
X0206791Y0116317D02*
X0196020Y0116317D01*
X0196020Y0117915D02*
X0206791Y0117915D01*
X0206791Y0119514D02*
X0199319Y0119514D01*
X0201457Y0121013D02*
X0201457Y0121013D01*
X0201556Y0121112D02*
X0206791Y0121112D01*
X0221220Y0130703D02*
X0225591Y0130703D01*
X0226238Y0129105D02*
X0227189Y0129105D01*
X0226609Y0127506D02*
X0245600Y0127506D01*
X0245620Y0129105D02*
X0238203Y0129105D01*
X0239801Y0130703D02*
X0245620Y0130703D01*
X0245620Y0132302D02*
X0241020Y0132302D01*
X0241682Y0133900D02*
X0245620Y0133900D01*
X0245620Y0135499D02*
X0242198Y0135499D01*
X0242198Y0137097D02*
X0245620Y0137097D01*
X0245620Y0138696D02*
X0242198Y0138696D01*
X0241632Y0140294D02*
X0245620Y0140294D01*
X0245620Y0141893D02*
X0240970Y0141893D01*
X0239679Y0143491D02*
X0245620Y0143491D01*
X0245620Y0145090D02*
X0242213Y0145090D01*
X0242720Y0146688D02*
X0245620Y0146688D01*
X0245620Y0148287D02*
X0243812Y0148287D01*
X0244120Y0149885D02*
X0245620Y0149885D01*
X0245620Y0151484D02*
X0244120Y0151484D01*
X0244189Y0153082D02*
X0245620Y0153082D01*
X0236942Y0146688D02*
X0222995Y0146688D01*
X0224052Y0145090D02*
X0227311Y0145090D01*
X0225713Y0143491D02*
X0223979Y0143491D01*
X0224422Y0141893D02*
X0223009Y0141893D01*
X0223009Y0140294D02*
X0223760Y0140294D01*
X0223194Y0138696D02*
X0221681Y0138696D01*
X0221220Y0137097D02*
X0223194Y0137097D01*
X0223194Y0135499D02*
X0221220Y0135499D01*
X0221220Y0133900D02*
X0223710Y0133900D01*
X0224372Y0132302D02*
X0221220Y0132302D01*
X0216120Y0135499D02*
X0208769Y0135499D01*
X0208672Y0137097D02*
X0216120Y0137097D01*
X0226077Y0125908D02*
X0244002Y0125908D01*
X0242403Y0124309D02*
X0225520Y0124309D01*
X0225520Y0122711D02*
X0231945Y0122711D01*
X0231131Y0121112D02*
X0225520Y0121112D01*
X0225520Y0119514D02*
X0231384Y0119514D01*
X0233194Y0117915D02*
X0225520Y0117915D01*
X0225520Y0116317D02*
X0237907Y0116317D01*
X0237531Y0117915D02*
X0234846Y0117915D01*
X0236094Y0122711D02*
X0240805Y0122711D01*
X0244679Y0119514D02*
X0248420Y0119514D01*
X0248420Y0121112D02*
X0246277Y0121112D01*
X0247876Y0122711D02*
X0248420Y0122711D01*
X0248420Y0117915D02*
X0243309Y0117915D01*
X0242932Y0116317D02*
X0248420Y0116317D01*
X0248420Y0114718D02*
X0225520Y0114718D01*
X0225520Y0113120D02*
X0248420Y0113120D01*
X0248420Y0111521D02*
X0225520Y0111521D01*
X0225520Y0109923D02*
X0248420Y0109923D01*
X0248420Y0108324D02*
X0225520Y0108324D01*
X0225520Y0106726D02*
X0248420Y0106726D01*
X0248420Y0105127D02*
X0225520Y0105127D01*
X0225520Y0103529D02*
X0248420Y0103529D01*
X0248420Y0101930D02*
X0225520Y0101930D01*
X0225520Y0100332D02*
X0248420Y0100332D01*
X0248420Y0098733D02*
X0225520Y0098733D01*
X0225520Y0097134D02*
X0248420Y0097134D01*
X0248420Y0095536D02*
X0225520Y0095536D01*
X0225520Y0093937D02*
X0248420Y0093937D01*
X0248420Y0092339D02*
X0225520Y0092339D01*
X0225520Y0090740D02*
X0248420Y0090740D01*
X0248420Y0089142D02*
X0225520Y0089142D01*
X0225520Y0087543D02*
X0248420Y0087543D01*
X0248420Y0085945D02*
X0225520Y0085945D01*
X0225520Y0084346D02*
X0248420Y0084346D01*
X0248420Y0082748D02*
X0225520Y0082748D01*
X0225520Y0081149D02*
X0248420Y0081149D01*
X0248420Y0079551D02*
X0225520Y0079551D01*
X0225520Y0077952D02*
X0248420Y0077952D01*
X0248420Y0076354D02*
X0225520Y0076354D01*
X0225520Y0074755D02*
X0248420Y0074755D01*
X0249183Y0073157D02*
X0225520Y0073157D01*
X0225520Y0071558D02*
X0249613Y0071558D01*
X0252761Y0069960D02*
X0225520Y0069960D01*
X0225520Y0068361D02*
X0252761Y0068361D01*
X0252761Y0066763D02*
X0225520Y0066763D01*
X0225520Y0065164D02*
X0252761Y0065164D01*
X0252761Y0063566D02*
X0225520Y0063566D01*
X0225520Y0061967D02*
X0252761Y0061967D01*
X0252761Y0060369D02*
X0225520Y0060369D01*
X0225520Y0058770D02*
X0252761Y0058770D01*
X0252761Y0057172D02*
X0225520Y0057172D01*
X0225520Y0055573D02*
X0252761Y0055573D01*
X0252761Y0053975D02*
X0225520Y0053975D01*
X0225669Y0052376D02*
X0251350Y0052376D01*
X0249752Y0050778D02*
X0227267Y0050778D01*
X0228866Y0049179D02*
X0248320Y0049179D01*
X0248320Y0047581D02*
X0230464Y0047581D01*
X0232063Y0045982D02*
X0248320Y0045982D01*
X0248320Y0044384D02*
X0233661Y0044384D01*
X0235260Y0042785D02*
X0241661Y0042785D01*
X0245778Y0042785D02*
X0248320Y0042785D01*
X0248320Y0041187D02*
X0246609Y0041187D01*
X0231454Y0031600D02*
X0229796Y0033259D01*
X0229669Y0032952D01*
X0228856Y0032140D01*
X0227794Y0031700D01*
X0226645Y0031700D01*
X0225583Y0032140D01*
X0224770Y0032952D01*
X0224331Y0034014D01*
X0224331Y0035164D01*
X0224770Y0036225D01*
X0224810Y0036265D01*
X0211074Y0050000D01*
X0152910Y0050000D01*
X0139887Y0036977D01*
X0140218Y0036177D01*
X0140218Y0034352D01*
X0139519Y0032665D01*
X0138454Y0031600D01*
X0140534Y0031600D01*
X0140534Y0032938D01*
X0141585Y0035476D01*
X0143528Y0037419D01*
X0146066Y0038470D01*
X0148814Y0038470D01*
X0151352Y0037419D01*
X0152920Y0035851D01*
X0152920Y0037651D01*
X0156661Y0037651D01*
X0156661Y0038335D01*
X0156661Y0042155D01*
X0154483Y0042155D01*
X0154025Y0042032D01*
X0153614Y0041795D01*
X0153279Y0041460D01*
X0153042Y0041050D01*
X0152920Y0040592D01*
X0152920Y0038335D01*
X0156661Y0038335D01*
X0157345Y0038335D01*
X0157345Y0042155D01*
X0159523Y0042155D01*
X0159981Y0042032D01*
X0160392Y0041795D01*
X0160727Y0041460D01*
X0160964Y0041050D01*
X0161086Y0040592D01*
X0161086Y0038335D01*
X0157345Y0038335D01*
X0157345Y0037651D01*
X0161086Y0037651D01*
X0161086Y0036970D01*
X0161344Y0037228D01*
X0168410Y0037228D01*
X0169230Y0036407D01*
X0169230Y0031600D01*
X0191154Y0031600D01*
X0191154Y0036407D01*
X0191974Y0037228D01*
X0199040Y0037228D01*
X0199860Y0036407D01*
X0199860Y0031600D01*
X0208778Y0031600D01*
X0208595Y0031783D01*
X0208595Y0041604D01*
X0209415Y0042424D01*
X0215103Y0042424D01*
X0215923Y0041604D01*
X0215923Y0031783D01*
X0215740Y0031600D01*
X0231454Y0031600D01*
X0229860Y0033194D02*
X0229769Y0033194D01*
X0224670Y0033194D02*
X0215923Y0033194D01*
X0215923Y0034793D02*
X0224331Y0034793D01*
X0224683Y0036391D02*
X0215923Y0036391D01*
X0215923Y0037990D02*
X0223085Y0037990D01*
X0221486Y0039588D02*
X0215923Y0039588D01*
X0215923Y0041187D02*
X0219888Y0041187D01*
X0218289Y0042785D02*
X0145695Y0042785D01*
X0144097Y0041187D02*
X0153121Y0041187D01*
X0152920Y0039588D02*
X0142498Y0039588D01*
X0140900Y0037990D02*
X0144906Y0037990D01*
X0142500Y0036391D02*
X0140129Y0036391D01*
X0140218Y0034793D02*
X0141302Y0034793D01*
X0140640Y0033194D02*
X0139738Y0033194D01*
X0134075Y0039588D02*
X0126322Y0039588D01*
X0128005Y0037990D02*
X0131864Y0037990D01*
X0131129Y0036391D02*
X0128691Y0036391D01*
X0128794Y0034793D02*
X0131040Y0034793D01*
X0131520Y0033194D02*
X0128362Y0033194D01*
X0114820Y0042785D02*
X0113640Y0042785D01*
X0110453Y0039588D02*
X0107120Y0039588D01*
X0108242Y0037990D02*
X0105608Y0037990D01*
X0104696Y0036391D02*
X0107506Y0036391D01*
X0107418Y0034793D02*
X0104785Y0034793D01*
X0104305Y0033194D02*
X0107898Y0033194D01*
X0101808Y0039564D02*
X0103320Y0041075D01*
X0103320Y0043709D01*
X0102795Y0043185D01*
X0101109Y0042487D01*
X0099283Y0042487D01*
X0097596Y0043185D01*
X0096306Y0044476D01*
X0095620Y0046132D01*
X0095620Y0039812D01*
X0094507Y0038699D01*
X0092684Y0036877D01*
X0092974Y0036177D01*
X0092974Y0034352D01*
X0092275Y0032665D01*
X0091210Y0031600D01*
X0097371Y0031600D01*
X0096306Y0032665D01*
X0095607Y0034352D01*
X0095607Y0036177D01*
X0096306Y0037864D01*
X0097596Y0039155D01*
X0099283Y0039854D01*
X0101109Y0039854D01*
X0101808Y0039564D01*
X0101832Y0039588D02*
X0101750Y0039588D01*
X0103320Y0041187D02*
X0095620Y0041187D01*
X0095620Y0042785D02*
X0098562Y0042785D01*
X0096398Y0044384D02*
X0095620Y0044384D01*
X0095620Y0045982D02*
X0095682Y0045982D01*
X0091820Y0044020D02*
X0091820Y0041386D01*
X0089997Y0039564D01*
X0089298Y0039854D01*
X0087472Y0039854D01*
X0085785Y0039155D01*
X0084495Y0037864D01*
X0083796Y0036177D01*
X0083796Y0034352D01*
X0084495Y0032665D01*
X0085560Y0031600D01*
X0083480Y0031600D01*
X0083480Y0032938D01*
X0082429Y0035476D01*
X0080486Y0037419D01*
X0077948Y0038470D01*
X0075200Y0038470D01*
X0072662Y0037419D01*
X0070719Y0035476D01*
X0069668Y0032938D01*
X0069668Y0031600D01*
X0048520Y0031600D01*
X0048520Y0058114D01*
X0049083Y0057551D01*
X0050145Y0057111D01*
X0051294Y0057111D01*
X0052356Y0057551D01*
X0053169Y0058364D01*
X0053609Y0059425D01*
X0053609Y0060575D01*
X0053169Y0061636D01*
X0052520Y0062286D01*
X0052520Y0063654D01*
X0055831Y0060343D01*
X0055831Y0059425D01*
X0056270Y0058364D01*
X0057083Y0057551D01*
X0058145Y0057111D01*
X0059294Y0057111D01*
X0060356Y0057551D01*
X0061169Y0058364D01*
X0061609Y0059425D01*
X0061609Y0060575D01*
X0061169Y0061636D01*
X0060356Y0062449D01*
X0059294Y0062889D01*
X0058376Y0062889D01*
X0053920Y0067346D01*
X0053920Y0070354D01*
X0063931Y0060343D01*
X0063931Y0059425D01*
X0064370Y0058364D01*
X0065183Y0057551D01*
X0066245Y0057111D01*
X0067394Y0057111D01*
X0068456Y0057551D01*
X0069269Y0058364D01*
X0069709Y0059425D01*
X0069709Y0060575D01*
X0069269Y0061636D01*
X0068456Y0062449D01*
X0067394Y0062889D01*
X0066476Y0062889D01*
X0055320Y0074046D01*
X0055320Y0091895D01*
X0057463Y0094038D01*
X0057510Y0093924D01*
X0058323Y0093111D01*
X0059385Y0092671D01*
X0060534Y0092671D01*
X0061596Y0093111D01*
X0062409Y0093924D01*
X0062848Y0094985D01*
X0062848Y0096135D01*
X0062465Y0097060D01*
X0077955Y0112550D01*
X0079131Y0111374D01*
X0079131Y0110598D01*
X0079570Y0109536D01*
X0079989Y0109118D01*
X0079989Y0102600D01*
X0085320Y0102600D01*
X0085320Y0110883D01*
X0084909Y0110883D01*
X0084909Y0111747D01*
X0084469Y0112809D01*
X0083656Y0113622D01*
X0082594Y0114061D01*
X0081818Y0114061D01*
X0080620Y0115259D01*
X0080620Y0127239D01*
X0081345Y0127540D01*
X0082158Y0128352D01*
X0082597Y0129414D01*
X0082597Y0130564D01*
X0082158Y0131625D01*
X0081345Y0132438D01*
X0080283Y0132878D01*
X0079134Y0132878D01*
X0079020Y0132831D01*
X0079020Y0146026D01*
X0077965Y0147080D01*
X0066099Y0158946D01*
X0065045Y0160000D01*
X0060521Y0160000D01*
X0060521Y0160033D01*
X0070888Y0170400D01*
X0083383Y0170400D01*
X0083383Y0168089D01*
X0083323Y0168030D01*
X0083323Y0162885D01*
X0083320Y0162876D01*
X0083320Y0161324D01*
X0083323Y0161315D01*
X0083323Y0160570D01*
X0083850Y0160044D01*
X0083913Y0159891D01*
X0085010Y0158794D01*
X0087921Y0155883D01*
X0086920Y0155883D01*
X0086920Y0147600D01*
X0092250Y0147600D01*
X0092250Y0152163D01*
X0092644Y0152000D01*
X0099304Y0152000D01*
X0095213Y0147909D01*
X0094620Y0146476D01*
X0094620Y0144371D01*
X0092250Y0142002D01*
X0092250Y0146000D01*
X0086920Y0146000D01*
X0086920Y0147600D01*
X0085320Y0147600D01*
X0085320Y0155883D01*
X0081552Y0155883D01*
X0081094Y0155761D01*
X0080684Y0155524D01*
X0080348Y0155189D01*
X0080112Y0154778D01*
X0079989Y0154320D01*
X0079989Y0147600D01*
X0085320Y0147600D01*
X0085320Y0146000D01*
X0086920Y0146000D01*
X0086920Y0137717D01*
X0087965Y0137717D01*
X0085073Y0134825D01*
X0085073Y0134825D01*
X0083976Y0133728D01*
X0083944Y0133650D01*
X0083323Y0133030D01*
X0083323Y0125570D01*
X0083383Y0125511D01*
X0083383Y0123089D01*
X0083323Y0123030D01*
X0083323Y0115570D01*
X0083944Y0114950D01*
X0083976Y0114872D01*
X0087965Y0110883D01*
X0086920Y0110883D01*
X0086920Y0102600D01*
X0092250Y0102600D01*
X0092250Y0107187D01*
X0092944Y0106900D01*
X0111995Y0106900D01*
X0112840Y0107250D01*
X0115899Y0107250D01*
X0116720Y0108070D01*
X0116720Y0113730D01*
X0115899Y0114550D01*
X0112699Y0114550D01*
X0112215Y0114750D01*
X0112796Y0114750D01*
X0113616Y0115570D01*
X0113616Y0123030D01*
X0112796Y0123850D01*
X0111557Y0123850D01*
X0111557Y0124750D01*
X0112796Y0124750D01*
X0113616Y0125570D01*
X0113616Y0133030D01*
X0112796Y0133850D01*
X0111557Y0133850D01*
X0111557Y0134050D01*
X0115899Y0134050D01*
X0116720Y0134870D01*
X0116720Y0135399D01*
X0116749Y0135411D01*
X0118749Y0137411D01*
X0119508Y0138171D01*
X0119920Y0139163D01*
X0119920Y0141226D01*
X0120302Y0141068D01*
X0121220Y0141068D01*
X0121920Y0140369D01*
X0121920Y0108895D01*
X0129465Y0101350D01*
X0129316Y0101350D01*
X0128902Y0101763D01*
X0126265Y0104400D01*
X0125305Y0104400D01*
X0124656Y0105049D01*
X0123594Y0105489D01*
X0122445Y0105489D01*
X0121383Y0105049D01*
X0120570Y0104236D01*
X0120131Y0103175D01*
X0120131Y0102025D01*
X0120570Y0100964D01*
X0120762Y0100772D01*
X0120762Y0097280D01*
X0119803Y0097280D01*
X0119803Y0101750D01*
X0117487Y0101750D01*
X0117029Y0101627D01*
X0116766Y0101475D01*
X0111645Y0101475D01*
X0111645Y0102125D01*
X0117120Y0102125D01*
X0117120Y0104287D01*
X0116997Y0104745D01*
X0116760Y0105155D01*
X0116425Y0105490D01*
X0116014Y0105727D01*
X0115557Y0105850D01*
X0111645Y0105850D01*
X0111645Y0102125D01*
X0110995Y0102125D01*
X0110995Y0105850D01*
X0107083Y0105850D01*
X0106625Y0105727D01*
X0106214Y0105490D01*
X0105879Y0105155D01*
X0105642Y0104745D01*
X0105520Y0104287D01*
X0105520Y0102125D01*
X0110994Y0102125D01*
X0110994Y0101475D01*
X0105520Y0101475D01*
X0105520Y0099313D01*
X0105642Y0098855D01*
X0105879Y0098445D01*
X0106214Y0098110D01*
X0106625Y0097873D01*
X0107083Y0097750D01*
X0110995Y0097750D01*
X0110995Y0101475D01*
X0111645Y0101475D01*
X0111645Y0097750D01*
X0115557Y0097750D01*
X0115923Y0097848D01*
X0115923Y0097280D01*
X0119803Y0097280D01*
X0119803Y0096320D01*
X0115929Y0096320D01*
X0115899Y0096350D01*
X0106740Y0096350D01*
X0105920Y0095530D01*
X0105920Y0089870D01*
X0106740Y0089050D01*
X0115899Y0089050D01*
X0115923Y0089074D01*
X0115923Y0087280D01*
X0119803Y0087280D01*
X0119803Y0086320D01*
X0120762Y0086320D01*
X0120762Y0081850D01*
X0123079Y0081850D01*
X0123536Y0081973D01*
X0123947Y0082210D01*
X0124282Y0082545D01*
X0124443Y0082825D01*
X0125018Y0082250D01*
X0125957Y0082250D01*
X0125957Y0077974D01*
X0126164Y0077767D01*
X0126164Y0077414D01*
X0126211Y0077300D01*
X0121465Y0077300D01*
X0117197Y0081568D01*
X0101789Y0081568D01*
X0100389Y0080168D01*
X0096821Y0080168D01*
X0096496Y0079844D01*
X0096479Y0079874D01*
X0096144Y0080209D01*
X0095733Y0080446D01*
X0095275Y0080568D01*
X0093057Y0080568D01*
X0093057Y0076984D01*
X0092689Y0076984D01*
X0092689Y0080568D01*
X0090471Y0080568D01*
X0090013Y0080446D01*
X0089603Y0080209D01*
X0089562Y0080168D01*
X0084821Y0080168D01*
X0084496Y0079844D01*
X0084479Y0079874D01*
X0084144Y0080209D01*
X0083733Y0080446D01*
X0083275Y0080568D01*
X0081057Y0080568D01*
X0081057Y0076984D01*
X0080689Y0076984D01*
X0080689Y0076616D01*
X0076908Y0076616D01*
X0076908Y0074595D01*
X0077030Y0074137D01*
X0077267Y0073726D01*
X0077603Y0073391D01*
X0078013Y0073154D01*
X0078471Y0073031D01*
X0080689Y0073031D01*
X0080689Y0076616D01*
X0081057Y0076616D01*
X0081057Y0073031D01*
X0083275Y0073031D01*
X0083733Y0073154D01*
X0084144Y0073391D01*
X0084479Y0073726D01*
X0084496Y0073756D01*
X0084821Y0073431D01*
X0085891Y0073431D01*
X0085154Y0072695D01*
X0085154Y0067598D01*
X0085952Y0066800D01*
X0085154Y0066002D01*
X0085154Y0060905D01*
X0085974Y0060085D01*
X0086820Y0060085D01*
X0086820Y0056013D01*
X0091820Y0051013D01*
X0091820Y0050131D01*
X0090984Y0050966D01*
X0089298Y0051665D01*
X0087472Y0051665D01*
X0085785Y0050966D01*
X0084495Y0049675D01*
X0083796Y0047988D01*
X0083796Y0046163D01*
X0084495Y0044476D01*
X0085785Y0043185D01*
X0087472Y0042487D01*
X0089298Y0042487D01*
X0090984Y0043185D01*
X0091820Y0044020D01*
X0091820Y0042785D02*
X0090018Y0042785D01*
X0091620Y0041187D02*
X0048520Y0041187D01*
X0048520Y0042785D02*
X0086751Y0042785D01*
X0084587Y0044384D02*
X0048520Y0044384D01*
X0048520Y0045982D02*
X0083871Y0045982D01*
X0083796Y0047581D02*
X0048520Y0047581D01*
X0048520Y0049179D02*
X0084289Y0049179D01*
X0085597Y0050778D02*
X0048520Y0050778D01*
X0048520Y0052376D02*
X0090456Y0052376D01*
X0091173Y0050778D02*
X0091820Y0050778D01*
X0088858Y0053975D02*
X0048520Y0053975D01*
X0048520Y0055573D02*
X0087259Y0055573D01*
X0086820Y0057172D02*
X0067541Y0057172D01*
X0066098Y0057172D02*
X0059441Y0057172D01*
X0057998Y0057172D02*
X0051441Y0057172D01*
X0049998Y0057172D02*
X0048520Y0057172D01*
X0048520Y0061967D02*
X0048601Y0061967D01*
X0048520Y0063566D02*
X0048920Y0063566D01*
X0048920Y0065164D02*
X0048520Y0065164D01*
X0048520Y0066763D02*
X0048920Y0066763D01*
X0048920Y0068361D02*
X0048520Y0068361D01*
X0048520Y0069960D02*
X0048920Y0069960D01*
X0048920Y0071558D02*
X0048520Y0071558D01*
X0048520Y0073157D02*
X0048920Y0073157D01*
X0048920Y0074755D02*
X0048520Y0074755D01*
X0048520Y0076354D02*
X0048920Y0076354D01*
X0048920Y0077952D02*
X0048520Y0077952D01*
X0048520Y0079551D02*
X0048920Y0079551D01*
X0048920Y0081149D02*
X0048520Y0081149D01*
X0048520Y0082748D02*
X0048920Y0082748D01*
X0048920Y0084346D02*
X0048520Y0084346D01*
X0048520Y0085945D02*
X0048920Y0085945D01*
X0048920Y0087543D02*
X0048520Y0087543D01*
X0048520Y0089142D02*
X0048920Y0089142D01*
X0048920Y0090740D02*
X0048520Y0090740D01*
X0048520Y0092339D02*
X0048920Y0092339D01*
X0048920Y0093937D02*
X0048520Y0093937D01*
X0048520Y0095536D02*
X0049910Y0095536D01*
X0048520Y0097134D02*
X0051508Y0097134D01*
X0053107Y0098733D02*
X0048520Y0098733D01*
X0048520Y0100332D02*
X0054705Y0100332D01*
X0056304Y0101930D02*
X0048520Y0101930D01*
X0048520Y0103529D02*
X0057903Y0103529D01*
X0059501Y0105127D02*
X0048520Y0105127D01*
X0048520Y0106726D02*
X0061100Y0106726D01*
X0062698Y0108324D02*
X0048520Y0108324D01*
X0048520Y0109923D02*
X0064297Y0109923D01*
X0065895Y0111521D02*
X0048520Y0111521D01*
X0048520Y0113120D02*
X0066920Y0113120D01*
X0066920Y0114718D02*
X0048520Y0114718D01*
X0048520Y0116317D02*
X0066920Y0116317D01*
X0066920Y0117915D02*
X0048520Y0117915D01*
X0048520Y0119514D02*
X0058254Y0119514D01*
X0056656Y0121112D02*
X0048520Y0121112D01*
X0048520Y0122711D02*
X0055892Y0122711D01*
X0055509Y0124309D02*
X0048520Y0124309D01*
X0048520Y0125908D02*
X0055396Y0125908D01*
X0053797Y0127506D02*
X0048520Y0127506D01*
X0048520Y0129105D02*
X0052199Y0129105D01*
X0050600Y0130703D02*
X0048520Y0130703D01*
X0048520Y0132302D02*
X0049829Y0132302D01*
X0049820Y0133900D02*
X0048520Y0133900D01*
X0048520Y0135499D02*
X0049820Y0135499D01*
X0049820Y0137097D02*
X0048520Y0137097D01*
X0048520Y0138696D02*
X0049820Y0138696D01*
X0049820Y0140294D02*
X0048520Y0140294D01*
X0048520Y0141893D02*
X0049820Y0141893D01*
X0050134Y0143491D02*
X0048520Y0143491D01*
X0048520Y0145090D02*
X0051338Y0145090D01*
X0052820Y0146688D02*
X0048520Y0146688D01*
X0048520Y0148287D02*
X0052820Y0148287D01*
X0052918Y0149885D02*
X0048520Y0149885D01*
X0048520Y0151484D02*
X0053177Y0151484D01*
X0048520Y0153082D02*
X0064892Y0153082D01*
X0066490Y0151484D02*
X0060262Y0151484D01*
X0060521Y0149885D02*
X0068089Y0149885D01*
X0069687Y0148287D02*
X0060620Y0148287D01*
X0060620Y0146688D02*
X0071286Y0146688D01*
X0072820Y0145090D02*
X0064227Y0145090D01*
X0062290Y0145090D02*
X0061527Y0145090D01*
X0061527Y0143491D02*
X0062290Y0143491D01*
X0062290Y0141893D02*
X0061527Y0141893D01*
X0061527Y0140294D02*
X0062290Y0140294D01*
X0062290Y0138696D02*
X0068330Y0138696D01*
X0068518Y0140294D02*
X0072820Y0140294D01*
X0072820Y0138696D02*
X0072109Y0138696D01*
X0066920Y0134084D02*
X0066920Y0128950D01*
X0065534Y0130336D01*
X0063182Y0131310D01*
X0061024Y0131310D01*
X0060236Y0132098D01*
X0060579Y0132006D01*
X0061463Y0131890D01*
X0061527Y0131890D01*
X0061527Y0138309D01*
X0062290Y0138309D01*
X0062290Y0131890D01*
X0062354Y0131890D01*
X0063238Y0132006D01*
X0064099Y0132237D01*
X0064923Y0132578D01*
X0065695Y0133024D01*
X0066402Y0133566D01*
X0066920Y0134084D01*
X0066920Y0133900D02*
X0066736Y0133900D01*
X0066920Y0132302D02*
X0064256Y0132302D01*
X0064647Y0130703D02*
X0066920Y0130703D01*
X0066920Y0129105D02*
X0066765Y0129105D01*
X0062290Y0132302D02*
X0061527Y0132302D01*
X0061527Y0133900D02*
X0062290Y0133900D01*
X0062290Y0135499D02*
X0061527Y0135499D01*
X0061527Y0137097D02*
X0062290Y0137097D01*
X0067911Y0141893D02*
X0072820Y0141893D01*
X0072820Y0143491D02*
X0066724Y0143491D01*
X0075160Y0149885D02*
X0079989Y0149885D01*
X0079989Y0148287D02*
X0076758Y0148287D01*
X0078357Y0146688D02*
X0085320Y0146688D01*
X0085320Y0146000D02*
X0079989Y0146000D01*
X0079989Y0139280D01*
X0080112Y0138822D01*
X0080348Y0138411D01*
X0080684Y0138076D01*
X0081094Y0137839D01*
X0081552Y0137717D01*
X0085320Y0137717D01*
X0085320Y0146000D01*
X0085320Y0145090D02*
X0086920Y0145090D01*
X0086920Y0146688D02*
X0094708Y0146688D01*
X0094620Y0145090D02*
X0092250Y0145090D01*
X0092250Y0143491D02*
X0093740Y0143491D01*
X0092250Y0148287D02*
X0095591Y0148287D01*
X0097190Y0149885D02*
X0092250Y0149885D01*
X0092250Y0151484D02*
X0098788Y0151484D01*
X0105023Y0146688D02*
X0110994Y0146688D01*
X0110994Y0146475D02*
X0105520Y0146475D01*
X0105520Y0144313D01*
X0105642Y0143855D01*
X0105879Y0143445D01*
X0106214Y0143110D01*
X0106625Y0142873D01*
X0107083Y0142750D01*
X0110995Y0142750D01*
X0110995Y0146475D01*
X0111645Y0146475D01*
X0111645Y0142750D01*
X0114520Y0142750D01*
X0114520Y0141350D01*
X0106740Y0141350D01*
X0105920Y0140530D01*
X0105920Y0137044D01*
X0104994Y0137428D01*
X0104218Y0137428D01*
X0102367Y0139278D01*
X0100557Y0139278D01*
X0100729Y0139449D01*
X0101826Y0140547D01*
X0102420Y0141980D01*
X0102420Y0144085D01*
X0105520Y0147185D01*
X0105520Y0147125D01*
X0110994Y0147125D01*
X0110994Y0146475D01*
X0110995Y0147125D02*
X0110995Y0150850D01*
X0109185Y0150850D01*
X0110335Y0152000D01*
X0112095Y0152000D01*
X0112699Y0152250D01*
X0114520Y0152250D01*
X0114520Y0150850D01*
X0111645Y0150850D01*
X0111645Y0147125D01*
X0110995Y0147125D01*
X0110995Y0148287D02*
X0111645Y0148287D01*
X0111645Y0149885D02*
X0110995Y0149885D01*
X0109819Y0151484D02*
X0114520Y0151484D01*
X0119920Y0153897D02*
X0119920Y0168482D01*
X0123038Y0171600D01*
X0142489Y0171600D01*
X0142945Y0171411D01*
X0144094Y0171411D01*
X0144550Y0171600D01*
X0145101Y0171600D01*
X0146020Y0170682D01*
X0146020Y0159852D01*
X0145783Y0159989D01*
X0145325Y0160112D01*
X0143304Y0160112D01*
X0143304Y0156331D01*
X0142935Y0156331D01*
X0142935Y0160112D01*
X0140914Y0160112D01*
X0140456Y0159989D01*
X0140046Y0159752D01*
X0139711Y0159417D01*
X0139691Y0159383D01*
X0139257Y0159500D01*
X0136720Y0159500D01*
X0136720Y0156900D01*
X0136719Y0156900D01*
X0136719Y0159500D01*
X0134183Y0159500D01*
X0133725Y0159377D01*
X0133314Y0159140D01*
X0132979Y0158805D01*
X0132742Y0158395D01*
X0132620Y0157937D01*
X0132620Y0157325D01*
X0132045Y0157900D01*
X0129052Y0157900D01*
X0128669Y0158825D01*
X0127856Y0159638D01*
X0126794Y0160078D01*
X0125645Y0160078D01*
X0124583Y0159638D01*
X0123770Y0158825D01*
X0123331Y0157764D01*
X0123331Y0157389D01*
X0123045Y0157389D01*
X0121983Y0156949D01*
X0121170Y0156136D01*
X0120731Y0155075D01*
X0120731Y0154263D01*
X0119972Y0153949D01*
X0119920Y0153897D01*
X0119920Y0154681D02*
X0120731Y0154681D01*
X0121313Y0156279D02*
X0119920Y0156279D01*
X0119920Y0157878D02*
X0123378Y0157878D01*
X0124421Y0159476D02*
X0119920Y0159476D01*
X0119920Y0161075D02*
X0146020Y0161075D01*
X0146020Y0162673D02*
X0119920Y0162673D01*
X0119920Y0164272D02*
X0146020Y0164272D01*
X0146020Y0165870D02*
X0119920Y0165870D01*
X0119920Y0167469D02*
X0146020Y0167469D01*
X0146020Y0169068D02*
X0120505Y0169068D01*
X0122104Y0170666D02*
X0146020Y0170666D01*
X0152798Y0177060D02*
X0209641Y0177060D01*
X0210900Y0175462D02*
X0191920Y0175462D01*
X0197746Y0173863D02*
X0209814Y0173863D01*
X0209845Y0172265D02*
X0197746Y0172265D01*
X0197746Y0170666D02*
X0210975Y0170666D01*
X0213293Y0169068D02*
X0197715Y0169068D01*
X0198062Y0167469D02*
X0211790Y0167469D01*
X0210192Y0165870D02*
X0198146Y0165870D01*
X0198146Y0164622D02*
X0194453Y0164622D01*
X0194453Y0160988D01*
X0196583Y0160988D01*
X0197040Y0161111D01*
X0197451Y0161348D01*
X0197786Y0161683D01*
X0198023Y0162093D01*
X0198146Y0162551D01*
X0198146Y0164622D01*
X0198146Y0164272D02*
X0208593Y0164272D01*
X0206995Y0162673D02*
X0198146Y0162673D01*
X0196906Y0161075D02*
X0205396Y0161075D01*
X0194453Y0161075D02*
X0193986Y0161075D01*
X0193986Y0162673D02*
X0194453Y0162673D01*
X0194453Y0164272D02*
X0193986Y0164272D01*
X0190294Y0164272D02*
X0190286Y0164272D01*
X0190294Y0162673D02*
X0189757Y0162673D01*
X0191533Y0161075D02*
X0185520Y0161075D01*
X0199161Y0183454D02*
X0225620Y0183454D01*
X0225620Y0181856D02*
X0212482Y0181856D01*
X0214081Y0180257D02*
X0225620Y0180257D01*
X0225620Y0178659D02*
X0215679Y0178659D01*
X0217278Y0177060D02*
X0223334Y0177060D01*
X0225105Y0177060D02*
X0225620Y0177060D01*
X0219694Y0175462D02*
X0218876Y0175462D01*
X0225620Y0185053D02*
X0200759Y0185053D01*
X0202358Y0186651D02*
X0225620Y0186651D01*
X0225620Y0188250D02*
X0203956Y0188250D01*
X0205555Y0189848D02*
X0216638Y0189848D01*
X0211851Y0191447D02*
X0210088Y0191447D01*
X0210088Y0196242D02*
X0211851Y0196242D01*
X0211559Y0197841D02*
X0210380Y0197841D01*
X0210488Y0199439D02*
X0211451Y0199439D01*
X0211451Y0201038D02*
X0210488Y0201038D01*
X0210488Y0202636D02*
X0211451Y0202636D01*
X0212128Y0204235D02*
X0209811Y0204235D01*
X0215035Y0204235D02*
X0215404Y0204235D01*
X0215404Y0204612D02*
X0215404Y0200831D01*
X0218988Y0200831D01*
X0218988Y0203049D01*
X0218865Y0203507D01*
X0218628Y0203917D01*
X0218293Y0204252D01*
X0217883Y0204489D01*
X0217425Y0204612D01*
X0215404Y0204612D01*
X0215404Y0202636D02*
X0215035Y0202636D01*
X0215035Y0201038D02*
X0215404Y0201038D01*
X0218988Y0201038D02*
X0221936Y0201038D01*
X0220338Y0202636D02*
X0218988Y0202636D01*
X0218739Y0204235D02*
X0218311Y0204235D01*
X0218988Y0199439D02*
X0223535Y0199439D01*
X0225133Y0197841D02*
X0218880Y0197841D01*
X0218588Y0196242D02*
X0225620Y0196242D01*
X0225620Y0194644D02*
X0218588Y0194644D01*
X0222060Y0193045D02*
X0225620Y0193045D01*
X0225620Y0191447D02*
X0222609Y0191447D01*
X0222245Y0189848D02*
X0225620Y0189848D01*
X0243031Y0194644D02*
X0243036Y0194644D01*
X0244404Y0194644D02*
X0288841Y0194644D01*
X0288841Y0196242D02*
X0243031Y0196242D01*
X0243031Y0197841D02*
X0265680Y0197841D01*
X0264745Y0198776D02*
X0267073Y0196447D01*
X0270366Y0196447D01*
X0272694Y0198776D01*
X0272694Y0202068D01*
X0270366Y0204397D01*
X0267073Y0204397D01*
X0264745Y0202068D01*
X0264745Y0198776D01*
X0264745Y0199439D02*
X0243031Y0199439D01*
X0243031Y0201038D02*
X0264745Y0201038D01*
X0265313Y0202636D02*
X0243031Y0202636D01*
X0243031Y0204235D02*
X0266911Y0204235D01*
X0270528Y0204235D02*
X0288841Y0204235D01*
X0288841Y0205833D02*
X0243031Y0205833D01*
X0243031Y0207432D02*
X0288841Y0207432D01*
X0288841Y0209030D02*
X0243031Y0209030D01*
X0243031Y0210629D02*
X0288841Y0210629D01*
X0288841Y0212227D02*
X0243031Y0212227D01*
X0242739Y0213826D02*
X0288841Y0213826D01*
X0281640Y0215424D02*
X0242381Y0215424D01*
X0237058Y0215424D02*
X0230366Y0215424D01*
X0238033Y0221818D02*
X0238540Y0221818D01*
X0238540Y0223417D02*
X0238033Y0223417D01*
X0246331Y0193045D02*
X0288841Y0193045D01*
X0288841Y0191447D02*
X0246609Y0191447D01*
X0245853Y0189848D02*
X0288841Y0189848D01*
X0288841Y0188250D02*
X0244431Y0188250D01*
X0244431Y0186651D02*
X0288841Y0186651D01*
X0288841Y0185053D02*
X0244431Y0185053D01*
X0244431Y0183454D02*
X0288841Y0183454D01*
X0288841Y0181856D02*
X0244431Y0181856D01*
X0244431Y0180257D02*
X0248591Y0180257D01*
X0247831Y0178659D02*
X0244431Y0178659D01*
X0244431Y0177060D02*
X0248106Y0177060D01*
X0248420Y0175462D02*
X0244431Y0175462D01*
X0244431Y0173863D02*
X0248420Y0173863D01*
X0248420Y0172265D02*
X0244431Y0172265D01*
X0244431Y0170666D02*
X0248420Y0170666D01*
X0248420Y0169068D02*
X0244431Y0169068D01*
X0244431Y0167469D02*
X0245253Y0167469D01*
X0244842Y0165870D02*
X0244431Y0165870D01*
X0259120Y0164272D02*
X0265753Y0164272D01*
X0266907Y0165427D02*
X0264345Y0162864D01*
X0264345Y0161052D01*
X0268719Y0161052D01*
X0268719Y0165427D01*
X0266907Y0165427D01*
X0268719Y0164272D02*
X0268720Y0164272D01*
X0268719Y0162673D02*
X0268720Y0162673D01*
X0268719Y0161075D02*
X0268720Y0161075D01*
X0271686Y0164272D02*
X0288841Y0164272D01*
X0288841Y0165870D02*
X0260158Y0165870D01*
X0261757Y0167469D02*
X0288841Y0167469D01*
X0288841Y0169068D02*
X0263355Y0169068D01*
X0264954Y0170666D02*
X0288841Y0170666D01*
X0288841Y0172265D02*
X0266552Y0172265D01*
X0269591Y0173863D02*
X0288841Y0173863D01*
X0288841Y0175462D02*
X0270722Y0175462D01*
X0270755Y0177060D02*
X0288841Y0177060D01*
X0288841Y0178659D02*
X0269669Y0178659D01*
X0266215Y0178659D02*
X0266091Y0178659D01*
X0262637Y0178659D02*
X0262514Y0178659D01*
X0259317Y0180257D02*
X0288841Y0180257D01*
X0288841Y0162673D02*
X0286806Y0162673D01*
X0287434Y0161075D02*
X0288841Y0161075D01*
X0288841Y0159476D02*
X0287434Y0159476D01*
X0287434Y0157878D02*
X0288841Y0157878D01*
X0288841Y0156279D02*
X0287159Y0156279D01*
X0267970Y0151484D02*
X0266845Y0151484D01*
X0266845Y0153082D02*
X0267204Y0153082D01*
X0267194Y0154681D02*
X0266612Y0154681D01*
X0267194Y0156279D02*
X0259120Y0156279D01*
X0259120Y0157878D02*
X0265707Y0157878D01*
X0264345Y0159476D02*
X0259120Y0159476D01*
X0259120Y0161075D02*
X0264345Y0161075D01*
X0264345Y0162673D02*
X0259120Y0162673D01*
X0259120Y0148765D02*
X0259353Y0148531D01*
X0263512Y0148531D01*
X0265794Y0146249D01*
X0265794Y0144991D01*
X0265029Y0144226D01*
X0264367Y0142626D01*
X0264367Y0140895D01*
X0265029Y0139295D01*
X0266254Y0138071D01*
X0267854Y0137408D01*
X0269585Y0137408D01*
X0271185Y0138071D01*
X0271333Y0138218D01*
X0271333Y0138172D01*
X0271920Y0137585D01*
X0271920Y0115361D01*
X0271816Y0115465D01*
X0271211Y0115904D01*
X0270544Y0116244D01*
X0269832Y0116475D01*
X0269094Y0116592D01*
X0268805Y0116592D01*
X0268805Y0111925D01*
X0268634Y0111925D01*
X0268634Y0116592D01*
X0268345Y0116592D01*
X0267607Y0116475D01*
X0266895Y0116244D01*
X0266229Y0115904D01*
X0265623Y0115465D01*
X0265094Y0114936D01*
X0264655Y0114330D01*
X0264315Y0113664D01*
X0264084Y0112952D01*
X0263967Y0112213D01*
X0263967Y0111925D01*
X0268634Y0111925D01*
X0268634Y0111754D01*
X0263967Y0111754D01*
X0263967Y0111465D01*
X0264084Y0110726D01*
X0264315Y0110015D01*
X0264655Y0109348D01*
X0265094Y0108743D01*
X0265623Y0108214D01*
X0266229Y0107774D01*
X0266895Y0107435D01*
X0267607Y0107204D01*
X0268345Y0107087D01*
X0268634Y0107087D01*
X0268634Y0111753D01*
X0268805Y0111753D01*
X0268805Y0107087D01*
X0269094Y0107087D01*
X0269832Y0107204D01*
X0270544Y0107435D01*
X0271211Y0107774D01*
X0271816Y0108214D01*
X0271920Y0108318D01*
X0271920Y0083700D01*
X0271714Y0083983D01*
X0271159Y0084538D01*
X0270523Y0085000D01*
X0269824Y0085357D01*
X0269077Y0085599D01*
X0268301Y0085722D01*
X0268162Y0085722D01*
X0268162Y0080986D01*
X0267655Y0080986D01*
X0267655Y0080480D01*
X0262920Y0080480D01*
X0262920Y0080340D01*
X0263042Y0079565D01*
X0263285Y0078818D01*
X0263642Y0078118D01*
X0264103Y0077483D01*
X0264658Y0076928D01*
X0265294Y0076466D01*
X0265993Y0076110D01*
X0266740Y0075867D01*
X0267516Y0075744D01*
X0267655Y0075744D01*
X0267655Y0080480D01*
X0268162Y0080480D01*
X0268162Y0075744D01*
X0268301Y0075744D01*
X0269077Y0075867D01*
X0269824Y0076110D01*
X0270523Y0076466D01*
X0271159Y0076928D01*
X0271714Y0077483D01*
X0271920Y0077766D01*
X0271920Y0071889D01*
X0271714Y0072172D01*
X0271159Y0072727D01*
X0270523Y0073189D01*
X0269824Y0073545D01*
X0269077Y0073788D01*
X0268301Y0073911D01*
X0268162Y0073911D01*
X0268162Y0069175D01*
X0267655Y0069175D01*
X0267655Y0068669D01*
X0262920Y0068669D01*
X0262920Y0068529D01*
X0263042Y0067754D01*
X0263285Y0067007D01*
X0263642Y0066307D01*
X0264103Y0065672D01*
X0264658Y0065117D01*
X0265294Y0064655D01*
X0265993Y0064299D01*
X0266740Y0064056D01*
X0267516Y0063933D01*
X0267655Y0063933D01*
X0267655Y0068669D01*
X0268162Y0068669D01*
X0268162Y0063933D01*
X0268301Y0063933D01*
X0269077Y0064056D01*
X0269824Y0064299D01*
X0270523Y0064655D01*
X0271159Y0065117D01*
X0271714Y0065672D01*
X0271920Y0065955D01*
X0271920Y0059419D01*
X0271799Y0059710D01*
X0270508Y0061001D01*
X0268821Y0061700D01*
X0266996Y0061700D01*
X0265309Y0061001D01*
X0264018Y0059710D01*
X0263320Y0058024D01*
X0263320Y0056198D01*
X0264018Y0054512D01*
X0265309Y0053221D01*
X0266996Y0052522D01*
X0268821Y0052522D01*
X0270508Y0053221D01*
X0271799Y0054512D01*
X0271920Y0054803D01*
X0271920Y0047608D01*
X0271799Y0047899D01*
X0270508Y0049190D01*
X0268821Y0049889D01*
X0266996Y0049889D01*
X0265309Y0049190D01*
X0264018Y0047899D01*
X0263320Y0046213D01*
X0263320Y0044387D01*
X0264018Y0042701D01*
X0265309Y0041410D01*
X0266996Y0040711D01*
X0268821Y0040711D01*
X0270508Y0041410D01*
X0271799Y0042701D01*
X0271920Y0042992D01*
X0271920Y0039086D01*
X0271270Y0038436D01*
X0270831Y0037375D01*
X0270831Y0036225D01*
X0271270Y0035164D01*
X0272083Y0034351D01*
X0273145Y0033911D01*
X0274294Y0033911D01*
X0275356Y0034351D01*
X0276169Y0035164D01*
X0276609Y0036225D01*
X0276609Y0037375D01*
X0276169Y0038436D01*
X0275520Y0039086D01*
X0275520Y0043448D01*
X0275829Y0042701D01*
X0277120Y0041410D01*
X0278807Y0040711D01*
X0280632Y0040711D01*
X0282319Y0041410D01*
X0283610Y0042701D01*
X0284309Y0044387D01*
X0284309Y0046213D01*
X0283610Y0047899D01*
X0282319Y0049190D01*
X0280632Y0049889D01*
X0278807Y0049889D01*
X0277120Y0049190D01*
X0275829Y0047899D01*
X0275520Y0047152D01*
X0275520Y0054404D01*
X0275914Y0053861D01*
X0276469Y0053306D01*
X0277105Y0052844D01*
X0277804Y0052488D01*
X0278551Y0052245D01*
X0279327Y0052122D01*
X0279466Y0052122D01*
X0279466Y0056858D01*
X0279973Y0056858D01*
X0279973Y0057364D01*
X0284709Y0057364D01*
X0284709Y0057504D01*
X0284586Y0058279D01*
X0284343Y0059026D01*
X0283986Y0059726D01*
X0283525Y0060361D01*
X0282970Y0060916D01*
X0282334Y0061378D01*
X0281635Y0061734D01*
X0280888Y0061977D01*
X0280112Y0062100D01*
X0279973Y0062100D01*
X0279973Y0057364D01*
X0279466Y0057364D01*
X0279466Y0062100D01*
X0279327Y0062100D01*
X0278551Y0061977D01*
X0277804Y0061734D01*
X0277105Y0061378D01*
X0276469Y0060916D01*
X0275914Y0060361D01*
X0275520Y0059818D01*
X0275520Y0067070D01*
X0275829Y0066323D01*
X0277120Y0065032D01*
X0278807Y0064333D01*
X0280632Y0064333D01*
X0282319Y0065032D01*
X0283610Y0066323D01*
X0284309Y0068009D01*
X0284309Y0069835D01*
X0283610Y0071521D01*
X0282319Y0072812D01*
X0280632Y0073511D01*
X0278807Y0073511D01*
X0277120Y0072812D01*
X0275829Y0071521D01*
X0275520Y0070774D01*
X0275520Y0078881D01*
X0275829Y0078134D01*
X0277120Y0076843D01*
X0278807Y0076144D01*
X0280632Y0076144D01*
X0282319Y0076843D01*
X0283610Y0078134D01*
X0284309Y0079820D01*
X0284309Y0081646D01*
X0283610Y0083333D01*
X0282319Y0084623D01*
X0280632Y0085322D01*
X0278807Y0085322D01*
X0277120Y0084623D01*
X0275829Y0083333D01*
X0275520Y0082585D01*
X0275520Y0122940D01*
X0276125Y0122335D01*
X0276569Y0122335D01*
X0276070Y0121836D01*
X0275631Y0120775D01*
X0275631Y0119625D01*
X0276070Y0118564D01*
X0276883Y0117751D01*
X0277945Y0117311D01*
X0279094Y0117311D01*
X0280156Y0117751D01*
X0280969Y0118564D01*
X0281409Y0119625D01*
X0281409Y0120775D01*
X0280969Y0121836D01*
X0280471Y0122335D01*
X0281221Y0122335D01*
X0282020Y0123133D01*
X0282818Y0122335D01*
X0287914Y0122335D01*
X0288734Y0123155D01*
X0288734Y0128645D01*
X0287914Y0129465D01*
X0284346Y0129465D01*
X0283520Y0130292D01*
X0283520Y0133791D01*
X0285366Y0133791D01*
X0285366Y0137376D01*
X0285735Y0137376D01*
X0285735Y0133791D01*
X0288543Y0133791D01*
X0288841Y0133871D01*
X0288841Y0031600D01*
X0270901Y0031600D01*
X0271114Y0032115D01*
X0271114Y0034863D01*
X0270063Y0037401D01*
X0268120Y0039344D01*
X0265581Y0040395D01*
X0263961Y0040395D01*
X0264139Y0040825D01*
X0264139Y0041975D01*
X0263699Y0043036D01*
X0263150Y0043586D01*
X0263150Y0047346D01*
X0261961Y0048535D01*
X0261961Y0077265D01*
X0259120Y0080107D01*
X0259120Y0087865D01*
X0260296Y0086689D01*
X0262834Y0085638D01*
X0265581Y0085638D01*
X0268120Y0086689D01*
X0270063Y0088632D01*
X0271114Y0091170D01*
X0271114Y0093918D01*
X0270063Y0096456D01*
X0268120Y0098399D01*
X0265581Y0099450D01*
X0262834Y0099450D01*
X0260296Y0098399D01*
X0259120Y0097223D01*
X0259120Y0148765D01*
X0259120Y0148287D02*
X0263756Y0148287D01*
X0265355Y0146688D02*
X0259120Y0146688D01*
X0259120Y0145090D02*
X0265794Y0145090D01*
X0264725Y0143491D02*
X0259120Y0143491D01*
X0259120Y0141893D02*
X0264367Y0141893D01*
X0264616Y0140294D02*
X0259120Y0140294D01*
X0259120Y0138696D02*
X0265629Y0138696D01*
X0271920Y0137097D02*
X0259120Y0137097D01*
X0259120Y0135499D02*
X0271920Y0135499D01*
X0271920Y0133900D02*
X0259120Y0133900D01*
X0259120Y0132302D02*
X0271920Y0132302D01*
X0271920Y0130703D02*
X0259120Y0130703D01*
X0259120Y0129105D02*
X0271920Y0129105D01*
X0271920Y0127506D02*
X0259120Y0127506D01*
X0259120Y0125908D02*
X0271920Y0125908D01*
X0271920Y0124309D02*
X0259120Y0124309D01*
X0259120Y0122711D02*
X0271920Y0122711D01*
X0271920Y0121112D02*
X0259120Y0121112D01*
X0259120Y0119514D02*
X0271920Y0119514D01*
X0271920Y0117915D02*
X0259120Y0117915D01*
X0259120Y0116317D02*
X0267119Y0116317D01*
X0268634Y0116317D02*
X0268805Y0116317D01*
X0270320Y0116317D02*
X0271920Y0116317D01*
X0268805Y0114718D02*
X0268634Y0114718D01*
X0268634Y0113120D02*
X0268805Y0113120D01*
X0268805Y0111521D02*
X0268634Y0111521D01*
X0268634Y0109923D02*
X0268805Y0109923D01*
X0268805Y0108324D02*
X0268634Y0108324D01*
X0265513Y0108324D02*
X0259120Y0108324D01*
X0259120Y0106726D02*
X0271920Y0106726D01*
X0271920Y0105127D02*
X0259120Y0105127D01*
X0259120Y0103529D02*
X0271920Y0103529D01*
X0271920Y0101930D02*
X0259120Y0101930D01*
X0259120Y0100332D02*
X0271920Y0100332D01*
X0271920Y0098733D02*
X0267313Y0098733D01*
X0269384Y0097134D02*
X0271920Y0097134D01*
X0271920Y0095536D02*
X0270444Y0095536D01*
X0271106Y0093937D02*
X0271920Y0093937D01*
X0271920Y0092339D02*
X0271114Y0092339D01*
X0270936Y0090740D02*
X0271920Y0090740D01*
X0271920Y0089142D02*
X0270274Y0089142D01*
X0268974Y0087543D02*
X0271920Y0087543D01*
X0271920Y0085945D02*
X0266323Y0085945D01*
X0266740Y0085599D02*
X0265993Y0085357D01*
X0265294Y0085000D01*
X0264658Y0084538D01*
X0264103Y0083983D01*
X0263642Y0083348D01*
X0263285Y0082648D01*
X0263042Y0081901D01*
X0262920Y0081126D01*
X0262920Y0080986D01*
X0267655Y0080986D01*
X0267655Y0085722D01*
X0267516Y0085722D01*
X0266740Y0085599D01*
X0267655Y0084346D02*
X0268162Y0084346D01*
X0268162Y0082748D02*
X0267655Y0082748D01*
X0267655Y0081149D02*
X0268162Y0081149D01*
X0268162Y0079551D02*
X0267655Y0079551D01*
X0267655Y0077952D02*
X0268162Y0077952D01*
X0268162Y0076354D02*
X0267655Y0076354D01*
X0265514Y0076354D02*
X0261961Y0076354D01*
X0261961Y0074755D02*
X0271920Y0074755D01*
X0271920Y0073157D02*
X0270568Y0073157D01*
X0268162Y0073157D02*
X0267655Y0073157D01*
X0267655Y0073911D02*
X0267655Y0069175D01*
X0262920Y0069175D01*
X0262920Y0069315D01*
X0263042Y0070090D01*
X0263285Y0070837D01*
X0263642Y0071537D01*
X0264103Y0072172D01*
X0264658Y0072727D01*
X0265294Y0073189D01*
X0265993Y0073545D01*
X0266740Y0073788D01*
X0267516Y0073911D01*
X0267655Y0073911D01*
X0267655Y0071558D02*
X0268162Y0071558D01*
X0268162Y0069960D02*
X0267655Y0069960D01*
X0267655Y0068361D02*
X0268162Y0068361D01*
X0268162Y0066763D02*
X0267655Y0066763D01*
X0267655Y0065164D02*
X0268162Y0065164D01*
X0271206Y0065164D02*
X0271920Y0065164D01*
X0271920Y0063566D02*
X0261961Y0063566D01*
X0261961Y0065164D02*
X0264611Y0065164D01*
X0263409Y0066763D02*
X0261961Y0066763D01*
X0261961Y0068361D02*
X0262946Y0068361D01*
X0263022Y0069960D02*
X0261961Y0069960D01*
X0261961Y0071558D02*
X0263657Y0071558D01*
X0265249Y0073157D02*
X0261961Y0073157D01*
X0261274Y0077952D02*
X0263762Y0077952D01*
X0263047Y0079551D02*
X0259676Y0079551D01*
X0259120Y0081149D02*
X0262923Y0081149D01*
X0263336Y0082748D02*
X0259120Y0082748D01*
X0259120Y0084346D02*
X0264466Y0084346D01*
X0262093Y0085945D02*
X0259120Y0085945D01*
X0259120Y0087543D02*
X0259441Y0087543D01*
X0259120Y0098733D02*
X0261102Y0098733D01*
X0259120Y0109923D02*
X0264362Y0109923D01*
X0263967Y0111521D02*
X0259120Y0111521D01*
X0259120Y0113120D02*
X0264138Y0113120D01*
X0264936Y0114718D02*
X0259120Y0114718D01*
X0275520Y0114718D02*
X0288841Y0114718D01*
X0288841Y0113120D02*
X0275520Y0113120D01*
X0275520Y0111521D02*
X0288841Y0111521D01*
X0288841Y0109923D02*
X0275520Y0109923D01*
X0275520Y0108324D02*
X0288841Y0108324D01*
X0288841Y0106726D02*
X0275520Y0106726D01*
X0275520Y0105127D02*
X0288841Y0105127D01*
X0288841Y0103529D02*
X0275520Y0103529D01*
X0275520Y0101930D02*
X0288841Y0101930D01*
X0288841Y0100332D02*
X0275520Y0100332D01*
X0275520Y0098733D02*
X0288841Y0098733D01*
X0288841Y0097134D02*
X0275520Y0097134D01*
X0275520Y0095536D02*
X0288841Y0095536D01*
X0288841Y0093937D02*
X0275520Y0093937D01*
X0275520Y0092339D02*
X0288841Y0092339D01*
X0288841Y0090740D02*
X0275520Y0090740D01*
X0275520Y0089142D02*
X0288841Y0089142D01*
X0288841Y0087543D02*
X0275520Y0087543D01*
X0275520Y0085945D02*
X0288841Y0085945D01*
X0288841Y0084346D02*
X0282596Y0084346D01*
X0283852Y0082748D02*
X0288841Y0082748D01*
X0288841Y0081149D02*
X0284309Y0081149D01*
X0284197Y0079551D02*
X0288841Y0079551D01*
X0288841Y0077952D02*
X0283429Y0077952D01*
X0281139Y0076354D02*
X0288841Y0076354D01*
X0288841Y0074755D02*
X0275520Y0074755D01*
X0275520Y0073157D02*
X0277952Y0073157D01*
X0275866Y0071558D02*
X0275520Y0071558D01*
X0275520Y0076354D02*
X0278300Y0076354D01*
X0276010Y0077952D02*
X0275520Y0077952D01*
X0271920Y0076354D02*
X0270303Y0076354D01*
X0271351Y0084346D02*
X0271920Y0084346D01*
X0275520Y0084346D02*
X0276843Y0084346D01*
X0275587Y0082748D02*
X0275520Y0082748D01*
X0281487Y0073157D02*
X0288841Y0073157D01*
X0288841Y0071558D02*
X0283573Y0071558D01*
X0284257Y0069960D02*
X0288841Y0069960D01*
X0288841Y0068361D02*
X0284309Y0068361D01*
X0283792Y0066763D02*
X0288841Y0066763D01*
X0288841Y0065164D02*
X0282452Y0065164D01*
X0280918Y0061967D02*
X0288841Y0061967D01*
X0288841Y0060369D02*
X0283517Y0060369D01*
X0284426Y0058770D02*
X0288841Y0058770D01*
X0288841Y0057172D02*
X0279973Y0057172D01*
X0279973Y0056858D02*
X0284709Y0056858D01*
X0284709Y0056718D01*
X0284586Y0055943D01*
X0284343Y0055196D01*
X0283986Y0054496D01*
X0283525Y0053861D01*
X0282970Y0053306D01*
X0282334Y0052844D01*
X0281635Y0052488D01*
X0280888Y0052245D01*
X0280112Y0052122D01*
X0279973Y0052122D01*
X0279973Y0056858D01*
X0279973Y0055573D02*
X0279466Y0055573D01*
X0279466Y0053975D02*
X0279973Y0053975D01*
X0279973Y0052376D02*
X0279466Y0052376D01*
X0278147Y0052376D02*
X0275520Y0052376D01*
X0275520Y0050778D02*
X0288841Y0050778D01*
X0288841Y0052376D02*
X0281292Y0052376D01*
X0283608Y0053975D02*
X0288841Y0053975D01*
X0288841Y0055573D02*
X0284466Y0055573D01*
X0279973Y0058770D02*
X0279466Y0058770D01*
X0279466Y0060369D02*
X0279973Y0060369D01*
X0279973Y0061967D02*
X0279466Y0061967D01*
X0278521Y0061967D02*
X0275520Y0061967D01*
X0275520Y0060369D02*
X0275922Y0060369D01*
X0275520Y0063566D02*
X0288841Y0063566D01*
X0276988Y0065164D02*
X0275520Y0065164D01*
X0275520Y0066763D02*
X0275647Y0066763D01*
X0271920Y0061967D02*
X0261961Y0061967D01*
X0261961Y0060369D02*
X0264676Y0060369D01*
X0263629Y0058770D02*
X0261961Y0058770D01*
X0261961Y0057172D02*
X0263320Y0057172D01*
X0263578Y0055573D02*
X0261961Y0055573D01*
X0261961Y0053975D02*
X0264555Y0053975D01*
X0261961Y0052376D02*
X0271920Y0052376D01*
X0271920Y0050778D02*
X0261961Y0050778D01*
X0261961Y0049179D02*
X0265298Y0049179D01*
X0263886Y0047581D02*
X0262915Y0047581D01*
X0263150Y0045982D02*
X0263320Y0045982D01*
X0263321Y0044384D02*
X0263150Y0044384D01*
X0263804Y0042785D02*
X0263983Y0042785D01*
X0264139Y0041187D02*
X0265848Y0041187D01*
X0267530Y0039588D02*
X0271920Y0039588D01*
X0271920Y0041187D02*
X0269969Y0041187D01*
X0271834Y0042785D02*
X0271920Y0042785D01*
X0275520Y0042785D02*
X0275794Y0042785D01*
X0275520Y0041187D02*
X0277659Y0041187D01*
X0275520Y0039588D02*
X0288841Y0039588D01*
X0288841Y0037990D02*
X0276354Y0037990D01*
X0276609Y0036391D02*
X0288841Y0036391D01*
X0288841Y0034793D02*
X0275798Y0034793D01*
X0271641Y0034793D02*
X0271114Y0034793D01*
X0271114Y0033194D02*
X0288841Y0033194D01*
X0288841Y0041187D02*
X0281780Y0041187D01*
X0283645Y0042785D02*
X0288841Y0042785D01*
X0288841Y0044384D02*
X0284307Y0044384D01*
X0284309Y0045982D02*
X0288841Y0045982D01*
X0288841Y0047581D02*
X0283742Y0047581D01*
X0282330Y0049179D02*
X0288841Y0049179D01*
X0277109Y0049179D02*
X0275520Y0049179D01*
X0275520Y0047581D02*
X0275697Y0047581D01*
X0271920Y0049179D02*
X0270519Y0049179D01*
X0271262Y0053975D02*
X0271920Y0053975D01*
X0275520Y0053975D02*
X0275832Y0053975D01*
X0271920Y0060369D02*
X0271141Y0060369D01*
X0271085Y0037990D02*
X0269474Y0037990D01*
X0270481Y0036391D02*
X0270831Y0036391D01*
X0221920Y0055573D02*
X0220492Y0055573D01*
X0221920Y0057172D02*
X0218893Y0057172D01*
X0217295Y0058770D02*
X0221920Y0058770D01*
X0221920Y0060369D02*
X0215696Y0060369D01*
X0214098Y0061967D02*
X0221920Y0061967D01*
X0221920Y0063566D02*
X0212499Y0063566D01*
X0210901Y0065164D02*
X0221920Y0065164D01*
X0221920Y0066763D02*
X0209302Y0066763D01*
X0207704Y0068361D02*
X0221920Y0068361D01*
X0221920Y0069960D02*
X0220409Y0069960D01*
X0220809Y0071558D02*
X0221920Y0071558D01*
X0221920Y0073157D02*
X0220348Y0073157D01*
X0215491Y0073157D02*
X0202908Y0073157D01*
X0204507Y0071558D02*
X0215031Y0071558D01*
X0215430Y0069960D02*
X0206105Y0069960D01*
X0206264Y0058770D02*
X0148895Y0058770D01*
X0152089Y0049179D02*
X0211895Y0049179D01*
X0213494Y0047581D02*
X0150491Y0047581D01*
X0148892Y0045982D02*
X0215092Y0045982D01*
X0216691Y0044384D02*
X0147294Y0044384D01*
X0149974Y0037990D02*
X0156661Y0037990D01*
X0156661Y0037651D02*
X0157345Y0037651D01*
X0157345Y0033831D01*
X0159523Y0033831D01*
X0159981Y0033953D01*
X0160392Y0034190D01*
X0160524Y0034323D01*
X0160524Y0031600D01*
X0154346Y0031600D01*
X0154346Y0032938D01*
X0153894Y0034029D01*
X0154025Y0033953D01*
X0154483Y0033831D01*
X0156661Y0033831D01*
X0156661Y0037651D01*
X0157345Y0037990D02*
X0208595Y0037990D01*
X0208595Y0039588D02*
X0161086Y0039588D01*
X0160885Y0041187D02*
X0208595Y0041187D01*
X0208595Y0036391D02*
X0199860Y0036391D01*
X0199860Y0034793D02*
X0208595Y0034793D01*
X0208595Y0033194D02*
X0199860Y0033194D01*
X0191154Y0033194D02*
X0169230Y0033194D01*
X0169230Y0034793D02*
X0191154Y0034793D01*
X0191154Y0036391D02*
X0169230Y0036391D01*
X0160524Y0033194D02*
X0154240Y0033194D01*
X0156661Y0034793D02*
X0157345Y0034793D01*
X0157345Y0036391D02*
X0156661Y0036391D01*
X0156661Y0039588D02*
X0157345Y0039588D01*
X0157345Y0041187D02*
X0156661Y0041187D01*
X0152920Y0036391D02*
X0152380Y0036391D01*
X0129994Y0069700D02*
X0115785Y0069700D01*
X0115785Y0072695D01*
X0114965Y0073515D01*
X0114895Y0073515D01*
X0115631Y0074252D01*
X0115631Y0077969D01*
X0115705Y0077969D01*
X0118920Y0074754D01*
X0119974Y0073700D01*
X0133665Y0073700D01*
X0134720Y0074754D01*
X0134720Y0074426D01*
X0129994Y0069700D01*
X0130254Y0069960D02*
X0115785Y0069960D01*
X0115785Y0071558D02*
X0131852Y0071558D01*
X0133451Y0073157D02*
X0115323Y0073157D01*
X0115631Y0074755D02*
X0118919Y0074755D01*
X0117320Y0076354D02*
X0115631Y0076354D01*
X0115631Y0077952D02*
X0115722Y0077952D01*
X0117616Y0081149D02*
X0125957Y0081149D01*
X0125957Y0079551D02*
X0119214Y0079551D01*
X0120813Y0077952D02*
X0125978Y0077952D01*
X0128157Y0078885D02*
X0129053Y0077989D01*
X0128157Y0078885D02*
X0128157Y0086800D01*
X0124520Y0082748D02*
X0124399Y0082748D01*
X0120762Y0082748D02*
X0119803Y0082748D01*
X0119803Y0081850D02*
X0117487Y0081850D01*
X0117029Y0081973D01*
X0116618Y0082210D01*
X0116283Y0082545D01*
X0116046Y0082956D01*
X0115923Y0083413D01*
X0115923Y0086320D01*
X0119803Y0086320D01*
X0119803Y0081850D01*
X0119803Y0084346D02*
X0120762Y0084346D01*
X0120762Y0085945D02*
X0119803Y0085945D01*
X0115923Y0085945D02*
X0080781Y0085945D01*
X0080781Y0087543D02*
X0115923Y0087543D01*
X0115923Y0084346D02*
X0080781Y0084346D01*
X0080781Y0083965D02*
X0080781Y0087745D01*
X0079334Y0091238D01*
X0076661Y0093911D01*
X0073169Y0095357D01*
X0069388Y0095357D01*
X0065896Y0093911D01*
X0063223Y0091238D01*
X0061776Y0087745D01*
X0061776Y0083965D01*
X0063223Y0080472D01*
X0065896Y0077799D01*
X0069388Y0076353D01*
X0073169Y0076353D01*
X0076661Y0077799D01*
X0076908Y0078046D01*
X0076908Y0076984D01*
X0080689Y0076984D01*
X0080689Y0080568D01*
X0079374Y0080568D01*
X0080781Y0083965D01*
X0080277Y0082748D02*
X0116166Y0082748D01*
X0106648Y0089142D02*
X0080202Y0089142D01*
X0079540Y0090740D02*
X0105920Y0090740D01*
X0105920Y0092339D02*
X0078233Y0092339D01*
X0076597Y0093937D02*
X0080080Y0093937D01*
X0080112Y0093822D02*
X0080348Y0093411D01*
X0080684Y0093076D01*
X0081094Y0092839D01*
X0081552Y0092717D01*
X0085320Y0092717D01*
X0085320Y0101000D01*
X0086920Y0101000D01*
X0086920Y0102600D01*
X0085320Y0102600D01*
X0085320Y0101000D01*
X0079989Y0101000D01*
X0079989Y0094280D01*
X0080112Y0093822D01*
X0079989Y0095536D02*
X0062848Y0095536D01*
X0062539Y0097134D02*
X0079989Y0097134D01*
X0079989Y0098733D02*
X0064138Y0098733D01*
X0065736Y0100332D02*
X0079989Y0100332D01*
X0079989Y0103529D02*
X0068933Y0103529D01*
X0070532Y0105127D02*
X0079989Y0105127D01*
X0079989Y0106726D02*
X0072130Y0106726D01*
X0073729Y0108324D02*
X0079989Y0108324D01*
X0079410Y0109923D02*
X0075327Y0109923D01*
X0076926Y0111521D02*
X0078984Y0111521D01*
X0081161Y0114718D02*
X0084130Y0114718D01*
X0084158Y0113120D02*
X0085729Y0113120D01*
X0084909Y0111521D02*
X0087327Y0111521D01*
X0086920Y0109923D02*
X0085320Y0109923D01*
X0085320Y0108324D02*
X0086920Y0108324D01*
X0086920Y0106726D02*
X0085320Y0106726D01*
X0085320Y0105127D02*
X0086920Y0105127D01*
X0086920Y0103529D02*
X0085320Y0103529D01*
X0085320Y0101930D02*
X0067335Y0101930D01*
X0065960Y0093937D02*
X0062414Y0093937D01*
X0064324Y0092339D02*
X0055764Y0092339D01*
X0055320Y0090740D02*
X0063017Y0090740D01*
X0062355Y0089142D02*
X0055320Y0089142D01*
X0055320Y0087543D02*
X0061776Y0087543D01*
X0061776Y0085945D02*
X0055320Y0085945D01*
X0055320Y0084346D02*
X0061776Y0084346D01*
X0062280Y0082748D02*
X0055320Y0082748D01*
X0055320Y0081149D02*
X0062942Y0081149D01*
X0064144Y0079551D02*
X0055320Y0079551D01*
X0055320Y0077952D02*
X0065743Y0077952D01*
X0069386Y0076354D02*
X0055320Y0076354D01*
X0055320Y0074755D02*
X0076908Y0074755D01*
X0076908Y0076354D02*
X0073171Y0076354D01*
X0076814Y0077952D02*
X0076908Y0077952D01*
X0080689Y0077952D02*
X0081057Y0077952D01*
X0081057Y0076354D02*
X0080689Y0076354D01*
X0080689Y0074755D02*
X0081057Y0074755D01*
X0081057Y0073157D02*
X0080689Y0073157D01*
X0078008Y0073157D02*
X0056208Y0073157D01*
X0057807Y0071558D02*
X0085154Y0071558D01*
X0085154Y0069960D02*
X0059405Y0069960D01*
X0061004Y0068361D02*
X0085154Y0068361D01*
X0085915Y0066763D02*
X0062602Y0066763D01*
X0064201Y0065164D02*
X0085154Y0065164D01*
X0085154Y0063566D02*
X0065799Y0063566D01*
X0068938Y0061967D02*
X0085154Y0061967D01*
X0085691Y0060369D02*
X0069709Y0060369D01*
X0069437Y0058770D02*
X0086820Y0058770D01*
X0093112Y0068300D02*
X0092285Y0069127D01*
X0092285Y0072695D01*
X0091948Y0073031D01*
X0092689Y0073031D01*
X0092689Y0076616D01*
X0093057Y0076616D01*
X0093057Y0073031D01*
X0095275Y0073031D01*
X0095733Y0073154D01*
X0096144Y0073391D01*
X0096479Y0073726D01*
X0096496Y0073756D01*
X0096821Y0073431D01*
X0097391Y0073431D01*
X0096654Y0072695D01*
X0096654Y0068300D01*
X0093112Y0068300D01*
X0093050Y0068361D02*
X0096654Y0068361D01*
X0096654Y0069960D02*
X0092285Y0069960D01*
X0092285Y0071558D02*
X0096654Y0071558D01*
X0097116Y0073157D02*
X0095738Y0073157D01*
X0093057Y0073157D02*
X0092689Y0073157D01*
X0092689Y0074755D02*
X0093057Y0074755D01*
X0093057Y0076354D02*
X0092689Y0076354D01*
X0092689Y0077952D02*
X0093057Y0077952D01*
X0093057Y0079551D02*
X0092689Y0079551D01*
X0101370Y0081149D02*
X0079615Y0081149D01*
X0080689Y0079551D02*
X0081057Y0079551D01*
X0083738Y0073157D02*
X0085616Y0073157D01*
X0102120Y0058770D02*
X0110320Y0058770D01*
X0110320Y0057172D02*
X0102535Y0057172D01*
X0104133Y0055573D02*
X0110320Y0055573D01*
X0111858Y0053975D02*
X0105732Y0053975D01*
X0103248Y0060369D02*
X0109191Y0060369D01*
X0108654Y0061967D02*
X0103785Y0061967D01*
X0103785Y0063566D02*
X0108654Y0063566D01*
X0108654Y0068300D02*
X0103785Y0068300D01*
X0103785Y0072695D01*
X0103448Y0073031D01*
X0105189Y0073031D01*
X0105189Y0076616D01*
X0105557Y0076616D01*
X0105557Y0073031D01*
X0107775Y0073031D01*
X0108233Y0073154D01*
X0108644Y0073391D01*
X0108979Y0073726D01*
X0108996Y0073756D01*
X0109321Y0073431D01*
X0109391Y0073431D01*
X0108654Y0072695D01*
X0108654Y0068300D01*
X0108654Y0068361D02*
X0103785Y0068361D01*
X0103785Y0069960D02*
X0108654Y0069960D01*
X0108654Y0071558D02*
X0103785Y0071558D01*
X0105189Y0073157D02*
X0105557Y0073157D01*
X0105557Y0074755D02*
X0105189Y0074755D01*
X0105189Y0076354D02*
X0105557Y0076354D01*
X0108238Y0073157D02*
X0109116Y0073157D01*
X0134720Y0074754D02*
X0134720Y0074754D01*
X0148486Y0093937D02*
X0148953Y0093937D01*
X0148953Y0095536D02*
X0148486Y0095536D01*
X0128884Y0101930D02*
X0128735Y0101930D01*
X0127286Y0103529D02*
X0127137Y0103529D01*
X0125687Y0105127D02*
X0124468Y0105127D01*
X0124089Y0106726D02*
X0092250Y0106726D01*
X0092250Y0105127D02*
X0105863Y0105127D01*
X0105520Y0103529D02*
X0092250Y0103529D01*
X0092250Y0101000D02*
X0086920Y0101000D01*
X0086920Y0092717D01*
X0090687Y0092717D01*
X0091145Y0092839D01*
X0091555Y0093076D01*
X0091891Y0093411D01*
X0092128Y0093822D01*
X0092250Y0094280D01*
X0092250Y0101000D01*
X0092250Y0100332D02*
X0105520Y0100332D01*
X0105713Y0098733D02*
X0092250Y0098733D01*
X0092250Y0097134D02*
X0119803Y0097134D01*
X0119803Y0098733D02*
X0120762Y0098733D01*
X0120762Y0100332D02*
X0119803Y0100332D01*
X0120170Y0101930D02*
X0111645Y0101930D01*
X0110994Y0101930D02*
X0086920Y0101930D01*
X0086920Y0100332D02*
X0085320Y0100332D01*
X0085320Y0098733D02*
X0086920Y0098733D01*
X0086920Y0097134D02*
X0085320Y0097134D01*
X0085320Y0095536D02*
X0086920Y0095536D01*
X0086920Y0093937D02*
X0085320Y0093937D01*
X0092159Y0093937D02*
X0105920Y0093937D01*
X0105926Y0095536D02*
X0092250Y0095536D01*
X0110995Y0098733D02*
X0111645Y0098733D01*
X0111645Y0100332D02*
X0110995Y0100332D01*
X0110995Y0103529D02*
X0111645Y0103529D01*
X0111645Y0105127D02*
X0110995Y0105127D01*
X0116776Y0105127D02*
X0121571Y0105127D01*
X0120277Y0103529D02*
X0117120Y0103529D01*
X0116720Y0108324D02*
X0122490Y0108324D01*
X0121920Y0109923D02*
X0116720Y0109923D01*
X0116720Y0111521D02*
X0121920Y0111521D01*
X0121920Y0113120D02*
X0116720Y0113120D01*
X0112293Y0114718D02*
X0121920Y0114718D01*
X0121920Y0116317D02*
X0113616Y0116317D01*
X0113616Y0117915D02*
X0121920Y0117915D01*
X0121920Y0119514D02*
X0113616Y0119514D01*
X0113616Y0121112D02*
X0121920Y0121112D01*
X0121920Y0122711D02*
X0113616Y0122711D01*
X0111557Y0124309D02*
X0121920Y0124309D01*
X0121920Y0125908D02*
X0113616Y0125908D01*
X0113616Y0127506D02*
X0121920Y0127506D01*
X0121920Y0129105D02*
X0113616Y0129105D01*
X0113616Y0130703D02*
X0121920Y0130703D01*
X0121920Y0132302D02*
X0113616Y0132302D01*
X0111557Y0133900D02*
X0121920Y0133900D01*
X0121920Y0135499D02*
X0116837Y0135499D01*
X0118435Y0137097D02*
X0121920Y0137097D01*
X0121920Y0138696D02*
X0119726Y0138696D01*
X0119920Y0140294D02*
X0121920Y0140294D01*
X0128605Y0141365D02*
X0128605Y0142335D01*
X0129589Y0142335D01*
X0129589Y0146116D01*
X0129957Y0146116D01*
X0129957Y0142335D01*
X0131979Y0142335D01*
X0132436Y0142457D01*
X0132847Y0142694D01*
X0133182Y0143029D01*
X0133343Y0143309D01*
X0133918Y0142735D01*
X0134666Y0142735D01*
X0134666Y0141365D01*
X0133918Y0141365D01*
X0133120Y0140567D01*
X0132321Y0141365D01*
X0128605Y0141365D01*
X0128605Y0141893D02*
X0134666Y0141893D01*
X0129957Y0143491D02*
X0129589Y0143491D01*
X0129589Y0145090D02*
X0129957Y0145090D01*
X0129957Y0146484D02*
X0129589Y0146484D01*
X0129589Y0150265D01*
X0128605Y0150265D01*
X0128605Y0152061D01*
X0128565Y0152100D01*
X0130774Y0152100D01*
X0131520Y0151354D01*
X0131520Y0150265D01*
X0129957Y0150265D01*
X0129957Y0146484D01*
X0129957Y0146688D02*
X0129589Y0146688D01*
X0129589Y0148287D02*
X0129957Y0148287D01*
X0129957Y0149885D02*
X0129589Y0149885D01*
X0128605Y0151484D02*
X0131390Y0151484D01*
X0132067Y0157878D02*
X0132620Y0157878D01*
X0134095Y0159476D02*
X0128018Y0159476D01*
X0136719Y0159476D02*
X0136720Y0159476D01*
X0136719Y0157878D02*
X0136720Y0157878D01*
X0139344Y0159476D02*
X0139770Y0159476D01*
X0142935Y0159476D02*
X0143304Y0159476D01*
X0143304Y0157878D02*
X0142935Y0157878D01*
X0139835Y0133900D02*
X0131294Y0133900D01*
X0132197Y0132302D02*
X0138842Y0132302D01*
X0139005Y0130703D02*
X0131981Y0130703D01*
X0130351Y0129105D02*
X0140434Y0129105D01*
X0143005Y0129105D02*
X0146020Y0129105D01*
X0146020Y0127506D02*
X0128620Y0127506D01*
X0128620Y0125908D02*
X0146020Y0125908D01*
X0146020Y0124309D02*
X0128620Y0124309D01*
X0128620Y0122711D02*
X0146020Y0122711D01*
X0145929Y0121112D02*
X0128620Y0121112D01*
X0128620Y0119514D02*
X0145918Y0119514D01*
X0114520Y0141893D02*
X0102383Y0141893D01*
X0102420Y0143491D02*
X0105852Y0143491D01*
X0105520Y0145090D02*
X0103425Y0145090D01*
X0101574Y0140294D02*
X0105920Y0140294D01*
X0105920Y0138696D02*
X0102949Y0138696D01*
X0100729Y0139449D02*
X0100729Y0139449D01*
X0100793Y0135478D02*
X0096757Y0135478D01*
X0096448Y0135169D01*
X0096448Y0135169D01*
X0094677Y0133398D01*
X0094677Y0129780D01*
X0095636Y0129780D01*
X0095636Y0134250D01*
X0097953Y0134250D01*
X0098410Y0134127D01*
X0098470Y0134093D01*
X0098529Y0134127D01*
X0098987Y0134250D01*
X0101303Y0134250D01*
X0101303Y0129780D01*
X0102262Y0129780D01*
X0102262Y0132610D01*
X0101970Y0132902D01*
X0101531Y0133964D01*
X0101531Y0134741D01*
X0100793Y0135478D01*
X0101303Y0133900D02*
X0101557Y0133900D01*
X0101303Y0132302D02*
X0102262Y0132302D01*
X0102262Y0130703D02*
X0101303Y0130703D01*
X0101303Y0129780D02*
X0097423Y0129780D01*
X0095636Y0129780D01*
X0095636Y0128820D01*
X0095636Y0124350D01*
X0097953Y0124350D01*
X0098410Y0124473D01*
X0098470Y0124507D01*
X0098529Y0124473D01*
X0098987Y0124350D01*
X0101303Y0124350D01*
X0101303Y0128820D01*
X0102262Y0128820D01*
X0102262Y0124350D01*
X0104579Y0124350D01*
X0105036Y0124473D01*
X0105447Y0124710D01*
X0105782Y0125045D01*
X0105943Y0125325D01*
X0106518Y0124750D01*
X0107757Y0124750D01*
X0107757Y0123850D01*
X0106518Y0123850D01*
X0105943Y0123275D01*
X0105782Y0123555D01*
X0105447Y0123890D01*
X0105036Y0124127D01*
X0104579Y0124250D01*
X0102262Y0124250D01*
X0102262Y0119780D01*
X0101303Y0119780D01*
X0101303Y0124250D01*
X0098987Y0124250D01*
X0098529Y0124127D01*
X0098470Y0124093D01*
X0098410Y0124127D01*
X0097953Y0124250D01*
X0095636Y0124250D01*
X0095636Y0119780D01*
X0094677Y0119780D01*
X0094677Y0124250D01*
X0092361Y0124250D01*
X0091903Y0124127D01*
X0091492Y0123890D01*
X0091183Y0123580D01*
X0091183Y0125020D01*
X0091492Y0124710D01*
X0091903Y0124473D01*
X0092361Y0124350D01*
X0094677Y0124350D01*
X0094677Y0128820D01*
X0095636Y0128820D01*
X0101303Y0128820D01*
X0101303Y0129780D01*
X0101303Y0129105D02*
X0095636Y0129105D01*
X0095636Y0130703D02*
X0094677Y0130703D01*
X0094677Y0132302D02*
X0095636Y0132302D01*
X0095636Y0133900D02*
X0095180Y0133900D01*
X0087346Y0137097D02*
X0079020Y0137097D01*
X0079020Y0135499D02*
X0085747Y0135499D01*
X0084149Y0133900D02*
X0079020Y0133900D01*
X0081481Y0132302D02*
X0083323Y0132302D01*
X0083323Y0130703D02*
X0082540Y0130703D01*
X0082469Y0129105D02*
X0083323Y0129105D01*
X0083323Y0127506D02*
X0081264Y0127506D01*
X0080620Y0125908D02*
X0083323Y0125908D01*
X0083383Y0124309D02*
X0080620Y0124309D01*
X0080620Y0122711D02*
X0083323Y0122711D01*
X0083323Y0121112D02*
X0080620Y0121112D01*
X0080620Y0119514D02*
X0083323Y0119514D01*
X0083323Y0117915D02*
X0080620Y0117915D01*
X0080620Y0116317D02*
X0083323Y0116317D01*
X0091183Y0124309D02*
X0107757Y0124309D01*
X0102262Y0122711D02*
X0101303Y0122711D01*
X0101303Y0121112D02*
X0102262Y0121112D01*
X0101303Y0119780D02*
X0101303Y0118820D01*
X0095636Y0118820D01*
X0095636Y0119780D01*
X0097423Y0119780D01*
X0101303Y0119780D01*
X0101303Y0119514D02*
X0095636Y0119514D01*
X0095636Y0121112D02*
X0094677Y0121112D01*
X0094677Y0122711D02*
X0095636Y0122711D01*
X0095636Y0125908D02*
X0094677Y0125908D01*
X0094677Y0127506D02*
X0095636Y0127506D01*
X0101303Y0127506D02*
X0102262Y0127506D01*
X0102262Y0125908D02*
X0101303Y0125908D01*
X0105792Y0137097D02*
X0105920Y0137097D01*
X0110995Y0143491D02*
X0111645Y0143491D01*
X0111645Y0145090D02*
X0110995Y0145090D01*
X0114520Y0161075D02*
X0099516Y0161075D01*
X0099516Y0162673D02*
X0114520Y0162673D01*
X0091800Y0169068D02*
X0091183Y0169068D01*
X0083383Y0169068D02*
X0069556Y0169068D01*
X0067957Y0167469D02*
X0083323Y0167469D01*
X0083323Y0165870D02*
X0066359Y0165870D01*
X0064760Y0164272D02*
X0083323Y0164272D01*
X0083320Y0162673D02*
X0063162Y0162673D01*
X0061563Y0161075D02*
X0083323Y0161075D01*
X0084328Y0159476D02*
X0065569Y0159476D01*
X0067167Y0157878D02*
X0085926Y0157878D01*
X0087525Y0156279D02*
X0068766Y0156279D01*
X0070364Y0154681D02*
X0080085Y0154681D01*
X0079989Y0153082D02*
X0071963Y0153082D01*
X0073561Y0151484D02*
X0079989Y0151484D01*
X0085320Y0151484D02*
X0086920Y0151484D01*
X0086920Y0153082D02*
X0085320Y0153082D01*
X0085320Y0154681D02*
X0086920Y0154681D01*
X0086920Y0149885D02*
X0085320Y0149885D01*
X0085320Y0148287D02*
X0086920Y0148287D01*
X0086920Y0143491D02*
X0085320Y0143491D01*
X0085320Y0141893D02*
X0086920Y0141893D01*
X0086920Y0140294D02*
X0085320Y0140294D01*
X0085320Y0138696D02*
X0086920Y0138696D01*
X0080184Y0138696D02*
X0079020Y0138696D01*
X0079020Y0140294D02*
X0079989Y0140294D01*
X0079989Y0141893D02*
X0079020Y0141893D01*
X0079020Y0143491D02*
X0079989Y0143491D01*
X0079989Y0145090D02*
X0079020Y0145090D01*
X0063293Y0154681D02*
X0048520Y0154681D01*
X0048520Y0156279D02*
X0051695Y0156279D01*
X0050174Y0157800D02*
X0050174Y0157800D01*
X0050096Y0157878D02*
X0048520Y0157878D01*
X0048520Y0159476D02*
X0049120Y0159476D01*
X0049120Y0161075D02*
X0048520Y0161075D01*
X0048520Y0162673D02*
X0049120Y0162673D01*
X0049120Y0164272D02*
X0048520Y0164272D01*
X0048520Y0165870D02*
X0049120Y0165870D01*
X0049120Y0167469D02*
X0048520Y0167469D01*
X0048520Y0169068D02*
X0049120Y0169068D01*
X0049120Y0170666D02*
X0048520Y0170666D01*
X0048520Y0172265D02*
X0049120Y0172265D01*
X0049120Y0173863D02*
X0048520Y0173863D01*
X0048520Y0175462D02*
X0049120Y0175462D01*
X0049120Y0177060D02*
X0048520Y0177060D01*
X0048520Y0178659D02*
X0049120Y0178659D01*
X0049120Y0180257D02*
X0048520Y0180257D01*
X0048520Y0181856D02*
X0049120Y0181856D01*
X0049120Y0183454D02*
X0048520Y0183454D01*
X0048520Y0185053D02*
X0049120Y0185053D01*
X0049120Y0186651D02*
X0048520Y0186651D01*
X0048520Y0188250D02*
X0049120Y0188250D01*
X0049120Y0189848D02*
X0048520Y0189848D01*
X0048520Y0191447D02*
X0049120Y0191447D01*
X0049120Y0193045D02*
X0048520Y0193045D01*
X0048520Y0194644D02*
X0049120Y0194644D01*
X0049120Y0196242D02*
X0048520Y0196242D01*
X0048520Y0197841D02*
X0049120Y0197841D01*
X0049120Y0199439D02*
X0048520Y0199439D01*
X0048520Y0201038D02*
X0049120Y0201038D01*
X0049120Y0202636D02*
X0048520Y0202636D01*
X0048520Y0204235D02*
X0049909Y0204235D01*
X0048520Y0205833D02*
X0051507Y0205833D01*
X0053106Y0207432D02*
X0048520Y0207432D01*
X0048520Y0209030D02*
X0054704Y0209030D01*
X0056303Y0210629D02*
X0048520Y0210629D01*
X0048520Y0212227D02*
X0057901Y0212227D01*
X0059500Y0213826D02*
X0048520Y0213826D01*
X0054679Y0215424D02*
X0061098Y0215424D01*
X0062697Y0217023D02*
X0056250Y0217023D01*
X0056912Y0218621D02*
X0083219Y0218621D01*
X0084365Y0220220D02*
X0076412Y0220220D01*
X0076612Y0220322D02*
X0077248Y0220784D01*
X0077803Y0221339D01*
X0078264Y0221974D01*
X0078621Y0222674D01*
X0078864Y0223421D01*
X0078986Y0224196D01*
X0078986Y0224336D01*
X0074251Y0224336D01*
X0074251Y0224842D01*
X0078986Y0224842D01*
X0078986Y0224982D01*
X0078864Y0225757D01*
X0078621Y0226504D01*
X0078264Y0227204D01*
X0077803Y0227839D01*
X0077248Y0228394D01*
X0076612Y0228856D01*
X0075913Y0229212D01*
X0075166Y0229455D01*
X0074390Y0229578D01*
X0074251Y0229578D01*
X0074251Y0224842D01*
X0073744Y0224842D01*
X0073744Y0224336D01*
X0069009Y0224336D01*
X0069009Y0224196D01*
X0069131Y0223421D01*
X0069374Y0222674D01*
X0069731Y0221974D01*
X0070192Y0221339D01*
X0070747Y0220784D01*
X0071383Y0220322D01*
X0072082Y0219966D01*
X0072829Y0219723D01*
X0073605Y0219600D01*
X0073744Y0219600D01*
X0073744Y0224336D01*
X0074251Y0224336D01*
X0074251Y0219600D01*
X0074390Y0219600D01*
X0075166Y0219723D01*
X0075913Y0219966D01*
X0076612Y0220322D01*
X0078151Y0221818D02*
X0082089Y0221818D01*
X0081327Y0223417D02*
X0078862Y0223417D01*
X0078981Y0225015D02*
X0081220Y0225015D01*
X0081680Y0226614D02*
X0078565Y0226614D01*
X0077430Y0228212D02*
X0082942Y0228212D01*
X0086062Y0231411D02*
X0086201Y0231411D01*
X0086977Y0231534D01*
X0087724Y0231777D01*
X0088423Y0232133D01*
X0089059Y0232595D01*
X0089614Y0233150D01*
X0090075Y0233785D01*
X0090432Y0234485D01*
X0090675Y0235232D01*
X0090797Y0236007D01*
X0090797Y0236147D01*
X0086062Y0236147D01*
X0086062Y0231411D01*
X0086062Y0233008D02*
X0085555Y0233008D01*
X0085555Y0234606D02*
X0086062Y0234606D01*
X0086062Y0236205D02*
X0093031Y0236205D01*
X0093234Y0237803D02*
X0090598Y0237803D01*
X0089794Y0239402D02*
X0094132Y0239402D01*
X0093395Y0234606D02*
X0090471Y0234606D01*
X0089472Y0233008D02*
X0094522Y0233008D01*
X0095783Y0231409D02*
X0048520Y0231409D01*
X0048520Y0229811D02*
X0094185Y0229811D01*
X0092586Y0228212D02*
X0088675Y0228212D01*
X0089937Y0226614D02*
X0090988Y0226614D01*
X0092882Y0223417D02*
X0093138Y0223417D01*
X0093900Y0221818D02*
X0091508Y0221818D01*
X0089909Y0220220D02*
X0096176Y0220220D01*
X0099063Y0220220D02*
X0102524Y0220220D01*
X0102524Y0221818D02*
X0101339Y0221818D01*
X0102101Y0223417D02*
X0103003Y0223417D01*
X0103791Y0225015D02*
X0102209Y0225015D01*
X0102894Y0218621D02*
X0088311Y0218621D01*
X0086712Y0217023D02*
X0103556Y0217023D01*
X0105127Y0215424D02*
X0098857Y0215424D01*
X0093783Y0215424D02*
X0085114Y0215424D01*
X0090356Y0210629D02*
X0078054Y0210629D01*
X0079466Y0209030D02*
X0088757Y0209030D01*
X0087159Y0207432D02*
X0080128Y0207432D01*
X0080781Y0205833D02*
X0085560Y0205833D01*
X0083962Y0204235D02*
X0080781Y0204235D01*
X0080781Y0202636D02*
X0082363Y0202636D01*
X0080765Y0201038D02*
X0080351Y0201038D01*
X0074371Y0194644D02*
X0073605Y0194644D01*
X0072772Y0193045D02*
X0052720Y0193045D01*
X0052720Y0191447D02*
X0071174Y0191447D01*
X0069575Y0189848D02*
X0052720Y0189848D01*
X0052720Y0188250D02*
X0067977Y0188250D01*
X0066378Y0186651D02*
X0052720Y0186651D01*
X0052720Y0185053D02*
X0064780Y0185053D01*
X0063181Y0183454D02*
X0052720Y0183454D01*
X0052720Y0181856D02*
X0061583Y0181856D01*
X0059984Y0180257D02*
X0052720Y0180257D01*
X0052720Y0178659D02*
X0058386Y0178659D01*
X0056787Y0177060D02*
X0052720Y0177060D01*
X0052720Y0175462D02*
X0055189Y0175462D01*
X0053590Y0173863D02*
X0052720Y0173863D01*
X0055484Y0170666D02*
X0060123Y0170666D01*
X0058525Y0169068D02*
X0055020Y0169068D01*
X0055020Y0170201D02*
X0055020Y0165562D01*
X0065966Y0176509D01*
X0067064Y0177606D01*
X0068497Y0178200D01*
X0077578Y0178200D01*
X0077531Y0178314D01*
X0077531Y0179111D01*
X0076545Y0179111D01*
X0075483Y0179551D01*
X0074670Y0180364D01*
X0074231Y0181425D01*
X0074231Y0182575D01*
X0074670Y0183636D01*
X0075320Y0184286D01*
X0075320Y0187013D01*
X0075554Y0187247D01*
X0075440Y0187294D01*
X0074627Y0188107D01*
X0074187Y0189169D01*
X0074187Y0189369D01*
X0055020Y0170201D01*
X0055020Y0167469D02*
X0056926Y0167469D01*
X0055328Y0165870D02*
X0055020Y0165870D01*
X0057083Y0172265D02*
X0061722Y0172265D01*
X0063320Y0173863D02*
X0058681Y0173863D01*
X0060280Y0175462D02*
X0064919Y0175462D01*
X0066517Y0177060D02*
X0061878Y0177060D01*
X0063477Y0178659D02*
X0077531Y0178659D01*
X0074777Y0180257D02*
X0065075Y0180257D01*
X0066674Y0181856D02*
X0074231Y0181856D01*
X0074595Y0183454D02*
X0068272Y0183454D01*
X0069871Y0185053D02*
X0075320Y0185053D01*
X0075320Y0186651D02*
X0071469Y0186651D01*
X0073068Y0188250D02*
X0074568Y0188250D01*
X0068952Y0194644D02*
X0052720Y0194644D01*
X0052720Y0196242D02*
X0065563Y0196242D01*
X0063965Y0197841D02*
X0052720Y0197841D01*
X0052720Y0199439D02*
X0062868Y0199439D01*
X0062206Y0201038D02*
X0052720Y0201038D01*
X0053401Y0202636D02*
X0061776Y0202636D01*
X0061776Y0204235D02*
X0055000Y0204235D01*
X0056598Y0205833D02*
X0061776Y0205833D01*
X0062429Y0207432D02*
X0058197Y0207432D01*
X0059795Y0209030D02*
X0063091Y0209030D01*
X0064504Y0210629D02*
X0061394Y0210629D01*
X0062992Y0212227D02*
X0066394Y0212227D01*
X0064591Y0213826D02*
X0093431Y0213826D01*
X0092001Y0212227D02*
X0076163Y0212227D01*
X0074251Y0220220D02*
X0073744Y0220220D01*
X0073744Y0221818D02*
X0074251Y0221818D01*
X0074251Y0223417D02*
X0073744Y0223417D01*
X0073744Y0224842D02*
X0069009Y0224842D01*
X0069009Y0224982D01*
X0069131Y0225757D01*
X0069374Y0226504D01*
X0069731Y0227204D01*
X0070192Y0227839D01*
X0070747Y0228394D01*
X0071383Y0228856D01*
X0072082Y0229212D01*
X0072829Y0229455D01*
X0073605Y0229578D01*
X0073744Y0229578D01*
X0073744Y0224842D01*
X0073744Y0225015D02*
X0074251Y0225015D01*
X0074251Y0226614D02*
X0073744Y0226614D01*
X0073744Y0228212D02*
X0074251Y0228212D01*
X0074910Y0231811D02*
X0076597Y0232510D01*
X0077888Y0233801D01*
X0078586Y0235487D01*
X0078586Y0237313D01*
X0077888Y0238999D01*
X0076597Y0240290D01*
X0074910Y0240989D01*
X0073085Y0240989D01*
X0071398Y0240290D01*
X0070107Y0238999D01*
X0069409Y0237313D01*
X0069409Y0235487D01*
X0070107Y0233801D01*
X0071398Y0232510D01*
X0073085Y0231811D01*
X0074910Y0231811D01*
X0077095Y0233008D02*
X0082145Y0233008D01*
X0081146Y0234606D02*
X0078222Y0234606D01*
X0078586Y0236205D02*
X0085555Y0236205D01*
X0085555Y0237803D02*
X0086062Y0237803D01*
X0086062Y0239402D02*
X0085555Y0239402D01*
X0081823Y0239402D02*
X0077485Y0239402D01*
X0078383Y0237803D02*
X0081019Y0237803D01*
X0070510Y0239402D02*
X0065674Y0239402D01*
X0066077Y0238999D02*
X0064786Y0240290D01*
X0063099Y0240989D01*
X0061274Y0240989D01*
X0059587Y0240290D01*
X0058296Y0238999D01*
X0057598Y0237313D01*
X0057598Y0235487D01*
X0058296Y0233801D01*
X0059587Y0232510D01*
X0061274Y0231811D01*
X0063099Y0231811D01*
X0064786Y0232510D01*
X0066077Y0233801D01*
X0066775Y0235487D01*
X0066775Y0237313D01*
X0066077Y0238999D01*
X0066572Y0237803D02*
X0069612Y0237803D01*
X0069409Y0236205D02*
X0066775Y0236205D01*
X0066411Y0234606D02*
X0069773Y0234606D01*
X0070900Y0233008D02*
X0065284Y0233008D01*
X0064102Y0229212D02*
X0063355Y0229455D01*
X0062579Y0229578D01*
X0062440Y0229578D01*
X0062440Y0224842D01*
X0067175Y0224842D01*
X0067175Y0224982D01*
X0067053Y0225757D01*
X0066810Y0226504D01*
X0066453Y0227204D01*
X0065992Y0227839D01*
X0065437Y0228394D01*
X0064801Y0228856D01*
X0064102Y0229212D01*
X0065618Y0228212D02*
X0070565Y0228212D01*
X0069430Y0226614D02*
X0066754Y0226614D01*
X0067170Y0225015D02*
X0069014Y0225015D01*
X0069133Y0223417D02*
X0067051Y0223417D01*
X0067053Y0223421D02*
X0067175Y0224196D01*
X0067175Y0224336D01*
X0062440Y0224336D01*
X0062440Y0224842D01*
X0061933Y0224842D01*
X0061933Y0224336D01*
X0057198Y0224336D01*
X0057198Y0224196D01*
X0057320Y0223421D01*
X0057563Y0222674D01*
X0057920Y0221974D01*
X0058381Y0221339D01*
X0058936Y0220784D01*
X0059572Y0220322D01*
X0060271Y0219966D01*
X0061018Y0219723D01*
X0061794Y0219600D01*
X0061933Y0219600D01*
X0061933Y0224336D01*
X0062440Y0224336D01*
X0062440Y0219600D01*
X0062579Y0219600D01*
X0063355Y0219723D01*
X0064102Y0219966D01*
X0064801Y0220322D01*
X0065437Y0220784D01*
X0065992Y0221339D01*
X0066453Y0221974D01*
X0066810Y0222674D01*
X0067053Y0223421D01*
X0066340Y0221818D02*
X0069844Y0221818D01*
X0071583Y0220220D02*
X0064601Y0220220D01*
X0062440Y0220220D02*
X0061933Y0220220D01*
X0061933Y0221818D02*
X0062440Y0221818D01*
X0062440Y0223417D02*
X0061933Y0223417D01*
X0061933Y0224842D02*
X0057198Y0224842D01*
X0057198Y0224982D01*
X0057320Y0225757D01*
X0057563Y0226504D01*
X0057920Y0227204D01*
X0058381Y0227839D01*
X0058936Y0228394D01*
X0059572Y0228856D01*
X0060271Y0229212D01*
X0061018Y0229455D01*
X0061794Y0229578D01*
X0061933Y0229578D01*
X0061933Y0224842D01*
X0061933Y0225015D02*
X0062440Y0225015D01*
X0062440Y0226614D02*
X0061933Y0226614D01*
X0061933Y0228212D02*
X0062440Y0228212D01*
X0058754Y0228212D02*
X0048520Y0228212D01*
X0048520Y0233008D02*
X0059089Y0233008D01*
X0057962Y0234606D02*
X0048520Y0234606D01*
X0048520Y0236205D02*
X0057598Y0236205D01*
X0057801Y0237803D02*
X0048520Y0237803D01*
X0048520Y0239402D02*
X0058699Y0239402D01*
X0048520Y0244198D02*
X0288841Y0244198D01*
X0288841Y0202636D02*
X0272127Y0202636D01*
X0272694Y0201038D02*
X0288841Y0201038D01*
X0288841Y0199439D02*
X0272694Y0199439D01*
X0271759Y0197841D02*
X0288841Y0197841D01*
X0255100Y0180257D02*
X0252848Y0180257D01*
X0284237Y0141672D02*
X0288841Y0141672D01*
X0288841Y0141249D01*
X0288543Y0141328D01*
X0285735Y0141328D01*
X0285735Y0137744D01*
X0285366Y0137744D01*
X0285366Y0141328D01*
X0283893Y0141328D01*
X0284237Y0141672D01*
X0285366Y0140294D02*
X0285735Y0140294D01*
X0285735Y0138696D02*
X0285366Y0138696D01*
X0285366Y0137097D02*
X0285735Y0137097D01*
X0285735Y0135499D02*
X0285366Y0135499D01*
X0285366Y0133900D02*
X0285735Y0133900D01*
X0283520Y0132302D02*
X0288841Y0132302D01*
X0288841Y0130703D02*
X0283520Y0130703D01*
X0279920Y0130703D02*
X0275520Y0130703D01*
X0276125Y0129465D02*
X0275520Y0128860D01*
X0275520Y0137931D01*
X0279920Y0137931D01*
X0279920Y0129465D01*
X0276125Y0129465D01*
X0275764Y0129105D02*
X0275520Y0129105D01*
X0275520Y0132302D02*
X0279920Y0132302D01*
X0279920Y0133900D02*
X0275520Y0133900D01*
X0275520Y0135499D02*
X0279920Y0135499D01*
X0279920Y0137097D02*
X0275520Y0137097D01*
X0288275Y0129105D02*
X0288841Y0129105D01*
X0288841Y0127506D02*
X0288734Y0127506D01*
X0288734Y0125908D02*
X0288841Y0125908D01*
X0288841Y0124309D02*
X0288734Y0124309D01*
X0288841Y0122711D02*
X0288290Y0122711D01*
X0288841Y0121112D02*
X0281269Y0121112D01*
X0281362Y0119514D02*
X0288841Y0119514D01*
X0288841Y0117915D02*
X0280320Y0117915D01*
X0276719Y0117915D02*
X0275520Y0117915D01*
X0275520Y0116317D02*
X0288841Y0116317D01*
X0282442Y0122711D02*
X0281598Y0122711D01*
X0275749Y0122711D02*
X0275520Y0122711D01*
X0275520Y0121112D02*
X0275770Y0121112D01*
X0275677Y0119514D02*
X0275520Y0119514D01*
X0201779Y0191447D02*
X0201116Y0191447D01*
X0201116Y0193045D02*
X0203351Y0193045D01*
X0203351Y0194644D02*
X0201131Y0194644D01*
X0201131Y0196242D02*
X0203351Y0196242D01*
X0203059Y0197841D02*
X0201131Y0197841D01*
X0201131Y0199439D02*
X0202951Y0199439D01*
X0175453Y0194644D02*
X0174986Y0194644D01*
X0174986Y0193045D02*
X0175453Y0193045D01*
X0169953Y0193045D02*
X0169486Y0193045D01*
X0169486Y0194644D02*
X0169953Y0194644D01*
X0164453Y0194644D02*
X0163986Y0194644D01*
X0163986Y0193045D02*
X0164453Y0193045D01*
X0151820Y0189848D02*
X0103323Y0189848D01*
X0103037Y0188250D02*
X0151820Y0188250D01*
X0151820Y0186651D02*
X0102234Y0186651D01*
X0102234Y0185053D02*
X0151820Y0185053D01*
X0174655Y0233008D02*
X0175162Y0233008D01*
X0175162Y0234606D02*
X0174655Y0234606D01*
X0174655Y0237803D02*
X0175162Y0237803D01*
X0175162Y0239402D02*
X0174655Y0239402D01*
X0170996Y0239402D02*
X0166485Y0239402D01*
X0167442Y0237803D02*
X0170151Y0237803D01*
X0091261Y0178659D02*
X0090613Y0178659D01*
X0063220Y0217546D02*
X0063220Y0217546D01*
X0059772Y0220220D02*
X0057282Y0220220D01*
X0057282Y0221818D02*
X0058033Y0221818D01*
X0057322Y0223417D02*
X0056803Y0223417D01*
X0057203Y0225015D02*
X0056015Y0225015D01*
X0054417Y0226614D02*
X0057619Y0226614D01*
X0065563Y0119514D02*
X0066920Y0119514D01*
X0057505Y0093937D02*
X0057362Y0093937D01*
X0054314Y0069960D02*
X0053920Y0069960D01*
X0053920Y0068361D02*
X0055913Y0068361D01*
X0054502Y0066763D02*
X0057511Y0066763D01*
X0056101Y0065164D02*
X0059110Y0065164D01*
X0057699Y0063566D02*
X0060708Y0063566D01*
X0060838Y0061967D02*
X0062307Y0061967D01*
X0061609Y0060369D02*
X0063905Y0060369D01*
X0064202Y0058770D02*
X0061337Y0058770D01*
X0056102Y0058770D02*
X0053337Y0058770D01*
X0053609Y0060369D02*
X0055805Y0060369D01*
X0054207Y0061967D02*
X0052838Y0061967D01*
X0052608Y0063566D02*
X0052520Y0063566D01*
X0048520Y0039588D02*
X0086831Y0039588D01*
X0084620Y0037990D02*
X0079108Y0037990D01*
X0081514Y0036391D02*
X0083884Y0036391D01*
X0083796Y0034793D02*
X0082712Y0034793D01*
X0083374Y0033194D02*
X0084275Y0033194D01*
X0092494Y0033194D02*
X0096086Y0033194D01*
X0095607Y0034793D02*
X0092974Y0034793D01*
X0092885Y0036391D02*
X0095695Y0036391D01*
X0096431Y0037990D02*
X0093797Y0037990D01*
X0095395Y0039588D02*
X0098642Y0039588D01*
X0101829Y0042785D02*
X0103320Y0042785D01*
X0090021Y0039588D02*
X0089939Y0039588D01*
X0074040Y0037990D02*
X0048520Y0037990D01*
X0048520Y0036391D02*
X0071634Y0036391D01*
X0070436Y0034793D02*
X0048520Y0034793D01*
X0048520Y0033194D02*
X0069774Y0033194D01*
D35*
X0073820Y0041800D03*
X0083820Y0041800D03*
X0098420Y0041500D03*
X0109620Y0041300D03*
X0121220Y0041400D03*
X0133720Y0056000D03*
X0133720Y0061000D03*
X0138720Y0061000D03*
X0143720Y0051000D03*
X0148220Y0041000D03*
X0160120Y0044900D03*
X0177420Y0046500D03*
X0191520Y0046500D03*
X0191320Y0061500D03*
X0188720Y0071700D03*
X0177420Y0071100D03*
X0177120Y0077500D03*
X0168720Y0076700D03*
X0163520Y0077400D03*
X0159220Y0066800D03*
X0159220Y0062800D03*
X0150220Y0060900D03*
X0132631Y0078731D03*
X0129053Y0077989D03*
X0117820Y0070400D03*
X0106220Y0070600D03*
X0094320Y0070400D03*
X0083820Y0066800D03*
X0073820Y0071800D03*
X0063820Y0071800D03*
X0063820Y0076800D03*
X0066820Y0060000D03*
X0058720Y0060000D03*
X0050720Y0060000D03*
X0083620Y0086500D03*
X0088820Y0086700D03*
X0098620Y0086500D03*
X0098620Y0101500D03*
X0082020Y0111172D03*
X0078820Y0106800D03*
X0073820Y0096800D03*
X0059959Y0095560D03*
X0053820Y0106800D03*
X0058820Y0111800D03*
X0053820Y0116800D03*
X0071420Y0132300D03*
X0070220Y0136500D03*
X0068820Y0141800D03*
X0068820Y0146800D03*
X0063820Y0146800D03*
X0063820Y0151800D03*
X0073820Y0156800D03*
X0078820Y0156800D03*
X0078820Y0151800D03*
X0078820Y0161800D03*
X0078820Y0166800D03*
X0073820Y0166800D03*
X0073820Y0161800D03*
X0068820Y0161800D03*
X0057020Y0170000D03*
X0077120Y0182000D03*
X0080420Y0178889D03*
X0085820Y0179700D03*
X0085820Y0188100D03*
X0077076Y0189743D03*
X0095320Y0182900D03*
X0100220Y0178911D03*
X0100435Y0189515D03*
X0096331Y0200500D03*
X0094931Y0204078D03*
X0092700Y0206907D03*
X0096320Y0214000D03*
X0083620Y0211900D03*
X0083620Y0206900D03*
X0058620Y0201900D03*
X0058620Y0191900D03*
X0100820Y0169700D03*
X0105820Y0169700D03*
X0113720Y0171100D03*
X0118620Y0181400D03*
X0118220Y0189800D03*
X0118020Y0194400D03*
X0128720Y0194300D03*
X0125820Y0204700D03*
X0138720Y0206800D03*
X0148720Y0206800D03*
X0152220Y0197800D03*
X0158720Y0206800D03*
X0168720Y0206800D03*
X0178820Y0204900D03*
X0178720Y0196600D03*
X0179020Y0188900D03*
X0184320Y0184000D03*
X0191070Y0183651D03*
X0193981Y0186100D03*
X0199820Y0171000D03*
X0204720Y0163400D03*
X0208720Y0169100D03*
X0212625Y0173102D03*
X0224220Y0174300D03*
X0235320Y0173900D03*
X0247731Y0165900D03*
X0245995Y0162576D03*
X0238831Y0157749D03*
X0236720Y0154300D03*
X0239831Y0150371D03*
X0239831Y0146793D03*
X0243620Y0144300D03*
X0243320Y0130500D03*
X0234020Y0120700D03*
X0228020Y0120700D03*
X0223720Y0127635D03*
X0213420Y0119400D03*
X0209220Y0123300D03*
X0205620Y0121400D03*
X0213520Y0114200D03*
X0213520Y0109200D03*
X0204720Y0111800D03*
X0194220Y0111800D03*
X0194220Y0103000D03*
X0184220Y0103000D03*
X0176452Y0121539D03*
X0180430Y0125339D03*
X0173163Y0127836D03*
X0158081Y0132100D03*
X0158320Y0137300D03*
X0163320Y0147300D03*
X0163320Y0157300D03*
X0163320Y0167300D03*
X0170363Y0166800D03*
X0169620Y0172300D03*
X0183720Y0165800D03*
X0187398Y0164400D03*
X0188120Y0159300D03*
X0199720Y0158400D03*
X0208320Y0147300D03*
X0208620Y0141800D03*
X0200109Y0140896D03*
X0196880Y0134740D03*
X0189720Y0123400D03*
X0197520Y0121800D03*
X0184720Y0143400D03*
X0218720Y0141800D03*
X0221220Y0144378D03*
X0233920Y0162500D03*
X0250720Y0178300D03*
X0257209Y0176300D03*
X0260786Y0176300D03*
X0264364Y0176300D03*
X0267942Y0176300D03*
X0270220Y0181800D03*
X0268520Y0191700D03*
X0283620Y0187400D03*
X0284220Y0198800D03*
X0277920Y0211100D03*
X0255760Y0218740D03*
X0254120Y0211600D03*
X0244520Y0211200D03*
X0239720Y0214300D03*
X0238742Y0210722D03*
X0237342Y0207144D03*
X0243820Y0201400D03*
X0253820Y0196200D03*
X0243720Y0191800D03*
X0255518Y0172589D03*
X0284020Y0175900D03*
X0284220Y0166800D03*
X0261620Y0145300D03*
X0263820Y0138100D03*
X0268720Y0131400D03*
X0278720Y0136400D03*
X0285120Y0132300D03*
X0278520Y0120200D03*
X0278720Y0114000D03*
X0278520Y0104200D03*
X0278520Y0089200D03*
X0263520Y0109200D03*
X0263520Y0119200D03*
X0240420Y0117800D03*
X0244820Y0101900D03*
X0244820Y0096900D03*
X0234820Y0096900D03*
X0234820Y0101900D03*
X0243320Y0085200D03*
X0231020Y0084700D03*
X0221209Y0076800D03*
X0217920Y0071500D03*
X0216520Y0066400D03*
X0202720Y0079800D03*
X0205013Y0087811D03*
X0208591Y0087811D03*
X0213520Y0099200D03*
X0252072Y0073169D03*
X0251420Y0060700D03*
X0253820Y0048522D03*
X0254275Y0044944D03*
X0261250Y0041400D03*
X0256612Y0035262D03*
X0243720Y0040758D03*
X0227220Y0034589D03*
X0208720Y0046700D03*
X0235220Y0062000D03*
X0273720Y0036800D03*
X0177620Y0061700D03*
X0143620Y0086500D03*
X0158620Y0096500D03*
X0158620Y0101500D03*
X0158820Y0091700D03*
X0149259Y0109060D03*
X0153720Y0111800D03*
X0148720Y0120300D03*
X0141720Y0131699D03*
X0133820Y0133000D03*
X0129309Y0131800D03*
X0130720Y0126300D03*
X0130420Y0116700D03*
X0118720Y0116800D03*
X0118620Y0126500D03*
X0121220Y0131800D03*
X0120877Y0143957D03*
X0121609Y0151500D03*
X0123620Y0154500D03*
X0126220Y0157189D03*
X0131820Y0164500D03*
X0143520Y0164000D03*
X0143520Y0174300D03*
X0145420Y0179500D03*
X0140420Y0184500D03*
X0128820Y0181500D03*
X0151109Y0174291D03*
X0113720Y0206800D03*
X0118820Y0216500D03*
X0118820Y0231500D03*
X0128820Y0231500D03*
X0143820Y0231500D03*
X0168620Y0226900D03*
X0178620Y0241900D03*
X0213620Y0241900D03*
X0233620Y0231900D03*
X0243620Y0221900D03*
X0213620Y0221900D03*
X0208620Y0206900D03*
X0198620Y0206900D03*
X0198620Y0201900D03*
X0188720Y0206700D03*
X0219720Y0191300D03*
X0123020Y0102600D03*
X0118120Y0104100D03*
X0105620Y0124300D03*
X0104420Y0134539D03*
X0100420Y0134600D03*
X0104620Y0139000D03*
X0093620Y0146900D03*
X0096420Y0151100D03*
X0079709Y0129989D03*
X0074620Y0127389D03*
X0073620Y0121200D03*
X0062320Y0230700D03*
X0078720Y0231500D03*
D36*
X0089998Y0223078D02*
X0098720Y0231800D01*
X0103720Y0231800D01*
X0108720Y0236800D01*
X0150786Y0236800D01*
X0151286Y0236300D01*
X0133720Y0211800D02*
X0118125Y0227394D01*
X0100425Y0227394D01*
X0097620Y0224589D01*
X0089998Y0223078D02*
X0089998Y0222854D01*
X0083944Y0216800D01*
X0065020Y0216800D01*
X0050920Y0202700D01*
X0050920Y0159600D01*
X0053720Y0156800D01*
X0063720Y0156800D01*
X0074620Y0145900D01*
X0074620Y0127389D01*
X0070120Y0131000D02*
X0070120Y0111220D01*
X0052120Y0093220D01*
X0052120Y0066600D01*
X0058720Y0060000D01*
X0050720Y0060000D02*
X0050720Y0093800D01*
X0068720Y0111800D01*
X0068720Y0135000D01*
X0070220Y0136500D01*
X0071420Y0132300D02*
X0070120Y0131000D01*
X0073520Y0121200D02*
X0071520Y0119200D01*
X0071520Y0110640D01*
X0053520Y0092640D01*
X0053520Y0073300D01*
X0066820Y0060000D01*
X0088720Y0070146D02*
X0092366Y0066500D01*
X0131320Y0066500D01*
X0137920Y0073100D01*
X0137920Y0094200D01*
X0151380Y0107660D01*
X0163012Y0107660D01*
X0173603Y0118250D01*
X0176683Y0118250D01*
X0180430Y0121997D01*
X0180430Y0125339D01*
X0176452Y0121539D02*
X0174912Y0121539D01*
X0162432Y0109060D01*
X0149259Y0109060D01*
X0136520Y0100800D02*
X0136520Y0073680D01*
X0130740Y0067900D01*
X0114466Y0067900D01*
X0112220Y0070146D01*
X0120720Y0075500D02*
X0132920Y0075500D01*
X0135120Y0077700D01*
X0135120Y0100220D01*
X0125420Y0109920D01*
X0125420Y0122200D01*
X0125405Y0122215D01*
X0125405Y0147704D01*
X0121609Y0151500D01*
X0123620Y0154500D02*
X0126805Y0151315D01*
X0126805Y0135220D01*
X0126820Y0135205D01*
X0126820Y0110500D01*
X0136520Y0100800D01*
X0133720Y0099640D02*
X0133720Y0079820D01*
X0132631Y0078731D01*
X0145320Y0076746D02*
X0145320Y0069862D01*
X0145342Y0069840D01*
X0145342Y0064760D01*
X0145320Y0064738D01*
X0145320Y0059800D01*
X0149420Y0055700D01*
X0209900Y0055700D01*
X0233311Y0032289D01*
X0253640Y0032289D01*
X0256612Y0035262D01*
X0253185Y0037334D02*
X0254561Y0038711D01*
X0257361Y0041511D01*
X0257361Y0075360D01*
X0254520Y0078202D01*
X0254520Y0171591D01*
X0255518Y0172589D01*
X0253029Y0173620D02*
X0253029Y0077713D01*
X0255961Y0074780D01*
X0255961Y0050664D01*
X0253820Y0048522D01*
X0250120Y0048600D02*
X0254561Y0053042D01*
X0254561Y0074200D01*
X0251629Y0077133D01*
X0251629Y0078542D01*
X0251620Y0078551D01*
X0251620Y0174231D01*
X0256178Y0178789D01*
X0258240Y0178789D01*
X0260728Y0176300D01*
X0260786Y0176300D01*
X0257209Y0176300D02*
X0255709Y0176300D01*
X0253029Y0173620D01*
X0250220Y0177800D02*
X0250220Y0075022D01*
X0252072Y0073169D01*
X0255920Y0078782D02*
X0255920Y0167755D01*
X0264364Y0176200D01*
X0264364Y0176300D01*
X0267942Y0176300D02*
X0267942Y0176200D01*
X0257320Y0165577D01*
X0257320Y0079362D01*
X0260161Y0076520D01*
X0260161Y0047789D01*
X0261350Y0046600D01*
X0261350Y0041500D01*
X0261250Y0041400D01*
X0258761Y0040931D02*
X0258761Y0075940D01*
X0255920Y0078782D01*
X0250120Y0048600D02*
X0250120Y0038369D01*
X0249640Y0037889D01*
X0235631Y0037889D01*
X0191412Y0082107D01*
X0191412Y0083780D01*
X0188838Y0082024D02*
X0188838Y0080925D01*
X0189763Y0080000D01*
X0191540Y0080000D01*
X0235051Y0036489D01*
X0250220Y0036489D01*
X0255575Y0041845D01*
X0255575Y0043644D01*
X0254275Y0044944D01*
X0258761Y0040931D02*
X0251520Y0033689D01*
X0233891Y0033689D01*
X0193080Y0074500D01*
X0175120Y0074500D01*
X0169759Y0079861D01*
X0169759Y0083780D01*
X0178420Y0083780D02*
X0178420Y0080899D01*
X0180720Y0078600D01*
X0190960Y0078600D01*
X0234471Y0035089D01*
X0250940Y0035089D01*
X0253185Y0037334D01*
X0243720Y0040758D02*
X0234741Y0040758D01*
X0223720Y0051780D01*
X0223720Y0127635D01*
X0234020Y0120700D02*
X0241340Y0120700D01*
X0247420Y0126780D01*
X0247420Y0161151D01*
X0245995Y0162576D01*
X0244120Y0159940D02*
X0242631Y0161429D01*
X0242631Y0190711D01*
X0243720Y0191800D01*
X0228820Y0198680D02*
X0214299Y0213200D01*
X0196917Y0213200D01*
X0186720Y0223398D01*
X0186720Y0224489D01*
X0213720Y0211800D02*
X0133720Y0211800D01*
X0121120Y0201455D02*
X0148375Y0201455D01*
X0148470Y0201550D01*
X0153720Y0181800D02*
X0152120Y0180200D01*
X0151109Y0174291D02*
X0162872Y0174291D01*
X0170363Y0166800D01*
X0183720Y0165800D02*
X0183720Y0157863D01*
X0178995Y0153139D01*
X0177212Y0151355D01*
X0173220Y0151355D01*
X0187398Y0164400D02*
X0188444Y0165446D01*
X0188444Y0170461D01*
X0189727Y0171745D01*
X0194220Y0171745D01*
X0193720Y0180200D02*
X0193220Y0180200D01*
X0191070Y0183651D02*
X0191070Y0189612D01*
X0189283Y0191400D01*
X0184764Y0191400D01*
X0183720Y0190355D01*
X0184320Y0181800D02*
X0183720Y0181200D01*
X0183720Y0180200D01*
X0175220Y0181700D02*
X0173720Y0180200D01*
X0175220Y0181700D02*
X0175220Y0181800D01*
X0169720Y0181800D02*
X0169720Y0181200D01*
X0168720Y0180200D01*
X0164220Y0180300D02*
X0163720Y0179800D01*
X0163320Y0180200D01*
X0158720Y0180200D01*
X0164220Y0180300D02*
X0164220Y0181800D01*
X0193981Y0186100D02*
X0197157Y0189276D01*
X0197157Y0191400D01*
X0197664Y0191908D01*
X0197664Y0197300D01*
X0213720Y0211800D02*
X0227420Y0198100D01*
X0227420Y0173980D01*
X0225251Y0171811D01*
X0225183Y0171811D01*
X0196880Y0143507D01*
X0196880Y0134740D01*
X0200109Y0140896D02*
X0200109Y0144756D01*
X0225763Y0170411D01*
X0225830Y0170411D01*
X0228820Y0173400D01*
X0228820Y0198680D01*
X0237342Y0207144D02*
X0238431Y0206055D01*
X0238431Y0158149D01*
X0238831Y0157749D01*
X0241320Y0158780D02*
X0239831Y0160269D01*
X0239831Y0209633D01*
X0238742Y0210722D01*
X0241231Y0212789D02*
X0241231Y0160849D01*
X0242720Y0159360D01*
X0242720Y0156138D01*
X0239831Y0153249D01*
X0239831Y0150371D01*
X0242320Y0149340D02*
X0242320Y0153758D01*
X0244120Y0155558D01*
X0244120Y0159940D01*
X0241320Y0158780D02*
X0241320Y0156718D01*
X0239862Y0155260D01*
X0237680Y0155260D01*
X0236720Y0154300D01*
X0242320Y0149340D02*
X0239831Y0146851D01*
X0239831Y0146793D01*
X0221220Y0144378D02*
X0221209Y0144367D01*
X0221209Y0140769D01*
X0219420Y0138980D01*
X0219420Y0078589D01*
X0221209Y0076800D01*
X0217920Y0071500D02*
X0217920Y0141000D01*
X0218720Y0141800D01*
X0209220Y0123300D02*
X0208591Y0122672D01*
X0208591Y0087811D01*
X0205013Y0087811D02*
X0205013Y0089094D01*
X0207191Y0091272D01*
X0207191Y0109328D01*
X0204720Y0111800D01*
X0174703Y0127836D02*
X0215093Y0168226D01*
X0215093Y0170634D01*
X0212625Y0173102D01*
X0247731Y0165900D02*
X0248820Y0164811D01*
X0248820Y0126200D01*
X0240420Y0117800D01*
X0267594Y0142886D02*
X0267594Y0146994D01*
X0262689Y0151900D01*
X0271350Y0148160D02*
X0273133Y0146377D01*
X0273133Y0138917D01*
X0273720Y0138331D01*
X0273720Y0036800D01*
X0227220Y0036400D02*
X0211820Y0051800D01*
X0152164Y0051800D01*
X0135629Y0035265D01*
X0148747Y0073426D02*
X0148720Y0073454D01*
X0148747Y0073426D02*
X0157003Y0073426D01*
X0148720Y0080146D02*
X0148720Y0086155D01*
X0148720Y0080146D02*
X0145320Y0076746D01*
X0120720Y0075500D02*
X0116451Y0079769D01*
X0102535Y0079769D01*
X0099566Y0076800D01*
X0128157Y0096800D02*
X0128157Y0099963D01*
X0125520Y0102600D01*
X0123020Y0102600D01*
X0123720Y0109640D02*
X0133720Y0099640D01*
X0123720Y0109640D02*
X0123720Y0141114D01*
X0120877Y0143957D01*
X0113720Y0137700D02*
X0111320Y0137700D01*
X0109657Y0136037D01*
X0129773Y0146300D02*
X0133820Y0142254D01*
X0133820Y0140702D01*
X0133498Y0140380D01*
X0133498Y0135220D01*
X0133820Y0134898D01*
X0133820Y0133000D01*
X0136466Y0137800D02*
X0142273Y0137800D01*
X0143120Y0136954D01*
X0145557Y0140678D02*
X0140540Y0140678D01*
X0139435Y0141783D01*
X0139435Y0148985D01*
X0136720Y0151700D01*
X0138920Y0154200D02*
X0133199Y0154200D01*
X0131299Y0156100D01*
X0127309Y0156100D01*
X0126220Y0157189D01*
X0128520Y0154300D02*
X0131120Y0154300D01*
X0133320Y0152100D01*
X0133320Y0148500D01*
X0135620Y0146200D01*
X0136466Y0146200D01*
X0136466Y0137800D01*
X0141720Y0131699D02*
X0148619Y0131699D01*
X0148720Y0131800D01*
X0148720Y0136500D02*
X0148720Y0137515D01*
X0145557Y0140678D01*
X0143120Y0143646D02*
X0143120Y0149454D01*
X0143120Y0150000D01*
X0138920Y0154200D01*
X0136466Y0146300D02*
X0136466Y0146200D01*
X0158081Y0132100D02*
X0158081Y0126939D01*
X0160057Y0124963D01*
X0163320Y0124963D01*
X0173163Y0127836D02*
X0174703Y0127836D01*
X0187082Y0083780D02*
X0188838Y0082024D01*
X0227220Y0036400D02*
X0227220Y0034589D01*
X0278520Y0120200D02*
X0278520Y0125746D01*
X0278673Y0125900D01*
X0281720Y0129546D02*
X0281720Y0141700D01*
X0285060Y0145040D01*
X0285550Y0145040D01*
X0279873Y0144284D02*
X0279873Y0151800D01*
X0275820Y0152629D02*
X0275820Y0157746D01*
X0277373Y0159300D01*
X0273720Y0158009D02*
X0273720Y0161195D01*
X0274990Y0162465D01*
X0280901Y0162465D01*
X0284066Y0159300D01*
X0284066Y0154300D01*
X0286566Y0151800D01*
X0279873Y0144284D02*
X0276889Y0141300D01*
X0268720Y0141761D02*
X0267594Y0142886D01*
X0271350Y0148160D02*
X0275820Y0152629D01*
X0271350Y0155640D02*
X0273720Y0158009D01*
X0250720Y0178300D02*
X0250220Y0177800D01*
X0241231Y0212789D02*
X0239720Y0214300D01*
X0255760Y0218740D02*
X0267471Y0218740D01*
X0273720Y0224989D01*
X0281720Y0129546D02*
X0285366Y0125900D01*
X0121120Y0201455D02*
X0115775Y0206800D01*
X0113720Y0206800D01*
X0096331Y0200500D02*
X0093333Y0200500D01*
X0080420Y0187587D01*
X0080420Y0178889D01*
X0077120Y0182000D02*
X0077120Y0186267D01*
X0094931Y0204078D01*
X0092120Y0203247D02*
X0092120Y0206327D01*
X0092700Y0206907D01*
X0091715Y0209396D02*
X0091669Y0209396D01*
X0053220Y0170947D01*
X0053220Y0159640D01*
X0054659Y0158200D01*
X0064299Y0158200D01*
X0077220Y0145280D01*
X0077220Y0114360D01*
X0059959Y0097100D01*
X0059959Y0095560D01*
X0073520Y0121200D02*
X0073620Y0121200D01*
X0115220Y0169600D02*
X0113720Y0171100D01*
X0115220Y0169600D02*
X0117220Y0169600D01*
X0100435Y0179126D02*
X0100435Y0189515D01*
X0100435Y0179126D02*
X0100220Y0178911D01*
X0078616Y0189743D02*
X0092120Y0203247D01*
X0091715Y0209396D02*
X0096320Y0214000D01*
X0078616Y0189743D02*
X0077076Y0189743D01*
D37*
X0093142Y0137378D02*
X0101580Y0137378D01*
X0104420Y0134539D01*
X0109657Y0136037D02*
X0109657Y0129300D01*
X0109657Y0119300D01*
X0129309Y0131800D02*
X0129309Y0137335D01*
X0129773Y0137800D01*
X0079709Y0129989D02*
X0078720Y0129000D01*
X0078720Y0114472D01*
X0082020Y0111172D01*
X0087566Y0076800D02*
X0088720Y0075646D01*
X0088720Y0070146D01*
X0088720Y0063454D02*
X0088720Y0056800D01*
X0093720Y0051800D01*
X0093720Y0040599D01*
X0088385Y0035265D01*
X0100196Y0035265D02*
X0105220Y0040288D01*
X0105220Y0051800D01*
X0100220Y0056800D01*
X0100220Y0063454D01*
X0100220Y0070146D02*
X0100220Y0076146D01*
X0099566Y0076800D01*
X0112066Y0076800D02*
X0112220Y0076646D01*
X0112220Y0070146D01*
X0112220Y0063454D02*
X0112220Y0056300D01*
X0116720Y0051800D01*
X0116720Y0039977D01*
X0112007Y0035265D01*
X0149164Y0067300D02*
X0158720Y0067300D01*
X0159220Y0066800D01*
X0160520Y0070000D02*
X0163220Y0067300D01*
X0163220Y0065800D01*
X0160220Y0062800D01*
X0159220Y0062800D01*
X0160520Y0070000D02*
X0160520Y0086900D01*
X0163120Y0089500D01*
X0198020Y0089500D01*
X0202720Y0084800D01*
X0202720Y0079800D01*
X0182751Y0083780D02*
X0182751Y0086969D01*
X0181820Y0087900D01*
X0163977Y0087900D01*
X0162120Y0086043D01*
X0162120Y0081518D01*
X0163520Y0080118D01*
X0163520Y0077400D01*
X0194220Y0111800D02*
X0194120Y0111900D01*
X0194120Y0144000D01*
X0203820Y0126063D02*
X0199557Y0121800D01*
X0197520Y0121800D01*
X0218720Y0171800D02*
X0221220Y0174300D01*
X0224220Y0174300D01*
X0219720Y0191300D02*
X0217873Y0191300D01*
X0215220Y0193954D01*
X0206720Y0193954D01*
X0206720Y0193700D01*
X0193220Y0180200D01*
X0184320Y0181800D02*
X0184320Y0184000D01*
X0175220Y0185355D02*
X0175220Y0181800D01*
X0169720Y0181800D02*
X0169720Y0185355D01*
X0164220Y0185355D02*
X0164220Y0181800D01*
X0153720Y0181800D02*
X0153720Y0196300D01*
X0152220Y0197800D01*
X0148470Y0201550D01*
D38*
X0152120Y0180200D02*
X0146220Y0174300D01*
X0148720Y0171800D01*
X0148720Y0136500D01*
X0148720Y0131800D01*
X0148720Y0120300D01*
X0148720Y0116800D01*
X0153720Y0111800D01*
X0161920Y0111800D01*
X0194120Y0144000D01*
X0218720Y0168600D01*
X0218720Y0171800D01*
X0210320Y0180200D01*
X0193720Y0180200D01*
X0193220Y0180200D02*
X0183720Y0180200D01*
X0173720Y0180200D01*
X0168720Y0180200D01*
X0158720Y0180200D01*
X0152120Y0180200D01*
X0146220Y0174300D02*
X0143520Y0174300D01*
X0121920Y0174300D01*
X0117220Y0169600D01*
X0117220Y0139700D01*
X0115220Y0137700D01*
X0113720Y0137700D01*
D39*
X0098520Y0142756D02*
X0098520Y0145700D01*
X0108720Y0155900D01*
X0093420Y0155900D01*
X0087220Y0162100D01*
X0087283Y0162163D01*
X0087283Y0164300D01*
X0087283Y0174300D01*
X0069273Y0174300D01*
X0056720Y0161747D01*
X0056720Y0148853D02*
X0056720Y0144956D01*
X0053720Y0141956D01*
X0053720Y0133099D01*
X0061909Y0124910D01*
X0087283Y0129300D02*
X0087283Y0119300D01*
X0087283Y0117081D01*
X0091313Y0113050D01*
X0091469Y0113050D01*
X0093720Y0110800D01*
X0111220Y0110800D01*
X0111320Y0110900D01*
X0087283Y0129300D02*
X0087283Y0131519D01*
X0093142Y0137378D01*
X0098520Y0142756D01*
X0108720Y0155900D02*
X0111320Y0155900D01*
D40*
X0128157Y0096800D02*
X0128157Y0086800D01*
X0122657Y0091300D02*
X0128157Y0096800D01*
X0122657Y0091300D02*
X0112720Y0091300D01*
X0111320Y0092700D01*
D41*
X0071279Y0085855D03*
X0071279Y0203965D03*
X0232696Y0137036D03*
M02*
