G75*
%MOIN*%
%OFA0B0*%
%FSLAX25Y25*%
%IPPOS*%
%LPD*%
%AMOC8*
5,1,8,0,0,1.08239X$1,22.5*
%
%ADD10C,0.00000*%
%ADD11C,0.00600*%
%ADD12R,0.00984X0.00984*%
%ADD13C,0.00500*%
%ADD14C,0.01000*%
%ADD15C,0.00787*%
%ADD16C,0.00800*%
%ADD17C,0.00300*%
%ADD18C,0.01575*%
%ADD19C,0.02000*%
D10*
X0043720Y0026800D02*
X0043720Y0250501D01*
X0293641Y0250501D01*
X0293641Y0026800D01*
X0043720Y0026800D01*
X0074468Y0031564D02*
X0074470Y0031655D01*
X0074476Y0031746D01*
X0074486Y0031837D01*
X0074500Y0031927D01*
X0074517Y0032017D01*
X0074539Y0032105D01*
X0074564Y0032193D01*
X0074593Y0032280D01*
X0074626Y0032365D01*
X0074663Y0032448D01*
X0074703Y0032530D01*
X0074746Y0032610D01*
X0074793Y0032689D01*
X0074844Y0032765D01*
X0074897Y0032838D01*
X0074954Y0032910D01*
X0075014Y0032979D01*
X0075077Y0033045D01*
X0075142Y0033109D01*
X0075211Y0033169D01*
X0075281Y0033227D01*
X0075355Y0033281D01*
X0075430Y0033332D01*
X0075508Y0033380D01*
X0075588Y0033425D01*
X0075669Y0033466D01*
X0075752Y0033503D01*
X0075837Y0033537D01*
X0075923Y0033567D01*
X0076011Y0033593D01*
X0076099Y0033616D01*
X0076188Y0033634D01*
X0076278Y0033649D01*
X0076369Y0033660D01*
X0076460Y0033667D01*
X0076551Y0033670D01*
X0076642Y0033669D01*
X0076734Y0033664D01*
X0076824Y0033655D01*
X0076915Y0033642D01*
X0077004Y0033626D01*
X0077093Y0033605D01*
X0077181Y0033581D01*
X0077268Y0033552D01*
X0077354Y0033520D01*
X0077438Y0033485D01*
X0077520Y0033446D01*
X0077601Y0033403D01*
X0077679Y0033357D01*
X0077756Y0033307D01*
X0077830Y0033254D01*
X0077902Y0033198D01*
X0077972Y0033139D01*
X0078039Y0033077D01*
X0078103Y0033012D01*
X0078164Y0032945D01*
X0078223Y0032875D01*
X0078278Y0032802D01*
X0078330Y0032727D01*
X0078379Y0032650D01*
X0078424Y0032571D01*
X0078466Y0032489D01*
X0078504Y0032407D01*
X0078539Y0032322D01*
X0078570Y0032236D01*
X0078597Y0032149D01*
X0078620Y0032061D01*
X0078640Y0031972D01*
X0078656Y0031882D01*
X0078668Y0031792D01*
X0078676Y0031701D01*
X0078680Y0031610D01*
X0078680Y0031518D01*
X0078676Y0031427D01*
X0078668Y0031336D01*
X0078656Y0031246D01*
X0078640Y0031156D01*
X0078620Y0031067D01*
X0078597Y0030979D01*
X0078570Y0030892D01*
X0078539Y0030806D01*
X0078504Y0030721D01*
X0078466Y0030639D01*
X0078424Y0030557D01*
X0078379Y0030478D01*
X0078330Y0030401D01*
X0078278Y0030326D01*
X0078223Y0030253D01*
X0078164Y0030183D01*
X0078103Y0030116D01*
X0078039Y0030051D01*
X0077972Y0029989D01*
X0077902Y0029930D01*
X0077830Y0029874D01*
X0077756Y0029821D01*
X0077679Y0029771D01*
X0077601Y0029725D01*
X0077520Y0029682D01*
X0077438Y0029643D01*
X0077354Y0029608D01*
X0077268Y0029576D01*
X0077181Y0029547D01*
X0077093Y0029523D01*
X0077004Y0029502D01*
X0076915Y0029486D01*
X0076824Y0029473D01*
X0076734Y0029464D01*
X0076642Y0029459D01*
X0076551Y0029458D01*
X0076460Y0029461D01*
X0076369Y0029468D01*
X0076278Y0029479D01*
X0076188Y0029494D01*
X0076099Y0029512D01*
X0076011Y0029535D01*
X0075923Y0029561D01*
X0075837Y0029591D01*
X0075752Y0029625D01*
X0075669Y0029662D01*
X0075588Y0029703D01*
X0075508Y0029748D01*
X0075430Y0029796D01*
X0075355Y0029847D01*
X0075281Y0029901D01*
X0075211Y0029959D01*
X0075142Y0030019D01*
X0075077Y0030083D01*
X0075014Y0030149D01*
X0074954Y0030218D01*
X0074897Y0030290D01*
X0074844Y0030363D01*
X0074793Y0030439D01*
X0074746Y0030518D01*
X0074703Y0030598D01*
X0074663Y0030680D01*
X0074626Y0030763D01*
X0074593Y0030848D01*
X0074564Y0030935D01*
X0074539Y0031023D01*
X0074517Y0031111D01*
X0074500Y0031201D01*
X0074486Y0031291D01*
X0074476Y0031382D01*
X0074470Y0031473D01*
X0074468Y0031564D01*
X0145334Y0031564D02*
X0145336Y0031655D01*
X0145342Y0031746D01*
X0145352Y0031837D01*
X0145366Y0031927D01*
X0145383Y0032017D01*
X0145405Y0032105D01*
X0145430Y0032193D01*
X0145459Y0032280D01*
X0145492Y0032365D01*
X0145529Y0032448D01*
X0145569Y0032530D01*
X0145612Y0032610D01*
X0145659Y0032689D01*
X0145710Y0032765D01*
X0145763Y0032838D01*
X0145820Y0032910D01*
X0145880Y0032979D01*
X0145943Y0033045D01*
X0146008Y0033109D01*
X0146077Y0033169D01*
X0146147Y0033227D01*
X0146221Y0033281D01*
X0146296Y0033332D01*
X0146374Y0033380D01*
X0146454Y0033425D01*
X0146535Y0033466D01*
X0146618Y0033503D01*
X0146703Y0033537D01*
X0146789Y0033567D01*
X0146877Y0033593D01*
X0146965Y0033616D01*
X0147054Y0033634D01*
X0147144Y0033649D01*
X0147235Y0033660D01*
X0147326Y0033667D01*
X0147417Y0033670D01*
X0147508Y0033669D01*
X0147600Y0033664D01*
X0147690Y0033655D01*
X0147781Y0033642D01*
X0147870Y0033626D01*
X0147959Y0033605D01*
X0148047Y0033581D01*
X0148134Y0033552D01*
X0148220Y0033520D01*
X0148304Y0033485D01*
X0148386Y0033446D01*
X0148467Y0033403D01*
X0148545Y0033357D01*
X0148622Y0033307D01*
X0148696Y0033254D01*
X0148768Y0033198D01*
X0148838Y0033139D01*
X0148905Y0033077D01*
X0148969Y0033012D01*
X0149030Y0032945D01*
X0149089Y0032875D01*
X0149144Y0032802D01*
X0149196Y0032727D01*
X0149245Y0032650D01*
X0149290Y0032571D01*
X0149332Y0032489D01*
X0149370Y0032407D01*
X0149405Y0032322D01*
X0149436Y0032236D01*
X0149463Y0032149D01*
X0149486Y0032061D01*
X0149506Y0031972D01*
X0149522Y0031882D01*
X0149534Y0031792D01*
X0149542Y0031701D01*
X0149546Y0031610D01*
X0149546Y0031518D01*
X0149542Y0031427D01*
X0149534Y0031336D01*
X0149522Y0031246D01*
X0149506Y0031156D01*
X0149486Y0031067D01*
X0149463Y0030979D01*
X0149436Y0030892D01*
X0149405Y0030806D01*
X0149370Y0030721D01*
X0149332Y0030639D01*
X0149290Y0030557D01*
X0149245Y0030478D01*
X0149196Y0030401D01*
X0149144Y0030326D01*
X0149089Y0030253D01*
X0149030Y0030183D01*
X0148969Y0030116D01*
X0148905Y0030051D01*
X0148838Y0029989D01*
X0148768Y0029930D01*
X0148696Y0029874D01*
X0148622Y0029821D01*
X0148545Y0029771D01*
X0148467Y0029725D01*
X0148386Y0029682D01*
X0148304Y0029643D01*
X0148220Y0029608D01*
X0148134Y0029576D01*
X0148047Y0029547D01*
X0147959Y0029523D01*
X0147870Y0029502D01*
X0147781Y0029486D01*
X0147690Y0029473D01*
X0147600Y0029464D01*
X0147508Y0029459D01*
X0147417Y0029458D01*
X0147326Y0029461D01*
X0147235Y0029468D01*
X0147144Y0029479D01*
X0147054Y0029494D01*
X0146965Y0029512D01*
X0146877Y0029535D01*
X0146789Y0029561D01*
X0146703Y0029591D01*
X0146618Y0029625D01*
X0146535Y0029662D01*
X0146454Y0029703D01*
X0146374Y0029748D01*
X0146296Y0029796D01*
X0146221Y0029847D01*
X0146147Y0029901D01*
X0146077Y0029959D01*
X0146008Y0030019D01*
X0145943Y0030083D01*
X0145880Y0030149D01*
X0145820Y0030218D01*
X0145763Y0030290D01*
X0145710Y0030363D01*
X0145659Y0030439D01*
X0145612Y0030518D01*
X0145569Y0030598D01*
X0145529Y0030680D01*
X0145492Y0030763D01*
X0145459Y0030848D01*
X0145430Y0030935D01*
X0145405Y0031023D01*
X0145383Y0031111D01*
X0145366Y0031201D01*
X0145352Y0031291D01*
X0145342Y0031382D01*
X0145336Y0031473D01*
X0145334Y0031564D01*
X0262102Y0033489D02*
X0262104Y0033580D01*
X0262110Y0033671D01*
X0262120Y0033762D01*
X0262134Y0033852D01*
X0262151Y0033942D01*
X0262173Y0034030D01*
X0262198Y0034118D01*
X0262227Y0034205D01*
X0262260Y0034290D01*
X0262297Y0034373D01*
X0262337Y0034455D01*
X0262380Y0034535D01*
X0262427Y0034614D01*
X0262478Y0034690D01*
X0262531Y0034763D01*
X0262588Y0034835D01*
X0262648Y0034904D01*
X0262711Y0034970D01*
X0262776Y0035034D01*
X0262845Y0035094D01*
X0262915Y0035152D01*
X0262989Y0035206D01*
X0263064Y0035257D01*
X0263142Y0035305D01*
X0263222Y0035350D01*
X0263303Y0035391D01*
X0263386Y0035428D01*
X0263471Y0035462D01*
X0263557Y0035492D01*
X0263645Y0035518D01*
X0263733Y0035541D01*
X0263822Y0035559D01*
X0263912Y0035574D01*
X0264003Y0035585D01*
X0264094Y0035592D01*
X0264185Y0035595D01*
X0264276Y0035594D01*
X0264368Y0035589D01*
X0264458Y0035580D01*
X0264549Y0035567D01*
X0264638Y0035551D01*
X0264727Y0035530D01*
X0264815Y0035506D01*
X0264902Y0035477D01*
X0264988Y0035445D01*
X0265072Y0035410D01*
X0265154Y0035371D01*
X0265235Y0035328D01*
X0265313Y0035282D01*
X0265390Y0035232D01*
X0265464Y0035179D01*
X0265536Y0035123D01*
X0265606Y0035064D01*
X0265673Y0035002D01*
X0265737Y0034937D01*
X0265798Y0034870D01*
X0265857Y0034800D01*
X0265912Y0034727D01*
X0265964Y0034652D01*
X0266013Y0034575D01*
X0266058Y0034496D01*
X0266100Y0034414D01*
X0266138Y0034332D01*
X0266173Y0034247D01*
X0266204Y0034161D01*
X0266231Y0034074D01*
X0266254Y0033986D01*
X0266274Y0033897D01*
X0266290Y0033807D01*
X0266302Y0033717D01*
X0266310Y0033626D01*
X0266314Y0033535D01*
X0266314Y0033443D01*
X0266310Y0033352D01*
X0266302Y0033261D01*
X0266290Y0033171D01*
X0266274Y0033081D01*
X0266254Y0032992D01*
X0266231Y0032904D01*
X0266204Y0032817D01*
X0266173Y0032731D01*
X0266138Y0032646D01*
X0266100Y0032564D01*
X0266058Y0032482D01*
X0266013Y0032403D01*
X0265964Y0032326D01*
X0265912Y0032251D01*
X0265857Y0032178D01*
X0265798Y0032108D01*
X0265737Y0032041D01*
X0265673Y0031976D01*
X0265606Y0031914D01*
X0265536Y0031855D01*
X0265464Y0031799D01*
X0265390Y0031746D01*
X0265313Y0031696D01*
X0265235Y0031650D01*
X0265154Y0031607D01*
X0265072Y0031568D01*
X0264988Y0031533D01*
X0264902Y0031501D01*
X0264815Y0031472D01*
X0264727Y0031448D01*
X0264638Y0031427D01*
X0264549Y0031411D01*
X0264458Y0031398D01*
X0264368Y0031389D01*
X0264276Y0031384D01*
X0264185Y0031383D01*
X0264094Y0031386D01*
X0264003Y0031393D01*
X0263912Y0031404D01*
X0263822Y0031419D01*
X0263733Y0031437D01*
X0263645Y0031460D01*
X0263557Y0031486D01*
X0263471Y0031516D01*
X0263386Y0031550D01*
X0263303Y0031587D01*
X0263222Y0031628D01*
X0263142Y0031673D01*
X0263064Y0031721D01*
X0262989Y0031772D01*
X0262915Y0031826D01*
X0262845Y0031884D01*
X0262776Y0031944D01*
X0262711Y0032008D01*
X0262648Y0032074D01*
X0262588Y0032143D01*
X0262531Y0032215D01*
X0262478Y0032288D01*
X0262427Y0032364D01*
X0262380Y0032443D01*
X0262337Y0032523D01*
X0262297Y0032605D01*
X0262260Y0032688D01*
X0262227Y0032773D01*
X0262198Y0032860D01*
X0262173Y0032948D01*
X0262151Y0033036D01*
X0262134Y0033126D01*
X0262120Y0033216D01*
X0262110Y0033307D01*
X0262104Y0033398D01*
X0262102Y0033489D01*
X0262102Y0092544D02*
X0262104Y0092635D01*
X0262110Y0092726D01*
X0262120Y0092817D01*
X0262134Y0092907D01*
X0262151Y0092997D01*
X0262173Y0093085D01*
X0262198Y0093173D01*
X0262227Y0093260D01*
X0262260Y0093345D01*
X0262297Y0093428D01*
X0262337Y0093510D01*
X0262380Y0093590D01*
X0262427Y0093669D01*
X0262478Y0093745D01*
X0262531Y0093818D01*
X0262588Y0093890D01*
X0262648Y0093959D01*
X0262711Y0094025D01*
X0262776Y0094089D01*
X0262845Y0094149D01*
X0262915Y0094207D01*
X0262989Y0094261D01*
X0263064Y0094312D01*
X0263142Y0094360D01*
X0263222Y0094405D01*
X0263303Y0094446D01*
X0263386Y0094483D01*
X0263471Y0094517D01*
X0263557Y0094547D01*
X0263645Y0094573D01*
X0263733Y0094596D01*
X0263822Y0094614D01*
X0263912Y0094629D01*
X0264003Y0094640D01*
X0264094Y0094647D01*
X0264185Y0094650D01*
X0264276Y0094649D01*
X0264368Y0094644D01*
X0264458Y0094635D01*
X0264549Y0094622D01*
X0264638Y0094606D01*
X0264727Y0094585D01*
X0264815Y0094561D01*
X0264902Y0094532D01*
X0264988Y0094500D01*
X0265072Y0094465D01*
X0265154Y0094426D01*
X0265235Y0094383D01*
X0265313Y0094337D01*
X0265390Y0094287D01*
X0265464Y0094234D01*
X0265536Y0094178D01*
X0265606Y0094119D01*
X0265673Y0094057D01*
X0265737Y0093992D01*
X0265798Y0093925D01*
X0265857Y0093855D01*
X0265912Y0093782D01*
X0265964Y0093707D01*
X0266013Y0093630D01*
X0266058Y0093551D01*
X0266100Y0093469D01*
X0266138Y0093387D01*
X0266173Y0093302D01*
X0266204Y0093216D01*
X0266231Y0093129D01*
X0266254Y0093041D01*
X0266274Y0092952D01*
X0266290Y0092862D01*
X0266302Y0092772D01*
X0266310Y0092681D01*
X0266314Y0092590D01*
X0266314Y0092498D01*
X0266310Y0092407D01*
X0266302Y0092316D01*
X0266290Y0092226D01*
X0266274Y0092136D01*
X0266254Y0092047D01*
X0266231Y0091959D01*
X0266204Y0091872D01*
X0266173Y0091786D01*
X0266138Y0091701D01*
X0266100Y0091619D01*
X0266058Y0091537D01*
X0266013Y0091458D01*
X0265964Y0091381D01*
X0265912Y0091306D01*
X0265857Y0091233D01*
X0265798Y0091163D01*
X0265737Y0091096D01*
X0265673Y0091031D01*
X0265606Y0090969D01*
X0265536Y0090910D01*
X0265464Y0090854D01*
X0265390Y0090801D01*
X0265313Y0090751D01*
X0265235Y0090705D01*
X0265154Y0090662D01*
X0265072Y0090623D01*
X0264988Y0090588D01*
X0264902Y0090556D01*
X0264815Y0090527D01*
X0264727Y0090503D01*
X0264638Y0090482D01*
X0264549Y0090466D01*
X0264458Y0090453D01*
X0264368Y0090444D01*
X0264276Y0090439D01*
X0264185Y0090438D01*
X0264094Y0090441D01*
X0264003Y0090448D01*
X0263912Y0090459D01*
X0263822Y0090474D01*
X0263733Y0090492D01*
X0263645Y0090515D01*
X0263557Y0090541D01*
X0263471Y0090571D01*
X0263386Y0090605D01*
X0263303Y0090642D01*
X0263222Y0090683D01*
X0263142Y0090728D01*
X0263064Y0090776D01*
X0262989Y0090827D01*
X0262915Y0090881D01*
X0262845Y0090939D01*
X0262776Y0090999D01*
X0262711Y0091063D01*
X0262648Y0091129D01*
X0262588Y0091198D01*
X0262531Y0091270D01*
X0262478Y0091343D01*
X0262427Y0091419D01*
X0262380Y0091498D01*
X0262337Y0091578D01*
X0262297Y0091660D01*
X0262260Y0091743D01*
X0262227Y0091828D01*
X0262198Y0091915D01*
X0262173Y0092003D01*
X0262151Y0092091D01*
X0262134Y0092181D01*
X0262120Y0092271D01*
X0262110Y0092362D01*
X0262104Y0092453D01*
X0262102Y0092544D01*
X0196425Y0220788D02*
X0196427Y0220879D01*
X0196433Y0220970D01*
X0196443Y0221061D01*
X0196457Y0221151D01*
X0196474Y0221241D01*
X0196496Y0221329D01*
X0196521Y0221417D01*
X0196550Y0221504D01*
X0196583Y0221589D01*
X0196620Y0221672D01*
X0196660Y0221754D01*
X0196703Y0221834D01*
X0196750Y0221913D01*
X0196801Y0221989D01*
X0196854Y0222062D01*
X0196911Y0222134D01*
X0196971Y0222203D01*
X0197034Y0222269D01*
X0197099Y0222333D01*
X0197168Y0222393D01*
X0197238Y0222451D01*
X0197312Y0222505D01*
X0197387Y0222556D01*
X0197465Y0222604D01*
X0197545Y0222649D01*
X0197626Y0222690D01*
X0197709Y0222727D01*
X0197794Y0222761D01*
X0197880Y0222791D01*
X0197968Y0222817D01*
X0198056Y0222840D01*
X0198145Y0222858D01*
X0198235Y0222873D01*
X0198326Y0222884D01*
X0198417Y0222891D01*
X0198508Y0222894D01*
X0198599Y0222893D01*
X0198691Y0222888D01*
X0198781Y0222879D01*
X0198872Y0222866D01*
X0198961Y0222850D01*
X0199050Y0222829D01*
X0199138Y0222805D01*
X0199225Y0222776D01*
X0199311Y0222744D01*
X0199395Y0222709D01*
X0199477Y0222670D01*
X0199558Y0222627D01*
X0199636Y0222581D01*
X0199713Y0222531D01*
X0199787Y0222478D01*
X0199859Y0222422D01*
X0199929Y0222363D01*
X0199996Y0222301D01*
X0200060Y0222236D01*
X0200121Y0222169D01*
X0200180Y0222099D01*
X0200235Y0222026D01*
X0200287Y0221951D01*
X0200336Y0221874D01*
X0200381Y0221795D01*
X0200423Y0221713D01*
X0200461Y0221631D01*
X0200496Y0221546D01*
X0200527Y0221460D01*
X0200554Y0221373D01*
X0200577Y0221285D01*
X0200597Y0221196D01*
X0200613Y0221106D01*
X0200625Y0221016D01*
X0200633Y0220925D01*
X0200637Y0220834D01*
X0200637Y0220742D01*
X0200633Y0220651D01*
X0200625Y0220560D01*
X0200613Y0220470D01*
X0200597Y0220380D01*
X0200577Y0220291D01*
X0200554Y0220203D01*
X0200527Y0220116D01*
X0200496Y0220030D01*
X0200461Y0219945D01*
X0200423Y0219863D01*
X0200381Y0219781D01*
X0200336Y0219702D01*
X0200287Y0219625D01*
X0200235Y0219550D01*
X0200180Y0219477D01*
X0200121Y0219407D01*
X0200060Y0219340D01*
X0199996Y0219275D01*
X0199929Y0219213D01*
X0199859Y0219154D01*
X0199787Y0219098D01*
X0199713Y0219045D01*
X0199636Y0218995D01*
X0199558Y0218949D01*
X0199477Y0218906D01*
X0199395Y0218867D01*
X0199311Y0218832D01*
X0199225Y0218800D01*
X0199138Y0218771D01*
X0199050Y0218747D01*
X0198961Y0218726D01*
X0198872Y0218710D01*
X0198781Y0218697D01*
X0198691Y0218688D01*
X0198599Y0218683D01*
X0198508Y0218682D01*
X0198417Y0218685D01*
X0198326Y0218692D01*
X0198235Y0218703D01*
X0198145Y0218718D01*
X0198056Y0218736D01*
X0197968Y0218759D01*
X0197880Y0218785D01*
X0197794Y0218815D01*
X0197709Y0218849D01*
X0197626Y0218886D01*
X0197545Y0218927D01*
X0197465Y0218972D01*
X0197387Y0219020D01*
X0197312Y0219071D01*
X0197238Y0219125D01*
X0197168Y0219183D01*
X0197099Y0219243D01*
X0197034Y0219307D01*
X0196971Y0219373D01*
X0196911Y0219442D01*
X0196854Y0219514D01*
X0196801Y0219587D01*
X0196750Y0219663D01*
X0196703Y0219742D01*
X0196660Y0219822D01*
X0196620Y0219904D01*
X0196583Y0219987D01*
X0196550Y0220072D01*
X0196521Y0220159D01*
X0196496Y0220247D01*
X0196474Y0220335D01*
X0196457Y0220425D01*
X0196443Y0220515D01*
X0196433Y0220606D01*
X0196427Y0220697D01*
X0196425Y0220788D01*
X0224369Y0221288D02*
X0224371Y0221379D01*
X0224377Y0221470D01*
X0224387Y0221561D01*
X0224401Y0221651D01*
X0224418Y0221741D01*
X0224440Y0221829D01*
X0224465Y0221917D01*
X0224494Y0222004D01*
X0224527Y0222089D01*
X0224564Y0222172D01*
X0224604Y0222254D01*
X0224647Y0222334D01*
X0224694Y0222413D01*
X0224745Y0222489D01*
X0224798Y0222562D01*
X0224855Y0222634D01*
X0224915Y0222703D01*
X0224978Y0222769D01*
X0225043Y0222833D01*
X0225112Y0222893D01*
X0225182Y0222951D01*
X0225256Y0223005D01*
X0225331Y0223056D01*
X0225409Y0223104D01*
X0225489Y0223149D01*
X0225570Y0223190D01*
X0225653Y0223227D01*
X0225738Y0223261D01*
X0225824Y0223291D01*
X0225912Y0223317D01*
X0226000Y0223340D01*
X0226089Y0223358D01*
X0226179Y0223373D01*
X0226270Y0223384D01*
X0226361Y0223391D01*
X0226452Y0223394D01*
X0226543Y0223393D01*
X0226635Y0223388D01*
X0226725Y0223379D01*
X0226816Y0223366D01*
X0226905Y0223350D01*
X0226994Y0223329D01*
X0227082Y0223305D01*
X0227169Y0223276D01*
X0227255Y0223244D01*
X0227339Y0223209D01*
X0227421Y0223170D01*
X0227502Y0223127D01*
X0227580Y0223081D01*
X0227657Y0223031D01*
X0227731Y0222978D01*
X0227803Y0222922D01*
X0227873Y0222863D01*
X0227940Y0222801D01*
X0228004Y0222736D01*
X0228065Y0222669D01*
X0228124Y0222599D01*
X0228179Y0222526D01*
X0228231Y0222451D01*
X0228280Y0222374D01*
X0228325Y0222295D01*
X0228367Y0222213D01*
X0228405Y0222131D01*
X0228440Y0222046D01*
X0228471Y0221960D01*
X0228498Y0221873D01*
X0228521Y0221785D01*
X0228541Y0221696D01*
X0228557Y0221606D01*
X0228569Y0221516D01*
X0228577Y0221425D01*
X0228581Y0221334D01*
X0228581Y0221242D01*
X0228577Y0221151D01*
X0228569Y0221060D01*
X0228557Y0220970D01*
X0228541Y0220880D01*
X0228521Y0220791D01*
X0228498Y0220703D01*
X0228471Y0220616D01*
X0228440Y0220530D01*
X0228405Y0220445D01*
X0228367Y0220363D01*
X0228325Y0220281D01*
X0228280Y0220202D01*
X0228231Y0220125D01*
X0228179Y0220050D01*
X0228124Y0219977D01*
X0228065Y0219907D01*
X0228004Y0219840D01*
X0227940Y0219775D01*
X0227873Y0219713D01*
X0227803Y0219654D01*
X0227731Y0219598D01*
X0227657Y0219545D01*
X0227580Y0219495D01*
X0227502Y0219449D01*
X0227421Y0219406D01*
X0227339Y0219367D01*
X0227255Y0219332D01*
X0227169Y0219300D01*
X0227082Y0219271D01*
X0226994Y0219247D01*
X0226905Y0219226D01*
X0226816Y0219210D01*
X0226725Y0219197D01*
X0226635Y0219188D01*
X0226543Y0219183D01*
X0226452Y0219182D01*
X0226361Y0219185D01*
X0226270Y0219192D01*
X0226179Y0219203D01*
X0226089Y0219218D01*
X0226000Y0219236D01*
X0225912Y0219259D01*
X0225824Y0219285D01*
X0225738Y0219315D01*
X0225653Y0219349D01*
X0225570Y0219386D01*
X0225489Y0219427D01*
X0225409Y0219472D01*
X0225331Y0219520D01*
X0225256Y0219571D01*
X0225182Y0219625D01*
X0225112Y0219683D01*
X0225043Y0219743D01*
X0224978Y0219807D01*
X0224915Y0219873D01*
X0224855Y0219942D01*
X0224798Y0220014D01*
X0224745Y0220087D01*
X0224694Y0220163D01*
X0224647Y0220242D01*
X0224604Y0220322D01*
X0224564Y0220404D01*
X0224527Y0220487D01*
X0224494Y0220572D01*
X0224465Y0220659D01*
X0224440Y0220747D01*
X0224418Y0220835D01*
X0224401Y0220925D01*
X0224387Y0221015D01*
X0224377Y0221106D01*
X0224371Y0221197D01*
X0224369Y0221288D01*
X0283425Y0221288D02*
X0283427Y0221379D01*
X0283433Y0221470D01*
X0283443Y0221561D01*
X0283457Y0221651D01*
X0283474Y0221741D01*
X0283496Y0221829D01*
X0283521Y0221917D01*
X0283550Y0222004D01*
X0283583Y0222089D01*
X0283620Y0222172D01*
X0283660Y0222254D01*
X0283703Y0222334D01*
X0283750Y0222413D01*
X0283801Y0222489D01*
X0283854Y0222562D01*
X0283911Y0222634D01*
X0283971Y0222703D01*
X0284034Y0222769D01*
X0284099Y0222833D01*
X0284168Y0222893D01*
X0284238Y0222951D01*
X0284312Y0223005D01*
X0284387Y0223056D01*
X0284465Y0223104D01*
X0284545Y0223149D01*
X0284626Y0223190D01*
X0284709Y0223227D01*
X0284794Y0223261D01*
X0284880Y0223291D01*
X0284968Y0223317D01*
X0285056Y0223340D01*
X0285145Y0223358D01*
X0285235Y0223373D01*
X0285326Y0223384D01*
X0285417Y0223391D01*
X0285508Y0223394D01*
X0285599Y0223393D01*
X0285691Y0223388D01*
X0285781Y0223379D01*
X0285872Y0223366D01*
X0285961Y0223350D01*
X0286050Y0223329D01*
X0286138Y0223305D01*
X0286225Y0223276D01*
X0286311Y0223244D01*
X0286395Y0223209D01*
X0286477Y0223170D01*
X0286558Y0223127D01*
X0286636Y0223081D01*
X0286713Y0223031D01*
X0286787Y0222978D01*
X0286859Y0222922D01*
X0286929Y0222863D01*
X0286996Y0222801D01*
X0287060Y0222736D01*
X0287121Y0222669D01*
X0287180Y0222599D01*
X0287235Y0222526D01*
X0287287Y0222451D01*
X0287336Y0222374D01*
X0287381Y0222295D01*
X0287423Y0222213D01*
X0287461Y0222131D01*
X0287496Y0222046D01*
X0287527Y0221960D01*
X0287554Y0221873D01*
X0287577Y0221785D01*
X0287597Y0221696D01*
X0287613Y0221606D01*
X0287625Y0221516D01*
X0287633Y0221425D01*
X0287637Y0221334D01*
X0287637Y0221242D01*
X0287633Y0221151D01*
X0287625Y0221060D01*
X0287613Y0220970D01*
X0287597Y0220880D01*
X0287577Y0220791D01*
X0287554Y0220703D01*
X0287527Y0220616D01*
X0287496Y0220530D01*
X0287461Y0220445D01*
X0287423Y0220363D01*
X0287381Y0220281D01*
X0287336Y0220202D01*
X0287287Y0220125D01*
X0287235Y0220050D01*
X0287180Y0219977D01*
X0287121Y0219907D01*
X0287060Y0219840D01*
X0286996Y0219775D01*
X0286929Y0219713D01*
X0286859Y0219654D01*
X0286787Y0219598D01*
X0286713Y0219545D01*
X0286636Y0219495D01*
X0286558Y0219449D01*
X0286477Y0219406D01*
X0286395Y0219367D01*
X0286311Y0219332D01*
X0286225Y0219300D01*
X0286138Y0219271D01*
X0286050Y0219247D01*
X0285961Y0219226D01*
X0285872Y0219210D01*
X0285781Y0219197D01*
X0285691Y0219188D01*
X0285599Y0219183D01*
X0285508Y0219182D01*
X0285417Y0219185D01*
X0285326Y0219192D01*
X0285235Y0219203D01*
X0285145Y0219218D01*
X0285056Y0219236D01*
X0284968Y0219259D01*
X0284880Y0219285D01*
X0284794Y0219315D01*
X0284709Y0219349D01*
X0284626Y0219386D01*
X0284545Y0219427D01*
X0284465Y0219472D01*
X0284387Y0219520D01*
X0284312Y0219571D01*
X0284238Y0219625D01*
X0284168Y0219683D01*
X0284099Y0219743D01*
X0284034Y0219807D01*
X0283971Y0219873D01*
X0283911Y0219942D01*
X0283854Y0220014D01*
X0283801Y0220087D01*
X0283750Y0220163D01*
X0283703Y0220242D01*
X0283660Y0220322D01*
X0283620Y0220404D01*
X0283583Y0220487D01*
X0283550Y0220572D01*
X0283521Y0220659D01*
X0283496Y0220747D01*
X0283474Y0220835D01*
X0283457Y0220925D01*
X0283443Y0221015D01*
X0283433Y0221106D01*
X0283427Y0221197D01*
X0283425Y0221288D01*
X0137369Y0220788D02*
X0137371Y0220879D01*
X0137377Y0220970D01*
X0137387Y0221061D01*
X0137401Y0221151D01*
X0137418Y0221241D01*
X0137440Y0221329D01*
X0137465Y0221417D01*
X0137494Y0221504D01*
X0137527Y0221589D01*
X0137564Y0221672D01*
X0137604Y0221754D01*
X0137647Y0221834D01*
X0137694Y0221913D01*
X0137745Y0221989D01*
X0137798Y0222062D01*
X0137855Y0222134D01*
X0137915Y0222203D01*
X0137978Y0222269D01*
X0138043Y0222333D01*
X0138112Y0222393D01*
X0138182Y0222451D01*
X0138256Y0222505D01*
X0138331Y0222556D01*
X0138409Y0222604D01*
X0138489Y0222649D01*
X0138570Y0222690D01*
X0138653Y0222727D01*
X0138738Y0222761D01*
X0138824Y0222791D01*
X0138912Y0222817D01*
X0139000Y0222840D01*
X0139089Y0222858D01*
X0139179Y0222873D01*
X0139270Y0222884D01*
X0139361Y0222891D01*
X0139452Y0222894D01*
X0139543Y0222893D01*
X0139635Y0222888D01*
X0139725Y0222879D01*
X0139816Y0222866D01*
X0139905Y0222850D01*
X0139994Y0222829D01*
X0140082Y0222805D01*
X0140169Y0222776D01*
X0140255Y0222744D01*
X0140339Y0222709D01*
X0140421Y0222670D01*
X0140502Y0222627D01*
X0140580Y0222581D01*
X0140657Y0222531D01*
X0140731Y0222478D01*
X0140803Y0222422D01*
X0140873Y0222363D01*
X0140940Y0222301D01*
X0141004Y0222236D01*
X0141065Y0222169D01*
X0141124Y0222099D01*
X0141179Y0222026D01*
X0141231Y0221951D01*
X0141280Y0221874D01*
X0141325Y0221795D01*
X0141367Y0221713D01*
X0141405Y0221631D01*
X0141440Y0221546D01*
X0141471Y0221460D01*
X0141498Y0221373D01*
X0141521Y0221285D01*
X0141541Y0221196D01*
X0141557Y0221106D01*
X0141569Y0221016D01*
X0141577Y0220925D01*
X0141581Y0220834D01*
X0141581Y0220742D01*
X0141577Y0220651D01*
X0141569Y0220560D01*
X0141557Y0220470D01*
X0141541Y0220380D01*
X0141521Y0220291D01*
X0141498Y0220203D01*
X0141471Y0220116D01*
X0141440Y0220030D01*
X0141405Y0219945D01*
X0141367Y0219863D01*
X0141325Y0219781D01*
X0141280Y0219702D01*
X0141231Y0219625D01*
X0141179Y0219550D01*
X0141124Y0219477D01*
X0141065Y0219407D01*
X0141004Y0219340D01*
X0140940Y0219275D01*
X0140873Y0219213D01*
X0140803Y0219154D01*
X0140731Y0219098D01*
X0140657Y0219045D01*
X0140580Y0218995D01*
X0140502Y0218949D01*
X0140421Y0218906D01*
X0140339Y0218867D01*
X0140255Y0218832D01*
X0140169Y0218800D01*
X0140082Y0218771D01*
X0139994Y0218747D01*
X0139905Y0218726D01*
X0139816Y0218710D01*
X0139725Y0218697D01*
X0139635Y0218688D01*
X0139543Y0218683D01*
X0139452Y0218682D01*
X0139361Y0218685D01*
X0139270Y0218692D01*
X0139179Y0218703D01*
X0139089Y0218718D01*
X0139000Y0218736D01*
X0138912Y0218759D01*
X0138824Y0218785D01*
X0138738Y0218815D01*
X0138653Y0218849D01*
X0138570Y0218886D01*
X0138489Y0218927D01*
X0138409Y0218972D01*
X0138331Y0219020D01*
X0138256Y0219071D01*
X0138182Y0219125D01*
X0138112Y0219183D01*
X0138043Y0219243D01*
X0137978Y0219307D01*
X0137915Y0219373D01*
X0137855Y0219442D01*
X0137798Y0219514D01*
X0137745Y0219587D01*
X0137694Y0219663D01*
X0137647Y0219742D01*
X0137604Y0219822D01*
X0137564Y0219904D01*
X0137527Y0219987D01*
X0137494Y0220072D01*
X0137465Y0220159D01*
X0137440Y0220247D01*
X0137418Y0220335D01*
X0137401Y0220425D01*
X0137387Y0220515D01*
X0137377Y0220606D01*
X0137371Y0220697D01*
X0137369Y0220788D01*
X0107325Y0220888D02*
X0107327Y0220979D01*
X0107333Y0221070D01*
X0107343Y0221161D01*
X0107357Y0221251D01*
X0107374Y0221341D01*
X0107396Y0221429D01*
X0107421Y0221517D01*
X0107450Y0221604D01*
X0107483Y0221689D01*
X0107520Y0221772D01*
X0107560Y0221854D01*
X0107603Y0221934D01*
X0107650Y0222013D01*
X0107701Y0222089D01*
X0107754Y0222162D01*
X0107811Y0222234D01*
X0107871Y0222303D01*
X0107934Y0222369D01*
X0107999Y0222433D01*
X0108068Y0222493D01*
X0108138Y0222551D01*
X0108212Y0222605D01*
X0108287Y0222656D01*
X0108365Y0222704D01*
X0108445Y0222749D01*
X0108526Y0222790D01*
X0108609Y0222827D01*
X0108694Y0222861D01*
X0108780Y0222891D01*
X0108868Y0222917D01*
X0108956Y0222940D01*
X0109045Y0222958D01*
X0109135Y0222973D01*
X0109226Y0222984D01*
X0109317Y0222991D01*
X0109408Y0222994D01*
X0109499Y0222993D01*
X0109591Y0222988D01*
X0109681Y0222979D01*
X0109772Y0222966D01*
X0109861Y0222950D01*
X0109950Y0222929D01*
X0110038Y0222905D01*
X0110125Y0222876D01*
X0110211Y0222844D01*
X0110295Y0222809D01*
X0110377Y0222770D01*
X0110458Y0222727D01*
X0110536Y0222681D01*
X0110613Y0222631D01*
X0110687Y0222578D01*
X0110759Y0222522D01*
X0110829Y0222463D01*
X0110896Y0222401D01*
X0110960Y0222336D01*
X0111021Y0222269D01*
X0111080Y0222199D01*
X0111135Y0222126D01*
X0111187Y0222051D01*
X0111236Y0221974D01*
X0111281Y0221895D01*
X0111323Y0221813D01*
X0111361Y0221731D01*
X0111396Y0221646D01*
X0111427Y0221560D01*
X0111454Y0221473D01*
X0111477Y0221385D01*
X0111497Y0221296D01*
X0111513Y0221206D01*
X0111525Y0221116D01*
X0111533Y0221025D01*
X0111537Y0220934D01*
X0111537Y0220842D01*
X0111533Y0220751D01*
X0111525Y0220660D01*
X0111513Y0220570D01*
X0111497Y0220480D01*
X0111477Y0220391D01*
X0111454Y0220303D01*
X0111427Y0220216D01*
X0111396Y0220130D01*
X0111361Y0220045D01*
X0111323Y0219963D01*
X0111281Y0219881D01*
X0111236Y0219802D01*
X0111187Y0219725D01*
X0111135Y0219650D01*
X0111080Y0219577D01*
X0111021Y0219507D01*
X0110960Y0219440D01*
X0110896Y0219375D01*
X0110829Y0219313D01*
X0110759Y0219254D01*
X0110687Y0219198D01*
X0110613Y0219145D01*
X0110536Y0219095D01*
X0110458Y0219049D01*
X0110377Y0219006D01*
X0110295Y0218967D01*
X0110211Y0218932D01*
X0110125Y0218900D01*
X0110038Y0218871D01*
X0109950Y0218847D01*
X0109861Y0218826D01*
X0109772Y0218810D01*
X0109681Y0218797D01*
X0109591Y0218788D01*
X0109499Y0218783D01*
X0109408Y0218782D01*
X0109317Y0218785D01*
X0109226Y0218792D01*
X0109135Y0218803D01*
X0109045Y0218818D01*
X0108956Y0218836D01*
X0108868Y0218859D01*
X0108780Y0218885D01*
X0108694Y0218915D01*
X0108609Y0218949D01*
X0108526Y0218986D01*
X0108445Y0219027D01*
X0108365Y0219072D01*
X0108287Y0219120D01*
X0108212Y0219171D01*
X0108138Y0219225D01*
X0108068Y0219283D01*
X0107999Y0219343D01*
X0107934Y0219407D01*
X0107871Y0219473D01*
X0107811Y0219542D01*
X0107754Y0219614D01*
X0107701Y0219687D01*
X0107650Y0219763D01*
X0107603Y0219842D01*
X0107560Y0219922D01*
X0107520Y0220004D01*
X0107483Y0220087D01*
X0107450Y0220172D01*
X0107421Y0220259D01*
X0107396Y0220347D01*
X0107374Y0220435D01*
X0107357Y0220525D01*
X0107343Y0220615D01*
X0107333Y0220706D01*
X0107327Y0220797D01*
X0107325Y0220888D01*
X0048269Y0220888D02*
X0048271Y0220979D01*
X0048277Y0221070D01*
X0048287Y0221161D01*
X0048301Y0221251D01*
X0048318Y0221341D01*
X0048340Y0221429D01*
X0048365Y0221517D01*
X0048394Y0221604D01*
X0048427Y0221689D01*
X0048464Y0221772D01*
X0048504Y0221854D01*
X0048547Y0221934D01*
X0048594Y0222013D01*
X0048645Y0222089D01*
X0048698Y0222162D01*
X0048755Y0222234D01*
X0048815Y0222303D01*
X0048878Y0222369D01*
X0048943Y0222433D01*
X0049012Y0222493D01*
X0049082Y0222551D01*
X0049156Y0222605D01*
X0049231Y0222656D01*
X0049309Y0222704D01*
X0049389Y0222749D01*
X0049470Y0222790D01*
X0049553Y0222827D01*
X0049638Y0222861D01*
X0049724Y0222891D01*
X0049812Y0222917D01*
X0049900Y0222940D01*
X0049989Y0222958D01*
X0050079Y0222973D01*
X0050170Y0222984D01*
X0050261Y0222991D01*
X0050352Y0222994D01*
X0050443Y0222993D01*
X0050535Y0222988D01*
X0050625Y0222979D01*
X0050716Y0222966D01*
X0050805Y0222950D01*
X0050894Y0222929D01*
X0050982Y0222905D01*
X0051069Y0222876D01*
X0051155Y0222844D01*
X0051239Y0222809D01*
X0051321Y0222770D01*
X0051402Y0222727D01*
X0051480Y0222681D01*
X0051557Y0222631D01*
X0051631Y0222578D01*
X0051703Y0222522D01*
X0051773Y0222463D01*
X0051840Y0222401D01*
X0051904Y0222336D01*
X0051965Y0222269D01*
X0052024Y0222199D01*
X0052079Y0222126D01*
X0052131Y0222051D01*
X0052180Y0221974D01*
X0052225Y0221895D01*
X0052267Y0221813D01*
X0052305Y0221731D01*
X0052340Y0221646D01*
X0052371Y0221560D01*
X0052398Y0221473D01*
X0052421Y0221385D01*
X0052441Y0221296D01*
X0052457Y0221206D01*
X0052469Y0221116D01*
X0052477Y0221025D01*
X0052481Y0220934D01*
X0052481Y0220842D01*
X0052477Y0220751D01*
X0052469Y0220660D01*
X0052457Y0220570D01*
X0052441Y0220480D01*
X0052421Y0220391D01*
X0052398Y0220303D01*
X0052371Y0220216D01*
X0052340Y0220130D01*
X0052305Y0220045D01*
X0052267Y0219963D01*
X0052225Y0219881D01*
X0052180Y0219802D01*
X0052131Y0219725D01*
X0052079Y0219650D01*
X0052024Y0219577D01*
X0051965Y0219507D01*
X0051904Y0219440D01*
X0051840Y0219375D01*
X0051773Y0219313D01*
X0051703Y0219254D01*
X0051631Y0219198D01*
X0051557Y0219145D01*
X0051480Y0219095D01*
X0051402Y0219049D01*
X0051321Y0219006D01*
X0051239Y0218967D01*
X0051155Y0218932D01*
X0051069Y0218900D01*
X0050982Y0218871D01*
X0050894Y0218847D01*
X0050805Y0218826D01*
X0050716Y0218810D01*
X0050625Y0218797D01*
X0050535Y0218788D01*
X0050443Y0218783D01*
X0050352Y0218782D01*
X0050261Y0218785D01*
X0050170Y0218792D01*
X0050079Y0218803D01*
X0049989Y0218818D01*
X0049900Y0218836D01*
X0049812Y0218859D01*
X0049724Y0218885D01*
X0049638Y0218915D01*
X0049553Y0218949D01*
X0049470Y0218986D01*
X0049389Y0219027D01*
X0049309Y0219072D01*
X0049231Y0219120D01*
X0049156Y0219171D01*
X0049082Y0219225D01*
X0049012Y0219283D01*
X0048943Y0219343D01*
X0048878Y0219407D01*
X0048815Y0219473D01*
X0048755Y0219542D01*
X0048698Y0219614D01*
X0048645Y0219687D01*
X0048594Y0219763D01*
X0048547Y0219842D01*
X0048504Y0219922D01*
X0048464Y0220004D01*
X0048427Y0220087D01*
X0048394Y0220172D01*
X0048365Y0220259D01*
X0048340Y0220347D01*
X0048318Y0220435D01*
X0048301Y0220525D01*
X0048287Y0220615D01*
X0048277Y0220706D01*
X0048271Y0220797D01*
X0048269Y0220888D01*
D11*
X0092520Y0164300D02*
X0104920Y0164300D01*
X0105020Y0164300D02*
X0105020Y0129300D01*
X0104920Y0129300D02*
X0100720Y0129300D01*
X0096720Y0129300D01*
X0092520Y0129300D01*
X0092444Y0129302D01*
X0092368Y0129308D01*
X0092293Y0129317D01*
X0092218Y0129331D01*
X0092144Y0129348D01*
X0092071Y0129369D01*
X0091999Y0129393D01*
X0091928Y0129422D01*
X0091859Y0129453D01*
X0091792Y0129488D01*
X0091727Y0129527D01*
X0091663Y0129569D01*
X0091602Y0129614D01*
X0091543Y0129662D01*
X0091487Y0129713D01*
X0091433Y0129767D01*
X0091382Y0129823D01*
X0091334Y0129882D01*
X0091289Y0129943D01*
X0091247Y0130007D01*
X0091208Y0130072D01*
X0091173Y0130139D01*
X0091142Y0130208D01*
X0091113Y0130279D01*
X0091089Y0130351D01*
X0091068Y0130424D01*
X0091051Y0130498D01*
X0091037Y0130573D01*
X0091028Y0130648D01*
X0091022Y0130724D01*
X0091020Y0130800D01*
X0091020Y0162800D01*
X0091022Y0162876D01*
X0091028Y0162952D01*
X0091037Y0163027D01*
X0091051Y0163102D01*
X0091068Y0163176D01*
X0091089Y0163249D01*
X0091113Y0163321D01*
X0091142Y0163392D01*
X0091173Y0163461D01*
X0091208Y0163528D01*
X0091247Y0163593D01*
X0091289Y0163657D01*
X0091334Y0163718D01*
X0091382Y0163777D01*
X0091433Y0163833D01*
X0091487Y0163887D01*
X0091543Y0163938D01*
X0091602Y0163986D01*
X0091663Y0164031D01*
X0091727Y0164073D01*
X0091792Y0164112D01*
X0091859Y0164147D01*
X0091928Y0164178D01*
X0091999Y0164207D01*
X0092071Y0164231D01*
X0092144Y0164252D01*
X0092218Y0164269D01*
X0092293Y0164283D01*
X0092368Y0164292D01*
X0092444Y0164298D01*
X0092520Y0164300D01*
X0104920Y0164300D02*
X0104996Y0164298D01*
X0105072Y0164292D01*
X0105147Y0164283D01*
X0105222Y0164269D01*
X0105296Y0164252D01*
X0105369Y0164231D01*
X0105441Y0164207D01*
X0105512Y0164178D01*
X0105581Y0164147D01*
X0105648Y0164112D01*
X0105713Y0164073D01*
X0105777Y0164031D01*
X0105838Y0163986D01*
X0105897Y0163938D01*
X0105953Y0163887D01*
X0106007Y0163833D01*
X0106058Y0163777D01*
X0106106Y0163718D01*
X0106151Y0163657D01*
X0106193Y0163593D01*
X0106232Y0163528D01*
X0106267Y0163461D01*
X0106298Y0163392D01*
X0106327Y0163321D01*
X0106351Y0163249D01*
X0106372Y0163176D01*
X0106389Y0163102D01*
X0106403Y0163027D01*
X0106412Y0162952D01*
X0106418Y0162876D01*
X0106420Y0162800D01*
X0106420Y0130800D01*
X0106418Y0130724D01*
X0106412Y0130648D01*
X0106403Y0130573D01*
X0106389Y0130498D01*
X0106372Y0130424D01*
X0106351Y0130351D01*
X0106327Y0130279D01*
X0106298Y0130208D01*
X0106267Y0130139D01*
X0106232Y0130072D01*
X0106193Y0130007D01*
X0106151Y0129943D01*
X0106106Y0129882D01*
X0106058Y0129823D01*
X0106007Y0129767D01*
X0105953Y0129713D01*
X0105897Y0129662D01*
X0105838Y0129614D01*
X0105777Y0129569D01*
X0105713Y0129527D01*
X0105648Y0129488D01*
X0105581Y0129453D01*
X0105512Y0129422D01*
X0105441Y0129393D01*
X0105369Y0129369D01*
X0105296Y0129348D01*
X0105222Y0129331D01*
X0105147Y0129317D01*
X0105072Y0129308D01*
X0104996Y0129302D01*
X0104920Y0129300D01*
X0100720Y0129300D02*
X0100718Y0129388D01*
X0100712Y0129477D01*
X0100702Y0129565D01*
X0100689Y0129652D01*
X0100671Y0129739D01*
X0100650Y0129825D01*
X0100625Y0129910D01*
X0100596Y0129993D01*
X0100563Y0130076D01*
X0100527Y0130156D01*
X0100488Y0130235D01*
X0100445Y0130313D01*
X0100398Y0130388D01*
X0100348Y0130461D01*
X0100295Y0130532D01*
X0100239Y0130601D01*
X0100180Y0130667D01*
X0100118Y0130730D01*
X0100054Y0130790D01*
X0099987Y0130848D01*
X0099917Y0130902D01*
X0099845Y0130954D01*
X0099771Y0131002D01*
X0099694Y0131047D01*
X0099616Y0131088D01*
X0099536Y0131126D01*
X0099455Y0131160D01*
X0099372Y0131191D01*
X0099287Y0131218D01*
X0099202Y0131241D01*
X0099116Y0131260D01*
X0099028Y0131276D01*
X0098941Y0131288D01*
X0098853Y0131296D01*
X0098764Y0131300D01*
X0098676Y0131300D01*
X0098587Y0131296D01*
X0098499Y0131288D01*
X0098412Y0131276D01*
X0098324Y0131260D01*
X0098238Y0131241D01*
X0098153Y0131218D01*
X0098068Y0131191D01*
X0097985Y0131160D01*
X0097904Y0131126D01*
X0097824Y0131088D01*
X0097746Y0131047D01*
X0097669Y0131002D01*
X0097595Y0130954D01*
X0097523Y0130902D01*
X0097453Y0130848D01*
X0097386Y0130790D01*
X0097322Y0130730D01*
X0097260Y0130667D01*
X0097201Y0130601D01*
X0097145Y0130532D01*
X0097092Y0130461D01*
X0097042Y0130388D01*
X0096995Y0130313D01*
X0096952Y0130235D01*
X0096913Y0130156D01*
X0096877Y0130076D01*
X0096844Y0129993D01*
X0096815Y0129910D01*
X0096790Y0129825D01*
X0096769Y0129739D01*
X0096751Y0129652D01*
X0096738Y0129565D01*
X0096728Y0129477D01*
X0096722Y0129388D01*
X0096720Y0129300D01*
X0120420Y0200600D02*
X0120420Y0202656D01*
X0120422Y0202735D01*
X0120428Y0202815D01*
X0120437Y0202894D01*
X0120451Y0202972D01*
X0120468Y0203049D01*
X0120489Y0203126D01*
X0120513Y0203202D01*
X0120541Y0203276D01*
X0120573Y0203349D01*
X0120608Y0203420D01*
X0120647Y0203489D01*
X0120689Y0203557D01*
X0120734Y0203622D01*
X0120782Y0203685D01*
X0120833Y0203746D01*
X0120888Y0203804D01*
X0120944Y0203860D01*
X0121004Y0203913D01*
X0121066Y0203962D01*
X0121130Y0204009D01*
X0121197Y0204053D01*
X0121265Y0204093D01*
X0121335Y0204130D01*
X0121407Y0204163D01*
X0121481Y0204193D01*
X0121556Y0204220D01*
X0121632Y0204242D01*
X0121709Y0204261D01*
X0121787Y0204277D01*
X0121866Y0204288D01*
X0121945Y0204296D01*
X0122024Y0204300D01*
X0122104Y0204300D01*
X0122183Y0204296D01*
X0122262Y0204288D01*
X0122341Y0204277D01*
X0122419Y0204261D01*
X0122496Y0204242D01*
X0122572Y0204220D01*
X0122647Y0204193D01*
X0122721Y0204163D01*
X0122793Y0204130D01*
X0122863Y0204093D01*
X0122931Y0204053D01*
X0122998Y0204009D01*
X0123062Y0203962D01*
X0123124Y0203913D01*
X0123184Y0203860D01*
X0123240Y0203804D01*
X0123295Y0203746D01*
X0123346Y0203685D01*
X0123394Y0203622D01*
X0123439Y0203557D01*
X0123481Y0203489D01*
X0123520Y0203420D01*
X0123555Y0203349D01*
X0123587Y0203276D01*
X0123615Y0203202D01*
X0123639Y0203126D01*
X0123660Y0203049D01*
X0123677Y0202972D01*
X0123691Y0202894D01*
X0123700Y0202815D01*
X0123706Y0202735D01*
X0123708Y0202656D01*
X0123708Y0200600D01*
X0123708Y0202656D02*
X0123710Y0202746D01*
X0123716Y0202835D01*
X0123726Y0202924D01*
X0123739Y0203013D01*
X0123757Y0203101D01*
X0123778Y0203188D01*
X0123803Y0203274D01*
X0123832Y0203359D01*
X0123865Y0203443D01*
X0123901Y0203525D01*
X0123940Y0203605D01*
X0123983Y0203684D01*
X0124030Y0203761D01*
X0124080Y0203835D01*
X0124133Y0203908D01*
X0124189Y0203978D01*
X0124248Y0204045D01*
X0124310Y0204110D01*
X0124375Y0204172D01*
X0124442Y0204231D01*
X0124512Y0204287D01*
X0124585Y0204340D01*
X0124659Y0204390D01*
X0124736Y0204437D01*
X0124815Y0204480D01*
X0124895Y0204519D01*
X0124977Y0204555D01*
X0125061Y0204588D01*
X0125146Y0204617D01*
X0125232Y0204642D01*
X0125319Y0204663D01*
X0125407Y0204681D01*
X0125496Y0204694D01*
X0125585Y0204704D01*
X0125674Y0204710D01*
X0125764Y0204712D01*
X0125854Y0204710D01*
X0125943Y0204704D01*
X0126032Y0204694D01*
X0126121Y0204681D01*
X0126209Y0204663D01*
X0126296Y0204642D01*
X0126382Y0204617D01*
X0126467Y0204588D01*
X0126551Y0204555D01*
X0126633Y0204519D01*
X0126713Y0204480D01*
X0126792Y0204437D01*
X0126869Y0204390D01*
X0126943Y0204340D01*
X0127016Y0204287D01*
X0127086Y0204231D01*
X0127153Y0204172D01*
X0127218Y0204110D01*
X0127280Y0204045D01*
X0127339Y0203978D01*
X0127395Y0203908D01*
X0127448Y0203835D01*
X0127498Y0203761D01*
X0127545Y0203684D01*
X0127588Y0203605D01*
X0127627Y0203525D01*
X0127663Y0203443D01*
X0127696Y0203359D01*
X0127725Y0203274D01*
X0127750Y0203188D01*
X0127771Y0203101D01*
X0127789Y0203013D01*
X0127802Y0202924D01*
X0127812Y0202835D01*
X0127818Y0202746D01*
X0127820Y0202656D01*
X0127820Y0200600D01*
X0120420Y0200600D01*
X0124531Y0207131D02*
X0126586Y0207131D01*
X0126655Y0207133D01*
X0126724Y0207139D01*
X0126793Y0207148D01*
X0126860Y0207162D01*
X0126927Y0207179D01*
X0126993Y0207200D01*
X0127058Y0207225D01*
X0127121Y0207253D01*
X0127182Y0207285D01*
X0127242Y0207320D01*
X0127300Y0207358D01*
X0127355Y0207400D01*
X0127408Y0207445D01*
X0127458Y0207492D01*
X0127505Y0207542D01*
X0127550Y0207595D01*
X0127592Y0207651D01*
X0127630Y0207708D01*
X0127665Y0207768D01*
X0127697Y0207829D01*
X0127725Y0207892D01*
X0127750Y0207957D01*
X0127771Y0208023D01*
X0127788Y0208090D01*
X0127802Y0208157D01*
X0127811Y0208226D01*
X0127817Y0208295D01*
X0127819Y0208364D01*
X0127820Y0208364D02*
X0127820Y0210420D01*
X0125353Y0210420D02*
X0125353Y0207131D01*
X0124531Y0207131D02*
X0124452Y0207133D01*
X0124372Y0207139D01*
X0124293Y0207148D01*
X0124215Y0207162D01*
X0124138Y0207179D01*
X0124061Y0207200D01*
X0123985Y0207224D01*
X0123911Y0207252D01*
X0123838Y0207284D01*
X0123767Y0207319D01*
X0123698Y0207358D01*
X0123630Y0207400D01*
X0123565Y0207445D01*
X0123502Y0207493D01*
X0123441Y0207544D01*
X0123383Y0207599D01*
X0123327Y0207655D01*
X0123274Y0207715D01*
X0123225Y0207777D01*
X0123178Y0207841D01*
X0123134Y0207908D01*
X0123094Y0207976D01*
X0123057Y0208046D01*
X0123024Y0208118D01*
X0122994Y0208192D01*
X0122967Y0208267D01*
X0122945Y0208343D01*
X0122926Y0208420D01*
X0122910Y0208498D01*
X0122899Y0208577D01*
X0122891Y0208656D01*
X0122887Y0208735D01*
X0122887Y0208815D01*
X0122891Y0208894D01*
X0122899Y0208973D01*
X0122910Y0209052D01*
X0122926Y0209130D01*
X0122945Y0209207D01*
X0122967Y0209283D01*
X0122994Y0209358D01*
X0123024Y0209432D01*
X0123057Y0209504D01*
X0123094Y0209574D01*
X0123134Y0209642D01*
X0123178Y0209709D01*
X0123225Y0209773D01*
X0123274Y0209835D01*
X0123327Y0209895D01*
X0123383Y0209951D01*
X0123441Y0210006D01*
X0123502Y0210057D01*
X0123565Y0210105D01*
X0123630Y0210150D01*
X0123698Y0210192D01*
X0123767Y0210231D01*
X0123838Y0210266D01*
X0123911Y0210298D01*
X0123985Y0210326D01*
X0124061Y0210350D01*
X0124138Y0210371D01*
X0124215Y0210388D01*
X0124293Y0210402D01*
X0124372Y0210411D01*
X0124452Y0210417D01*
X0124531Y0210419D01*
X0124531Y0210420D02*
X0125353Y0210420D01*
X0125353Y0213094D02*
X0125353Y0216383D01*
X0124531Y0216383D01*
X0124531Y0216382D02*
X0124452Y0216380D01*
X0124372Y0216374D01*
X0124293Y0216365D01*
X0124215Y0216351D01*
X0124138Y0216334D01*
X0124061Y0216313D01*
X0123985Y0216289D01*
X0123911Y0216261D01*
X0123838Y0216229D01*
X0123767Y0216194D01*
X0123698Y0216155D01*
X0123630Y0216113D01*
X0123565Y0216068D01*
X0123502Y0216020D01*
X0123441Y0215969D01*
X0123383Y0215914D01*
X0123327Y0215858D01*
X0123274Y0215798D01*
X0123225Y0215736D01*
X0123178Y0215672D01*
X0123134Y0215605D01*
X0123094Y0215537D01*
X0123057Y0215467D01*
X0123024Y0215395D01*
X0122994Y0215321D01*
X0122967Y0215246D01*
X0122945Y0215170D01*
X0122926Y0215093D01*
X0122910Y0215015D01*
X0122899Y0214936D01*
X0122891Y0214857D01*
X0122887Y0214778D01*
X0122887Y0214698D01*
X0122891Y0214619D01*
X0122899Y0214540D01*
X0122910Y0214461D01*
X0122926Y0214383D01*
X0122945Y0214306D01*
X0122967Y0214230D01*
X0122994Y0214155D01*
X0123024Y0214081D01*
X0123057Y0214009D01*
X0123094Y0213939D01*
X0123134Y0213871D01*
X0123178Y0213804D01*
X0123225Y0213740D01*
X0123274Y0213678D01*
X0123327Y0213618D01*
X0123383Y0213562D01*
X0123441Y0213507D01*
X0123502Y0213456D01*
X0123565Y0213408D01*
X0123630Y0213363D01*
X0123698Y0213321D01*
X0123767Y0213282D01*
X0123838Y0213247D01*
X0123911Y0213215D01*
X0123985Y0213187D01*
X0124061Y0213163D01*
X0124138Y0213142D01*
X0124215Y0213125D01*
X0124293Y0213111D01*
X0124372Y0213102D01*
X0124452Y0213096D01*
X0124531Y0213094D01*
X0126586Y0213094D01*
X0126655Y0213096D01*
X0126724Y0213102D01*
X0126793Y0213111D01*
X0126860Y0213125D01*
X0126927Y0213142D01*
X0126993Y0213163D01*
X0127058Y0213188D01*
X0127121Y0213216D01*
X0127182Y0213248D01*
X0127242Y0213283D01*
X0127300Y0213321D01*
X0127355Y0213363D01*
X0127408Y0213408D01*
X0127458Y0213455D01*
X0127505Y0213505D01*
X0127550Y0213558D01*
X0127592Y0213614D01*
X0127630Y0213671D01*
X0127665Y0213731D01*
X0127697Y0213792D01*
X0127725Y0213855D01*
X0127750Y0213920D01*
X0127771Y0213986D01*
X0127788Y0214053D01*
X0127802Y0214120D01*
X0127811Y0214189D01*
X0127817Y0214258D01*
X0127819Y0214327D01*
X0127820Y0214327D02*
X0127820Y0216383D01*
X0127820Y0219345D02*
X0127820Y0222634D01*
X0126175Y0225021D02*
X0124531Y0225021D01*
X0124452Y0225023D01*
X0124372Y0225029D01*
X0124293Y0225038D01*
X0124215Y0225052D01*
X0124138Y0225069D01*
X0124061Y0225090D01*
X0123985Y0225114D01*
X0123911Y0225142D01*
X0123838Y0225174D01*
X0123767Y0225209D01*
X0123698Y0225248D01*
X0123630Y0225290D01*
X0123565Y0225335D01*
X0123502Y0225383D01*
X0123441Y0225434D01*
X0123383Y0225489D01*
X0123327Y0225545D01*
X0123274Y0225605D01*
X0123225Y0225667D01*
X0123178Y0225731D01*
X0123134Y0225798D01*
X0123094Y0225866D01*
X0123057Y0225936D01*
X0123024Y0226008D01*
X0122994Y0226082D01*
X0122967Y0226157D01*
X0122945Y0226233D01*
X0122926Y0226310D01*
X0122910Y0226388D01*
X0122899Y0226467D01*
X0122891Y0226546D01*
X0122887Y0226625D01*
X0122887Y0226705D01*
X0122891Y0226784D01*
X0122899Y0226863D01*
X0122910Y0226942D01*
X0122926Y0227020D01*
X0122945Y0227097D01*
X0122967Y0227173D01*
X0122994Y0227248D01*
X0123024Y0227322D01*
X0123057Y0227394D01*
X0123094Y0227464D01*
X0123134Y0227532D01*
X0123178Y0227599D01*
X0123225Y0227663D01*
X0123274Y0227725D01*
X0123327Y0227785D01*
X0123383Y0227841D01*
X0123441Y0227896D01*
X0123502Y0227947D01*
X0123565Y0227995D01*
X0123630Y0228040D01*
X0123698Y0228082D01*
X0123767Y0228121D01*
X0123838Y0228156D01*
X0123911Y0228188D01*
X0123985Y0228216D01*
X0124061Y0228240D01*
X0124138Y0228261D01*
X0124215Y0228278D01*
X0124293Y0228292D01*
X0124372Y0228301D01*
X0124452Y0228307D01*
X0124531Y0228309D01*
X0124531Y0228310D02*
X0126175Y0228310D01*
X0126175Y0228309D02*
X0126254Y0228307D01*
X0126334Y0228301D01*
X0126413Y0228292D01*
X0126491Y0228278D01*
X0126568Y0228261D01*
X0126645Y0228240D01*
X0126721Y0228216D01*
X0126795Y0228188D01*
X0126868Y0228156D01*
X0126939Y0228121D01*
X0127008Y0228082D01*
X0127076Y0228040D01*
X0127141Y0227995D01*
X0127204Y0227947D01*
X0127265Y0227896D01*
X0127323Y0227841D01*
X0127379Y0227785D01*
X0127432Y0227725D01*
X0127481Y0227663D01*
X0127528Y0227599D01*
X0127572Y0227532D01*
X0127612Y0227464D01*
X0127649Y0227394D01*
X0127682Y0227322D01*
X0127712Y0227248D01*
X0127739Y0227173D01*
X0127761Y0227097D01*
X0127780Y0227020D01*
X0127796Y0226942D01*
X0127807Y0226863D01*
X0127815Y0226784D01*
X0127819Y0226705D01*
X0127819Y0226625D01*
X0127815Y0226546D01*
X0127807Y0226467D01*
X0127796Y0226388D01*
X0127780Y0226310D01*
X0127761Y0226233D01*
X0127739Y0226157D01*
X0127712Y0226082D01*
X0127682Y0226008D01*
X0127649Y0225936D01*
X0127612Y0225866D01*
X0127572Y0225798D01*
X0127528Y0225731D01*
X0127481Y0225667D01*
X0127432Y0225605D01*
X0127379Y0225545D01*
X0127323Y0225489D01*
X0127265Y0225434D01*
X0127204Y0225383D01*
X0127141Y0225335D01*
X0127076Y0225290D01*
X0127008Y0225248D01*
X0126939Y0225209D01*
X0126868Y0225174D01*
X0126795Y0225142D01*
X0126721Y0225114D01*
X0126645Y0225090D01*
X0126568Y0225069D01*
X0126491Y0225052D01*
X0126413Y0225038D01*
X0126334Y0225029D01*
X0126254Y0225023D01*
X0126175Y0225021D01*
X0127820Y0219345D02*
X0120420Y0219345D01*
X0124120Y0230959D02*
X0126586Y0230959D01*
X0126655Y0230961D01*
X0126724Y0230967D01*
X0126793Y0230976D01*
X0126860Y0230990D01*
X0126927Y0231007D01*
X0126993Y0231028D01*
X0127058Y0231053D01*
X0127121Y0231081D01*
X0127182Y0231113D01*
X0127242Y0231148D01*
X0127300Y0231186D01*
X0127355Y0231228D01*
X0127408Y0231273D01*
X0127458Y0231320D01*
X0127505Y0231370D01*
X0127550Y0231423D01*
X0127592Y0231479D01*
X0127630Y0231536D01*
X0127665Y0231596D01*
X0127697Y0231657D01*
X0127725Y0231720D01*
X0127750Y0231785D01*
X0127771Y0231851D01*
X0127788Y0231918D01*
X0127802Y0231985D01*
X0127811Y0232054D01*
X0127817Y0232123D01*
X0127819Y0232192D01*
X0127820Y0232192D02*
X0127820Y0234248D01*
X0129053Y0234248D02*
X0122886Y0234248D01*
X0122886Y0232192D01*
X0122887Y0232192D02*
X0122889Y0232123D01*
X0122895Y0232054D01*
X0122904Y0231985D01*
X0122918Y0231918D01*
X0122935Y0231851D01*
X0122956Y0231785D01*
X0122981Y0231720D01*
X0123009Y0231657D01*
X0123041Y0231596D01*
X0123076Y0231536D01*
X0123114Y0231478D01*
X0123156Y0231423D01*
X0123201Y0231370D01*
X0123248Y0231320D01*
X0123298Y0231273D01*
X0123351Y0231228D01*
X0123406Y0231186D01*
X0123464Y0231148D01*
X0123524Y0231113D01*
X0123585Y0231081D01*
X0123648Y0231053D01*
X0123713Y0231028D01*
X0123779Y0231007D01*
X0123846Y0230990D01*
X0123913Y0230976D01*
X0123982Y0230967D01*
X0124051Y0230961D01*
X0124120Y0230959D01*
X0129053Y0234247D02*
X0129122Y0234245D01*
X0129191Y0234239D01*
X0129260Y0234230D01*
X0129327Y0234216D01*
X0129394Y0234199D01*
X0129460Y0234178D01*
X0129525Y0234153D01*
X0129588Y0234125D01*
X0129649Y0234093D01*
X0129709Y0234058D01*
X0129767Y0234020D01*
X0129822Y0233978D01*
X0129875Y0233933D01*
X0129925Y0233886D01*
X0129972Y0233836D01*
X0130017Y0233783D01*
X0130059Y0233728D01*
X0130097Y0233670D01*
X0130132Y0233610D01*
X0130164Y0233549D01*
X0130192Y0233486D01*
X0130217Y0233421D01*
X0130238Y0233355D01*
X0130255Y0233288D01*
X0130269Y0233221D01*
X0130278Y0233152D01*
X0130284Y0233083D01*
X0130286Y0233014D01*
X0130286Y0231370D01*
X0127820Y0237216D02*
X0122886Y0237216D01*
X0120831Y0237421D02*
X0120831Y0237010D01*
X0120420Y0237010D01*
X0120420Y0237421D01*
X0120831Y0237421D01*
X0124120Y0239936D02*
X0126586Y0239936D01*
X0126655Y0239938D01*
X0126724Y0239944D01*
X0126793Y0239953D01*
X0126860Y0239967D01*
X0126927Y0239984D01*
X0126993Y0240005D01*
X0127058Y0240030D01*
X0127121Y0240058D01*
X0127182Y0240090D01*
X0127242Y0240125D01*
X0127300Y0240163D01*
X0127355Y0240205D01*
X0127408Y0240250D01*
X0127458Y0240297D01*
X0127505Y0240347D01*
X0127550Y0240400D01*
X0127592Y0240456D01*
X0127630Y0240513D01*
X0127665Y0240573D01*
X0127697Y0240634D01*
X0127725Y0240697D01*
X0127750Y0240762D01*
X0127771Y0240828D01*
X0127788Y0240895D01*
X0127802Y0240962D01*
X0127811Y0241031D01*
X0127817Y0241100D01*
X0127819Y0241169D01*
X0127820Y0241169D02*
X0127820Y0242813D01*
X0124120Y0239936D02*
X0124051Y0239938D01*
X0123982Y0239944D01*
X0123913Y0239953D01*
X0123846Y0239967D01*
X0123779Y0239984D01*
X0123713Y0240005D01*
X0123648Y0240030D01*
X0123585Y0240058D01*
X0123524Y0240090D01*
X0123464Y0240125D01*
X0123406Y0240163D01*
X0123351Y0240205D01*
X0123298Y0240250D01*
X0123248Y0240297D01*
X0123201Y0240347D01*
X0123156Y0240400D01*
X0123114Y0240455D01*
X0123076Y0240513D01*
X0123041Y0240573D01*
X0123009Y0240634D01*
X0122981Y0240697D01*
X0122956Y0240762D01*
X0122935Y0240828D01*
X0122918Y0240895D01*
X0122904Y0240962D01*
X0122895Y0241031D01*
X0122889Y0241100D01*
X0122887Y0241169D01*
X0122886Y0241169D02*
X0122886Y0242813D01*
X0242520Y0210100D02*
X0242520Y0202700D01*
X0244575Y0202700D01*
X0244665Y0202702D01*
X0244754Y0202708D01*
X0244843Y0202718D01*
X0244932Y0202731D01*
X0245020Y0202749D01*
X0245107Y0202770D01*
X0245193Y0202795D01*
X0245278Y0202824D01*
X0245362Y0202857D01*
X0245444Y0202893D01*
X0245524Y0202932D01*
X0245603Y0202975D01*
X0245680Y0203022D01*
X0245754Y0203072D01*
X0245827Y0203125D01*
X0245897Y0203181D01*
X0245964Y0203240D01*
X0246029Y0203302D01*
X0246091Y0203367D01*
X0246150Y0203434D01*
X0246206Y0203504D01*
X0246259Y0203577D01*
X0246309Y0203651D01*
X0246356Y0203728D01*
X0246399Y0203807D01*
X0246438Y0203887D01*
X0246474Y0203969D01*
X0246507Y0204053D01*
X0246536Y0204138D01*
X0246561Y0204224D01*
X0246582Y0204311D01*
X0246600Y0204399D01*
X0246613Y0204488D01*
X0246623Y0204577D01*
X0246629Y0204666D01*
X0246631Y0204756D01*
X0246629Y0204846D01*
X0246623Y0204935D01*
X0246613Y0205024D01*
X0246600Y0205113D01*
X0246582Y0205201D01*
X0246561Y0205288D01*
X0246536Y0205374D01*
X0246507Y0205459D01*
X0246474Y0205543D01*
X0246438Y0205625D01*
X0246399Y0205705D01*
X0246356Y0205784D01*
X0246309Y0205861D01*
X0246259Y0205935D01*
X0246206Y0206008D01*
X0246150Y0206078D01*
X0246091Y0206145D01*
X0246029Y0206210D01*
X0245964Y0206272D01*
X0245897Y0206331D01*
X0245827Y0206387D01*
X0245754Y0206440D01*
X0245680Y0206490D01*
X0245603Y0206537D01*
X0245524Y0206580D01*
X0245444Y0206619D01*
X0245362Y0206655D01*
X0245278Y0206688D01*
X0245193Y0206717D01*
X0245107Y0206742D01*
X0245020Y0206763D01*
X0244932Y0206781D01*
X0244843Y0206794D01*
X0244754Y0206804D01*
X0244665Y0206810D01*
X0244575Y0206812D01*
X0244575Y0206811D02*
X0242520Y0206811D01*
X0244575Y0206812D02*
X0244654Y0206814D01*
X0244734Y0206820D01*
X0244813Y0206829D01*
X0244891Y0206843D01*
X0244968Y0206860D01*
X0245045Y0206881D01*
X0245121Y0206905D01*
X0245195Y0206933D01*
X0245268Y0206965D01*
X0245339Y0207000D01*
X0245408Y0207039D01*
X0245476Y0207081D01*
X0245541Y0207126D01*
X0245604Y0207174D01*
X0245665Y0207225D01*
X0245723Y0207280D01*
X0245779Y0207336D01*
X0245832Y0207396D01*
X0245881Y0207458D01*
X0245928Y0207522D01*
X0245972Y0207589D01*
X0246012Y0207657D01*
X0246049Y0207727D01*
X0246082Y0207799D01*
X0246112Y0207873D01*
X0246139Y0207948D01*
X0246161Y0208024D01*
X0246180Y0208101D01*
X0246196Y0208179D01*
X0246207Y0208258D01*
X0246215Y0208337D01*
X0246219Y0208416D01*
X0246219Y0208496D01*
X0246215Y0208575D01*
X0246207Y0208654D01*
X0246196Y0208733D01*
X0246180Y0208811D01*
X0246161Y0208888D01*
X0246139Y0208964D01*
X0246112Y0209039D01*
X0246082Y0209113D01*
X0246049Y0209185D01*
X0246012Y0209255D01*
X0245972Y0209323D01*
X0245928Y0209390D01*
X0245881Y0209454D01*
X0245832Y0209516D01*
X0245779Y0209576D01*
X0245723Y0209632D01*
X0245665Y0209687D01*
X0245604Y0209738D01*
X0245541Y0209786D01*
X0245476Y0209831D01*
X0245408Y0209873D01*
X0245339Y0209912D01*
X0245268Y0209947D01*
X0245195Y0209979D01*
X0245121Y0210007D01*
X0245045Y0210031D01*
X0244968Y0210052D01*
X0244891Y0210069D01*
X0244813Y0210083D01*
X0244734Y0210092D01*
X0244654Y0210098D01*
X0244575Y0210100D01*
X0242520Y0210100D01*
X0249436Y0207633D02*
X0251080Y0207633D01*
X0251149Y0207631D01*
X0251218Y0207625D01*
X0251287Y0207616D01*
X0251354Y0207602D01*
X0251421Y0207585D01*
X0251487Y0207564D01*
X0251552Y0207539D01*
X0251615Y0207511D01*
X0251676Y0207479D01*
X0251736Y0207444D01*
X0251794Y0207406D01*
X0251849Y0207364D01*
X0251902Y0207319D01*
X0251952Y0207272D01*
X0251999Y0207222D01*
X0252044Y0207169D01*
X0252086Y0207114D01*
X0252124Y0207056D01*
X0252159Y0206996D01*
X0252191Y0206935D01*
X0252219Y0206872D01*
X0252244Y0206807D01*
X0252265Y0206741D01*
X0252282Y0206674D01*
X0252296Y0206607D01*
X0252305Y0206538D01*
X0252311Y0206469D01*
X0252313Y0206400D01*
X0252314Y0206400D02*
X0252314Y0202700D01*
X0250464Y0202700D01*
X0250389Y0202702D01*
X0250314Y0202708D01*
X0250239Y0202718D01*
X0250165Y0202731D01*
X0250092Y0202749D01*
X0250019Y0202770D01*
X0249948Y0202796D01*
X0249879Y0202824D01*
X0249811Y0202857D01*
X0249745Y0202893D01*
X0249680Y0202932D01*
X0249618Y0202975D01*
X0249558Y0203021D01*
X0249501Y0203070D01*
X0249446Y0203121D01*
X0249395Y0203176D01*
X0249346Y0203233D01*
X0249300Y0203293D01*
X0249257Y0203355D01*
X0249218Y0203420D01*
X0249182Y0203486D01*
X0249149Y0203554D01*
X0249121Y0203623D01*
X0249095Y0203694D01*
X0249074Y0203767D01*
X0249056Y0203840D01*
X0249043Y0203914D01*
X0249033Y0203989D01*
X0249027Y0204064D01*
X0249025Y0204139D01*
X0249027Y0204214D01*
X0249033Y0204289D01*
X0249043Y0204364D01*
X0249056Y0204438D01*
X0249074Y0204511D01*
X0249095Y0204584D01*
X0249121Y0204655D01*
X0249149Y0204724D01*
X0249182Y0204792D01*
X0249218Y0204859D01*
X0249257Y0204923D01*
X0249300Y0204985D01*
X0249346Y0205045D01*
X0249395Y0205102D01*
X0249446Y0205157D01*
X0249501Y0205208D01*
X0249558Y0205257D01*
X0249618Y0205303D01*
X0249680Y0205346D01*
X0249745Y0205385D01*
X0249811Y0205421D01*
X0249879Y0205454D01*
X0249948Y0205482D01*
X0250019Y0205508D01*
X0250092Y0205529D01*
X0250165Y0205547D01*
X0250239Y0205560D01*
X0250314Y0205570D01*
X0250389Y0205576D01*
X0250464Y0205578D01*
X0252314Y0205578D01*
X0255502Y0207633D02*
X0255502Y0202700D01*
X0257969Y0206811D02*
X0257969Y0207633D01*
X0255502Y0207633D01*
X0259512Y0207633D02*
X0261979Y0207633D01*
X0264417Y0205989D02*
X0264417Y0204344D01*
X0264418Y0204344D02*
X0264420Y0204265D01*
X0264426Y0204185D01*
X0264435Y0204106D01*
X0264449Y0204028D01*
X0264466Y0203951D01*
X0264487Y0203874D01*
X0264511Y0203798D01*
X0264539Y0203724D01*
X0264571Y0203651D01*
X0264606Y0203580D01*
X0264645Y0203511D01*
X0264687Y0203443D01*
X0264732Y0203378D01*
X0264780Y0203315D01*
X0264831Y0203254D01*
X0264886Y0203196D01*
X0264942Y0203140D01*
X0265002Y0203087D01*
X0265064Y0203038D01*
X0265128Y0202991D01*
X0265195Y0202947D01*
X0265263Y0202907D01*
X0265333Y0202870D01*
X0265405Y0202837D01*
X0265479Y0202807D01*
X0265554Y0202780D01*
X0265630Y0202758D01*
X0265707Y0202739D01*
X0265785Y0202723D01*
X0265864Y0202712D01*
X0265943Y0202704D01*
X0266022Y0202700D01*
X0266102Y0202700D01*
X0266181Y0202704D01*
X0266260Y0202712D01*
X0266339Y0202723D01*
X0266417Y0202739D01*
X0266494Y0202758D01*
X0266570Y0202780D01*
X0266645Y0202807D01*
X0266719Y0202837D01*
X0266791Y0202870D01*
X0266861Y0202907D01*
X0266929Y0202947D01*
X0266996Y0202991D01*
X0267060Y0203038D01*
X0267122Y0203087D01*
X0267182Y0203140D01*
X0267238Y0203196D01*
X0267293Y0203254D01*
X0267344Y0203315D01*
X0267392Y0203378D01*
X0267437Y0203443D01*
X0267479Y0203511D01*
X0267518Y0203580D01*
X0267553Y0203651D01*
X0267585Y0203724D01*
X0267613Y0203798D01*
X0267637Y0203874D01*
X0267658Y0203951D01*
X0267675Y0204028D01*
X0267689Y0204106D01*
X0267698Y0204185D01*
X0267704Y0204265D01*
X0267706Y0204344D01*
X0267706Y0205989D01*
X0267704Y0206068D01*
X0267698Y0206148D01*
X0267689Y0206227D01*
X0267675Y0206305D01*
X0267658Y0206382D01*
X0267637Y0206459D01*
X0267613Y0206535D01*
X0267585Y0206609D01*
X0267553Y0206682D01*
X0267518Y0206753D01*
X0267479Y0206822D01*
X0267437Y0206890D01*
X0267392Y0206955D01*
X0267344Y0207018D01*
X0267293Y0207079D01*
X0267238Y0207137D01*
X0267182Y0207193D01*
X0267122Y0207246D01*
X0267060Y0207295D01*
X0266996Y0207342D01*
X0266929Y0207386D01*
X0266861Y0207426D01*
X0266791Y0207463D01*
X0266719Y0207496D01*
X0266645Y0207526D01*
X0266570Y0207553D01*
X0266494Y0207575D01*
X0266417Y0207594D01*
X0266339Y0207610D01*
X0266260Y0207621D01*
X0266181Y0207629D01*
X0266102Y0207633D01*
X0266022Y0207633D01*
X0265943Y0207629D01*
X0265864Y0207621D01*
X0265785Y0207610D01*
X0265707Y0207594D01*
X0265630Y0207575D01*
X0265554Y0207553D01*
X0265479Y0207526D01*
X0265405Y0207496D01*
X0265333Y0207463D01*
X0265263Y0207426D01*
X0265195Y0207386D01*
X0265128Y0207342D01*
X0265064Y0207295D01*
X0265002Y0207246D01*
X0264942Y0207193D01*
X0264886Y0207137D01*
X0264831Y0207079D01*
X0264780Y0207018D01*
X0264732Y0206955D01*
X0264687Y0206890D01*
X0264645Y0206822D01*
X0264606Y0206753D01*
X0264571Y0206682D01*
X0264539Y0206609D01*
X0264511Y0206535D01*
X0264487Y0206459D01*
X0264466Y0206382D01*
X0264449Y0206305D01*
X0264435Y0206227D01*
X0264426Y0206148D01*
X0264420Y0206068D01*
X0264418Y0205989D01*
X0261568Y0202700D02*
X0261499Y0202702D01*
X0261430Y0202708D01*
X0261361Y0202717D01*
X0261294Y0202731D01*
X0261227Y0202748D01*
X0261161Y0202769D01*
X0261096Y0202794D01*
X0261033Y0202822D01*
X0260972Y0202854D01*
X0260912Y0202889D01*
X0260854Y0202927D01*
X0260799Y0202969D01*
X0260746Y0203014D01*
X0260696Y0203061D01*
X0260649Y0203111D01*
X0260604Y0203164D01*
X0260562Y0203219D01*
X0260524Y0203277D01*
X0260489Y0203337D01*
X0260457Y0203398D01*
X0260429Y0203461D01*
X0260404Y0203526D01*
X0260383Y0203592D01*
X0260366Y0203659D01*
X0260352Y0203726D01*
X0260343Y0203795D01*
X0260337Y0203864D01*
X0260335Y0203933D01*
X0260335Y0210100D01*
X0261568Y0202700D02*
X0261979Y0202700D01*
X0270997Y0205578D02*
X0273053Y0204756D01*
X0273112Y0204730D01*
X0273169Y0204701D01*
X0273225Y0204668D01*
X0273278Y0204632D01*
X0273329Y0204593D01*
X0273378Y0204551D01*
X0273424Y0204507D01*
X0273467Y0204459D01*
X0273507Y0204409D01*
X0273545Y0204356D01*
X0273579Y0204302D01*
X0273609Y0204245D01*
X0273636Y0204187D01*
X0273660Y0204127D01*
X0273680Y0204066D01*
X0273696Y0204004D01*
X0273709Y0203941D01*
X0273717Y0203877D01*
X0273722Y0203813D01*
X0273723Y0203749D01*
X0273720Y0203684D01*
X0273713Y0203620D01*
X0273702Y0203557D01*
X0273688Y0203494D01*
X0273670Y0203433D01*
X0273648Y0203372D01*
X0273622Y0203313D01*
X0273593Y0203256D01*
X0273561Y0203200D01*
X0273525Y0203147D01*
X0273486Y0203096D01*
X0273444Y0203047D01*
X0273399Y0203001D01*
X0273352Y0202957D01*
X0273302Y0202917D01*
X0273249Y0202880D01*
X0273195Y0202846D01*
X0273138Y0202815D01*
X0273080Y0202788D01*
X0273020Y0202764D01*
X0272959Y0202744D01*
X0272897Y0202727D01*
X0272834Y0202715D01*
X0272770Y0202706D01*
X0272706Y0202701D01*
X0272642Y0202700D01*
X0273258Y0207221D02*
X0273133Y0207276D01*
X0273007Y0207326D01*
X0272879Y0207373D01*
X0272749Y0207416D01*
X0272619Y0207455D01*
X0272487Y0207490D01*
X0272355Y0207522D01*
X0272221Y0207549D01*
X0272087Y0207573D01*
X0271952Y0207593D01*
X0271817Y0207609D01*
X0271681Y0207621D01*
X0271545Y0207629D01*
X0271409Y0207633D01*
X0271408Y0207633D02*
X0271344Y0207632D01*
X0271280Y0207627D01*
X0271216Y0207618D01*
X0271153Y0207606D01*
X0271091Y0207589D01*
X0271030Y0207569D01*
X0270970Y0207545D01*
X0270912Y0207518D01*
X0270855Y0207487D01*
X0270801Y0207453D01*
X0270748Y0207416D01*
X0270698Y0207376D01*
X0270651Y0207332D01*
X0270606Y0207286D01*
X0270564Y0207237D01*
X0270525Y0207186D01*
X0270489Y0207133D01*
X0270457Y0207077D01*
X0270428Y0207020D01*
X0270402Y0206961D01*
X0270380Y0206900D01*
X0270362Y0206839D01*
X0270348Y0206776D01*
X0270337Y0206713D01*
X0270330Y0206649D01*
X0270327Y0206584D01*
X0270328Y0206520D01*
X0270333Y0206456D01*
X0270341Y0206392D01*
X0270354Y0206329D01*
X0270370Y0206267D01*
X0270390Y0206206D01*
X0270414Y0206146D01*
X0270441Y0206088D01*
X0270471Y0206031D01*
X0270505Y0205977D01*
X0270543Y0205924D01*
X0270583Y0205874D01*
X0270626Y0205826D01*
X0270672Y0205782D01*
X0270721Y0205740D01*
X0270772Y0205701D01*
X0270825Y0205665D01*
X0270881Y0205632D01*
X0270938Y0205603D01*
X0270997Y0205577D01*
X0270380Y0203111D02*
X0270536Y0203057D01*
X0270693Y0203007D01*
X0270851Y0202960D01*
X0271011Y0202917D01*
X0271171Y0202878D01*
X0271332Y0202843D01*
X0271494Y0202811D01*
X0271656Y0202784D01*
X0271820Y0202760D01*
X0271983Y0202740D01*
X0272147Y0202724D01*
X0272312Y0202712D01*
X0272477Y0202704D01*
X0272641Y0202700D01*
X0276115Y0202700D02*
X0279404Y0202700D01*
X0276115Y0202700D02*
X0279404Y0207633D01*
X0276115Y0207633D01*
X0285337Y0210100D02*
X0289448Y0210100D01*
X0285337Y0202700D01*
X0289448Y0202700D01*
X0291774Y0202700D02*
X0292185Y0202700D01*
X0292185Y0203111D01*
X0291774Y0203111D01*
X0291774Y0202700D01*
D12*
X0239720Y0098308D03*
X0229720Y0098308D03*
X0093527Y0107100D03*
X0092527Y0097100D03*
X0063720Y0036308D03*
X0058720Y0036308D03*
X0053720Y0036308D03*
D13*
X0045176Y0097745D02*
X0045176Y0165855D01*
X0073798Y0165855D01*
X0073798Y0097745D01*
X0045176Y0097745D01*
X0213877Y0195894D02*
X0213877Y0207706D01*
X0233562Y0207706D01*
X0233562Y0195894D01*
X0213877Y0195894D01*
X0245098Y0176800D02*
X0245105Y0177380D01*
X0245126Y0177959D01*
X0245162Y0178538D01*
X0245212Y0179115D01*
X0245276Y0179692D01*
X0245354Y0180266D01*
X0245446Y0180838D01*
X0245552Y0181408D01*
X0245672Y0181976D01*
X0245806Y0182540D01*
X0245954Y0183100D01*
X0246115Y0183657D01*
X0246290Y0184210D01*
X0246479Y0184758D01*
X0246681Y0185301D01*
X0246896Y0185840D01*
X0247125Y0186373D01*
X0247366Y0186900D01*
X0247620Y0187421D01*
X0247887Y0187935D01*
X0248167Y0188443D01*
X0248459Y0188944D01*
X0248763Y0189438D01*
X0249079Y0189924D01*
X0249407Y0190402D01*
X0249747Y0190872D01*
X0250098Y0191333D01*
X0250460Y0191786D01*
X0250833Y0192229D01*
X0251217Y0192664D01*
X0251612Y0193088D01*
X0252017Y0193503D01*
X0252432Y0193908D01*
X0252856Y0194303D01*
X0253291Y0194687D01*
X0253734Y0195060D01*
X0254187Y0195422D01*
X0254648Y0195773D01*
X0255118Y0196113D01*
X0255596Y0196441D01*
X0256082Y0196757D01*
X0256576Y0197061D01*
X0257077Y0197353D01*
X0257585Y0197633D01*
X0258099Y0197900D01*
X0258620Y0198154D01*
X0259147Y0198395D01*
X0259680Y0198624D01*
X0260219Y0198839D01*
X0260762Y0199041D01*
X0261310Y0199230D01*
X0261863Y0199405D01*
X0262420Y0199566D01*
X0262980Y0199714D01*
X0263544Y0199848D01*
X0264112Y0199968D01*
X0264682Y0200074D01*
X0265254Y0200166D01*
X0265828Y0200244D01*
X0266405Y0200308D01*
X0266982Y0200358D01*
X0267561Y0200394D01*
X0268140Y0200415D01*
X0268720Y0200422D01*
X0269300Y0200415D01*
X0269879Y0200394D01*
X0270458Y0200358D01*
X0271035Y0200308D01*
X0271612Y0200244D01*
X0272186Y0200166D01*
X0272758Y0200074D01*
X0273328Y0199968D01*
X0273896Y0199848D01*
X0274460Y0199714D01*
X0275020Y0199566D01*
X0275577Y0199405D01*
X0276130Y0199230D01*
X0276678Y0199041D01*
X0277221Y0198839D01*
X0277760Y0198624D01*
X0278293Y0198395D01*
X0278820Y0198154D01*
X0279341Y0197900D01*
X0279855Y0197633D01*
X0280363Y0197353D01*
X0280864Y0197061D01*
X0281358Y0196757D01*
X0281844Y0196441D01*
X0282322Y0196113D01*
X0282792Y0195773D01*
X0283253Y0195422D01*
X0283706Y0195060D01*
X0284149Y0194687D01*
X0284584Y0194303D01*
X0285008Y0193908D01*
X0285423Y0193503D01*
X0285828Y0193088D01*
X0286223Y0192664D01*
X0286607Y0192229D01*
X0286980Y0191786D01*
X0287342Y0191333D01*
X0287693Y0190872D01*
X0288033Y0190402D01*
X0288361Y0189924D01*
X0288677Y0189438D01*
X0288981Y0188944D01*
X0289273Y0188443D01*
X0289553Y0187935D01*
X0289820Y0187421D01*
X0290074Y0186900D01*
X0290315Y0186373D01*
X0290544Y0185840D01*
X0290759Y0185301D01*
X0290961Y0184758D01*
X0291150Y0184210D01*
X0291325Y0183657D01*
X0291486Y0183100D01*
X0291634Y0182540D01*
X0291768Y0181976D01*
X0291888Y0181408D01*
X0291994Y0180838D01*
X0292086Y0180266D01*
X0292164Y0179692D01*
X0292228Y0179115D01*
X0292278Y0178538D01*
X0292314Y0177959D01*
X0292335Y0177380D01*
X0292342Y0176800D01*
X0292335Y0176220D01*
X0292314Y0175641D01*
X0292278Y0175062D01*
X0292228Y0174485D01*
X0292164Y0173908D01*
X0292086Y0173334D01*
X0291994Y0172762D01*
X0291888Y0172192D01*
X0291768Y0171624D01*
X0291634Y0171060D01*
X0291486Y0170500D01*
X0291325Y0169943D01*
X0291150Y0169390D01*
X0290961Y0168842D01*
X0290759Y0168299D01*
X0290544Y0167760D01*
X0290315Y0167227D01*
X0290074Y0166700D01*
X0289820Y0166179D01*
X0289553Y0165665D01*
X0289273Y0165157D01*
X0288981Y0164656D01*
X0288677Y0164162D01*
X0288361Y0163676D01*
X0288033Y0163198D01*
X0287693Y0162728D01*
X0287342Y0162267D01*
X0286980Y0161814D01*
X0286607Y0161371D01*
X0286223Y0160936D01*
X0285828Y0160512D01*
X0285423Y0160097D01*
X0285008Y0159692D01*
X0284584Y0159297D01*
X0284149Y0158913D01*
X0283706Y0158540D01*
X0283253Y0158178D01*
X0282792Y0157827D01*
X0282322Y0157487D01*
X0281844Y0157159D01*
X0281358Y0156843D01*
X0280864Y0156539D01*
X0280363Y0156247D01*
X0279855Y0155967D01*
X0279341Y0155700D01*
X0278820Y0155446D01*
X0278293Y0155205D01*
X0277760Y0154976D01*
X0277221Y0154761D01*
X0276678Y0154559D01*
X0276130Y0154370D01*
X0275577Y0154195D01*
X0275020Y0154034D01*
X0274460Y0153886D01*
X0273896Y0153752D01*
X0273328Y0153632D01*
X0272758Y0153526D01*
X0272186Y0153434D01*
X0271612Y0153356D01*
X0271035Y0153292D01*
X0270458Y0153242D01*
X0269879Y0153206D01*
X0269300Y0153185D01*
X0268720Y0153178D01*
X0268140Y0153185D01*
X0267561Y0153206D01*
X0266982Y0153242D01*
X0266405Y0153292D01*
X0265828Y0153356D01*
X0265254Y0153434D01*
X0264682Y0153526D01*
X0264112Y0153632D01*
X0263544Y0153752D01*
X0262980Y0153886D01*
X0262420Y0154034D01*
X0261863Y0154195D01*
X0261310Y0154370D01*
X0260762Y0154559D01*
X0260219Y0154761D01*
X0259680Y0154976D01*
X0259147Y0155205D01*
X0258620Y0155446D01*
X0258099Y0155700D01*
X0257585Y0155967D01*
X0257077Y0156247D01*
X0256576Y0156539D01*
X0256082Y0156843D01*
X0255596Y0157159D01*
X0255118Y0157487D01*
X0254648Y0157827D01*
X0254187Y0158178D01*
X0253734Y0158540D01*
X0253291Y0158913D01*
X0252856Y0159297D01*
X0252432Y0159692D01*
X0252017Y0160097D01*
X0251612Y0160512D01*
X0251217Y0160936D01*
X0250833Y0161371D01*
X0250460Y0161814D01*
X0250098Y0162267D01*
X0249747Y0162728D01*
X0249407Y0163198D01*
X0249079Y0163676D01*
X0248763Y0164162D01*
X0248459Y0164656D01*
X0248167Y0165157D01*
X0247887Y0165665D01*
X0247620Y0166179D01*
X0247366Y0166700D01*
X0247125Y0167227D01*
X0246896Y0167760D01*
X0246681Y0168299D01*
X0246479Y0168842D01*
X0246290Y0169390D01*
X0246115Y0169943D01*
X0245954Y0170500D01*
X0245806Y0171060D01*
X0245672Y0171624D01*
X0245552Y0172192D01*
X0245446Y0172762D01*
X0245354Y0173334D01*
X0245276Y0173908D01*
X0245212Y0174485D01*
X0245162Y0175062D01*
X0245126Y0175641D01*
X0245105Y0176220D01*
X0245098Y0176800D01*
X0263602Y0126800D02*
X0263604Y0126943D01*
X0263610Y0127086D01*
X0263620Y0127228D01*
X0263634Y0127370D01*
X0263652Y0127512D01*
X0263674Y0127654D01*
X0263699Y0127794D01*
X0263729Y0127934D01*
X0263763Y0128073D01*
X0263800Y0128211D01*
X0263842Y0128348D01*
X0263887Y0128483D01*
X0263936Y0128617D01*
X0263988Y0128750D01*
X0264044Y0128882D01*
X0264104Y0129011D01*
X0264168Y0129139D01*
X0264235Y0129266D01*
X0264306Y0129390D01*
X0264380Y0129512D01*
X0264457Y0129632D01*
X0264538Y0129750D01*
X0264622Y0129866D01*
X0264709Y0129979D01*
X0264799Y0130090D01*
X0264893Y0130198D01*
X0264989Y0130304D01*
X0265088Y0130406D01*
X0265191Y0130506D01*
X0265295Y0130603D01*
X0265403Y0130698D01*
X0265513Y0130789D01*
X0265626Y0130877D01*
X0265741Y0130961D01*
X0265858Y0131043D01*
X0265978Y0131121D01*
X0266099Y0131196D01*
X0266223Y0131268D01*
X0266349Y0131336D01*
X0266476Y0131400D01*
X0266606Y0131461D01*
X0266737Y0131518D01*
X0266869Y0131572D01*
X0267003Y0131621D01*
X0267138Y0131668D01*
X0267275Y0131710D01*
X0267413Y0131748D01*
X0267551Y0131783D01*
X0267691Y0131813D01*
X0267831Y0131840D01*
X0267972Y0131863D01*
X0268114Y0131882D01*
X0268256Y0131897D01*
X0268399Y0131908D01*
X0268541Y0131915D01*
X0268684Y0131918D01*
X0268827Y0131917D01*
X0268970Y0131912D01*
X0269113Y0131903D01*
X0269255Y0131890D01*
X0269397Y0131873D01*
X0269538Y0131852D01*
X0269679Y0131827D01*
X0269819Y0131799D01*
X0269958Y0131766D01*
X0270096Y0131729D01*
X0270233Y0131689D01*
X0270369Y0131645D01*
X0270504Y0131597D01*
X0270637Y0131545D01*
X0270769Y0131490D01*
X0270899Y0131431D01*
X0271028Y0131368D01*
X0271154Y0131302D01*
X0271279Y0131232D01*
X0271402Y0131159D01*
X0271522Y0131083D01*
X0271641Y0131003D01*
X0271757Y0130919D01*
X0271871Y0130833D01*
X0271982Y0130743D01*
X0272091Y0130651D01*
X0272197Y0130555D01*
X0272301Y0130457D01*
X0272402Y0130355D01*
X0272499Y0130251D01*
X0272594Y0130144D01*
X0272686Y0130035D01*
X0272775Y0129923D01*
X0272861Y0129808D01*
X0272943Y0129692D01*
X0273022Y0129572D01*
X0273098Y0129451D01*
X0273170Y0129328D01*
X0273239Y0129203D01*
X0273304Y0129076D01*
X0273366Y0128947D01*
X0273424Y0128816D01*
X0273479Y0128684D01*
X0273529Y0128550D01*
X0273576Y0128415D01*
X0273620Y0128279D01*
X0273659Y0128142D01*
X0273694Y0128003D01*
X0273726Y0127864D01*
X0273754Y0127724D01*
X0273778Y0127583D01*
X0273798Y0127441D01*
X0273814Y0127299D01*
X0273826Y0127157D01*
X0273834Y0127014D01*
X0273838Y0126871D01*
X0273838Y0126729D01*
X0273834Y0126586D01*
X0273826Y0126443D01*
X0273814Y0126301D01*
X0273798Y0126159D01*
X0273778Y0126017D01*
X0273754Y0125876D01*
X0273726Y0125736D01*
X0273694Y0125597D01*
X0273659Y0125458D01*
X0273620Y0125321D01*
X0273576Y0125185D01*
X0273529Y0125050D01*
X0273479Y0124916D01*
X0273424Y0124784D01*
X0273366Y0124653D01*
X0273304Y0124524D01*
X0273239Y0124397D01*
X0273170Y0124272D01*
X0273098Y0124149D01*
X0273022Y0124028D01*
X0272943Y0123908D01*
X0272861Y0123792D01*
X0272775Y0123677D01*
X0272686Y0123565D01*
X0272594Y0123456D01*
X0272499Y0123349D01*
X0272402Y0123245D01*
X0272301Y0123143D01*
X0272197Y0123045D01*
X0272091Y0122949D01*
X0271982Y0122857D01*
X0271871Y0122767D01*
X0271757Y0122681D01*
X0271641Y0122597D01*
X0271522Y0122517D01*
X0271402Y0122441D01*
X0271279Y0122368D01*
X0271154Y0122298D01*
X0271028Y0122232D01*
X0270899Y0122169D01*
X0270769Y0122110D01*
X0270637Y0122055D01*
X0270504Y0122003D01*
X0270369Y0121955D01*
X0270233Y0121911D01*
X0270096Y0121871D01*
X0269958Y0121834D01*
X0269819Y0121801D01*
X0269679Y0121773D01*
X0269538Y0121748D01*
X0269397Y0121727D01*
X0269255Y0121710D01*
X0269113Y0121697D01*
X0268970Y0121688D01*
X0268827Y0121683D01*
X0268684Y0121682D01*
X0268541Y0121685D01*
X0268399Y0121692D01*
X0268256Y0121703D01*
X0268114Y0121718D01*
X0267972Y0121737D01*
X0267831Y0121760D01*
X0267691Y0121787D01*
X0267551Y0121817D01*
X0267413Y0121852D01*
X0267275Y0121890D01*
X0267138Y0121932D01*
X0267003Y0121979D01*
X0266869Y0122028D01*
X0266737Y0122082D01*
X0266606Y0122139D01*
X0266476Y0122200D01*
X0266349Y0122264D01*
X0266223Y0122332D01*
X0266099Y0122404D01*
X0265978Y0122479D01*
X0265858Y0122557D01*
X0265741Y0122639D01*
X0265626Y0122723D01*
X0265513Y0122811D01*
X0265403Y0122902D01*
X0265295Y0122997D01*
X0265191Y0123094D01*
X0265088Y0123194D01*
X0264989Y0123296D01*
X0264893Y0123402D01*
X0264799Y0123510D01*
X0264709Y0123621D01*
X0264622Y0123734D01*
X0264538Y0123850D01*
X0264457Y0123968D01*
X0264380Y0124088D01*
X0264306Y0124210D01*
X0264235Y0124334D01*
X0264168Y0124461D01*
X0264104Y0124589D01*
X0264044Y0124718D01*
X0263988Y0124850D01*
X0263936Y0124983D01*
X0263887Y0125117D01*
X0263842Y0125252D01*
X0263800Y0125389D01*
X0263763Y0125527D01*
X0263729Y0125666D01*
X0263699Y0125806D01*
X0263674Y0125946D01*
X0263652Y0126088D01*
X0263634Y0126230D01*
X0263620Y0126372D01*
X0263610Y0126514D01*
X0263604Y0126657D01*
X0263602Y0126800D01*
X0245098Y0126800D02*
X0245105Y0127380D01*
X0245126Y0127959D01*
X0245162Y0128538D01*
X0245212Y0129115D01*
X0245276Y0129692D01*
X0245354Y0130266D01*
X0245446Y0130838D01*
X0245552Y0131408D01*
X0245672Y0131976D01*
X0245806Y0132540D01*
X0245954Y0133100D01*
X0246115Y0133657D01*
X0246290Y0134210D01*
X0246479Y0134758D01*
X0246681Y0135301D01*
X0246896Y0135840D01*
X0247125Y0136373D01*
X0247366Y0136900D01*
X0247620Y0137421D01*
X0247887Y0137935D01*
X0248167Y0138443D01*
X0248459Y0138944D01*
X0248763Y0139438D01*
X0249079Y0139924D01*
X0249407Y0140402D01*
X0249747Y0140872D01*
X0250098Y0141333D01*
X0250460Y0141786D01*
X0250833Y0142229D01*
X0251217Y0142664D01*
X0251612Y0143088D01*
X0252017Y0143503D01*
X0252432Y0143908D01*
X0252856Y0144303D01*
X0253291Y0144687D01*
X0253734Y0145060D01*
X0254187Y0145422D01*
X0254648Y0145773D01*
X0255118Y0146113D01*
X0255596Y0146441D01*
X0256082Y0146757D01*
X0256576Y0147061D01*
X0257077Y0147353D01*
X0257585Y0147633D01*
X0258099Y0147900D01*
X0258620Y0148154D01*
X0259147Y0148395D01*
X0259680Y0148624D01*
X0260219Y0148839D01*
X0260762Y0149041D01*
X0261310Y0149230D01*
X0261863Y0149405D01*
X0262420Y0149566D01*
X0262980Y0149714D01*
X0263544Y0149848D01*
X0264112Y0149968D01*
X0264682Y0150074D01*
X0265254Y0150166D01*
X0265828Y0150244D01*
X0266405Y0150308D01*
X0266982Y0150358D01*
X0267561Y0150394D01*
X0268140Y0150415D01*
X0268720Y0150422D01*
X0269300Y0150415D01*
X0269879Y0150394D01*
X0270458Y0150358D01*
X0271035Y0150308D01*
X0271612Y0150244D01*
X0272186Y0150166D01*
X0272758Y0150074D01*
X0273328Y0149968D01*
X0273896Y0149848D01*
X0274460Y0149714D01*
X0275020Y0149566D01*
X0275577Y0149405D01*
X0276130Y0149230D01*
X0276678Y0149041D01*
X0277221Y0148839D01*
X0277760Y0148624D01*
X0278293Y0148395D01*
X0278820Y0148154D01*
X0279341Y0147900D01*
X0279855Y0147633D01*
X0280363Y0147353D01*
X0280864Y0147061D01*
X0281358Y0146757D01*
X0281844Y0146441D01*
X0282322Y0146113D01*
X0282792Y0145773D01*
X0283253Y0145422D01*
X0283706Y0145060D01*
X0284149Y0144687D01*
X0284584Y0144303D01*
X0285008Y0143908D01*
X0285423Y0143503D01*
X0285828Y0143088D01*
X0286223Y0142664D01*
X0286607Y0142229D01*
X0286980Y0141786D01*
X0287342Y0141333D01*
X0287693Y0140872D01*
X0288033Y0140402D01*
X0288361Y0139924D01*
X0288677Y0139438D01*
X0288981Y0138944D01*
X0289273Y0138443D01*
X0289553Y0137935D01*
X0289820Y0137421D01*
X0290074Y0136900D01*
X0290315Y0136373D01*
X0290544Y0135840D01*
X0290759Y0135301D01*
X0290961Y0134758D01*
X0291150Y0134210D01*
X0291325Y0133657D01*
X0291486Y0133100D01*
X0291634Y0132540D01*
X0291768Y0131976D01*
X0291888Y0131408D01*
X0291994Y0130838D01*
X0292086Y0130266D01*
X0292164Y0129692D01*
X0292228Y0129115D01*
X0292278Y0128538D01*
X0292314Y0127959D01*
X0292335Y0127380D01*
X0292342Y0126800D01*
X0292335Y0126220D01*
X0292314Y0125641D01*
X0292278Y0125062D01*
X0292228Y0124485D01*
X0292164Y0123908D01*
X0292086Y0123334D01*
X0291994Y0122762D01*
X0291888Y0122192D01*
X0291768Y0121624D01*
X0291634Y0121060D01*
X0291486Y0120500D01*
X0291325Y0119943D01*
X0291150Y0119390D01*
X0290961Y0118842D01*
X0290759Y0118299D01*
X0290544Y0117760D01*
X0290315Y0117227D01*
X0290074Y0116700D01*
X0289820Y0116179D01*
X0289553Y0115665D01*
X0289273Y0115157D01*
X0288981Y0114656D01*
X0288677Y0114162D01*
X0288361Y0113676D01*
X0288033Y0113198D01*
X0287693Y0112728D01*
X0287342Y0112267D01*
X0286980Y0111814D01*
X0286607Y0111371D01*
X0286223Y0110936D01*
X0285828Y0110512D01*
X0285423Y0110097D01*
X0285008Y0109692D01*
X0284584Y0109297D01*
X0284149Y0108913D01*
X0283706Y0108540D01*
X0283253Y0108178D01*
X0282792Y0107827D01*
X0282322Y0107487D01*
X0281844Y0107159D01*
X0281358Y0106843D01*
X0280864Y0106539D01*
X0280363Y0106247D01*
X0279855Y0105967D01*
X0279341Y0105700D01*
X0278820Y0105446D01*
X0278293Y0105205D01*
X0277760Y0104976D01*
X0277221Y0104761D01*
X0276678Y0104559D01*
X0276130Y0104370D01*
X0275577Y0104195D01*
X0275020Y0104034D01*
X0274460Y0103886D01*
X0273896Y0103752D01*
X0273328Y0103632D01*
X0272758Y0103526D01*
X0272186Y0103434D01*
X0271612Y0103356D01*
X0271035Y0103292D01*
X0270458Y0103242D01*
X0269879Y0103206D01*
X0269300Y0103185D01*
X0268720Y0103178D01*
X0268140Y0103185D01*
X0267561Y0103206D01*
X0266982Y0103242D01*
X0266405Y0103292D01*
X0265828Y0103356D01*
X0265254Y0103434D01*
X0264682Y0103526D01*
X0264112Y0103632D01*
X0263544Y0103752D01*
X0262980Y0103886D01*
X0262420Y0104034D01*
X0261863Y0104195D01*
X0261310Y0104370D01*
X0260762Y0104559D01*
X0260219Y0104761D01*
X0259680Y0104976D01*
X0259147Y0105205D01*
X0258620Y0105446D01*
X0258099Y0105700D01*
X0257585Y0105967D01*
X0257077Y0106247D01*
X0256576Y0106539D01*
X0256082Y0106843D01*
X0255596Y0107159D01*
X0255118Y0107487D01*
X0254648Y0107827D01*
X0254187Y0108178D01*
X0253734Y0108540D01*
X0253291Y0108913D01*
X0252856Y0109297D01*
X0252432Y0109692D01*
X0252017Y0110097D01*
X0251612Y0110512D01*
X0251217Y0110936D01*
X0250833Y0111371D01*
X0250460Y0111814D01*
X0250098Y0112267D01*
X0249747Y0112728D01*
X0249407Y0113198D01*
X0249079Y0113676D01*
X0248763Y0114162D01*
X0248459Y0114656D01*
X0248167Y0115157D01*
X0247887Y0115665D01*
X0247620Y0116179D01*
X0247366Y0116700D01*
X0247125Y0117227D01*
X0246896Y0117760D01*
X0246681Y0118299D01*
X0246479Y0118842D01*
X0246290Y0119390D01*
X0246115Y0119943D01*
X0245954Y0120500D01*
X0245806Y0121060D01*
X0245672Y0121624D01*
X0245552Y0122192D01*
X0245446Y0122762D01*
X0245354Y0123334D01*
X0245276Y0123908D01*
X0245212Y0124485D01*
X0245162Y0125062D01*
X0245126Y0125641D01*
X0245105Y0126220D01*
X0245098Y0126800D01*
X0245456Y0082237D02*
X0224983Y0082237D01*
X0224983Y0081922D01*
X0245456Y0039678D02*
X0245456Y0034363D01*
X0224983Y0034363D01*
X0224983Y0034560D02*
X0224983Y0036528D01*
D14*
X0148720Y0035146D02*
X0148720Y0056800D01*
X0075294Y0056800D01*
X0075294Y0035146D01*
X0075294Y0027784D02*
X0148720Y0027784D01*
X0276220Y0139300D02*
X0276220Y0141800D01*
X0273720Y0141800D01*
X0276220Y0141800D02*
X0278720Y0141800D01*
X0276220Y0141800D02*
X0276220Y0144300D01*
D15*
X0059999Y0188300D02*
X0060001Y0188339D01*
X0060007Y0188378D01*
X0060017Y0188416D01*
X0060030Y0188453D01*
X0060047Y0188488D01*
X0060067Y0188522D01*
X0060091Y0188553D01*
X0060118Y0188582D01*
X0060147Y0188608D01*
X0060179Y0188631D01*
X0060213Y0188651D01*
X0060249Y0188667D01*
X0060286Y0188679D01*
X0060325Y0188688D01*
X0060364Y0188693D01*
X0060403Y0188694D01*
X0060442Y0188691D01*
X0060481Y0188684D01*
X0060518Y0188673D01*
X0060555Y0188659D01*
X0060590Y0188641D01*
X0060623Y0188620D01*
X0060654Y0188595D01*
X0060682Y0188568D01*
X0060707Y0188538D01*
X0060729Y0188505D01*
X0060748Y0188471D01*
X0060763Y0188435D01*
X0060775Y0188397D01*
X0060783Y0188359D01*
X0060787Y0188320D01*
X0060787Y0188280D01*
X0060783Y0188241D01*
X0060775Y0188203D01*
X0060763Y0188165D01*
X0060748Y0188129D01*
X0060729Y0188095D01*
X0060707Y0188062D01*
X0060682Y0188032D01*
X0060654Y0188005D01*
X0060623Y0187980D01*
X0060590Y0187959D01*
X0060555Y0187941D01*
X0060518Y0187927D01*
X0060481Y0187916D01*
X0060442Y0187909D01*
X0060403Y0187906D01*
X0060364Y0187907D01*
X0060325Y0187912D01*
X0060286Y0187921D01*
X0060249Y0187933D01*
X0060213Y0187949D01*
X0060179Y0187969D01*
X0060147Y0187992D01*
X0060118Y0188018D01*
X0060091Y0188047D01*
X0060067Y0188078D01*
X0060047Y0188112D01*
X0060030Y0188147D01*
X0060017Y0188184D01*
X0060007Y0188222D01*
X0060001Y0188261D01*
X0059999Y0188300D01*
X0060731Y0080024D02*
X0060731Y0070576D01*
X0049708Y0070576D02*
X0049708Y0070182D01*
X0049708Y0080024D02*
X0049708Y0080418D01*
D16*
X0173520Y0071745D02*
X0173522Y0071816D01*
X0173528Y0071887D01*
X0173538Y0071958D01*
X0173552Y0072028D01*
X0173569Y0072097D01*
X0173591Y0072165D01*
X0173616Y0072231D01*
X0173645Y0072297D01*
X0173677Y0072360D01*
X0173713Y0072422D01*
X0173752Y0072481D01*
X0173795Y0072538D01*
X0173841Y0072593D01*
X0173889Y0072645D01*
X0173941Y0072695D01*
X0173995Y0072741D01*
X0174051Y0072784D01*
X0174110Y0072824D01*
X0174171Y0072861D01*
X0174234Y0072894D01*
X0174299Y0072924D01*
X0174365Y0072950D01*
X0174433Y0072973D01*
X0174502Y0072991D01*
X0174572Y0073006D01*
X0174642Y0073017D01*
X0174713Y0073024D01*
X0174784Y0073027D01*
X0174855Y0073026D01*
X0174927Y0073021D01*
X0174997Y0073012D01*
X0175067Y0072999D01*
X0175137Y0072983D01*
X0175205Y0072962D01*
X0175272Y0072938D01*
X0175338Y0072910D01*
X0175401Y0072878D01*
X0175463Y0072843D01*
X0175523Y0072805D01*
X0175581Y0072763D01*
X0175637Y0072718D01*
X0175689Y0072670D01*
X0175739Y0072619D01*
X0175787Y0072566D01*
X0175831Y0072510D01*
X0175872Y0072452D01*
X0175909Y0072391D01*
X0175943Y0072329D01*
X0175974Y0072264D01*
X0176001Y0072198D01*
X0176025Y0072131D01*
X0176044Y0072062D01*
X0176060Y0071993D01*
X0176072Y0071923D01*
X0176080Y0071852D01*
X0176084Y0071781D01*
X0176084Y0071709D01*
X0176080Y0071638D01*
X0176072Y0071567D01*
X0176060Y0071497D01*
X0176044Y0071428D01*
X0176025Y0071359D01*
X0176001Y0071292D01*
X0175974Y0071226D01*
X0175943Y0071161D01*
X0175909Y0071099D01*
X0175872Y0071038D01*
X0175831Y0070980D01*
X0175787Y0070924D01*
X0175739Y0070871D01*
X0175689Y0070820D01*
X0175637Y0070772D01*
X0175581Y0070727D01*
X0175523Y0070685D01*
X0175463Y0070647D01*
X0175401Y0070612D01*
X0175338Y0070580D01*
X0175272Y0070552D01*
X0175205Y0070528D01*
X0175137Y0070507D01*
X0175067Y0070491D01*
X0174997Y0070478D01*
X0174927Y0070469D01*
X0174855Y0070464D01*
X0174784Y0070463D01*
X0174713Y0070466D01*
X0174642Y0070473D01*
X0174572Y0070484D01*
X0174502Y0070499D01*
X0174433Y0070517D01*
X0174365Y0070540D01*
X0174299Y0070566D01*
X0174234Y0070596D01*
X0174171Y0070629D01*
X0174110Y0070666D01*
X0174051Y0070706D01*
X0173995Y0070749D01*
X0173941Y0070795D01*
X0173889Y0070845D01*
X0173841Y0070897D01*
X0173795Y0070952D01*
X0173752Y0071009D01*
X0173713Y0071068D01*
X0173677Y0071130D01*
X0173645Y0071193D01*
X0173616Y0071259D01*
X0173591Y0071325D01*
X0173569Y0071393D01*
X0173552Y0071462D01*
X0173538Y0071532D01*
X0173528Y0071603D01*
X0173522Y0071674D01*
X0173520Y0071745D01*
X0115019Y0190501D02*
X0113641Y0190501D01*
X0115019Y0190501D02*
X0115019Y0191879D01*
X0103798Y0190501D02*
X0102420Y0190501D01*
X0102420Y0191879D01*
X0102420Y0201721D02*
X0102420Y0203099D01*
X0103798Y0203099D01*
X0113641Y0203099D02*
X0115019Y0201721D01*
D17*
X0211515Y0196288D02*
X0211517Y0196344D01*
X0211523Y0196399D01*
X0211533Y0196453D01*
X0211546Y0196507D01*
X0211564Y0196560D01*
X0211585Y0196611D01*
X0211609Y0196661D01*
X0211637Y0196709D01*
X0211669Y0196755D01*
X0211703Y0196799D01*
X0211741Y0196840D01*
X0211781Y0196878D01*
X0211824Y0196913D01*
X0211869Y0196945D01*
X0211917Y0196974D01*
X0211966Y0197000D01*
X0212017Y0197022D01*
X0212069Y0197040D01*
X0212123Y0197054D01*
X0212178Y0197065D01*
X0212233Y0197072D01*
X0212288Y0197075D01*
X0212344Y0197074D01*
X0212399Y0197069D01*
X0212454Y0197060D01*
X0212508Y0197048D01*
X0212561Y0197031D01*
X0212613Y0197011D01*
X0212663Y0196987D01*
X0212711Y0196960D01*
X0212758Y0196930D01*
X0212802Y0196896D01*
X0212844Y0196859D01*
X0212882Y0196819D01*
X0212919Y0196777D01*
X0212952Y0196732D01*
X0212981Y0196686D01*
X0213008Y0196637D01*
X0213030Y0196586D01*
X0213050Y0196534D01*
X0213065Y0196480D01*
X0213077Y0196426D01*
X0213085Y0196371D01*
X0213089Y0196316D01*
X0213089Y0196260D01*
X0213085Y0196205D01*
X0213077Y0196150D01*
X0213065Y0196096D01*
X0213050Y0196042D01*
X0213030Y0195990D01*
X0213008Y0195939D01*
X0212981Y0195890D01*
X0212952Y0195844D01*
X0212919Y0195799D01*
X0212882Y0195757D01*
X0212844Y0195717D01*
X0212802Y0195680D01*
X0212758Y0195646D01*
X0212711Y0195616D01*
X0212663Y0195589D01*
X0212613Y0195565D01*
X0212561Y0195545D01*
X0212508Y0195528D01*
X0212454Y0195516D01*
X0212399Y0195507D01*
X0212344Y0195502D01*
X0212288Y0195501D01*
X0212233Y0195504D01*
X0212178Y0195511D01*
X0212123Y0195522D01*
X0212069Y0195536D01*
X0212017Y0195554D01*
X0211966Y0195576D01*
X0211917Y0195602D01*
X0211869Y0195631D01*
X0211824Y0195663D01*
X0211781Y0195698D01*
X0211741Y0195736D01*
X0211703Y0195777D01*
X0211669Y0195821D01*
X0211637Y0195867D01*
X0211609Y0195915D01*
X0211585Y0195965D01*
X0211564Y0196016D01*
X0211546Y0196069D01*
X0211533Y0196123D01*
X0211523Y0196177D01*
X0211517Y0196232D01*
X0211515Y0196288D01*
D18*
X0216716Y0040406D02*
X0216718Y0040462D01*
X0216724Y0040517D01*
X0216734Y0040571D01*
X0216747Y0040625D01*
X0216765Y0040678D01*
X0216786Y0040729D01*
X0216810Y0040779D01*
X0216838Y0040827D01*
X0216870Y0040873D01*
X0216904Y0040917D01*
X0216942Y0040958D01*
X0216982Y0040996D01*
X0217025Y0041031D01*
X0217070Y0041063D01*
X0217118Y0041092D01*
X0217167Y0041118D01*
X0217218Y0041140D01*
X0217270Y0041158D01*
X0217324Y0041172D01*
X0217379Y0041183D01*
X0217434Y0041190D01*
X0217489Y0041193D01*
X0217545Y0041192D01*
X0217600Y0041187D01*
X0217655Y0041178D01*
X0217709Y0041166D01*
X0217762Y0041149D01*
X0217814Y0041129D01*
X0217864Y0041105D01*
X0217912Y0041078D01*
X0217959Y0041048D01*
X0218003Y0041014D01*
X0218045Y0040977D01*
X0218083Y0040937D01*
X0218120Y0040895D01*
X0218153Y0040850D01*
X0218182Y0040804D01*
X0218209Y0040755D01*
X0218231Y0040704D01*
X0218251Y0040652D01*
X0218266Y0040598D01*
X0218278Y0040544D01*
X0218286Y0040489D01*
X0218290Y0040434D01*
X0218290Y0040378D01*
X0218286Y0040323D01*
X0218278Y0040268D01*
X0218266Y0040214D01*
X0218251Y0040160D01*
X0218231Y0040108D01*
X0218209Y0040057D01*
X0218182Y0040008D01*
X0218153Y0039962D01*
X0218120Y0039917D01*
X0218083Y0039875D01*
X0218045Y0039835D01*
X0218003Y0039798D01*
X0217959Y0039764D01*
X0217912Y0039734D01*
X0217864Y0039707D01*
X0217814Y0039683D01*
X0217762Y0039663D01*
X0217709Y0039646D01*
X0217655Y0039634D01*
X0217600Y0039625D01*
X0217545Y0039620D01*
X0217489Y0039619D01*
X0217434Y0039622D01*
X0217379Y0039629D01*
X0217324Y0039640D01*
X0217270Y0039654D01*
X0217218Y0039672D01*
X0217167Y0039694D01*
X0217118Y0039720D01*
X0217070Y0039749D01*
X0217025Y0039781D01*
X0216982Y0039816D01*
X0216942Y0039854D01*
X0216904Y0039895D01*
X0216870Y0039939D01*
X0216838Y0039985D01*
X0216810Y0040033D01*
X0216786Y0040083D01*
X0216765Y0040134D01*
X0216747Y0040187D01*
X0216734Y0040241D01*
X0216724Y0040295D01*
X0216718Y0040350D01*
X0216716Y0040406D01*
D19*
X0115594Y0203674D03*
M02*
