%
M48
M72
T01C0.01378
T02C0.03150
T03C0.03543
T04C0.04213
T05C0.04724
T06C0.12205
%
T01
X62320Y230700
X58620Y201900
X58620Y191900
X77076Y189743
X77120Y182000
X80420Y178889
X85820Y179700
X85820Y188100
X95320Y182900
X100220Y178911
X100435Y189515
X96331Y200500
X94931Y204078
X92700Y206907
X96320Y214000
X83620Y211900
X83620Y206900
X118820Y216500
X113720Y206800
X125820Y204700
X138720Y206800
X148720Y206800
X152220Y197800
X158720Y206800
X168720Y206800
X178820Y204900
X178720Y196600
X179020Y188900
X184320Y184000
X191070Y183651
X193981Y186100
X199820Y171000
X204720Y163400
X208720Y169100
X212625Y173102
X224220Y174300
X235320Y173900
X247731Y165900
X245995Y162576
X238831Y157749
X236720Y154300
X239831Y150371
X239831Y146793
X243620Y144300
X243320Y130500
X234020Y120700
X228020Y120700
X223720Y127635
X213420Y119400
X209220Y123300
X205620Y121400
X213520Y114200
X213520Y109200
X204720Y111800
X194220Y111800
X194220Y103000
X184220Y103000
X176452Y121539
X180430Y125339
X173163Y127836
X158081Y132100
X158320Y137300
X163320Y147300
X163320Y157300
X163320Y167300
X170363Y166800
X169620Y172300
X183720Y165800
X187398Y164400
X188120Y159300
X199720Y158400
X208320Y147300
X208620Y141800
X200109Y140896
X196880Y134740
X189720Y123400
X197520Y121800
X184720Y143400
X218720Y141800
X221220Y144378
X233920Y162500
X250720Y178300
X257209Y176300
X260786Y176300
X264364Y176300
X267942Y176300
X270220Y181800
X268520Y191700
X283620Y187400
X284220Y198800
X277920Y211100
X255760Y218740
X254120Y211600
X244520Y211200
X239720Y214300
X238742Y210722
X237342Y207144
X243820Y201400
X253820Y196200
X243720Y191800
X255518Y172589
X284020Y175900
X284220Y166800
X261620Y145300
X263820Y138100
X268720Y131400
X278720Y136400
X285120Y132300
X278520Y120200
X278720Y114000
X278520Y104200
X278520Y89200
X244820Y96900
X244820Y101900
X234820Y101900
X234820Y96900
X243320Y85200
X231020Y84700
X221209Y76800
X217920Y71500
X216520Y66400
X202720Y79800
X205013Y87811
X208591Y87811
X213520Y99200
X240420Y117800
X263520Y119200
X263520Y109200
X252072Y73169
X251420Y60700
X253820Y48522
X254275Y44944
X261250Y41400
X256612Y35262
X273720Y36800
X243720Y40758
X227220Y34589
X208720Y46700
X191520Y46500
X177420Y46500
X177620Y61700
X177420Y71100
X177120Y77500
X168720Y76700
X163520Y77400
X159220Y66800
X159220Y62800
X150220Y60900
X138720Y61000
X133720Y61000
X133720Y56000
X143720Y51000
X148220Y41000
X160120Y44900
X191320Y61500
X188720Y71700
X158820Y91700
X158620Y96500
X158620Y101500
X149259Y109060
X153720Y111800
X148720Y120300
X141720Y131699
X133820Y133000
X129309Y131800
X130720Y126300
X130420Y116700
X118720Y116800
X118620Y126500
X121220Y131800
X120877Y143957
X121609Y151500
X123620Y154500
X126220Y157189
X131820Y164500
X143520Y164000
X143520Y174300
X145420Y179500
X140420Y184500
X128820Y181500
X118620Y181400
X118220Y189800
X118020Y194400
X128720Y194300
X151109Y174291
X113720Y171100
X105820Y169700
X100820Y169700
X96420Y151100
X93620Y146900
X104620Y139000
X104420Y134539
X100420Y134600
X105620Y124300
X118120Y104100
X123020Y102600
X143620Y86500
X132631Y78731
X129053Y77989
X117820Y70400
X106220Y70600
X94320Y70400
X83820Y66800
X73820Y71800
X63820Y71800
X63820Y76800
X66820Y60000
X58720Y60000
X50720Y60000
X73820Y41800
X83820Y41800
X98420Y41500
X109620Y41300
X121220Y41400
X98620Y86500
X88820Y86700
X83620Y86500
X73820Y96800
X78820Y106800
X82020Y111172
X73620Y121200
X74620Y127389
X79709Y129989
X71420Y132300
X70220Y136500
X68820Y141800
X68820Y146800
X63820Y146800
X63820Y151800
X73820Y156800
X78820Y156800
X78820Y151800
X78820Y161800
X78820Y166800
X73820Y166800
X73820Y161800
X68820Y161800
X57020Y170000
X53820Y116800
X58820Y111800
X53820Y106800
X59959Y95560
X98620Y101500
X198620Y201900
X198620Y206900
X188720Y206700
X213620Y221900
X233620Y231900
X243620Y221900
X213620Y241900
X178620Y241900
X168620Y226900
X143820Y231500
X128820Y231500
X118820Y231500
X78720Y231500
X208620Y206900
X219720Y191300
X235220Y62000
T02
X268720Y161052
X268720Y200422
T03
X268720Y141761
X268720Y111839
T04
X76574Y31564
X88385Y35265
X88385Y47076
X100196Y47076
X112007Y47076
X123818Y47076
X135629Y47076
X135629Y35265
X147440Y31564
X123818Y35265
X112007Y35265
X100196Y35265
X264208Y33489
X267909Y45300
X279720Y45300
X279720Y57111
X267909Y57111
X267909Y68922
X279720Y68922
X279720Y80733
X267909Y80733
X264208Y92544
X198531Y220788
X186720Y224489
X186720Y236300
X174909Y236300
X163098Y236300
X163098Y224489
X174909Y224489
X151286Y224489
X139475Y220788
X151286Y236300
X109431Y220888
X97620Y224589
X97620Y236400
X85809Y236400
X73998Y236400
X73998Y224589
X85809Y224589
X62186Y224589
X50375Y220888
X62186Y236400
X226475Y221288
X238286Y224989
X250098Y224989
X261909Y224989
X273720Y224989
X273720Y236800
X261909Y236800
X250098Y236800
X238286Y236800
X285531Y221288
T05
X61909Y124910
X61909Y138690
T06
X71279Y203965
X232696Y137036
X71279Y85855
M30
